<svg height="21.804966mm" viewBox="0 0 53.554276 21.804966" width="53.554276mm" xmlns="http://www.w3.org/2000/svg"><g stroke="#000" transform="translate(-19.254782 -73.790893)"><path d="m20.037346 95.095859 9.634814-20.804966h15.728544l-1.136985 2.455152h-12.849923l-2.950908 6.372053h12.03382l-1.130416 2.440968h-12.033821l-3.279516 7.081634h13.354425l-1.136989 2.455159z"/><path d="m40.583312 95.095859 9.634814-20.804966h2.87862l-9.634814 20.804966z"/><path d="m48.20497 95.095859 9.634814-20.804966h8.205549q2.121871 0 3.216923.198677 1.492498.269646 2.232244.979228.756274.737969.8094 2.001026.06308 1.305629-.64672 2.838331-1.235568 2.668028-3.849131 4.498751-2.613563 1.830722-7.228252 1.830722h-5.579186l-3.91702 8.458231zm7.932626-10.913383h5.623698q2.804432 0 4.415291-.979227 1.632276-.993417 2.473515-2.809949.61121-1.31982.349269-2.228086-.278473-.936647-1.253322-1.234675-.626797-.184494-2.600287-.184494h-5.56434z"/></g></svg>