<svg xmlns="http://www.w3.org/2000/svg" viewBox="0 0 31.45 10.9"><g transform="translate(-117.35027 -201.87084)"><path d="m133.97154 207.88529-2.37222-2.37219h-2.69148l.94989-1.41972h6.63921l-2.84463-2.84469h-6.63917l-2.84212 4.26441 2.37233 2.37219h2.68368l-.9422 1.4224h-6.647l2.85249 2.84462h6.6366z" fill="none"/><path d="m132.48375 207.85646-2.36449-2.37219h-2.69152l.94989-1.41972h6.63932l-2.8447-2.84469h-6.63921l-2.84201 4.26441 2.37233 2.37219h2.68358l-.94989 1.4224h-6.63921l2.84462 2.84458h6.6366zm1.1109-2.37219h4.73671l-2.52543 3.79459h2.36453l-1.89212 2.84458h-4.73668l2.84198-4.26698-1.41968-1.41969z" fill="none"/><path d="m122.72547 201.87084h11.37589l-1.89209 2.84469h-6.63921l-.94999 1.41972h6.6367l-1.58059 2.37219h-6.63931l-.9422 1.4224h6.63141l2.8448 2.84458h-11.37609l-2.84452-2.84458zm12.32599 0-5.37549 8.059 2.84999 2.84458 5.37012-8.05889h4.272l-.94982 1.41979h-3.31978l-1.9613 2.9391 3.69778 3.7h4.27471l-4.27471-4.26698h4.73932l4.42528-6.6366z"/></g></svg>