<svg xmlns="http://www.w3.org/2000/svg" clip-rule="evenodd" fill-rule="evenodd" image-rendering="optimizeQuality" shape-rendering="geometricPrecision" text-rendering="geometricPrecision" viewBox="0.68 0.85 16.68 8.36"><path d="m4.3579 4.9781c-.4772 2.8024.6168 4.1979 3.1041 4.2241.8818.0092 1.8783-.2956 1.9975-.3663l.229-1.2432c-.555.1967-1.0499.3536-1.7118.3412-.8359-.0157-1.6762-.2365-1.6981-1.7361-.0315-2.1452.7768-3.9344 2.7285-3.9707.6681-.0125.9846.1048 1.5886.3435l.241-1.3081c-.4988-.2078-.8895-.3933-2.0459-.4144-2.4648-.0449-4.0281 1.7523-4.4329 4.13zm-3.6799 4.12 1.9109-.0011 1.4863-8.0684h-1.9371zm11.2907-8.0695-1.5412 8.0695 5.6172-.0006.2395-1.3003h-3.7164l.337-2.0365 2.7499.0005.2488-1.3508-2.7181-.0018.4078-1.9854 3.5066-.0002.2568-1.3943-5.3879-.0001z"/></svg>