<svg height="10.90358mm" viewBox="0 0 24.81467 10.90358" width="24.814671mm" xmlns="http://www.w3.org/2000/svg"><g transform="translate(-116.77469 -200.95476)"><path d="m133.97154 207.88529-2.37222-2.37219h-2.69148l.94989-1.41972h6.63921l-2.84463-2.84469h-6.63917l-2.84212 4.26441 2.37233 2.37219h2.68368l-.9422 1.4224h-6.647l2.85249 2.84462h6.6366z" fill="none"/><path d="m132.48375 207.85646-2.36449-2.37219h-2.69152l.94989-1.41972h6.63932l-2.8447-2.84469h-6.63921l-2.84201 4.26441 2.37233 2.37219h2.68358l-.94989 1.4224h-6.63921l2.84462 2.84458h6.6366zm1.1109-2.37219h4.73671l-2.52543 3.79459h2.36453l-1.89212 2.84458h-4.73668l2.84198-4.26698-1.41968-1.41969z" fill="none"/><path d="m116.77469 209.01376 5.3752-8.059h4.74458l-7.27509 10.90358zm11.0665-8.059-7.27012 10.90358h4.74472l5.36999-8.05889h4.27199l-.94978 1.41979h-3.31971l-1.9613 2.9391 3.69771 3.7h4.27478l-4.27478-4.26698h4.73939l4.42528-6.6366z"/></g></svg>