<svg xmlns="http://www.w3.org/2000/svg" viewBox="24.35 200 359.89 100">
  <path d="M 244.644 116.471 L 244.644 191.594 L 238.053 191.594 L 238.053 116.471 Z M 239.053 190.594 L 243.644 190.594 L 243.644 117.471 L 239.053 117.471 Z" style="fill: none;" transform="matrix(0.831912, 0.554907, -0.554907, 0.831912, 126.041435, -108.035027)"/>
  <g transform="matrix(1, 0, 0, 1, -59.611755, 110.78109)">
    <path d="m133.97154 207.88529-2.37222-2.37219h-2.69148l.94989-1.41972h6.63921l-2.84463-2.84469h-6.63917l-2.84212 4.26441 2.37233 2.37219h2.68368l-.9422 1.4224h-6.647l2.85249 2.84462h6.6366z" fill="none"/>
    <path d="m132.48375 207.85646-2.36449-2.37219h-2.69152l.94989-1.41972h6.63932l-2.8447-2.84469h-6.63921l-2.84201 4.26441 2.37233 2.37219h2.68358l-.94989 1.4224h-6.63921l2.84462 2.84458h6.6366zm1.1109-2.37219h4.73671l-2.52543 3.79459h2.36453l-1.89212 2.84458h-4.73668l2.84198-4.26698-1.41968-1.41969z" fill="none"/>
  </g>
  <path d="M 286.248 299.97 L 286.89 231.27 L 240.272 300.002 L 209.528 300.002 L 276.158 200.002 L 307.201 200.002 L 305.744 272.255 L 353.777 200.002 L 384.242 200.002 L 317.377 300.002 L 286.248 299.97 Z" style=""/>
  <g transform="matrix(9.165057, 0, 0, 9.165057, -1045.89502, -1641.759888)" style="">
    <path d="m133.97154 207.88529-2.37222-2.37219h-2.69148l.94989-1.41972h6.63921l-2.84463-2.84469h-6.63917l-2.84212 4.26441 2.37233 2.37219h2.68368l-.9422 1.4224h-6.647l2.85249 2.84462h6.6366z" fill="none"/>
    <path d="m132.48375 207.85646-2.36449-2.37219h-2.69152l.94989-1.41972h6.63932l-2.8447-2.84469h-6.63921l-2.84201 4.26441 2.37233 2.37219h2.68358l-.94989 1.4224h-6.63921l2.84462 2.84458h6.6366zm1.1109-2.37219h4.73671l-2.52543 3.79459h2.36453l-1.89212 2.84458h-4.73668l2.84198-4.26698-1.41968-1.41969z" fill="none"/>
    <path d="m116.77469 209.01376 5.3752-8.059h4.74458l-7.27509 10.90358zm11.0665-8.059-7.27012 10.90358h4.74472l5.36999-8.05889h4.27199l-.94978 1.41979h-3.31971l-1.9613 2.9391 3.69771 3.7h4.27478l-4.27478-4.26698h4.73939l4.42528-6.6366z"/>
  </g>
</svg>