<svg xmlns="http://www.w3.org/2000/svg" viewBox="3.8 0 21.02 10.9">
  <g transform="matrix(1, 0, 0, 1, -116.774689, -200.954758)">
    <path d="m133.97154 207.88529-2.37222-2.37219h-2.69148l.94989-1.41972h6.63921l-2.84463-2.84469h-6.63917l-2.84212 4.26441 2.37233 2.37219h2.68368l-.9422 1.4224h-6.647l2.85249 2.84462h6.6366z" fill="none"/>
    <path d="m132.48375 207.85646-2.36449-2.37219h-2.69152l.94989-1.41972h6.63932l-2.8447-2.84469h-6.63921l-2.84201 4.26441 2.37233 2.37219h2.68358l-.94989 1.4224h-6.63921l2.84462 2.84458h6.6366zm1.1109-2.37219h4.73671l-2.52543 3.79459h2.36453l-1.89212 2.84458h-4.73668l2.84198-4.26698-1.41968-1.41969z" fill="none"/>
    <path d="M 127.84119000000001 200.95476 L 120.57107 211.85834 L 125.31579 211.85834 L 130.68578 203.79945 L 134.95776999999998 203.79945 L 134.00798999999998 205.21924 L 130.68828 205.21924 L 128.72698 208.15834 L 132.42469 211.85834 L 136.69947 211.85834 L 132.42469 207.59136 L 137.16408 207.59136 L 141.58936 200.95476000000002 L 127.84119000000001 200.95476 Z"/>
  </g>
</svg>