<svg xmlns="http://www.w3.org/2000/svg" viewBox="60.17 100 393.55 100">
  <g transform="matrix(8.245899, 0, 0, 8.245899, -857.987732, -1529.733765)" style="">
    <path d="m133.97154 207.88529-2.37222-2.37219h-2.69148l.94989-1.41972h6.63921l-2.84463-2.84469h-6.63917l-2.84212 4.26441 2.37233 2.37219h2.68368l-.9422 1.4224h-6.647l2.85249 2.84462h6.6366z" fill="none"/>
    <path d="m132.48375 207.85646-2.36449-2.37219h-2.69152l.94989-1.41972h6.63932l-2.8447-2.84469h-6.63921l-2.84201 4.26441 2.37233 2.37219h2.68358l-.94989 1.4224h-6.63921l2.84462 2.84458h6.6366zm1.1109-2.37219h4.73671l-2.52543 3.79459h2.36453l-1.89212 2.84458h-4.73668l2.84198-4.26698-1.41968-1.41969z" fill="none"/>
    <g transform="matrix(0.121272, 0, 0, 0.121272, 100.578511, 178.238709)">
      <path d="m133.97154 207.88529-2.37222-2.37219h-2.69148l.94989-1.41972h6.63921l-2.84463-2.84469h-6.63917l-2.84212 4.26441 2.37233 2.37219h2.68368l-.9422 1.4224h-6.647l2.85249 2.84462h6.6366z" fill="none"/>
      <path d="m132.48375 207.85646-2.36449-2.37219h-2.69152l.94989-1.41972h6.63932l-2.8447-2.84469h-6.63921l-2.84201 4.26441 2.37233 2.37219h2.68358l-.94989 1.4224h-6.63921l2.84462 2.84458h6.6366zm1.1109-2.37219h4.73671l-2.52543 3.79459h2.36453l-1.89212 2.84458h-4.73668l2.84198-4.26698-1.41968-1.41969z" fill="none"/>
      <path d="M 155.474 159.996 L 88.797 259.996 L 132.313 259.996 L 181.562 186.085 L 214.742 186.085 L 206.031 199.106 L 181.586 199.106 L 163.598 226.061 L 197.511 259.996 L 236.716 259.996 L 197.511 220.861 L 220.976 220.861 L 261.563 159.996 L 155.474 159.996 Z" style=""/>
    </g>
  </g>
  <g transform="matrix(1.111625, 0, 0, 1.111625, 72.027061, -104.764618)" style="">
    <path d="m151.75574 184.20295h93.85471l-15.61034 23.46993h-54.7756l-7.83689 11.71281h54.75406l-13.0412 19.57157h-54.77468l-7.77345 11.73525h54.71091l-15.63188 23.46877h-54.75398l-23.46877-23.46877zm78.24437 35.18274 18.75775 27.43057-55.26714 27.34502h39.07936l26.08099-12.9341 8.86488 12.9341h39.31508l-18.86518-27.40929 55.39701-27.3663h-39.1009l-26.20961 12.99755-8.97288-12.99755z"/>
    <path d="m151.75574 184.20295h93.85471l-15.61034 23.46993h-54.7756l-7.83689 11.71281h54.75406l-13.0412 19.57157h-54.77468l-7.77345 11.73525h54.71091l-15.63188 23.46877h-54.75398l-23.46877-23.46877zm78.24437 35.18274 18.75775 27.43057-55.26714 27.34502h39.07936l26.08099-12.9341 8.86488 12.9341h39.31508l-18.86518-27.40929 55.39701-27.3663h-39.1009l-26.20961 12.99755-8.97288-12.99755z"/>
  </g>
  <path d="M 244.644 116.471 L 244.644 191.594 L 238.053 191.594 L 238.053 116.471 Z M 239.053 190.594 L 243.644 190.594 L 243.644 117.471 L 239.053 117.471 Z" style="fill: none;" transform="matrix(0.831912, 0.554907, -0.554907, 0.831912, 126.041435, -108.035027)"/>
</svg>