<svg xmlns="http://www.w3.org/2000/svg" viewBox="0 0 189.42 89.96"><path d="m362.21617 199.64279c-.97155 4.29887-10.15974 8.20838-20.81878 8.20838-2.86346-.0133-4.62798-.7078-4.44126-1.51996l15.15274-67.17413c.19192-.68895 2.27694-1.52396 5.19445-1.52396h13.90546c3.07451 0 4.81103.84294 4.65237 1.52396zm103.68181-12.7392-18.33473-25.40891 25.07953-21.97717c1.34277-1.2854-.93024-1.62724-2.6533-1.62065h-17.27409c-2.76518.02-3.62485.40915-5.2349 1.62065l-16.23971 14.17667c-.87686.73299-1.4234.62237-2.0078 0l-10.00061-14.17667c-1.09802-1.21137-1.79123-1.60112-4.54988-1.62065h-17.27336c-1.7264-.007-4.14601.33518-3.34045 1.62065l15.6062 21.97111-28.97658 25.41497c-1.33877 1.27927.93157 1.62651 2.6561 1.61451l17.28209.005c2.75998-.02 3.61945-.40914 5.2295-1.62038l20.16715-17.59661c.69367-.62038 1.49483-.62038 1.95322 0l12.74534 17.59661c1.09615 1.21137 1.79316 1.60252 4.55061 1.62038l17.27456-.005c1.71934.0133 4.14201-.33517 3.34111-1.61451zm-129.12857-49.25308c3.09596 0 4.8125.84554 4.69262 1.53929l-1.93796 8.58187c-.25855 1.15826-3.58747 1.64463-5.40742 1.63404h-12.57282c-2.72879.005-5.61339.78563-5.91664 2.12414l-8.03746 35.60763c-.25655 1.158-3.58447 1.64503-5.40489 1.63517h-14.12476c-2.91797-.0133-4.60252-.80489-4.41328-1.63517l10.8163-47.94908c.17792-.78304 2.29294-1.54069 5.23563-1.54069l37.07068.002zm39.02711-19.75767c2.90078 0 4.6439.82961 4.48664 1.53342l-1.92317 8.50737c-.25655 1.15074-3.55954 1.63331-5.36064 1.62251h-14.01028c-2.89592-.0133-4.54595-.88765-4.38136-1.62251l1.91918-8.50737c.18858-.69441 2.27107-1.53342 5.19091-1.53342z" transform="translate(-283.63238 -117.89284)"/></svg>