<svg xmlns="http://www.w3.org/2000/svg" enable-background="new 0 0 86.82 86.82" viewBox="0 0 86.82 86.82"><circle cx="43.41" cy="43.41" fill="#fff" r="43.41"/><g fill="#0097d9"><path d="m56.6 4.06-15 18.76c-3.079 3.873-2.454 9.506 1.4 12.61l11.67 9.41c7.147 5.73 8.302 16.166 2.58 23.32l-13.42 16.78c22.929-.259 41.307-19.057 41.048-41.987-.2-17.655-11.543-33.253-28.278-38.883"/><path d="m45.19 64.03c3.072-3.872 2.447-9.497-1.4-12.6l-11.7-9.37c-7.16-5.725-8.324-16.169-2.6-23.33l13.47-16.82c-22.924.221-41.329 18.984-41.108 41.908.171 17.699 11.545 33.342 28.328 38.962z"/></g></svg>