<svg xmlns="http://www.w3.org/2000/svg" viewBox="0 0 204.73 89.96"><g transform="translate(93.031884 -189.72943)"><path d="m254.92991 256.63292-19.05783-19.05759h-21.62268l7.63118-11.40568h53.33776l-22.85305-22.85353h-53.33744l-22.83288 34.25921 19.05871 19.05759h21.56001l-7.5694 11.4272h-53.40034l22.91619 22.85297h53.3168z" fill="none"/><path d="m242.97737 256.4013-18.99572-19.05758h-21.623l7.63118-11.40568h53.33864l-22.85361-22.85353h-53.33776l-22.83201 34.25921 19.05871 19.05758h21.55922l-7.63118 11.42721h-53.33776l22.85297 22.85265h53.31679zm8.9247-19.05758h38.05355l-20.28868 30.48479h18.99605l-15.20082 22.85265h-38.05331l22.83176-34.27986-11.40536-11.40543z" fill="none"/><path d="m-93.031884 256.21899 44.347267-66.48956h39.1444436l-60.0220336 89.95833zm91.302477-66.48956-59.981026 89.95833h39.145592l44.304294-66.48865h35.245397l-7.836006 11.71376h-27.38877l-16.1814018 24.2486 30.5073938 30.52629h35.268422l-35.268422-35.20407h39.101615l36.510099-54.75426z"/></g></svg>