<?xml version="1.0" standalone="no"?>
<!DOCTYPE svg PUBLIC "-//W3C//DTD SVG 20010904//EN"
 "http://www.w3.org/TR/2001/REC-SVG-20010904/DTD/svg10.dtd">
<svg version="1.0" xmlns="http://www.w3.org/2000/svg"
 width="1000.000000pt" height="1000.000000pt" viewBox="0 0 1000.000000 1000.000000"
 preserveAspectRatio="xMidYMid meet">
<metadata>
Created by potrace 1.14, written by Peter Selinger 2001-2017
</metadata>
<g transform="translate(0.000000,1000.000000) scale(0.100000,-0.100000)"
fill="#000000" stroke="none">
<path d="M3140 7091 c-109 -5 -130 -9 -165 -30 -84 -52 -113 -81 -124 -128 -7
-24 -23 -55 -38 -69 -23 -21 -79 -44 -110 -44 -16 0 -75 -71 -105 -127 -20
-37 -29 -78 -42 -184 -14 -119 -16 -308 -16 -1484 l0 -1347 32 -60 c20 -38 53
-78 87 -107 31 -25 78 -69 106 -96 50 -50 51 -52 99 -220 51 -176 68 -212 132
-260 l35 -26 82 39 c45 22 100 56 122 75 22 18 58 46 81 60 l41 25 34 -20 c19
-11 52 -35 75 -53 50 -41 125 -86 182 -108 l42 -17 46 42 c25 23 49 50 55 59
5 9 29 88 54 174 25 86 54 173 64 194 32 61 97 128 133 135 45 10 128 24 196
33 74 10 1450 10 1524 0 68 -9 151 -23 196 -33 36 -7 101 -74 133 -135 10 -21
39 -108 64 -194 25 -86 49 -165 54 -174 6 -9 30 -36 55 -59 l46 -42 42 17 c57
22 132 67 182 108 23 18 56 42 75 53 l34 20 41 -25 c23 -14 59 -42 81 -60 22
-19 77 -53 122 -75 l82 -39 35 26 c63 48 81 84 130 255 26 91 58 183 71 205
13 22 52 69 88 104 35 34 81 90 101 124 l36 62 0 180 c0 99 7 241 15 315 19
174 19 477 0 655 -22 202 -21 1105 1 1324 14 151 14 163 -6 321 -23 176 -33
207 -102 289 -23 28 -44 43 -68 47 -59 11 -91 33 -111 77 -10 23 -19 51 -19
63 0 23 -47 64 -125 110 l-50 29 -1850 1 c-1017 0 -1906 -2 -1975 -5z m3780
-324 c106 -19 139 -38 157 -88 11 -33 10 -35 -34 -81 -26 -26 -58 -51 -72 -57
-14 -6 -94 -19 -176 -31 -147 -19 -194 -20 -1795 -20 -1601 0 -1648 1 -1795
20 -82 12 -162 26 -177 32 -15 5 -46 30 -68 54 -43 47 -45 62 -13 112 21 34
63 48 188 65 94 13 367 14 1900 13 1628 -2 1799 -4 1885 -19z m97 -665 c26
-21 60 -55 76 -75 l27 -36 0 -498 0 -499 -32 -31 c-18 -16 -51 -42 -73 -57
l-40 -26 -1977 0 -1978 0 -55 55 -55 55 0 501 0 500 32 47 c18 26 45 59 61 75
l29 27 1968 0 1968 0 49 -38z m-192 -1991 c141 -18 175 -29 229 -74 l29 -24
-48 -37 c-27 -20 -58 -39 -69 -41 -72 -16 -216 -27 -466 -35 -157 -5 -343 -16
-415 -24 -192 -23 -1978 -23 -2170 0 -71 8 -256 19 -410 24 -154 5 -324 14
-379 21 -93 11 -101 14 -138 50 -39 37 -39 38 -23 62 30 46 64 59 199 77 120
17 270 18 1826 19 1591 1 1704 -1 1835 -18z"/>
<path d="M3325 5808 c-31 -17 -74 -59 -106 -102 l-29 -39 0 -172 0 -173 33
-48 c28 -41 116 -115 136 -114 17 1 105 75 131 112 l30 41 0 179 0 180 -31 43
c-32 45 -108 105 -131 105 -7 0 -22 -6 -33 -12z"/>
<path d="M3952 5787 c-24 -18 -57 -53 -73 -77 l-29 -43 0 -177 0 -177 29 -40
c29 -40 75 -80 118 -102 18 -9 29 -6 70 22 26 18 63 55 81 81 l32 48 0 172 c0
188 1 185 -69 259 -37 39 -80 67 -103 67 -7 0 -33 -15 -56 -33z"/>
<path d="M4608 5786 c-25 -19 -59 -56 -77 -82 l-31 -47 0 -159 c0 -182 7 -205
83 -275 74 -68 81 -70 138 -31 27 18 65 56 84 83 l35 50 0 170 0 170 -35 48
c-38 51 -108 107 -135 107 -9 0 -37 -16 -62 -34z"/>
<path d="M5272 5790 c-23 -16 -57 -51 -77 -77 l-35 -48 0 -170 0 -170 35 -50
c19 -27 57 -65 84 -83 57 -39 64 -37 138 31 76 70 83 93 83 275 l0 159 -31 47
c-34 51 -112 116 -139 116 -9 0 -36 -13 -58 -30z"/>
<path d="M5955 5808 c-31 -17 -74 -59 -106 -102 l-29 -39 0 -172 0 -173 33
-48 c17 -26 54 -63 80 -81 41 -28 52 -31 70 -22 43 22 89 62 118 102 l29 40 0
177 0 177 -30 44 c-30 46 -107 109 -132 109 -7 0 -22 -6 -33 -12z"/>
<path d="M6585 5789 c-22 -16 -55 -49 -72 -72 l-32 -42 -1 -181 0 -181 30 -41
c26 -37 114 -111 131 -112 20 -1 108 73 136 114 l33 48 0 172 c0 188 1 185
-69 259 -37 40 -80 67 -103 67 -7 0 -31 -14 -53 -31z"/>
</g>
</svg>
