<?xml version="1.0" encoding="UTF-8" standalone="no"?>
<!-- Created with Inkscape (http://www.inkscape.org/) -->

<svg
   xmlns:dc="http://purl.org/dc/elements/1.1/"
   xmlns:cc="http://creativecommons.org/ns#"
   xmlns:rdf="http://www.w3.org/1999/02/22-rdf-syntax-ns#"
   xmlns:svg="http://www.w3.org/2000/svg"
   xmlns="http://www.w3.org/2000/svg"
   version="1.1"
   width="716.10236"
   height="150.23622"
   id="svg16934">
  <defs
     id="defs16936" />
  <metadata
     id="metadata16939">
    <rdf:RDF>
      <cc:Work
         rdf:about="">
        <dc:format>image/svg+xml</dc:format>
        <dc:type
           rdf:resource="http://purl.org/dc/dcmitype/StillImage" />
        <dc:title></dc:title>
      </cc:Work>
    </rdf:RDF>
  </metadata>
  <g
     transform="translate(-11.175009,-448.8287)"
     id="layer1">
    <g
       transform="matrix(8.4837626,0,0,8.4837626,-4287.7358,-4440.5313)"
       id="g16959">
      <path
         d="m 509.88619,581.57335 c 0.7005,-2.3085 2.0115,-3.159 3.8925,-3.159 l 15.2685,0 c -0.351,0.4815 -0.6195,0.9435 -0.912,2.118 l -0.258,1.041 -17.991,0 z m -1.1355,4.5105 0.7425,-2.9805 18.009,0 -0.7425,2.9805 -18.009,0 z m 17.613,1.53 c -0.7035,2.277 -2.01,3.117 -3.8805,3.117 l -15.2745,0 c 0.351,-0.48 0.6195,-0.942 0.912,-2.1165 l 0.249,-1.0005 17.994,0"
         id="path6404"
         style="fill:#2e80a2;fill-opacity:1;fill-rule:evenodd;stroke:none" />
      <path
         d="m 509.88619,581.57335 c 0.7005,-2.3085 2.0115,-3.159 3.8925,-3.159 l 15.2685,0 c -0.351,0.4815 -0.6195,0.9435 -0.912,2.118 l -0.258,1.041 -17.991,0 z m -1.1355,4.5105 0.7425,-2.9805 18.009,0 -0.7425,2.9805 -18.009,0 z m 17.613,1.53 c -0.7035,2.277 -2.01,3.117 -3.8805,3.117 l -15.2745,0 c 0.351,-0.48 0.6195,-0.942 0.912,-2.1165 l 0.249,-1.0005 17.994,0 z"
         id="path6406"
         style="fill:none;stroke:#2e80a2;stroke-width:0.06682935;stroke-linecap:butt;stroke-linejoin:miter;stroke-miterlimit:10;stroke-opacity:1;stroke-dasharray:none" />
      <path
         d="m 509.88619,581.57335 c 0.7005,-2.3085 2.0115,-3.159 3.8925,-3.159 l 15.2685,0 c -0.351,0.4815 -0.6195,0.9435 -0.912,2.118 l -0.258,1.041 -17.991,0 z m -1.1355,4.5105 0.7425,-2.9805 18.009,0 -0.7425,2.9805 -18.009,0 z m 17.613,1.53 c -0.7035,2.277 -2.01,3.117 -3.8805,3.117 l -15.2745,0 c 0.351,-0.48 0.6195,-0.942 0.912,-2.1165 l 0.249,-1.0005 17.994,0"
         id="path6408"
         style="fill:#2e80a2;fill-opacity:1;fill-rule:evenodd;stroke:none" />
      <path
         d="m 509.88619,581.57335 c 0.7005,-2.3085 2.0115,-3.159 3.8925,-3.159 l 15.2685,0 c -0.351,0.4815 -0.6195,0.9435 -0.912,2.118 l -0.258,1.041 -17.991,0 z m -1.1355,4.5105 0.7425,-2.9805 18.009,0 -0.7425,2.9805 -18.009,0 z m 17.613,1.53 c -0.7035,2.277 -2.01,3.117 -3.8805,3.117 l -15.2745,0 c 0.351,-0.48 0.6195,-0.942 0.912,-2.1165 l 0.249,-1.0005 17.994,0 z"
         id="path6410"
         style="fill:none;stroke:#2e80a2;stroke-width:0.06682935;stroke-linecap:butt;stroke-linejoin:miter;stroke-miterlimit:3.86400008;stroke-opacity:1;stroke-dasharray:none" />
      <path
         d="m 545.13319,583.04335 c 0.705,0 1.2225,0.1215 1.554,0.3675 0.729,0.537 0.489,1.761 0.3015,2.514 l -0.831,3.3375 c -0.117,0.477 -0.189,0.9675 0.0165,1.4325 l -3.8415,0 0.0165,-0.846 c -0.2055,0.3465 -0.423,0.5745 -0.651,0.684 -0.228,0.108 -0.6135,0.162 -1.1565,0.162 l -2.7345,0 c -0.6405,0 -1.0995,-0.1035 -1.3755,-0.309 -0.276,-0.207 -0.4155,-0.5325 -0.4155,-0.9765 0,-0.543 0.162,-1.059 0.2925,-1.5795 0.2115,-0.834 0.5115,-1.4295 0.912,-1.782 0.402,-0.354 1.026,-0.5295 1.872,-0.5295 l 3.501,0 c 0.2715,0 0.456,-0.033 0.5535,-0.0975 0.0975,-0.0645 0.165,-0.168 0.2025,-0.309 0.039,-0.141 0.057,-0.2295 0.057,-0.261 0,-0.2055 -0.189,-0.309 -0.57,-0.309 l -3.825,0 c -0.5745,0 -1.1115,0.0915 -1.611,0.276 l 0.732,-1.7745 7.0005,0 z m -3.972,3.972 c -0.3045,0 -0.5235,0.042 -0.66,0.123 -0.135,0.081 -0.252,0.255 -0.318,0.5295 l -0.2115,0.879 c -0.0435,0.1815 -0.111,0.4725 0.0975,0.5775 0.0975,0.048 0.282,0.0735 0.555,0.0735 l 0.894,0 c 0.3705,0 0.6135,-0.057 0.7335,-0.171 0.1185,-0.114 0.2385,-0.4215 0.357,-0.9195 l 0.261,-1.092 -1.7085,0 z m 9.495,-4.9815 c 0.0885,-0.3555 0.2265,-0.975 0.129,-1.3425 -0.021,-0.081 -0.0585,-0.2205 -0.114,-0.4155 l 4.266,0 -2.166,8.661 c -0.0885,0.3555 -0.228,0.9765 -0.129,1.3425 0.021,0.081 0.0585,0.2205 0.114,0.4155 l -4.689,0 c 0.228,-0.2715 0.399,-0.51 0.513,-0.7155 0.114,-0.207 0.228,-0.555 0.3495,-1.0425 l 1.7265,-6.903 z m 11.8065,4.1685 0.2595,-1.0425 c 0.0945,-0.3765 0.0675,-0.618 -0.4065,-0.618 l -1.5795,0 c -0.3795,0 -0.597,0.21 -0.7005,0.618 l -0.2595,1.0425 2.6865,0 z m -3.0615,1.497 -0.1785,0.717 c -0.03,0.12 -0.0495,0.216 -0.0495,0.2925 0,0.3255 0.2445,0.489 0.732,0.489 l 3.696,0 c 0.423,0 0.744,-0.0195 0.96,-0.057 0.2175,-0.039 0.5055,-0.1275 0.864,-0.27 l -0.7485,1.824 -7.6515,0 c -0.6405,0 -1.0995,-0.1035 -1.377,-0.309 -0.276,-0.207 -0.4155,-0.5325 -0.4155,-0.9765 0,-0.294 0.0495,-0.636 0.1485,-1.026 l 0.765,-3.027 c 0.21,-0.8355 0.51,-1.431 0.9105,-1.7835 0.402,-0.3525 1.026,-0.5295 1.8735,-0.5295 l 5.844,0 c 0.6405,0 1.098,0.1035 1.3755,0.309 0.276,0.207 0.414,0.5325 0.414,0.978 0,0.2925 -0.048,0.6345 -0.1455,1.026 l -0.5865,2.343 -6.4305,0 z m 16.1865,-1.5135 1.9035,3.402 c 0.156,0.279 0.285,0.4935 0.399,0.636 0.114,0.1395 0.279,0.297 0.4965,0.471 l -5.454,0 c 0.0525,-0.258 -0.024,-0.453 -0.1455,-0.6825 -0.117,-0.222 -1.3695,-2.5725 -1.368,-2.574 l -2.1165,-3.8085 c -0.117,-0.21 -0.318,-0.4155 -0.4875,-0.5865 l 5.2905,0 c -0.045,0.267 -0.057,0.312 0.081,0.567 l 0.7275,1.347 0.6735,1.2285"
         id="path6412"
         style="fill:#151415;fill-opacity:1;fill-rule:nonzero;stroke:none" />
      <path
         d="m 563.95519,593.61685 c 1.338,-0.027 2.6775,-0.054 4.017,-0.0825 6.4065,-7.8075 14.112,-13.149 22.7055,-16.803 -9.7965,3.63 -18.6765,9.321 -26.7225,16.8855"
         id="path6414"
         style="fill:#2e80a2;fill-opacity:1;fill-rule:evenodd;stroke:none" />
    </g>
  </g>
</svg>
