<svg height="32" viewBox="0 0 130 32" width="130" xmlns="http://www.w3.org/2000/svg"><g fill="#00529b" fill-rule="evenodd"><path d="m130.727 3.454h47.245l6.4 6.472v13.231l-3.811 3.811h-14.886l-4.962-4.89h-5.969l-5.393-5.321h-2.3l-5.465-5.393h-2.948l-7.91-7.91zm-4.027-1.654h51.991l7.335 7.479v14.6l-4.818 4.818h-16.252l-4.962-4.89h-5.969l-5.465-5.321h-2.229l-5.465-5.465h-2.948z" transform="matrix(1.0283346 0 0 1.0373108 -130.28999582 -.5248792648)"/><path d="m142.9 7.5 2.373 2.445h19.488l2.948 2.948h-16.4c.791.791 1.582 1.582 2.373 2.445h16.4l2.948 2.948h-14.022c.791.791 1.582 1.582 2.373 2.445h14.019l2.948 3.02h-8.2l2.373 2.445h12.225l1.8-1.87v-12.008l-4.958-4.818z" transform="matrix(1.0283346 0 0 1.0373108 -134.9699465846 -2.1856138556)"/><path d="m217.887 3.811v23.227l-3.955 3.811h-5.322l-1.51-1.51v-27.829l1.51-1.51h5.321l3.955 3.811zm-1.51.216-2.733-2.517h-4.458l-.575.575v26.607l.575.575h4.458l2.733-2.517z" transform="matrix(1.0283346 0 0 1.0373108 -153.5139044264 0)"/><path d="m215.739 6.045-2.588-2.445h-1.151v25.6h1.151l2.589-2.445z" transform="matrix(1.0283346 0 0 1.0373108 -154.9299211706 -1.0487212188)"/><path d="m275.3 3.454h-47.246l-6.4 6.472v13.231l3.811 3.811h14.885l4.962-4.89h5.969l5.393-5.321h2.226l5.465-5.393h2.948l7.982-7.91zm4.026-1.654h-51.991l-7.335 7.479v14.6l4.818 4.818h16.252l4.962-4.89h5.968l5.465-5.321h2.229l5.465-5.465h2.948z" transform="matrix(1.0283346 0 0 1.0373108 -157.2405890168 -.5248792648)"/><path d="m269.149 7.5-2.373 2.445h-19.487l-2.948 2.948h16.4c-.791.791-1.582 1.582-2.373 2.445h-16.4l-2.948 2.948h14.022c-.791.791-1.582 1.582-2.373 2.445h-14.023l-2.948 3.02h8.2l-2.376 2.449h-12.222l-1.8-1.87v-12.012l4.962-4.818z" transform="matrix(1.0283346 0 0 1.0373108 -158.8293659738 -2.1856138556)"/></g></svg>