<?xml version="1.0" encoding="UTF-8" standalone="no"?>
<!-- Created with Inkscape (http://www.inkscape.org/) -->
<svg
   xmlns:dc="http://purl.org/dc/elements/1.1/"
   xmlns:cc="http://creativecommons.org/ns#"
   xmlns:rdf="http://www.w3.org/1999/02/22-rdf-syntax-ns#"
   xmlns:svg="http://www.w3.org/2000/svg"
   xmlns="http://www.w3.org/2000/svg"
   xmlns:sodipodi="http://sodipodi.sourceforge.net/DTD/sodipodi-0.dtd"
   xmlns:inkscape="http://www.inkscape.org/namespaces/inkscape"
   id="svg2403"
   sodipodi:version="0.32"
   inkscape:version="0.46"
   width="612.59998"
   height="136.03"
   xml:space="preserve"
   sodipodi:docname="City Airport Train Logo.svg"
   version="1.0"
   inkscape:output_extension="org.inkscape.output.svg.inkscape"><metadata
     id="metadata2408"><rdf:RDF><cc:Work
         rdf:about=""><dc:format>image/svg+xml</dc:format><dc:type
           rdf:resource="http://purl.org/dc/dcmitype/StillImage" /></cc:Work></rdf:RDF></metadata><defs
     id="defs2406"><inkscape:perspective
       sodipodi:type="inkscape:persp3d"
       inkscape:vp_x="0 : 526.18109 : 1"
       inkscape:vp_y="0 : 1000 : 0"
       inkscape:vp_z="744.09448 : 526.18109 : 1"
       inkscape:persp3d-origin="372.04724 : 350.78739 : 1"
       id="perspective2410" /><clipPath
       clipPathUnits="userSpaceOnUse"
       id="clipPath2418"><path
         d="M 0,595.28 L 841.89,595.28 L 841.89,0 L 0,0 L 0,595.28 z"
         id="path2420" /></clipPath></defs><sodipodi:namedview
     inkscape:window-height="974"
     inkscape:window-width="1280"
     inkscape:pageshadow="2"
     inkscape:pageopacity="0.0"
     guidetolerance="10.0"
     gridtolerance="10.0"
     objecttolerance="10.0"
     borderopacity="1.0"
     bordercolor="#666666"
     pagecolor="#ffffff"
     id="base"
     showgrid="false"
     inkscape:zoom="1"
     inkscape:cx="526.18127"
     inkscape:cy="292.04999"
     inkscape:window-x="-8"
     inkscape:window-y="-8"
     inkscape:current-layer="g2412" /><g
     id="g2412"
     inkscape:groupmode="layer"
     inkscape:label="CAT_Logo_pos_RGB"
     transform="matrix(1.25,0,0,-1.25,-348.71438,462.33916)"><g
       id="g2414"
       transform="matrix(1.7063057,0,0,1.7063057,-193.83916,-192.09772)"><g
         id="g2416"
         clip-path="url(#clipPath2418)"><g
           id="g2422"
           transform="translate(419.647,327.458)"><path
             d="M 0,0 L -4.271,-8.739 L 15.052,-8.739 L 2.66,-34.158 L 15.294,-34.158 L 27.685,-8.739 L 50.781,-8.739 L 55.052,0 L 0,0 z M -5.701,0 L -52.296,0 C -58.375,0.039 -65.451,-3.477 -67.713,-7.765 L -80.592,-34.166 L -67.993,-34.166 L -61.707,-21.192 L -28.76,-21.192 L -35.047,-34.166 L -22.363,-34.166 L -5.701,0 z M -53.918,-8.739 L -22.645,-8.739 L -24.684,-12.915 L -57.639,-12.915 L -56.238,-10.02 C -55.896,-9.312 -54.859,-8.739 -53.918,-8.739 M -126.575,-24.106 C -126.905,-24.813 -126.417,-25.391 -125.488,-25.391 L -81.857,-25.401 L -86.134,-34.166 L -132.838,-34.158 C -138.648,-33.912 -141.821,-30.576 -140.294,-26.377 L -131.398,-8.154 C -128.883,-3.615 -121.876,0.015 -115.452,0.015 L -64.551,0 C -68.164,-1.574 -71.313,-4.015 -72.827,-6.886 L -73.73,-8.739 L -117.383,-8.739 C -118.324,-8.739 -119.358,-9.312 -119.702,-10.02 L -126.575,-24.106 z"
             style="fill:#47545b;fill-opacity:1;fill-rule:nonzero;stroke:none"
             id="path2424" /></g><g
           id="g2426"
           transform="translate(446.1602,306.0122)"><path
             d="M 0,0 L 113.49,0 L 109.23,8.75 L 4.262,8.75 L 0,0 z M 115.416,-3.945 L -1.928,-3.945 L -6.201,-12.712 L 108.729,-12.712 C 114.355,-12.355 117.395,-9.056 115.895,-4.931 L 115.416,-3.945 z M 32.861,21.446 L 91.65,21.446 C 97.914,21.225 104.566,17.701 107.008,13.292 L 107.301,12.695 L 28.588,12.695 L 32.861,21.446 z"
             style="fill:#acca57;fill-opacity:1;fill-rule:nonzero;stroke:none"
             id="path2428" /></g><g
           id="g2430"
           transform="translate(288.6685,268.0557)"><path
             d="M 0,0 L -0.221,2.352 C -0.979,1.982 -1.935,1.764 -2.89,1.764 C -5.412,1.764 -6.881,3.209 -6.881,5.951 C -6.881,8.473 -5.535,10.285 -3.037,10.285 C -2.154,10.285 -1.248,10.139 -0.343,9.844 L -0.098,12.17 C -0.955,12.416 -2.008,12.514 -2.841,12.514 C -7.616,12.514 -9.697,9.305 -9.697,5.705 C -9.697,1.838 -7.591,-0.563 -3.428,-0.563 C -2.18,-0.563 -1.054,-0.367 0,0 M 11.232,12.342 L 8.587,12.342 L 8.587,-0.39 L 11.232,-0.39 L 11.232,12.342 z M 28.858,10.088 L 28.858,12.342 L 19.162,12.342 L 19.162,10.088 L 22.688,10.088 L 22.688,-0.391 L 25.332,-0.391 L 25.332,10.088 L 28.858,10.088 z M 46.479,12.342 L 43.736,12.342 L 41.875,8.816 C 41.483,8.057 41.066,7.225 40.725,6.342 C 40.381,7.199 40.039,7.959 39.671,8.693 L 37.786,12.342 L 34.871,12.342 L 39.328,3.846 L 39.328,-0.391 L 41.973,-0.391 L 41.973,3.869 L 46.479,12.342 z M 75.994,-0.391 L 71.195,12.342 L 68.085,12.342 L 63.262,-0.391 L 65.906,-0.391 L 66.837,2.082 L 72.15,2.082 L 73.057,-0.391 L 75.994,-0.391 z M 71.49,3.992 L 67.473,3.992 L 68.845,7.592 C 69.09,8.252 69.334,8.963 69.48,9.574 C 69.678,8.988 69.922,8.229 70.167,7.566 L 71.49,3.992 z M 86.636,12.342 L 83.99,12.342 L 83.99,-0.39 L 86.636,-0.39 L 86.636,12.342 z M 106.123,-0.391 L 102.965,3.869 C 102.572,4.408 102.229,4.896 101.936,5.24 C 103.967,5.559 105.414,6.809 105.414,8.891 C 105.414,11.24 103.65,12.416 100.613,12.416 C 99.047,12.416 97.381,12.391 96.451,12.342 L 96.451,-0.391 L 99.096,-0.391 L 99.096,4.848 L 102.865,-0.391 L 106.123,-0.391 z M 102.621,8.619 C 102.621,7.42 101.715,6.611 100.318,6.611 C 99.902,6.611 99.463,6.637 99.096,6.66 L 99.096,10.334 C 99.438,10.383 99.781,10.383 100.221,10.383 C 101.715,10.383 102.621,9.77 102.621,8.619 M 123.719,8.301 C 123.719,10.873 121.881,12.416 118.65,12.416 C 117.156,12.416 115.564,12.367 114.488,12.342 L 114.488,-0.391 L 117.131,-0.391 L 117.131,3.795 C 117.449,3.771 117.939,3.746 118.258,3.746 C 121.49,3.746 123.719,5.51 123.719,8.301 M 120.902,8.131 C 120.902,6.637 119.898,5.852 118.258,5.852 C 117.914,5.852 117.426,5.877 117.131,5.951 L 117.131,10.26 C 117.475,10.285 117.939,10.285 118.43,10.285 C 120.07,10.285 120.902,9.379 120.902,8.131 M 143.839,6.098 C 143.839,10.408 141.267,12.563 137.57,12.563 C 134.042,12.563 130.959,10.039 130.959,5.852 C 130.959,2.033 133.016,-0.611 137.152,-0.611 C 140.802,-0.611 143.839,1.885 143.839,6.098 M 140.998,5.926 C 140.998,3.086 139.333,1.715 137.298,1.715 C 134.802,1.715 133.775,3.625 133.775,6.049 C 133.775,8.791 135.462,10.26 137.398,10.26 C 139.578,10.26 140.998,8.768 140.998,5.926 M 162.048,-0.391 L 158.89,3.869 C 158.5,4.408 158.156,4.896 157.863,5.24 C 159.894,5.559 161.339,6.809 161.339,8.891 C 161.339,11.24 159.576,12.416 156.539,12.416 C 154.972,12.416 153.308,12.391 152.376,12.342 L 152.376,-0.391 L 155.021,-0.391 L 155.021,4.848 L 158.792,-0.391 L 162.048,-0.391 z M 158.548,8.619 C 158.548,7.42 157.642,6.611 156.246,6.611 C 155.83,6.611 155.388,6.637 155.021,6.66 L 155.021,10.334 C 155.365,10.383 155.708,10.383 156.148,10.383 C 157.642,10.383 158.548,9.77 158.548,8.619 M 178.152,10.088 L 178.152,12.342 L 168.455,12.342 L 168.455,10.088 L 171.98,10.088 L 171.98,-0.391 L 174.625,-0.391 L 174.625,10.088 L 178.152,10.088 z M 204.482,10.088 L 204.482,12.342 L 194.785,12.342 L 194.785,10.088 L 198.312,10.088 L 198.312,-0.391 L 200.957,-0.391 L 200.957,10.088 L 204.482,10.088 z M 222.152,-0.391 L 218.992,3.869 C 218.601,4.408 218.257,4.896 217.964,5.24 C 219.996,5.559 221.441,6.809 221.441,8.891 C 221.441,11.24 219.677,12.416 216.64,12.416 C 215.074,12.416 213.41,12.391 212.478,12.342 L 212.478,-0.391 L 215.123,-0.391 L 215.123,4.848 L 218.894,-0.391 L 222.152,-0.391 z M 218.65,8.619 C 218.65,7.42 217.744,6.611 216.347,6.611 C 215.931,6.611 215.49,6.637 215.123,6.66 L 215.123,10.334 C 215.466,10.383 215.808,10.383 216.25,10.383 C 217.744,10.383 218.65,9.77 218.65,8.619 M 241.607,-0.391 L 236.808,12.342 L 233.697,12.342 L 228.873,-0.391 L 231.519,-0.391 L 232.449,2.082 L 237.763,2.082 L 238.669,-0.391 L 241.607,-0.391 z M 237.101,3.992 L 233.087,3.992 L 234.457,7.592 C 234.701,8.252 234.947,8.963 235.095,9.574 C 235.291,8.988 235.535,8.229 235.779,7.566 L 237.101,3.992 z M 252.248,12.342 L 249.603,12.342 L 249.603,-0.39 L 252.248,-0.39 L 252.248,12.342 z M 273.767,-0.391 L 273.767,12.342 L 271.197,12.342 L 271.222,6.734 C 271.222,5.094 271.246,3.869 271.294,3.061 C 270.853,3.943 270.363,4.775 269.875,5.559 L 265.589,12.342 L 262.064,12.342 L 262.064,-0.391 L 264.634,-0.391 L 264.609,6.27 C 264.609,7.445 264.585,8.229 264.537,8.939 C 264.904,8.18 265.369,7.273 265.859,6.514 L 270.242,-0.391 L 273.767,-0.391 z"
             style="fill:#47545b;fill-opacity:1;fill-rule:evenodd;stroke:none"
             id="path2432" /></g></g></g></g></svg>