<svg xmlns="http://www.w3.org/2000/svg" xmlns:xlink="http://www.w3.org/1999/xlink" viewBox="0 0 841.89 595.28"><clipPath id="a"><path d="m0 595.28h841.89v-595.28h-841.89z"/></clipPath><g clip-path="url(#a)" transform="matrix(2.132882125 0 0 -2.132882125 -591.01333 702.46131)"><path d="m0 0-4.271-8.739h19.323l-12.392-25.419h12.634l12.391 25.419h23.096l4.271 8.739zm-5.701 0h-46.595c-6.079.039-13.155-3.477-15.417-7.765l-12.879-26.401h12.599l6.286 12.974h32.947l-6.287-12.974h12.684zm-48.217-8.739h31.273l-2.039-4.176h-32.955l1.401 2.895c.342.708 1.379 1.281 2.32 1.281m-72.657-15.367c-.33-.707.158-1.285 1.087-1.285l43.631-.01-4.277-8.765-46.704.008c-5.81.246-8.983 3.582-7.456 7.781l8.896 18.223c2.515 4.539 9.522 8.169 15.946 8.169l50.901-.015c-3.613-1.574-6.762-4.015-8.276-6.886l-.903-1.853h-43.653c-.941 0-1.975-.573-2.319-1.281z" fill="#47545b" transform="translate(419.647 327.458)"/><path d="m0 0h113.49l-4.26 8.75h-104.968zm115.416-3.945h-117.344l-4.273-8.767h114.93c5.626.357 8.666 3.656 7.166 7.781zm-82.555 25.391h58.789c6.264-.221 12.916-3.745 15.358-8.154l.293-.597h-78.713z" fill="#acca57" transform="translate(446.1602 306.0122)"/><path d="m0 0-.221 2.352c-.758-.37-1.714-.588-2.669-.588-2.522 0-3.991 1.445-3.991 4.187 0 2.522 1.346 4.334 3.844 4.334.883 0 1.789-.146 2.694-.441l.245 2.326c-.857.246-1.91.344-2.743.344-4.775 0-6.856-3.209-6.856-6.809 0-3.867 2.106-6.268 6.269-6.268 1.248 0 2.374.196 3.428.563m11.232 12.342h-2.645v-12.732h2.645zm17.626-2.254v2.254h-9.696v-2.254h3.526v-10.479h2.644v10.479zm17.621 2.254h-2.743l-1.861-3.526c-.392-.759-.809-1.591-1.15-2.474-.344.857-.686 1.617-1.054 2.351l-1.885 3.649h-2.915l4.457-8.496v-4.237h2.645v4.26zm29.515-12.733-4.799 12.733h-3.11l-4.823-12.733h2.644l.931 2.473h5.313l.907-2.473zm-4.504 4.383h-4.017l1.372 3.6c.245.66.489 1.371.635 1.982.198-.586.442-1.345.687-2.008zm15.146 8.35h-2.646v-12.732h2.646zm19.487-12.733-3.158 4.26c-.393.539-.736 1.027-1.029 1.371 2.031.319 3.478 1.569 3.478 3.651 0 2.349-1.764 3.525-4.801 3.525-1.566 0-3.232-.025-4.162-.074v-12.733h2.645v5.239l3.769-5.239zm-3.502 9.01c0-1.199-.906-2.008-2.303-2.008-.416 0-.855.026-1.222.049v3.674c.342.049.685.049 1.125.049 1.494 0 2.4-.613 2.4-1.764m21.098-.318c0 2.572-1.838 4.115-5.069 4.115-1.494 0-3.086-.049-4.162-.074v-12.733h2.643v4.186c.318-.024.808-.049 1.127-.049 3.232 0 5.461 1.764 5.461 4.555m-2.817-.17c0-1.494-1.004-2.279-2.644-2.279-.344 0-.832.025-1.127.099v4.309c.344.025.808.025 1.299.025 1.64 0 2.472-.906 2.472-2.154m22.937-2.033c0 4.31-2.572 6.465-6.269 6.465-3.528 0-6.611-2.524-6.611-6.711 0-3.819 2.057-6.463 6.193-6.463 3.65 0 6.687 2.496 6.687 6.709m-2.841-.172c0-2.84-1.665-4.211-3.7-4.211-2.496 0-3.523 1.91-3.523 4.334 0 2.742 1.687 4.211 3.623 4.211 2.18 0 3.6-1.492 3.6-4.334m21.05-6.317-3.158 4.26c-.39.539-.734 1.027-1.027 1.371 2.031.319 3.476 1.569 3.476 3.651 0 2.349-1.763 3.525-4.8 3.525-1.567 0-3.231-.025-4.163-.074v-12.733h2.645v5.239l3.771-5.239zm-3.5 9.01c0-1.199-.906-2.008-2.302-2.008-.416 0-.858.026-1.225.049v3.674c.344.049.687.049 1.127.049 1.494 0 2.4-.613 2.4-1.764m19.604 1.469v2.254h-9.697v-2.254h3.525v-10.479h2.645v10.479zm26.33 0v2.254h-9.697v-2.254h3.527v-10.479h2.645v10.479zm17.67-10.479-3.16 4.26c-.391.539-.735 1.027-1.028 1.371 2.032.319 3.477 1.569 3.477 3.651 0 2.349-1.764 3.525-4.801 3.525-1.566 0-3.23-.025-4.162-.074v-12.733h2.645v5.239l3.771-5.239zm-3.502 9.01c0-1.199-.906-2.008-2.303-2.008-.416 0-.857.026-1.224.049v3.674c.343.049.685.049 1.127.049 1.494 0 2.4-.613 2.4-1.764m22.957-9.01-4.799 12.733h-3.111l-4.824-12.733h2.646l.93 2.473h5.314l.906-2.473zm-4.506 4.383h-4.014l1.37 3.6c.244.66.49 1.371.638 1.982.196-.586.44-1.345.684-2.008zm15.147 8.35h-2.645v-12.732h2.645zm21.519-12.733v12.733h-2.57l.025-5.608c0-1.64.024-2.865.072-3.673-.441.882-.931 1.714-1.419 2.498l-4.286 6.783h-3.525v-12.733h2.57l-.025 6.661c0 1.175-.024 1.959-.072 2.669.367-.759.832-1.666 1.322-2.425l4.383-6.905z" fill="#47545b" fill-rule="evenodd" transform="translate(288.6685 268.0557)"/></g></svg>