<svg xmlns="http://www.w3.org/2000/svg" enable-background="new 0 0 841.9 362.2" viewBox="0 0 841.9 362.2"><g fill="#1a171b"><path d="m18 358.7c.9 0 1.6 0 2.4-.1.7-.1 1.4-.2 2-.4s1.2-.4 1.8-.6 1.1-.5 1.7-.8v-7h-4.9c-.3 0-.5-.1-.7-.2-.2-.2-.3-.4-.3-.6v-2.4h9.7v12.2c-.8.6-1.6 1.1-2.5 1.5s-1.8.8-2.8 1.1-2 .5-3.2.6c-1.1.1-2.3.2-3.6.2-2.3 0-4.4-.4-6.3-1.2s-3.6-1.9-5-3.3-2.5-3.1-3.2-5.1c-.8-2-1.2-4.2-1.2-6.6s.4-4.6 1.1-6.6c.8-2 1.8-3.7 3.3-5.1 1.4-1.4 3.1-2.5 5.1-3.3s4.2-1.2 6.7-1.2c1.3 0 2.4.1 3.5.3s2.1.5 3 .8 1.8.8 2.6 1.3 1.5 1.1 2.2 1.7l-1.2 1.9c-.2.4-.6.6-1 .6-.2 0-.5-.1-.8-.2-.4-.2-.8-.5-1.2-.8-.5-.3-1-.6-1.7-.8-.7-.3-1.4-.5-2.3-.7s-1.9-.3-3.2-.3c-1.8 0-3.4.3-4.8.9s-2.7 1.4-3.7 2.5-1.8 2.4-2.3 3.9-.8 3.3-.8 5.2c0 2 .3 3.8.9 5.4s1.4 2.9 2.4 4 2.3 1.9 3.7 2.5 2.9.7 4.6.7z"/><path d="m35.7 361.9v-22.4h2.3c.4 0 .7.1.9.2.2.2.3.4.3.8l.3 3.5c.8-1.6 1.7-2.8 2.8-3.7s2.5-1.3 4-1.3c.6 0 1.2.1 1.7.2s1 .3 1.4.6l-.5 2.9c-.1.4-.3.6-.7.6-.2 0-.5-.1-1-.2-.4-.1-1-.2-1.8-.2-1.4 0-2.5.4-3.4 1.2s-1.7 2-2.3 3.5v14.3z"/><g enable-background="new"><path d="m69.1 361.9h-1.7c-.4 0-.7-.1-.9-.2s-.4-.4-.5-.8l-.4-2.1c-.6.5-1.2 1-1.7 1.4-.6.4-1.2.8-1.8 1.1s-1.3.5-2 .7c-.7.1-1.5.2-2.3.2-.9 0-1.7-.1-2.4-.4-.8-.2-1.4-.6-2-1.1s-1-1.1-1.3-1.9-.5-1.6-.5-2.7c0-.9.2-1.7.7-2.6.5-.8 1.3-1.5 2.4-2.2 1.1-.6 2.5-1.2 4.3-1.6s3.9-.6 6.4-.6v-1.8c0-1.8-.4-3.1-1.1-4s-1.8-1.4-3.3-1.4c-1 0-1.8.1-2.4.4-.7.2-1.2.5-1.7.8s-.9.6-1.2.8-.7.4-1 .4-.5-.1-.7-.2-.4-.3-.5-.5l-.7-1.3c1.2-1.2 2.6-2.1 4-2.7s3-.9 4.8-.9c1.3 0 2.4.2 3.3.6 1 .4 1.8 1 2.5 1.7s1.2 1.6 1.5 2.7c.3 1 .5 2.2.5 3.5v14.7zm-10.2-2.5c.7 0 1.3-.1 1.9-.2s1.1-.3 1.6-.6l1.5-.9c.5-.4.9-.8 1.4-1.3v-4.6c-1.8 0-3.4.1-4.6.3-1.3.2-2.3.5-3.1.9s-1.4.8-1.7 1.3c-.4.5-.5 1.1-.5 1.7s.1 1.1.3 1.5.4.8.8 1.1c.3.3.7.5 1.2.6.2.2.7.2 1.2.2z"/><path d="m90.7 341.1c0 .3 0 .5-.2.8-.1.3-.2.5-.4.7l-12.1 16.2h12.2v3.1h-16.8v-1.6c0-.2 0-.4.1-.7s.2-.5.4-.7l12.2-16.3h-12v-3.1h16.6z"/><path d="m94.5 346.9h10.9v3.3h-10.9z"/></g><path d="m116.3 344.1h1.6c.6 0 1-.1 1.3-.2s.6-.4.9-.7l10.6-11.9c.3-.4.6-.6.9-.8s.7-.2 1.2-.2h3.6l-12.1 13.6c-.3.3-.6.6-.9.9-.3.2-.6.4-.9.6.4.1.8.3 1.1.6l1 1 12.6 15h-3.7c-.3 0-.5 0-.7-.1-.2 0-.4-.1-.5-.2s-.3-.2-.4-.3-.2-.2-.4-.4l-10.9-12.6c-.2-.2-.3-.3-.5-.5-.1-.1-.3-.2-.5-.3s-.4-.1-.6-.2c-.2 0-.5-.1-.9-.1h-1.9v14.5h-4.2v-31.7h4.3z"/><g enable-background="new"><path d="m149.3 339.1c1.6 0 3.1.3 4.4.8s2.4 1.3 3.4 2.3c.9 1 1.6 2.2 2.1 3.6s.7 3 .7 4.8-.2 3.4-.7 4.8-1.2 2.6-2.1 3.6-2 1.8-3.4 2.3c-1.3.5-2.8.8-4.4.8s-3.1-.3-4.4-.8-2.4-1.3-3.4-2.3c-.9-1-1.6-2.2-2.1-3.6s-.8-3-.8-4.8.3-3.3.8-4.8c.5-1.4 1.2-2.6 2.1-3.6s2.1-1.8 3.4-2.3 2.7-.8 4.4-.8zm0 20c2.2 0 3.9-.7 5-2.2s1.6-3.6 1.6-6.2c0-2.7-.5-4.8-1.6-6.2-1.1-1.5-2.7-2.2-5-2.2-1.1 0-2.1.2-2.9.6s-1.5.9-2.1 1.7-1 1.6-1.2 2.7c-.3 1.1-.4 2.2-.4 3.6 0 1.3.1 2.5.4 3.6s.7 1.9 1.2 2.7 1.2 1.3 2.1 1.6c.8.1 1.8.3 2.9.3zm-1.5-25.8c0 .3-.1.7-.2 1s-.3.5-.6.8c-.2.2-.5.4-.8.5s-.6.2-1 .2c-.3 0-.6-.1-.9-.2s-.6-.3-.8-.5-.4-.5-.5-.8-.2-.6-.2-1c0-.3.1-.7.2-1s.3-.6.5-.8.5-.4.8-.5.6-.2.9-.2.7.1 1 .2.6.3.8.5.4.5.6.8c.2.4.2.7.2 1zm8 0c0 .3-.1.7-.2 1s-.3.5-.5.8c-.2.2-.5.4-.8.5s-.6.2-1 .2c-.3 0-.7-.1-1-.2s-.6-.3-.8-.5-.4-.5-.5-.8-.2-.6-.2-1c0-.3.1-.7.2-1s.3-.6.5-.8.5-.4.8-.5.6-.2 1-.2c.3 0 .7.1 1 .2s.6.3.8.5.4.5.5.8c.1.4.2.7.2 1z"/><path d="m165.7 361.9v-19l-2.5-.3c-.3-.1-.6-.2-.8-.3-.2-.2-.3-.4-.3-.7v-1.6h3.5v-1.2c0-1.2.2-2.4.6-3.5s1-2.1 1.7-2.9c.8-.8 1.7-1.5 2.9-2s2.5-.7 4-.7c1.2 0 2.4 0 3.5.1s2.2.1 3.3.1h2.2v32h-3.8v-29.3c-.8 0-1.6 0-2.4 0s-1.5 0-2.1 0c-1.9 0-3.4.5-4.4 1.6s-1.5 2.6-1.5 4.6v1.2h5.8v2.9h-5.7v19.1h-4z"/><path d="m207.5 361.9h-1.7c-.4 0-.7-.1-.9-.2s-.4-.4-.5-.8l-.4-2.1c-.6.5-1.2 1-1.7 1.4-.6.4-1.2.8-1.8 1.1s-1.3.5-2 .7c-.7.1-1.5.2-2.3.2-.9 0-1.7-.1-2.4-.4-.8-.2-1.4-.6-2-1.1s-1-1.1-1.3-1.9-.5-1.6-.5-2.7c0-.9.2-1.7.7-2.6.5-.8 1.3-1.5 2.4-2.2 1.1-.6 2.5-1.2 4.3-1.6s3.9-.6 6.4-.6v-1.8c0-1.8-.4-3.1-1.1-4s-1.8-1.4-3.3-1.4c-1 0-1.8.1-2.4.4-.7.2-1.2.5-1.7.8s-.9.6-1.2.8-.7.4-1 .4-.5-.1-.7-.2-.4-.3-.5-.5l-.7-1.3c1.2-1.2 2.6-2.1 4-2.7s3-.9 4.8-.9c1.3 0 2.4.2 3.3.6 1 .4 1.8 1 2.5 1.7s1.2 1.6 1.5 2.7c.3 1 .5 2.2.5 3.5v14.7zm-10.2-2.5c.7 0 1.3-.1 1.9-.2s1.1-.3 1.6-.6 1-.6 1.5-.9c.5-.4.9-.8 1.4-1.3v-4.6c-1.8 0-3.4.1-4.6.3-1.3.2-2.3.5-3.1.9s-1.4.8-1.7 1.3c-.4.5-.5 1.1-.5 1.7s.1 1.1.3 1.5.4.8.8 1.1c.3.3.7.5 1.2.6.2.2.7.2 1.2.2z"/><path d="m228.8 343.4c-.1.2-.2.3-.4.4-.1.1-.3.1-.5.1s-.5-.1-.7-.3-.6-.4-1-.6-.9-.4-1.4-.6c-.6-.2-1.3-.3-2.1-.3-1.1 0-2.1.2-2.9.6s-1.5 1-2.1 1.7-1 1.6-1.3 2.7c-.3 1-.4 2.2-.4 3.5 0 1.4.2 2.6.5 3.6.3 1.1.7 1.9 1.3 2.7.6.7 1.2 1.3 2 1.6.8.4 1.7.6 2.7.6s1.7-.1 2.4-.3c.6-.2 1.1-.5 1.5-.8s.8-.5 1-.8c.3-.2.5-.3.8-.3s.6.1.8.4l1.1 1.4c-1 1.2-2.2 2.1-3.7 2.6-1.5.6-3 .8-4.6.8-1.4 0-2.7-.3-3.9-.8s-2.2-1.3-3.1-2.2c-.9-1-1.6-2.2-2.1-3.6s-.8-3.1-.8-4.9c0-1.7.2-3.2.7-4.6s1.1-2.6 2-3.7c.9-1 2-1.8 3.3-2.4s2.8-.9 4.5-.9c1.6 0 2.9.3 4.2.8 1.2.5 2.3 1.2 3.2 2.2z"/><path d="m234.2 361.9v-32.6h3.9v13.2c1-1 2-1.8 3.2-2.4s2.5-.9 4-.9c1.2 0 2.3.2 3.2.6s1.7 1 2.3 1.7 1.1 1.6 1.4 2.7c.3 1 .5 2.2.5 3.5v14.3h-3.9v-14.3c0-1.7-.4-3-1.2-3.9s-2-1.4-3.6-1.4c-1.2 0-2.3.3-3.3.8-1 .6-1.9 1.3-2.8 2.3v16.5h-3.7z"/><path d="m267.7 339.1c1.3 0 2.6.2 3.7.7 1.1.4 2.1 1.1 2.9 1.9s1.5 1.9 1.9 3.1c.5 1.2.7 2.7.7 4.3 0 .6-.1 1-.2 1.2s-.4.3-.8.3h-14.9c0 1.4.2 2.6.6 3.7.4 1 .8 1.9 1.5 2.6.6.7 1.4 1.2 2.2 1.6.9.3 1.8.5 2.9.5 1 0 1.8-.1 2.6-.3.7-.2 1.3-.5 1.8-.7.5-.3.9-.5 1.3-.7.3-.2.6-.3.9-.3s.6.1.8.4l1.1 1.4c-.5.6-1.1 1.1-1.7 1.5-.7.4-1.4.8-2.2 1.1s-1.6.5-2.4.6-1.6.2-2.5.2c-1.5 0-3-.3-4.3-.8s-2.4-1.3-3.4-2.3-1.7-2.3-2.2-3.7c-.5-1.5-.8-3.2-.8-5.1 0-1.6.2-3 .7-4.4s1.2-2.5 2.1-3.5 2-1.8 3.3-2.3c1.3-.7 2.7-1 4.4-1zm0 2.9c-1.9 0-3.4.5-4.5 1.7-1.1 1.1-1.8 2.6-2 4.6h12.2c0-.9-.1-1.7-.4-2.5s-.6-1.4-1.1-2c-.5-.5-1.1-1-1.8-1.3-.7-.4-1.5-.5-2.4-.5z"/><path d="m282 361.9v-22.4h2.3c.4 0 .7.1.9.2.2.2.3.4.3.8l.3 3.5c.8-1.6 1.7-2.8 2.8-3.7s2.5-1.3 4-1.3c.6 0 1.2.1 1.7.2s1 .3 1.4.6l-.5 2.9c-.1.4-.3.6-.7.6-.2 0-.5-.1-1-.2-.4-.1-1-.2-1.8-.2-1.4 0-2.5.4-3.4 1.2s-1.7 2-2.3 3.5v14.3z"/><path d="m309 361.9v-31.7h10.1c1.9 0 3.6.2 5 .6s2.6.9 3.5 1.6 1.6 1.6 2 2.6.7 2.2.7 3.5c0 .8-.1 1.5-.4 2.3-.2.7-.6 1.4-1.1 2s-1.1 1.2-1.9 1.7c-.7.5-1.6.9-2.6 1.2 2.3.5 4.1 1.3 5.2 2.5 1.2 1.2 1.8 2.8 1.8 4.8 0 1.3-.2 2.6-.7 3.7s-1.2 2.1-2.2 2.8c-1 .8-2.1 1.4-3.5 1.8s-3 .7-4.7.7h-11.2zm4.2-17.5h5.7c1.2 0 2.3-.1 3.1-.4.9-.3 1.6-.6 2.2-1.1s1-1 1.3-1.7.4-1.4.4-2.2c0-1.9-.6-3.2-1.7-4.1s-2.9-1.3-5.2-1.3h-5.8zm0 3v11h6.9c1.2 0 2.3-.1 3.2-.4s1.6-.7 2.2-1.2 1-1.1 1.3-1.8.4-1.5.4-2.3c0-1.6-.6-2.9-1.7-3.9-1.2-.9-2.9-1.4-5.3-1.4z"/><path d="m353.4 361.9h-1.7c-.4 0-.7-.1-.9-.2s-.4-.4-.5-.8l-.4-2.1c-.6.5-1.2 1-1.7 1.4-.6.4-1.2.8-1.8 1.1s-1.3.5-2 .7c-.7.1-1.5.2-2.3.2-.9 0-1.7-.1-2.4-.4-.8-.2-1.4-.6-2-1.1s-1-1.1-1.3-1.9c-.3-.7-.5-1.6-.5-2.7 0-.9.2-1.7.7-2.6.5-.8 1.3-1.5 2.4-2.2 1.1-.6 2.5-1.2 4.3-1.6s3.9-.6 6.4-.6v-1.8c0-1.8-.4-3.1-1.1-4s-1.8-1.4-3.3-1.4c-1 0-1.8.1-2.4.4-.7.2-1.2.5-1.7.8s-.9.6-1.2.8-.7.4-1 .4-.5-.1-.7-.2-.4-.3-.5-.5l-.7-1.3c1.2-1.2 2.6-2.1 4-2.7s3-.9 4.8-.9c1.3 0 2.4.2 3.3.6 1 .4 1.8 1 2.5 1.7s1.2 1.6 1.5 2.7c.3 1 .5 2.2.5 3.5v14.7zm-10.2-2.5c.7 0 1.3-.1 1.9-.2s1.1-.3 1.6-.6 1-.6 1.5-.9c.5-.4.9-.8 1.4-1.3v-4.6c-1.8 0-3.4.1-4.6.3-1.3.2-2.3.5-3.1.9s-1.4.8-1.7 1.3c-.4.5-.5 1.1-.5 1.7s.1 1.1.3 1.5.4.8.8 1.1c.3.3.7.5 1.2.6.2.2.7.2 1.2.2z"/><path d="m359.4 361.9v-32.6h3.9v13.2c1-1 2-1.8 3.2-2.4s2.5-.9 4-.9c1.2 0 2.3.2 3.2.6s1.7 1 2.3 1.7 1.1 1.6 1.4 2.7.5 2.2.5 3.5v14.3h-3.9v-14.3c0-1.7-.4-3-1.2-3.9s-2-1.4-3.6-1.4c-1.2 0-2.3.3-3.3.8-1 .6-1.9 1.3-2.8 2.3v16.5h-3.7z"/><path d="m384 361.9v-22.4h2.3c.6 0 .9.3 1.1.8l.3 2.4c1-1.1 2.1-1.9 3.3-2.6s2.6-1 4.2-1c1.2 0 2.3.2 3.2.6s1.7 1 2.3 1.7 1.1 1.6 1.4 2.7.5 2.2.5 3.5v14.3h-3.9v-14.3c0-1.7-.4-3-1.2-3.9s-2-1.4-3.6-1.4c-1.2 0-2.3.3-3.3.8-1 .6-1.9 1.3-2.8 2.3v16.5z"/><path d="m420.5 339.4v14.3c0 1.7.4 3 1.2 3.9s2 1.4 3.5 1.4c1.2 0 2.2-.3 3.2-.8s2-1.3 2.8-2.3v-16.5h3.9v22.4h-2.3c-.6 0-.9-.3-1.1-.8l-.3-2.4c-1 1.1-2.1 1.9-3.3 2.6s-2.6 1-4.2 1c-1.2 0-2.3-.2-3.2-.6s-1.7-1-2.4-1.7c-.6-.7-1.1-1.6-1.4-2.7s-.5-2.2-.5-3.5v-14.3z"/><path d="m441.7 361.9v-22.4h2.3c.6 0 .9.3 1.1.8l.3 2.4c1-1.1 2.1-1.9 3.3-2.6s2.6-1 4.2-1c1.2 0 2.3.2 3.2.6s1.7 1 2.3 1.7 1.1 1.6 1.4 2.7c.3 1 .5 2.2.5 3.5v14.3h-3.9v-14.3c0-1.7-.4-3-1.2-3.9s-2-1.4-3.6-1.4c-1.2 0-2.3.3-3.3.8-1 .6-1.9 1.3-2.8 2.3v16.5z"/><path d="m482.1 361.9c-.6 0-.9-.3-1.1-.8l-.4-2.7c-1 1.2-2.1 2.1-3.3 2.8s-2.6 1-4.2 1c-1.3 0-2.5-.2-3.5-.7s-1.9-1.2-2.7-2.2c-.7-1-1.3-2.2-1.7-3.6s-.6-3.1-.6-4.9c0-1.7.2-3.2.7-4.6.4-1.4 1.1-2.7 1.9-3.7s1.8-1.9 3-2.5 2.6-.9 4.1-.9c1.4 0 2.5.2 3.5.7s1.8 1.1 2.6 2v-12.4h3.9v32.6h-2.2zm-7.6-2.9c1.3 0 2.4-.3 3.4-.9s1.9-1.4 2.7-2.5v-10.8c-.7-1-1.5-1.7-2.4-2-.9-.4-1.8-.6-2.9-.6-2.1 0-3.7.7-4.8 2.2s-1.7 3.6-1.7 6.4c0 1.5.1 2.7.4 3.7.2 1 .6 1.9 1.1 2.6s1.1 1.2 1.8 1.5c.6.2 1.4.4 2.4.4z"/><path d="m500.2 361.9v-31.7h10.1c1.9 0 3.6.2 5 .6s2.6.9 3.5 1.6 1.6 1.6 2 2.6.6 2.2.6 3.5c0 .8-.1 1.5-.4 2.3-.2.7-.6 1.4-1.1 2s-1.1 1.2-1.9 1.7c-.7.5-1.6.9-2.6 1.2 2.3.5 4.1 1.3 5.2 2.5 1.2 1.2 1.8 2.8 1.8 4.8 0 1.3-.2 2.6-.7 3.7s-1.2 2.1-2.2 2.8c-1 .8-2.1 1.4-3.5 1.8s-2.9.7-4.7.7h-11.1zm4.3-17.5h5.7c1.2 0 2.3-.1 3.1-.4.9-.3 1.6-.6 2.2-1.1s1-1 1.3-1.7.4-1.4.4-2.2c0-1.9-.6-3.2-1.7-4.1s-2.9-1.3-5.2-1.3h-5.8zm0 3v11h6.9c1.2 0 2.3-.1 3.1-.4.9-.3 1.6-.7 2.2-1.2s1-1.1 1.3-1.8.4-1.5.4-2.3c0-1.6-.6-2.9-1.7-3.9-1.2-.9-2.9-1.4-5.3-1.4z"/><path d="m531.6 339.4v14.3c0 1.7.4 3 1.2 3.9s2 1.4 3.5 1.4c1.2 0 2.2-.3 3.2-.8s2-1.3 2.8-2.3v-16.5h3.9v22.4h-2.2c-.6 0-.9-.3-1.1-.8l-.3-2.4c-1 1.1-2.1 1.9-3.3 2.6s-2.6 1-4.2 1c-1.2 0-2.3-.2-3.2-.6s-1.7-1-2.4-1.7c-.6-.7-1.1-1.6-1.4-2.7s-.5-2.2-.5-3.5v-14.3z"/><path d="m565.6 343.1c-.2.3-.5.5-.8.5-.2 0-.5-.1-.7-.2-.3-.2-.6-.3-1-.5s-.9-.4-1.5-.6-1.2-.3-2-.3c-.7 0-1.3.1-1.8.3s-1 .4-1.4.7-.7.6-.9 1-.3.8-.3 1.3c0 .6.2 1.1.5 1.4.3.4.8.7 1.3 1s1.2.5 1.9.7 1.4.4 2.1.7c.7.2 1.4.5 2.1.8s1.3.7 1.9 1.1 1 1 1.3 1.6.5 1.4.5 2.3c0 1-.2 2-.5 2.9-.4.9-.9 1.6-1.6 2.3-.7.6-1.6 1.1-2.7 1.5-1 .4-2.3.6-3.6.6-1.6 0-3-.3-4.2-.8-1.3-.5-2.4-1.2-3.2-2l.9-1.5c.1-.2.3-.3.4-.4.2-.1.4-.2.6-.2s.5.1.8.3.6.4 1.1.7c.4.2.9.5 1.5.7s1.3.3 2.3.3c.8 0 1.4-.1 2-.3s1.1-.5 1.4-.8c.4-.3.7-.7.9-1.2.2-.4.3-.9.3-1.4 0-.6-.2-1.1-.5-1.5s-.8-.7-1.3-1-1.2-.5-1.9-.8c-.7-.2-1.4-.4-2.1-.7-.7-.2-1.4-.5-2.1-.8s-1.3-.7-1.9-1.1c-.5-.5-1-1-1.3-1.7s-.5-1.5-.5-2.4.2-1.7.5-2.5.9-1.5 1.5-2.1c.7-.6 1.5-1.1 2.5-1.4s2.1-.5 3.4-.5c1.5 0 2.8.2 4 .7s2.2 1.1 3 1.9z"/><path d="m572.1 361.9v-32.6h4v13.4c.9-1.1 2-1.9 3.2-2.6s2.6-1 4.1-1c1.3 0 2.5.2 3.5.7s1.9 1.2 2.7 2.2c.7 1 1.3 2.2 1.7 3.6s.6 3.1.6 4.9c0 1.7-.2 3.2-.7 4.6-.4 1.4-1.1 2.7-1.9 3.7s-1.8 1.9-3 2.5-2.6.9-4.1.9c-1.4 0-2.7-.3-3.7-.8-1-.6-1.9-1.3-2.6-2.3l-.2 2c-.1.6-.5.8-1 .8zm10-19.7c-1.3 0-2.4.3-3.4.9s-1.9 1.4-2.7 2.5v10.8c.7 1 1.5 1.7 2.4 2.1s1.8.6 2.9.6c2.1 0 3.7-.7 4.8-2.2s1.7-3.6 1.7-6.4c0-1.5-.1-2.7-.4-3.8s-.6-1.9-1.1-2.6-1.1-1.2-1.8-1.5c-.6-.2-1.5-.4-2.4-.4z"/><path d="m605.6 339.1c1.3 0 2.6.2 3.7.7 1.1.4 2.1 1.1 2.9 1.9s1.5 1.9 1.9 3.1c.5 1.2.7 2.7.7 4.3 0 .6-.1 1-.2 1.2s-.4.3-.8.3h-14.8c0 1.4.2 2.6.6 3.7.4 1 .8 1.9 1.5 2.6.6.7 1.4 1.2 2.2 1.6.9.3 1.8.5 2.9.5 1 0 1.8-.1 2.6-.3.7-.2 1.3-.5 1.8-.7.5-.3.9-.5 1.3-.7.3-.2.6-.3.9-.3s.6.1.7.4l1.1 1.4c-.5.6-1.1 1.1-1.7 1.5-.7.4-1.4.8-2.2 1.1s-1.6.5-2.4.6-1.6.2-2.5.2c-1.5 0-3-.3-4.3-.8s-2.4-1.3-3.4-2.3-1.7-2.3-2.2-3.7c-.5-1.5-.8-3.2-.8-5.1 0-1.6.2-3 .7-4.4s1.2-2.5 2.1-3.5 2-1.8 3.3-2.3c1.3-.7 2.8-1 4.4-1zm.1 2.9c-1.9 0-3.4.5-4.5 1.7-1.1 1.1-1.8 2.6-2 4.6h12.2c0-.9-.1-1.7-.4-2.5s-.6-1.4-1.1-2c-.5-.5-1.1-1-1.8-1.3-.7-.4-1.5-.5-2.4-.5z"/><path d="m626.7 362.2c-1.8 0-3.1-.5-4.1-1.5-.9-1-1.4-2.4-1.4-4.3v-13.7h-2.7c-.2 0-.4-.1-.6-.2s-.2-.4-.2-.6v-1.6l3.7-.5.9-6.9c0-.2.1-.4.3-.5s.4-.2.6-.2h2v7.7h6.4v2.9h-6.4v13.4c0 .9.2 1.6.7 2.1s1 .7 1.8.7c.4 0 .8-.1 1.1-.2s.6-.2.8-.4c.2-.1.4-.3.6-.4s.3-.2.4-.2c.2 0 .4.1.5.4l1.2 1.9c-.7.6-1.5 1.1-2.5 1.5-1.1.4-2.1.6-3.1.6z"/><path d="m636.4 361.9v-22.4h2.3c.4 0 .7.1.9.2.2.2.3.4.3.8l.3 3.5c.8-1.6 1.7-2.8 2.8-3.7s2.5-1.3 4-1.3c.6 0 1.2.1 1.7.2s1 .3 1.4.6l-.5 2.9c-.1.4-.3.6-.7.6-.2 0-.5-.1-.9-.2s-1-.2-1.8-.2c-1.4 0-2.5.4-3.4 1.2s-1.7 2-2.3 3.5v14.3z"/><path d="m659.5 332.4c0 .4-.1.7-.2 1.1-.2.3-.4.6-.6.9s-.6.5-.9.6-.7.2-1.1.2-.7-.1-1.1-.2c-.3-.1-.6-.3-.9-.6s-.5-.6-.6-.9-.2-.7-.2-1.1.1-.7.2-1.1c.1-.3.3-.7.6-.9.3-.3.6-.5.9-.6s.7-.2 1.1-.2.7.1 1.1.2c.3.1.6.3.9.6s.5.6.6.9c.1.4.2.7.2 1.1zm-.9 7v22.4h-3.9v-22.4z"/><path d="m674.5 339.1c1.3 0 2.6.2 3.7.7 1.1.4 2.1 1.1 2.9 1.9s1.5 1.9 1.9 3.1c.5 1.2.7 2.7.7 4.3 0 .6-.1 1-.2 1.2s-.4.3-.8.3h-14.9c0 1.4.2 2.6.6 3.7.4 1 .8 1.9 1.5 2.6.6.7 1.4 1.2 2.2 1.6.9.3 1.8.5 2.9.5 1 0 1.8-.1 2.6-.3.7-.2 1.3-.5 1.8-.7.5-.3.9-.5 1.3-.7.3-.2.6-.3.9-.3s.6.1.7.4l1.1 1.4c-.5.6-1.1 1.1-1.7 1.5-.7.4-1.4.8-2.2 1.1s-1.6.5-2.4.6-1.6.2-2.5.2c-1.5 0-3-.3-4.3-.8s-2.4-1.3-3.4-2.3-1.7-2.3-2.2-3.7c-.5-1.5-.8-3.2-.8-5.1 0-1.6.2-3 .7-4.4s1.2-2.5 2.1-3.5 2-1.8 3.3-2.3c1.4-.7 2.8-1 4.5-1zm0 2.9c-1.9 0-3.4.5-4.5 1.7-1.1 1.1-1.8 2.6-2 4.6h12.2c0-.9-.1-1.7-.4-2.5s-.6-1.4-1.1-2c-.5-.5-1.1-1-1.8-1.3-.7-.4-1.5-.5-2.4-.5z"/><path d="m688.9 361.9v-32.6h4v13.4c.9-1.1 2-1.9 3.2-2.6s2.6-1 4.1-1c1.3 0 2.5.2 3.5.7s1.9 1.2 2.7 2.2c.7 1 1.3 2.2 1.7 3.6s.6 3.1.6 4.9c0 1.7-.2 3.2-.7 4.6-.4 1.4-1.1 2.7-1.9 3.7s-1.9 1.9-3 2.5c-1.2.6-2.6.9-4.1.9-1.4 0-2.7-.3-3.7-.8-1-.6-1.9-1.3-2.6-2.3l-.2 2c-.1.6-.5.8-1 .8zm10-19.7c-1.3 0-2.4.3-3.4.9s-1.9 1.4-2.7 2.5v10.8c.7 1 1.5 1.7 2.4 2.1s1.8.6 2.9.6c2.1 0 3.7-.7 4.8-2.2s1.7-3.6 1.7-6.4c0-1.5-.1-2.7-.4-3.8-.3-1-.6-1.9-1.1-2.6s-1.1-1.2-1.8-1.5c-.7-.2-1.5-.4-2.4-.4z"/><path d="m736.8 358.7c.9 0 1.6 0 2.4-.1.7-.1 1.4-.2 2-.4s1.2-.4 1.8-.6 1.1-.5 1.7-.8v-7h-4.9c-.3 0-.5-.1-.7-.2-.2-.2-.3-.4-.3-.6v-2.4h9.7v12.2c-.8.6-1.6 1.1-2.5 1.5s-1.8.8-2.8 1.1-2 .5-3.1.6-2.3.2-3.6.2c-2.3 0-4.4-.4-6.3-1.2s-3.6-1.9-5-3.3-2.5-3.1-3.2-5.1c-.8-2-1.2-4.2-1.2-6.6s.4-4.6 1.1-6.6c.8-2 1.8-3.7 3.2-5.1s3.1-2.5 5.1-3.3 4.2-1.2 6.7-1.2c1.3 0 2.4.1 3.5.3s2.1.5 3 .8 1.8.8 2.6 1.3 1.5 1.1 2.2 1.7l-1.2 1.9c-.2.4-.6.6-1 .6-.2 0-.5-.1-.8-.2-.4-.2-.8-.5-1.2-.8-.5-.3-1-.6-1.7-.8-.7-.3-1.4-.5-2.3-.7s-1.9-.3-3.2-.3c-1.8 0-3.4.3-4.8.9s-2.7 1.4-3.7 2.5-1.8 2.4-2.3 3.9-.8 3.3-.8 5.2c0 2 .3 3.8.9 5.4s1.4 2.9 2.4 4 2.3 1.9 3.7 2.5c1.3.5 2.9.7 4.6.7z"/><path d="m754.5 361.9v-22.4h2.4c.6 0 .9.3 1.1.8l.3 2.3c.8-1 1.8-1.8 2.8-2.5s2.2-1 3.6-1c1.5 0 2.8.4 3.7 1.3.9.8 1.6 2 2 3.4.3-.8.7-1.5 1.2-2.1s1.1-1.1 1.7-1.5 1.3-.7 2-.8c.7-.2 1.4-.3 2.2-.3 1.2 0 2.2.2 3.1.6s1.7.9 2.4 1.7c.6.7 1.1 1.6 1.5 2.7.3 1.1.5 2.3.5 3.6v14.3h-3.9v-14.3c0-1.8-.4-3.1-1.1-4-.8-.9-1.9-1.4-3.3-1.4-.7 0-1.3.1-1.9.3s-1.1.6-1.5 1-.8 1-1 1.7c-.3.7-.4 1.4-.4 2.3v14.3h-3.9v-14.3c0-1.8-.4-3.1-1.1-4s-1.8-1.3-3.2-1.3c-1 0-1.9.3-2.7.8s-1.6 1.2-2.3 2.1v16.7z"/><path d="m791 361.9v-32.6h4v13.4c.9-1.1 2-1.9 3.2-2.6s2.6-1 4.1-1c1.3 0 2.5.2 3.5.7s1.9 1.2 2.7 2.2c.7 1 1.3 2.2 1.7 3.6s.6 3.1.6 4.9c0 1.7-.2 3.2-.7 4.6-.4 1.4-1.1 2.7-1.9 3.7s-1.9 1.9-3 2.5c-1.2.6-2.6.9-4.1.9-1.4 0-2.7-.3-3.7-.8-1-.6-1.9-1.3-2.6-2.3l-.2 2c-.1.6-.5.8-1 .8zm10-19.7c-1.3 0-2.4.3-3.4.9s-1.9 1.4-2.7 2.5v10.8c.7 1 1.5 1.7 2.4 2.1s1.8.6 2.9.6c2.1 0 3.7-.7 4.8-2.2s1.7-3.6 1.7-6.4c0-1.5-.1-2.7-.4-3.8-.3-1-.6-1.9-1.1-2.6s-1.1-1.2-1.8-1.5c-.7-.2-1.5-.4-2.4-.4z"/><path d="m841.9 361.9h-4.3v-14.4h-17.1v14.4h-4.3v-31.7h4.3v14.1h17.1v-14.1h4.3z"/></g><path d="m142.1 284.2c-78.5 0-142.1-63.6-142.1-142.1s63.6-142.1 142.1-142.1h555c78.5 0 142.1 63.6 142.1 142.1s-63.6 142.1-142.1 142.1z"/></g><path d="m424.5 100.6c50.7-1.9 91.3-42.8 92.8-93.6l37-.2c-1.6 71.1-58.8 128.3-129.8 129.9z" fill="#fff"/><path d="m424.5 54.5c24.8-1.8 44.3-21.8 45.6-46.5h39c-1.7 46-38.5 83.1-84.6 85z" fill="#be0a26"/><path d="m517.1 275.7c-3-49.7-42.8-89.3-92.6-92v-37.2c70.3 2.7 126.7 58.9 129.8 129.2z" fill="#fff"/><path d="m469.7 275.7c-3.4-22.9-22.1-40.5-45.3-42.5v-39.2c44.8 1.9 81 37.1 84.4 81.8h-39.1z" fill="#be0a26"/><path d="m785.2 137.7c-2.1-45.5-38.6-81.9-84.1-84v38.7c23.9 2.2 42.7 21.4 44.5 45.3z" fill="#be0a26"/><path d="m745.6 145.3c-1.9 23.9-20.6 42.9-44.4 45.3v39.4c45.9-2.2 82.4-39.2 84.1-85.1z" fill="#be0a26"/><path d="m138.3 238.4c-50.5-2-91-42.5-92.8-93.1h-37.2c1.7 71.2 58.9 128.5 130 130.3zm0-193.1v-37.4c-70.7 2.1-127.7 59-129.9 129.8h37.2c2.2-50.3 42.5-90.4 92.7-92.4" fill="#fff"/><path d="m138.3 230.1c-46.1-1.9-82.9-39-84.6-85.1h38.4c1.8 24.6 21.6 44.1 46.2 45.5v39.3m0-176.4v38.6c-24.5 1.6-44.2 20.9-46.2 45.4h-38.2c2.1-45.6 38.8-82.1 84.4-84" fill="#be0a26"/><path d="m100 137.7c2-20.2 18.1-36.1 38.4-37.7v37.7zm38.3 7.6v37.8c-20.4-1.4-36.7-17.4-38.5-37.8z" fill="#fff"/><path d="m693.3 190.6c-24.6-1.5-44.4-20.9-46.3-45.5h-38.3c1.6 46.1 38.4 83.2 84.5 85.1z" fill="#be0a26"/><path d="m563.4 145.3c1.7 71.1 58.8 128.3 129.8 130.3v-36.9c-50.7-1.9-91.2-42.8-92.7-93.4z" fill="#fff"/><path d="m654.9 145.3h38.4v37.8c-20.4-1.5-36.7-17.5-38.4-37.8" fill="#fff"/><path d="m830.7 137.7c-2-70.8-58.8-127.7-129.5-129.8v37.5c50 2.2 90.1 42.2 92.3 92.2h37.2z" fill="#fff"/><path d="m793.5 145.3c-1.8 50.3-42 90.8-92.3 93v37.4c70.7-2.3 127.5-59.2 129.6-129.9z" fill="#fff"/><path d="m648.9 275.7c-55-20-92.1-71.6-93.6-130.1v-91.8c-16.9 44.3-54.6 77.3-100.7 88.3 61.7 15.6 105.8 70 108.2 133.6z" fill="#fff"/><path d="m654.7 7.9h38.4v129.4h-38.4z" fill="#fff"/><path d="m608.6 7.9h38.4v129.4h-38.4z" fill="#be0a26"/><path d="m561.8 7.9h38.4v129.4h-38.4z" fill="#fff"/><path d="m146 146h38.4v129.4h-38.4z" fill="#fff"/><path d="m192.4 146h38.4v129.4h-38.4z" fill="#be0a26"/><path d="m238.8 146h38.4v129.4h-38.4z" fill="#fff"/><path d="m285.2 146h38.4v129.4h-38.4z" fill="#fff"/><path d="m331.7 146h38.4v129.4h-38.4z" fill="#be0a26"/><path d="m378 147.1h38.4v129.4h-38.4z" fill="#fff"/><path d="m378 9h38.4v129.4h-38.4z" fill="#fff"/><path d="m331.8 7.9h38.4v129.4h-38.4z" fill="#be0a26"/><path d="m285.2 7.9h38.4v129.4h-38.4z" fill="#fff"/><path d="m146 53.4h131.2v38.4h-131.2z" fill="#be0a26"/><path d="m146 7.9h131.2v38.4h-131.2z" fill="#fff"/><path d="m146 99h131.2v38.4h-131.2z" fill="#fff"/><path d="m424.5 8.1h37.9c-1.4 20.4-17.5 36.8-37.9 38.6z" fill="#fff"/><path d="m424.5 275.7v-35.1c18.9 2 34.2 16.3 37.4 35.1z" fill="#fff"/><path d="m100 145.3h38.4" fill="none"/><path d="m737.7 137.3c-1.9-19.5-17.2-35-36.6-37.2v37.2z" fill="#fff"/><path d="m701.2 145.3v37.6c19.6-2.3 34.9-18 36.7-37.6z" fill="#fff"/></svg>