<svg xmlns="http://www.w3.org/2000/svg" enable-background="new 0 0 456.5 493.7" viewBox="0 0 456.5 493.7"><path d="m0 1.9h456.2v491.8h-456.2z" fill="#fce000"/><path d="m0 493.7h456.5v-84.8h-456.5zm0-408.9h456.5v-84.8h-456.5z" fill="#009430"/><path d="m409.6 475.9v-30.9h10.2v6.3c1.5-2.5 3.2-4.4 5.1-5.5 1.9-1.2 4.3-1.7 7-1.7 2.1 0 3.9.3 5.5 1s2.9 1.6 3.8 2.7c1 1.2 1.6 2.6 1.9 4.2s.4 3.7.4 6.3v17.7h-11.2v-16.6c0-2.4-.4-4.2-1.2-5.4-.8-1.1-2.1-1.7-4-1.7-2.4 0-4.1.9-5.1 2.6-1 1.8-1.5 4.4-1.5 8v13zm-45.8 0v-47.4h10.9v16.6c0 2-.1 3.8-.4 5.6 1.1-1.6 2.1-3 3.2-3.9s2.3-1.6 3.7-2.1 3-.7 4.8-.7c2.1 0 3.9.3 5.5 1s2.9 1.6 3.8 2.7c1 1.2 1.6 2.6 1.9 4.2s.5 3.7.5 6.3v17.7h-11.2v-16.6c0-2.4-.4-4.2-1.2-5.4-.8-1.1-2.1-1.7-4-1.7-2.4 0-4.1.9-5.1 2.6-1 1.8-1.5 4.4-1.5 8v13h-10.9zm-22.2-15.5c0-2.4-.7-4.3-2-5.7s-3.1-2.1-5.4-2.1c-2.2 0-4 .7-5.3 2.1s-2 3.3-2 5.7.6 4.3 2 5.7c1.3 1.4 3.1 2.1 5.3 2.1 2.3 0 4.1-.7 5.4-2.1s2-3.3 2-5.7m9.8-15.4v30.9h-10.3v-5c-1.5 2.2-3.1 3.7-4.9 4.7s-3.9 1.5-6.4 1.5c-2.1 0-3.9-.4-5.6-1.2s-3.2-1.9-4.4-3.4-2.2-3.2-2.8-5.2c-.7-2.1-1-4.4-1-6.9s.3-4.8 1-6.8c.6-2 1.6-3.7 2.9-5.2 1.3-1.4 2.8-2.6 4.6-3.3 1.8-.8 3.8-1.2 6-1.2 4.6 0 8.1 2 10.6 6.1v-5zm-70.2 15.5c0 2.4.6 4.3 1.9 5.7s3.1 2.1 5.3 2.1 4-.7 5.3-2.1 2-3.3 2-5.7-.7-4.3-2-5.7-3.1-2.1-5.3-2.1-4 .7-5.3 2.1-1.9 3.3-1.9 5.7m-9.9-32h10.7v16.1c0 2.2-.1 4.1-.3 5.5 1-1.6 1.9-2.8 2.9-3.7s2.1-1.5 3.4-1.9 2.8-.6 4.6-.6c2 0 3.9.4 5.7 1.2 1.7.8 3.2 1.9 4.5 3.3s2.3 3.2 2.9 5.2c.7 2 1 4.3 1 6.8s-.3 4.8-1 6.9-1.7 3.8-3 5.3c-1.3 1.4-2.9 2.5-4.7 3.3s-3.7 1.2-5.9 1.2c-4.3 0-7.8-2.1-10.7-6.2v5h-10.3v-47.4zm-32.6 47.4v-30.9h10.5v7.3c.7-1.7 1.6-3.1 2.6-4.3 1.1-1.2 2.3-2.1 3.7-2.7s2.9-.9 4.5-.9c.8 0 1.8 0 3.1.2l-1.1 9.9c-1.4-.4-2.7-.6-3.9-.6-2.7 0-4.7.8-6.2 2.3-1.5 1.6-2.2 3.9-2.2 7v12.8h-11zm-21.4-19.4c-.2-1.8-.9-3.2-2-4.3-1.1-1-2.6-1.6-4.3-1.6-3.7 0-5.8 1.9-6.5 5.8h12.8zm11 6.1h-24c0 2.4.7 4.3 1.9 5.6s3 1.9 5.2 1.9c3.4 0 5.7-1.3 6.9-3.7l8.4 3.3c-1 2.3-2.7 4.1-5.3 5.4-2.5 1.3-5.7 2-9.4 2-3.8 0-7-.7-9.7-2.1s-4.8-3.4-6.3-5.8c-1.5-2.5-2.2-5.3-2.2-8.4 0-2.3.4-4.5 1.3-6.5.8-2 2-3.8 3.6-5.4s3.4-2.7 5.6-3.6c2.2-.8 4.5-1.3 7.1-1.3 2.5 0 4.8.4 6.9 1.3 2.1.8 3.9 2 5.4 3.6 1.5 1.5 2.6 3.4 3.4 5.7.8 2.2 1.2 4.8 1.2 7.6zm-69-2.1c0 2.4.6 4.3 1.9 5.7s3.1 2.1 5.3 2.1 4-.7 5.3-2.1 2-3.3 2-5.7-.7-4.3-2-5.7-3.1-2.1-5.3-2.1-4 .7-5.3 2.1-1.9 3.3-1.9 5.7m-9.9-32h10.6v16.1c0 2.2-.1 4.1-.3 5.5.9-1.6 1.9-2.8 2.9-3.7s2.1-1.5 3.4-1.9 2.8-.6 4.6-.6c2 0 3.9.4 5.7 1.2 1.7.8 3.3 1.9 4.5 3.3 1.3 1.4 2.3 3.2 3 5.2s1 4.3 1 6.8-.3 4.8-1 6.9-1.7 3.8-3 5.3c-1.3 1.4-2.8 2.5-4.7 3.3-1.8.8-3.8 1.2-5.9 1.2-4.3 0-7.9-2.1-10.7-6.2v5h-10.2v-47.4zm-22.3 31.9c0-2.4-.6-4.3-2-5.7-1.3-1.4-3.1-2.1-5.4-2.1s-4 .7-5.4 2.1c-1.3 1.4-2 3.3-2 5.7s.6 4.3 1.9 5.7 3.1 2.1 5.4 2.1 4.1-.7 5.4-2.1c1.5-1.4 2.1-3.3 2.1-5.7m9.8-15.4v30.9h-10.3v-5c-1.5 2.2-3.1 3.7-5 4.7-1.8 1-3.9 1.5-6.4 1.5-2.1 0-3.9-.4-5.6-1.2s-3.2-1.9-4.4-3.4-2.2-3.2-2.8-5.2c-.7-2.1-1-4.4-1-6.9s.3-4.8 1-6.8 1.6-3.7 2.9-5.2c1.3-1.4 2.8-2.6 4.6-3.3 1.8-.8 3.8-1.2 6-1.2 4.6 0 8.1 2 10.6 6.1v-5zm-56 15.4c0-2.4-.7-4.3-2-5.7s-3.1-2.1-5.4-2.1-4 .7-5.4 2.1c-1.3 1.4-2 3.3-2 5.7s.6 4.3 1.9 5.7 3.1 2.1 5.4 2.1 4.1-.7 5.4-2.1c1.4-1.4 2.1-3.3 2.1-5.7m9.8-15.4v30.9h-10.3v-5c-1.5 2.2-3.1 3.7-4.9 4.7s-4 1.5-6.4 1.5c-2.1 0-4-.4-5.7-1.2s-3.2-1.9-4.4-3.4-2.2-3.2-2.8-5.2c-.7-2.1-1-4.4-1-6.9s.3-4.8 1-6.8 1.6-3.7 2.9-5.2c1.3-1.4 2.8-2.6 4.7-3.3 1.8-.8 3.8-1.2 6-1.2 4.6 0 8.1 2 10.6 6.1v-5zm-78.2 30.9v-44.8h13.8c2.7 0 4.8.1 6.4.2s3.1.4 4.6.8 2.8 1.1 4.1 2c1.7 1.3 3 2.8 3.8 4.7.8 1.8 1.3 4 1.3 6.3s-.4 4.3-1.2 6.1-1.9 3.2-3.5 4.3c-1.5 1.1-3.4 1.9-5.6 2.4l12.5 18.1h-14l-10.5-17.5v17.5h-11.7zm11.7-23.6h2.3c2.7 0 4.6-.4 5.9-1.3 1.2-.9 1.9-2.3 1.9-4.3 0-1.6-.2-2.8-.8-3.7-.5-.9-1.3-1.5-2.4-1.9s-2.5-.6-4.3-.6h-2.5v11.8zm324.3-384.6-18.5-49.5h11.8l9.7 30.8c.5 1.5 1.2 4.6 2.1 9.3.7-4.4 1.3-7.6 2-9.7l9.9-30.5h11.7l-18.6 49.4h-10.1zm-72.4 0v-49.5h29.5v8.9h-18.8v10.2h18.8v9h-18.8v12.4h18.8v9zm-62.2-6.3 5.9-6.7c.8 1.8 2 3.3 3.7 4.3 1.6 1 3.5 1.6 5.6 1.6 1.6 0 3.1-.3 4.3-.8s2.2-1.3 2.8-2.2c.6-1 1-2.1 1-3.5 0-1.1-.3-2-.7-2.7l-2-1.9c-.9-.6-2.1-1.2-3.5-1.9-1.5-.7-3.1-1.5-4.8-2.3-2.7-1.4-4.8-2.7-6.5-4s-2.9-2.8-3.8-4.5-1.3-3.6-1.3-5.8c0-2.6.7-5 2.2-7.1s3.5-3.8 6.2-5 5.8-1.9 9.3-1.9c3 0 5.6.5 7.8 1.6 2.2 1 4.2 2.7 5.9 4.9l-6.3 6c-1.5-2.9-4-4.3-7.5-4.3-2.1 0-3.8.5-5.1 1.6-1.3 1-1.9 2.4-1.9 4.1 0 1.1.2 2 .7 2.8l2.1 2c.9.6 2.2 1.2 4 2s2.9 1.2 3.3 1.4c4.2 1.9 7.3 4 9.4 6.5 2.1 2.4 3.1 5.1 3.1 8.3 0 4.5-1.6 8.2-4.8 11s-7.5 4.2-12.9 4.2c-3.8 0-7.1-.6-9.8-2-3-1.4-5.1-3.2-6.4-5.7m-48.7 6.3v-22.6l-16.9-26.9h12.5l7.4 13.5c.7 1.4 1.5 3.5 2.3 6.1.6-2.2 1.4-4.3 2.4-6.2l7.3-13.5h12.5l-16.9 26.9v22.6h-10.6zm-60.1-26.1h22.8c0 .5.1 1.4.1 2.5 0 3.7-.6 7.1-1.7 10.2-1.1 3-2.7 5.7-4.8 7.9s-4.5 3.9-7.4 5.1c-2.8 1.2-5.9 1.7-9.2 1.7-5.2 0-9.8-1.1-13.8-3.4-4.1-2.2-7.3-5.4-9.5-9.3-2.3-4-3.4-8.4-3.4-13.3s1.2-9.3 3.5-13.3c2.3-3.9 5.5-7 9.6-9.2s8.6-3.3 13.7-3.3c4.1 0 7.8.9 11.2 2.5 3.4 1.7 6.4 4.2 9.1 7.5l-7.2 5.3c-1.7-2.1-3.5-3.6-5.4-4.7-2-1.1-4.3-1.6-7.1-1.6-3.3 0-6.1.7-8.6 2.1-2.4 1.4-4.3 3.3-5.7 5.9-1.3 2.6-2 5.5-2 8.8s.7 6.3 2 8.8c1.4 2.5 3.3 4.5 5.7 5.8 2.5 1.4 5.2 2.1 8.4 2.1 2.3 0 4.3-.4 6.2-1.1 1.8-.7 3.2-1.8 4.2-3.1s1.5-2.9 1.5-4.5v-.6h-12v-8.8z" fill="#fff"/><path d="m256.9 220.9-28 30-28.1-30h-69c11.3-40.8 49.1-70.8 94-70.8 42.2 0 78.2 26.6 91.7 63.7h56.2c-15.2-66.9-75.6-116.8-147.8-116.8-74.8 0-136.9 53.6-149.1 123.9h-71.5l52.2 53.1h19.7c13.1 69.4 74.7 122 148.8 122 74 0 135.6-52.6 148.7-122h25.6l52.2-53.1zm-56.1 118.4c-32.7-8.5-58.7-33.4-68.4-65.3h25.6l42.8 43.9zm56.1-1.9v-19.6l42.9-43.9h19.2c-9 29.9-32.3 53.6-62.1 63.5z" fill="#002d62"/></svg>