<svg enable-background="new 0 0 283.46 283.46" height="283.46" viewBox="0 0 283.46 283.46" width="283.46" xmlns="http://www.w3.org/2000/svg"><path d="m269.295 141.73c0 70.451-57.116 127.562-127.565 127.562-70.448 0-127.56-57.111-127.56-127.562 0-70.447 57.112-127.559 127.56-127.559 70.449.001 127.565 57.112 127.565 127.559z" fill="#fff"/><g fill="#1e1e1e"><path d="m141.731 0c-78.277 0-141.731 63.455-141.731 141.734 0 78.275 63.454 141.73 141.731 141.73 78.275 0 141.733-63.455 141.733-141.73.001-78.279-63.457-141.734-141.733-141.734zm0 259.76c-65.081 0-118.026-52.948-118.026-118.025 0-65.081 52.946-118.029 118.026-118.029s118.028 52.948 118.028 118.029c.001 65.077-52.947 118.025-118.028 118.025z"/><path d="m177.499 114.854h-71.534v-43.852h-23.398v66.084h94.932v75.647h23.398v-141.731h-23.398z"/><path d="m82.567 212.726h23.398v-43.86h62.577v-22.231h-85.975z"/></g></svg>