<?xml version="1.0" encoding="UTF-8" standalone="no"?>
<!-- Created with Inkscape (http://www.inkscape.org/) -->

<svg
   version="1.1"
   id="svg2"
   width="257.33334"
   height="257.33334"
   viewBox="0 0 257.33334 257.33334"
   sodipodi:docname="HZPP.eps"
   xmlns:inkscape="http://www.inkscape.org/namespaces/inkscape"
   xmlns:sodipodi="http://sodipodi.sourceforge.net/DTD/sodipodi-0.dtd"
   xmlns="http://www.w3.org/2000/svg"
   xmlns:svg="http://www.w3.org/2000/svg">
  <defs
     id="defs6" />
  <sodipodi:namedview
     id="namedview4"
     pagecolor="#ffffff"
     bordercolor="#000000"
     borderopacity="0.25"
     inkscape:showpageshadow="2"
     inkscape:pageopacity="0.0"
     inkscape:pagecheckerboard="0"
     inkscape:deskcolor="#d1d1d1" />
  <g
     id="g8"
     inkscape:groupmode="layer"
     inkscape:label="ink_ext_XXXXXX"
     transform="matrix(1.3333333,0,0,-1.3333333,0,257.33333)">
    <g
       id="g10"
       transform="scale(0.1)">
      <path
         d="M 0,1927.56 H 1927.56 V 0 H 0 v 1927.56"
         style="fill:#ffffff;fill-opacity:1;fill-rule:evenodd;stroke:none"
         id="path12" />
      <path
         d="M 1331.04,1091.24 H 822.023 L 817.117,844.898 Z M 982.164,844.898 H 1425.41 L 1328.59,707.227 H 814.664 l -3.266,-171.172 -186.289,74.351 64.957,480.834 H 529.105 L 440.867,761.969 339.145,956.02 l 252.058,649.55 85.383,29.42 -112.344,-415.47 h 144.617 l 62.098,448.15 62.504,7.36 -8.172,-455.51 h 664.261 v -116.84 l 10.63,-9.4 -518.016,-248.382"
         style="fill:#2096dc;fill-opacity:1;fill-rule:evenodd;stroke:none"
         id="path14" />
      <path
         d="m 674.137,1664.4 c -71.492,-30.63 -135.227,-73.53 -190.375,-128.68 -55.969,-55.15 -98.864,-118.48 -128.684,-189.97 -31.867,-73.94 -47.39,-151.56 -46.168,-232.86 -1.222,-80.48 14.301,-157.687 46.168,-231.632 29.82,-71.488 72.715,-134.813 128.684,-189.965 55.148,-55.148 118.883,-98.043 190.375,-128.684 73.531,-30.64 150.746,-46.164 231.633,-46.164 81.296,0 158.51,15.524 232.45,46.164 71.49,30.641 135.22,73.536 190.37,128.684 55.15,55.152 98.05,118.477 128.28,189.965 31.05,73.945 46.98,151.152 47.39,231.632 -0.41,81.3 -16.34,158.92 -47.39,232.86 -30.23,71.49 -73.13,134.82 -128.28,189.97 -55.15,55.15 -118.88,98.05 -190.37,128.68 -73.94,30.64 -151.154,46.17 -232.45,46.17 -80.887,0 -158.102,-15.53 -231.633,-46.17 z m 13.855,-32.85 C 620.766,1602.74 560.836,1562.4 508.973,1510.54 456.34,1458.68 416.008,1399.13 387.961,1331.9 c -29.965,-69.53 -44.563,-142.52 -43.41,-218.97 -1.153,-75.68 13.445,-148.289 43.41,-217.821 28.047,-67.23 68.379,-126.777 121.012,-178.636 51.863,-51.864 111.793,-92.203 179.019,-121.012 69.153,-28.816 141.758,-43.414 217.824,-43.414 76.45,0 149.054,14.598 218.594,43.414 67.22,28.809 127.15,69.148 179.02,121.012 51.86,51.859 92.2,111.406 120.62,178.636 29.2,69.532 44.18,142.141 44.57,217.821 -0.39,76.45 -15.37,149.44 -44.57,218.97 -28.42,67.23 -68.76,126.78 -120.62,178.64 -51.87,51.86 -111.8,92.2 -179.02,121.01 -69.54,28.82 -142.144,43.41 -218.594,43.41 -76.066,0 -148.671,-14.59 -217.824,-43.41"
         style="fill:#2096dc;fill-opacity:1;fill-rule:evenodd;stroke:none"
         id="path16" />
      <path
         d="m 1076.54,1359.64 v -85.38 h 123.78 v 85.38 h -123.78"
         style="fill:#2096dc;fill-opacity:1;fill-rule:evenodd;stroke:none"
         id="path18" />
      <path
         d="m 286.035,218.629 h -15.523 l -10.215,29.414 c -2.043,4.902 -4.902,8.988 -8.984,12.664 -4.497,3.27 -9.399,4.902 -14.711,4.902 h -26.961 v -46.98 H 195.34 v 109.074 h 48.207 c 8.582,0 15.527,-0.816 20.836,-2.039 5.312,-2.043 9.805,-5.312 13.074,-10.621 3.676,-5.313 5.309,-11.031 5.309,-17.566 0,-7.766 -2.043,-13.895 -6.536,-19.204 -4.496,-4.902 -10.214,-8.171 -17.976,-9.804 v -0.406 c 7.762,-2.047 13.48,-8.579 17.156,-19.614 z m 737.795,0.41 h -86.197 v 13.481 l 67.817,82.523 h -61.282 v 13.07 h 78.032 v -13.48 l -67.817,-82.524 h 69.447 z M 463.336,263.566 443.727,314.223 425.75,263.566 Z M 170.828,218.629 h -14.703 v 51.473 H 99.7461 v -51.473 h -14.707 v 109.074 h 14.707 v -44.527 h 56.3789 v 44.527 h 14.703 z m 1671.692,0 h -81.71 v 109.074 h 78.85 v -12.66 h -64.14 v -33.5 h 60.05 v -12.664 h -60.05 v -37.18 h 67 z m -145.84,-1.633 c -15.12,0 -27.38,4.899 -36.77,15.113 -9.4,10.215 -13.89,23.696 -13.89,41.262 0,17.156 4.49,31.047 13.89,41.262 9.39,10.211 21.65,15.117 36.77,15.117 11.84,0 22.06,-3.27 30.23,-9.398 8.58,-6.536 13.07,-15.114 14.29,-25.735 h -15.11 c -0.41,6.946 -3.27,12.66 -8.58,16.746 -5.31,4.086 -12.26,6.129 -20.83,6.129 -11.04,0 -19.61,-3.676 -26.15,-11.437 -6.13,-7.762 -9.4,-18.383 -9.4,-32.684 0,-14.297 3.27,-24.922 9.4,-32.68 6.13,-7.761 15.11,-11.437 26.15,-11.437 8.57,0 15.52,2.039 20.83,6.125 5.31,4.496 8.17,10.211 8.58,17.976 h 15.11 c -1.22,-11.441 -5.71,-20.425 -13.89,-26.964 -8.17,-6.129 -18.38,-9.395 -30.63,-9.395 z m -71.91,1.633 h -14.7 v 109.074 h 14.7 z m -40.44,0 h -15.12 l -57.19,86.199 v -86.199 h -13.48 v 109.074 h 14.71 l 57.19,-85.789 v 85.789 h 13.89 z m -102.54,0 h -86.2 v 13.48 l 67.82,82.934 h -61.28 v 12.66 h 78.03 v -13.48 l -67.82,-82.524 h 69.45 z m -96.82,0 h -81.7 v 109.074 h 78.84 v -12.66 h -64.14 v -33.5 h 60.06 v -12.664 h -60.06 v -37.18 h 67 z m -105.81,35.133 c 0,-13.481 -2.45,-22.879 -7.76,-28.188 -5.31,-5.719 -12.67,-8.578 -22.88,-8.578 -8.98,0 -15.93,2.859 -21.24,8.172 -5.31,5.715 -7.76,13.07 -7.76,22.059 v 2.859 h 14.3 c 0,-13.481 4.9,-20.02 14.7,-20.02 5.32,0 9.4,1.633 11.85,4.497 2.86,2.859 4.49,9.394 4.49,18.792 v 74.758 h 14.3 z m -69.04,-35.133 h -67.41 v 109.074 h 14.3 v -96.004 h 53.11 z m -87.83,0 h -81.71 v 109.074 h 78.85 v -12.66 h -64.14 v -33.5 h 60.05 v -12.664 h -60.05 v -37.18 h 67 z m -117.25,137.676 -16.341,-21.246 h -14.297 l -16.75,21.246 h 15.524 l 8.172,-12.668 8.574,12.668 z M 886.977,218.629 h -81.704 v 109.074 h 78.844 v -12.66 h -64.14 v -33.5 h 60.054 v -12.664 h -60.054 v -37.18 h 67 z m -94.372,0 h -18.789 l -38.812,54.332 -17.156,-16.34 v -37.992 h -14.301 v 109.074 h 14.301 v -53.926 l 53.515,53.926 h 19.61 l -45.754,-44.527 z m -149.929,-1.633 c -15.113,0 -26.551,3.266 -34.317,10.211 -7.761,6.945 -11.843,15.527 -12.254,26.555 h 13.891 c 0.817,-8.172 4.086,-14.301 10.215,-17.977 6.125,-3.676 13.48,-5.719 22.059,-5.719 8.171,0 14.707,1.633 19.609,4.903 4.902,3.269 7.351,7.765 7.351,13.48 0,6.129 -2.449,10.215 -7.761,13.074 -5.313,2.86 -13.887,5.313 -26.145,8.172 -12.664,2.86 -21.652,6.535 -26.965,11.032 -5.308,4.492 -8.168,11.031 -8.168,18.789 0,8.578 3.676,15.933 10.622,21.652 6.945,5.719 15.933,8.582 27.781,8.582 12.664,0 22.469,-2.863 30.23,-8.582 7.352,-5.719 11.442,-13.891 11.848,-24.102 h -14.301 c -1.223,13.071 -10.215,19.61 -26.961,19.61 -8.172,0 -14.301,-1.633 -18.793,-4.492 -4.492,-2.864 -6.535,-6.946 -6.535,-11.852 0,-4.492 1.633,-8.168 5.313,-10.621 3.675,-2.039 10.21,-4.492 20.015,-6.535 9.395,-2.043 17.156,-4.086 22.875,-6.125 5.723,-2.043 10.621,-5.313 14.707,-9.805 4.09,-4.496 6.129,-10.215 6.129,-17.566 0,-9.399 -3.676,-17.571 -11.031,-23.696 -7.352,-6.129 -17.156,-8.988 -29.414,-8.988 z m -56.375,98.047 h -35.949 v -96.414 h -14.707 v 96.414 h -35.95 v 12.66 h 86.606 z m -89.875,-96.414 h -16.34 l -12.668,33.5 h -45.754 l -11.844,-33.5 h -15.527 l 42.078,109.074 h 15.524 z M 393.477,327.703 350.988,218.629 h -14.707 l -42.484,109.074 h 15.523 l 34.317,-93.14 34.316,93.14 z m -183.836,-49.43 h 32.273 c 8.984,0 15.524,1.633 19.609,4.493 4.082,2.863 6.125,7.761 6.125,14.711 0,12.253 -7.757,18.382 -23.285,18.382 h -34.722 v -37.586"
         style="fill:#2096dc;fill-opacity:1;fill-rule:evenodd;stroke:none"
         id="path20" />
    </g>
  </g>
</svg>
