<svg xmlns="http://www.w3.org/2000/svg" viewBox="0 0.33 257.01 257.01"><g fill-rule="evenodd" transform="matrix(.13333333 0 0 -.13333333 0 257.33333)"><path d="m0 1927.56h1927.56v-1927.56h-1927.56z" fill="#fff"/><g fill="#2096dc"><path d="m1331.04 1091.24h-509.017l-4.906-246.342zm-348.876-246.342h443.246l-96.82-137.671h-513.926l-3.266-171.172-186.289 74.351 64.957 480.834h-160.961l-88.238-329.271-101.722 194.051 252.058 649.55 85.383 29.42-112.344-415.47h144.617l62.098 448.15 62.504 7.36-8.172-455.51h664.261v-116.84l10.63-9.4z"/><path d="m674.137 1664.4c-71.492-30.63-135.227-73.53-190.375-128.68-55.969-55.15-98.864-118.48-128.684-189.97-31.867-73.94-47.39-151.56-46.168-232.86-1.222-80.48 14.301-157.687 46.168-231.632 29.82-71.488 72.715-134.813 128.684-189.965 55.148-55.148 118.883-98.043 190.375-128.684 73.531-30.64 150.746-46.164 231.633-46.164 81.296 0 158.51 15.524 232.45 46.164 71.49 30.641 135.22 73.536 190.37 128.684 55.15 55.152 98.05 118.477 128.28 189.965 31.05 73.945 46.98 151.152 47.39 231.632-.41 81.3-16.34 158.92-47.39 232.86-30.23 71.49-73.13 134.82-128.28 189.97s-118.88 98.05-190.37 128.68c-73.94 30.64-151.154 46.17-232.45 46.17-80.887 0-158.102-15.53-231.633-46.17zm13.855-32.85c-67.226-28.81-127.156-69.15-179.019-121.01-52.633-51.86-92.965-111.41-121.012-178.64-29.965-69.53-44.563-142.52-43.41-218.97-1.153-75.68 13.445-148.289 43.41-217.821 28.047-67.23 68.379-126.777 121.012-178.636 51.863-51.864 111.793-92.203 179.019-121.012 69.153-28.816 141.758-43.414 217.824-43.414 76.45 0 149.054 14.598 218.594 43.414 67.22 28.809 127.15 69.148 179.02 121.012 51.86 51.859 92.2 111.406 120.62 178.636 29.2 69.532 44.18 142.141 44.57 217.821-.39 76.45-15.37 149.44-44.57 218.97-28.42 67.23-68.76 126.78-120.62 178.64-51.87 51.86-111.8 92.2-179.02 121.01-69.54 28.82-142.144 43.41-218.594 43.41-76.066 0-148.671-14.59-217.824-43.41"/><path d="m1076.54 1359.64v-85.38h123.78v85.38z"/><path d="m286.035 218.629h-15.523l-10.215 29.414c-2.043 4.902-4.902 8.988-8.984 12.664-4.497 3.27-9.399 4.902-14.711 4.902h-26.961v-46.98h-14.301v109.074h48.207c8.582 0 15.527-.816 20.836-2.039 5.312-2.043 9.805-5.312 13.074-10.621 3.676-5.313 5.309-11.031 5.309-17.566 0-7.766-2.043-13.895-6.536-19.204-4.496-4.902-10.214-8.171-17.976-9.804v-.406c7.762-2.047 13.48-8.579 17.156-19.614zm737.795.41h-86.197v13.481l67.817 82.523h-61.282v13.07h78.032v-13.48l-67.817-82.524h69.447zm-560.494 44.527-19.609 50.657-17.977-50.657zm-292.508-44.937h-14.703v51.473h-56.3789v-51.473h-14.707v109.074h14.707v-44.527h56.3789v44.527h14.703zm1671.692 0h-81.71v109.074h78.85v-12.66h-64.14v-33.5h60.05v-12.664h-60.05v-37.18h67zm-145.84-1.633c-15.12 0-27.38 4.899-36.77 15.113-9.4 10.215-13.89 23.696-13.89 41.262 0 17.156 4.49 31.047 13.89 41.262 9.39 10.211 21.65 15.117 36.77 15.117 11.84 0 22.06-3.27 30.23-9.398 8.58-6.536 13.07-15.114 14.29-25.735h-15.11c-.41 6.946-3.27 12.66-8.58 16.746s-12.26 6.129-20.83 6.129c-11.04 0-19.61-3.676-26.15-11.437-6.13-7.762-9.4-18.383-9.4-32.684 0-14.297 3.27-24.922 9.4-32.68 6.13-7.761 15.11-11.437 26.15-11.437 8.57 0 15.52 2.039 20.83 6.125 5.31 4.496 8.17 10.211 8.58 17.976h15.11c-1.22-11.441-5.71-20.425-13.89-26.964-8.17-6.129-18.38-9.395-30.63-9.395zm-71.91 1.633h-14.7v109.074h14.7zm-40.44 0h-15.12l-57.19 86.199v-86.199h-13.48v109.074h14.71l57.19-85.789v85.789h13.89zm-102.54 0h-86.2v13.48l67.82 82.934h-61.28v12.66h78.03v-13.48l-67.82-82.524h69.45zm-96.82 0h-81.7v109.074h78.84v-12.66h-64.14v-33.5h60.06v-12.664h-60.06v-37.18h67zm-105.81 35.133c0-13.481-2.45-22.879-7.76-28.188-5.31-5.719-12.67-8.578-22.88-8.578-8.98 0-15.93 2.859-21.24 8.172-5.31 5.715-7.76 13.07-7.76 22.059v2.859h14.3c0-13.481 4.9-20.02 14.7-20.02 5.32 0 9.4 1.633 11.85 4.497 2.86 2.859 4.49 9.394 4.49 18.792v74.758h14.3zm-69.04-35.133h-67.41v109.074h14.3v-96.004h53.11zm-87.83 0h-81.71v109.074h78.85v-12.66h-64.14v-33.5h60.05v-12.664h-60.05v-37.18h67zm-117.25 137.676-16.341-21.246h-14.297l-16.75 21.246h15.524l8.172-12.668 8.574 12.668zm-118.063-137.676h-81.704v109.074h78.844v-12.66h-64.14v-33.5h60.054v-12.664h-60.054v-37.18h67zm-94.372 0h-18.789l-38.812 54.332-17.156-16.34v-37.992h-14.301v109.074h14.301v-53.926l53.515 53.926h19.61l-45.754-44.527zm-149.929-1.633c-15.113 0-26.551 3.266-34.317 10.211-7.761 6.945-11.843 15.527-12.254 26.555h13.891c.817-8.172 4.086-14.301 10.215-17.977 6.125-3.676 13.48-5.719 22.059-5.719 8.171 0 14.707 1.633 19.609 4.903 4.902 3.269 7.351 7.765 7.351 13.48 0 6.129-2.449 10.215-7.761 13.074-5.313 2.86-13.887 5.313-26.145 8.172-12.664 2.86-21.652 6.535-26.965 11.032-5.308 4.492-8.168 11.031-8.168 18.789 0 8.578 3.676 15.933 10.622 21.652 6.945 5.719 15.933 8.582 27.781 8.582 12.664 0 22.469-2.863 30.23-8.582 7.352-5.719 11.442-13.891 11.848-24.102h-14.301c-1.223 13.071-10.215 19.61-26.961 19.61-8.172 0-14.301-1.633-18.793-4.492-4.492-2.864-6.535-6.946-6.535-11.852 0-4.492 1.633-8.168 5.313-10.621 3.675-2.039 10.21-4.492 20.015-6.535 9.395-2.043 17.156-4.086 22.875-6.125 5.723-2.043 10.621-5.313 14.707-9.805 4.09-4.496 6.129-10.215 6.129-17.566 0-9.399-3.676-17.571-11.031-23.696-7.352-6.129-17.156-8.988-29.414-8.988zm-56.375 98.047h-35.949v-96.414h-14.707v96.414h-35.95v12.66h86.606zm-89.875-96.414h-16.34l-12.668 33.5h-45.754l-11.844-33.5h-15.527l42.078 109.074h15.524zm-102.949 109.074-42.489-109.074h-14.707l-42.484 109.074h15.523l34.317-93.14 34.316 93.14zm-183.836-49.43h32.273c8.984 0 15.524 1.633 19.609 4.493 4.082 2.863 6.125 7.761 6.125 14.711 0 12.253-7.757 18.382-23.285 18.382h-34.722z"/></g></g></svg>