<svg xmlns="http://www.w3.org/2000/svg" xmlns:xlink="http://www.w3.org/1999/xlink" viewBox="0 0 5952.75 8418.9"><clipPath id="a"><path d="m0 8418.9h5952.75v-8418.9h-5952.75z"/></clipPath><g clip-path="url(#a)" transform="matrix(.125 0 0 -.125 -103.998 631.3225)"><path d="m2666.73 4717.86c38.13 0 66.57-19.06 95.17-47.37l484.79-484.64c95.16-95.02 199.58-142.68 342.25-142.68h903.15l-332.73-332.72h-846.25c-47.51 0-75.81 9.53-104.4 38.12l-484.94 484.64c-95.02 95.31-199.43 142.68-342.11 142.68h-903.15l332.73 341.97zm332.87 190.04c-95.02 95.32-209.26 142.68-332.87 142.68h-988.64l-846.106-836.14 846.106-845.96h475.4l-674.98 674.69h903.15c37.98 0 75.96-9.53 104.56-38.12l484.78-494.18c95.02-95.02 209.11-142.39 332.73-142.39h998.17l836.72 845.96-836.72 836.14h-484.79l674.98-674.69h-903.15c-38.12 0-66.43 19.06-95.03 37.84" fill="#339" fill-rule="evenodd"/></g></svg>