<svg xmlns="http://www.w3.org/2000/svg" viewBox="6.05 11.28 1000 205.99"><path d="m172.889 216.998h-17.774s-60.7643.06-74.7744-42.118h19.3003 59.6521s60.735-.04 74.738 42.118zm-25.064-81.515h-30.106s-60.7423.07-74.7524-42.1174h30.0114 86.314s60.735-.073 74.738 42.1174zm0-81.4098h-67.0201s-60.7204.073-74.75233-42.1177h86.21913 67.0203s60.735-.073 74.738 42.1177z" fill="#f89c0e"/><path d="m839.234 216.998h17.789s60.727.06 74.759-42.118h-19.322-59.63s-60.757-.04-74.752 42.118zm25.067-81.515h30.07s60.756.07 74.781-42.1174h-30.004-86.314s-60.757-.073-74.759 42.1174zm0-81.4098h66.999s60.757.073 74.75-42.1177h-86.217-66.999s-60.757-.073-74.759 42.1177z" fill="#f89c0e"/><path d="m692.314 216.198c-18.633-2.72-30.183-9.86-37.146-22.97-6.104-11.49-6.456-15.833-6.436-79.358 0-62.242.297-65.955 5.699-76.617 3.399-6.708 10.882-14.856 16.863-18.361 15.409-9.03 40.117-9.036 55.514 0 13.747 8.056 23.64 26.566 23.64 44.23v6.338h-15.981-15.98l-.39-8.045c-.708-14.614-5.67-20.191-18.069-20.308-7.138-.07-10.262 1.396-14.133 6.617-3.502 4.723-4.127 16.833-3.777 73.184.325 52.163.407 54.052 2.482 58.01 2.929 5.59 6.58 8.04 12.846 8.65 7.073.67 13.752-1.92 17.465-6.78l2.837-3.717.314-23.701.314-23.7h-9.917-9.916v-15.052-15.053h25.952 25.953v38.15c0 40.923-.244 43.163-5.547 54.353-7.944 16.77-30.899 27.31-52.574 24.14zm-70.708 1.07v-30.25h-59.107v-57.263h58.991v-31.036h-58.991v-58.148h59.122v-28.805h-94.387v205.502zm-193.559-176.63h12.041c18.552 0 24.983 7.129 24.983 28.711v89.169c0 21.6-6.431 28.81-24.983 28.81h-12.041zm-34.844 176.39h51.659c35.97 0 55.031-19.92 55.031-62.071v-81.35c0-42.081-19.061-62.021-55.031-62.021h-51.659zm-133.282-51.15c0 28.28 16.83 51.39 53.345 51.39 36.413 0 53.286-23.11 53.286-51.39v-103.238c0-28.347-16.873-51.361-53.286-51.361-36.515 0-53.345 23.014-53.345 51.361zm34.749-102.416c0-14.992 4.535-22.193 18.596-22.193 13.959 0 18.443 7.201 18.443 22.193v101.588c0 15.008-4.484 22.188-18.443 22.188-14.061 0-18.596-7.18-18.596-22.188z" fill="#2c5357"/></svg>