<svg enable-background="new 0 0 778.834 164.25" height="164.25" viewBox="0 0 778.834 164.25" width="778.834" xmlns="http://www.w3.org/2000/svg"><path d="m112.802 5.324-20.52 21.301h-9.865c-13.68 0-25.814 5.326-36.402 15.979-10.59 10.652-15.883 22.818-15.883 36.494 0 16.176 4.801 29.654 14.406 40.438 9.867 11.311 22.826 16.965 38.877 16.965 16.445 0 29.469-5.131 39.074-15.396 9.078-9.736 14.209-22.961 15.393-39.672.92-13.289-2.248-24.475-9.502-33.555l21.51-22.502c11.578 13.547 17.367 32.484 17.367 56.813 0 25.645-7.496 45.734-22.484 60.266-14.99 14.529-35.305 21.797-60.943 21.797-25.246 0-45.594-7.658-61.043-22.971-15.45-15.316-23.044-35.527-22.78-60.635.262-26.027 9.531-46.466 27.805-61.322 15.773-12.883 34.441-19.324 56.001-19.324 12.227 0 21.889 1.775 28.989 5.324zm46.816-.06-45.686 45.361h-33.865l45.158-45.361zm114.717-1.014c8.938 0 17.283 2.631 25.039 7.893 11.172 7.496 16.758 18.676 16.758 33.539 0 8.945-.527 14.996-1.58 18.152-1.713 4.998-5.598 9.799-11.656 14.402 8.531 4.998 14.439 9.93 17.723 14.797 3.676 5.523 5.514 12.955 5.514 22.293 0 14.074-4.697 25.518-14.092 34.33s-21.186 13.219-35.373 13.219h-81.785v-158.625zm-47.078 61.5h39.174c4.855 0 9.186-1.643 12.992-4.932 3.805-3.287 5.709-7.299 5.709-12.033 0-5.652-1.904-9.926-5.709-12.82-3.807-2.893-8.596-4.34-14.369-4.34h-37.797zm0 69.75h44.709c5.908 0 10.996-1.91 15.264-5.732 4.268-3.82 6.402-8.631 6.402-14.43 0-5.664-1.938-10.408-5.811-14.23-3.875-3.82-8.635-5.732-14.279-5.732h-46.285zm209.728-131.25c8.801 0 17.141 2.631 25.023 7.893 11.164 7.496 16.748 18.676 16.748 33.539 0 8.287-.656 14.404-1.967 18.35-1.705 5.129-5.377 9.865-11.014 14.205 8.268 4.998 14.107 9.996 17.521 14.994 3.805 5.656 5.709 13.021 5.709 22.096 0 14.074-4.697 25.518-14.09 34.33s-21.182 13.219-35.367 13.219h-82.167v-158.626zm-47.104 61.5h39.568c4.461 0 8.627-1.709 12.498-5.129 3.871-3.418 5.809-7.363 5.809-11.836 0-11.439-6.693-17.16-20.078-17.16h-37.797zm0 69.75h44.941c5.65 0 10.678-1.943 15.08-5.83s6.604-8.664 6.604-14.332c0-5.402-2.004-10.08-6.012-14.033s-8.707-5.93-14.094-5.93h-46.52v40.125z" fill="#464644"/><path d="m654.407 69.875h65.27c.656 2.766.986 6.713.986 11.846 0 5.135-.33 10.465-.986 15.992-2.762 23.035-12.488 40.74-29.184 53.111-12.096 8.949-23.797 13.426-35.102 13.426l-154.4-.197 59.75-60.193h75.918c6.703 0 12.389-2.008 17.057-6.025s6.672-9.32 6.016-15.906c-.396-3.425-2.171-7.443-5.325-12.054zm-21.887-69c-16.301 0-30.828 4.145-43.58 12.43-18.01 11.707-28.789 30.32-32.338 55.836-.658 4.734-.986 8.943-.986 12.627 0 5.525.592 9.668 1.775 12.43h65.268c-3.113-2.637-4.668-6.326-4.668-11.072 0-5.535 2.266-10.545 6.801-15.027 4.533-4.48 9.559-6.723 15.078-6.723h77.859l61.105-60.5h-146.314z" fill="#bf111b"/></svg>