<svg xmlns="http://www.w3.org/2000/svg" clip-rule="evenodd" fill-rule="evenodd" image-rendering="optimizeQuality" shape-rendering="geometricPrecision" text-rendering="geometricPrecision" viewBox="0.01 0 38.53 23.88"><g fill="#dd411a"><path d="m30.79 8.768-11.52-.00003024c-1.753 0-3.175 1.422-3.175 3.175 0 .6.1667 1.161.456 1.64h-9.112c-.07365-.5361-.1117-1.084-.1117-1.64 0-6.595 5.348-11.94 11.94-11.94v.00003024h19.27l-7.759 8.768z"/><path d="m7.759 15.12 11.52.00003024c1.753 0 3.175-1.422 3.175-3.175 0-.6-.1667-1.161-.456-1.64h9.112c.07365.5361.1117 1.084.1117 1.64 0 6.595-5.348 11.94-11.94 11.94v-.00003024h-19.27l7.759-8.768z"/></g></svg>