<svg xmlns="http://www.w3.org/2000/svg" xmlns:xlink="http://www.w3.org/1999/xlink" viewBox="0 0 3779.73 794.88"><clipPath id="a"><path clip-rule="evenodd" d="m0 .00012207h2834.64v596.15999793h-2834.64z"/></clipPath><clipPath id="b"><path clip-rule="evenodd" d="m0 .00012207h2834.64v596.15999793h-2834.64z"/></clipPath><g transform="matrix(1.3333333 0 0 -1.3333333 0 794.88)"><g clip-path="url(#a)"><path d="m0 0h2834.64v596.16h-2834.64z" fill="#fff" fill-rule="evenodd"/></g><g clip-path="url(#b)"><path d="m2662.9 163.51c-29.31 0-52.77-18.94-52.77-51.2 0-31.936 23.46-50.891 52.77-50.891 15.15 0 33.08 6.266 42.27 13.55v46.521h-46.5v-17.64h26.1v-18.217c-5.4-3.214-12.68-5.255-20.57-5.255-18.94 0-32.94 11.656-32.94 31.932 0 20.57 14.01 32.26 32.09 32.26 11.65 0 20.83-3.67 28.57-10.09l9.48 15.63c-9.92 8.01-22.47 13.4-38.5 13.4zm-757.44-.14c-27.25 0-39.65-13.57-39.65-30.05 0-13.41 7.73-22.61 22.74-26.55l18.79-5.1c8.9-2.481 14.15-5.101 14.15-10.495 0-6.561-6.71-11.074-18.67-11.074-11.94 0-23.46 4.662-30.6 9.304l-4.81-19.378c6.41-3.662 20.56-8.608 34.99-8.608 23.91 0 40.38 12.682 40.38 31.347 0 14.154-8.75 22.334-26.68 27.444l-18.37 5.23c-7.14 2.06-10.8 4.24-10.8 9.63 0 5.69 5.27 9.63 17.79 9.63 10.79 0 23.19-3.65 30.48-8.31l5.83 19.09c-7.58 4.08-21.28 7.89-35.57 7.89zm909.12-.61c-14.02 0-25.24-9.07-25.24-24.49 0-15.25 11.22-24.33 25.24-24.33 7.24 0 15.83 2.99 20.22 6.48v22.25h-22.24v-8.45h12.47v-8.71c-2.57-1.53-6.05-2.49-9.83-2.49-9.06 0-15.76 5.56-15.76 15.25 0 9.84 6.7 15.43 15.35 15.43 5.57 0 9.97-1.75 13.66-4.81l4.53 7.45c-4.73 3.85-10.74 6.42-18.4 6.42zm-59.37-.7-18.89-47.41h9.91l3.67 9.48h21.57l3.61-9.48h9.91l-18.34 47.41zm-759.24-.02-39.5-99.155h20.7l7.73 19.835h45.04l7.6-19.835h20.7l-38.35 99.155zm83.71 0v-99.155h64.7v17.788h-44.27v81.367zm86.63 0v-17.78h51.03l-51.03-67.082v-14.293h77.26v17.788h-50.72l50.72 67.077v14.29zm105.08 0v-99.155h48.11c23.18 0 35.57 10.205 35.57 26.52 0 14.445-8.74 22.345-23.16 25.105 9.47 3.63 15.3 10.77 15.3 21.15 0 18.08-12.83 26.38-34.4 26.38zm108.26 0v-57.31c0-25.214 15.61-43.444 44.89-43.444 29.61 0 45.34 20.124 45.34 43.444v57.31h-20.41v-55.85c0-15.301-8.16-25.965-24.93-25.965-16.47 0-24.49 10.063-24.49 25.815v56zm119.84 0v-99.155h20.4v35.727h9.91c12.4-9.204 28.71-37.193 50.88-37.193 6.42 0 12.25 1.753 16.33 3.798l-2.05 16.188c-3.19-1.464-7.71-2.333-11.07-2.333-10.35 0-19.98 10.937-29.3 19.977 15.88 2.471 28 14.291 28 30.771 0 24.34-20 32.22-39.51 32.22zm261.43-9.67 8.1-20.98h-16.6zm-469.1-7.81h18.07c10.34 0 16.16-2.63 16.16-11.24 0-8.17-6.25-11.07-16.6-11.07h-17.63zm228.07-.3h25.37c9.33 0 16.03-5.12 16.03-14.87 0-9.19-6.7-14.74-16.03-14.74h-25.37zm-511.94-2.47 16.91-43.908h-34.7zm283.87-37.49h23.03c11.8 0 18.36-3.21 18.36-12.266 0-8.007-5.39-11.654-16.62-11.654h-24.77z" fill-rule="evenodd"/></g><g fill-rule="evenodd"><path d="m1631.66 224.47c-1.98 0-4.02-1.53-4.71-3.39-.02-.07-47.19-154.522-47.19-154.522-.6-1.959.59-3.599 2.64-3.599h113.65c2.05 0 4.23 1.611 4.82 3.57l8.94 29.307c.59 1.959-.58 3.57-2.64 3.57h-73.29c-2.06 0-3.25 1.604-2.66 3.554l24.97 81.62c.59 1.96 2.76 3.56 4.81 3.56h73.3c2.04 0 4.22 1.61 4.82 3.59l8.91 29.18c.6 1.96-.59 3.56-2.64 3.56zm56.85-62.44c-2.06 0-4.23-1.6-4.83-3.56l-8.93-29.32c-.6-1.96.58-3.57 2.63-3.57h73.3c2.06 0 3.24-1.6 2.65-3.58l-24.95-81.589c-.6-1.959-2.78-3.57-4.83-3.57h-73.29c-2.05 0-4.22-1.609-4.82-3.567l-8.91-29.1928c-.61-1.9589.59-3.56979 2.64-3.56979h113.73c1.97 0 4.01 1.53629 4.7 3.39849.02.0528 47.2 154.5201 47.2 154.5201.6 1.97-.6 3.6-2.65 3.6z" fill="#e2001a"/><path d="m832.53 289.17v-31.58h34c6.95.01 12.14 1.31 15.59 3.92 3.44 2.6 5.16 6.45 5.16 11.54-.03 5.5-1.96 9.57-5.8 12.2-3.83 2.63-9.4 3.94-16.71 3.92zm185.43 52.27-22.73-58.7h44.35zm-464.33 0-22.72-58.7h44.35zm-345.29 3.78c-12.04-.25-21.79-4.28-29.27-12.08-7.49-7.81-11.34-17.91-11.56-30.3.22-12.19 4.07-22.19 11.56-30.02 7.48-7.83 17.23-11.88 29.27-12.14 12.32.26 22.16 4.31 29.52 12.14 7.35 7.83 11.12 17.83 11.31 30.02-.19 12.39-3.96 22.49-11.31 30.3-7.36 7.8-17.2 11.83-29.52 12.08zm624.19 3.31v-29.37h23.4c6.66-.03 11.78 1.13 15.35 3.47 3.57 2.35 5.37 6.05 5.41 11.1-.02 5.26-1.75 9.05-5.19 11.38s-8.48 3.47-15.13 3.42zm476.68 29.54h32.19l75.48-91.12v91.12h37.04v-150.02h-31.97l-75.7 91.12v-91.12h-37.04zm-187.7 0h37.04v-58.03h70.85v58.03h37.04v-150.02h-37.04v59.8h-70.85v-59.8h-37.04zm-125.4 0h43.47l56.92-150.02h-37.51l-10.15 27.58h-62.88l-10.37-27.58h-37.5zm-200.62 0h66.41c16.78.05 29.76-3.24 38.95-9.84 9.2-6.6 13.86-16.77 13.98-30.52-.06-7.53-1.98-13.95-5.76-19.26-3.78-5.32-9.06-9.42-15.84-12.3 10.56-2.17 18.76-6.32 24.61-12.46s8.82-14.5 8.9-25.06c-.07-12.69-4.77-22.6-14.11-29.72-9.33-7.12-22.86-10.74-40.58-10.86h-76.56zm-138.3 0h37.03v-117.83h74.58v-32.19h-111.61zm-125.4 0h43.47l56.92-150.02h-37.51l-10.15 27.58h-62.88l-10.37-27.58h-37.51zm-213.79 0h37.04v-60.24h25.81l37.51 60.24h38.17v-5.51l-48.1-71.71c3.3-4.28 6.96-9.76 10.99-16.45 4.02-6.68 8.52-12.71 13.48-18.08 4.96-5.36 10.48-8.2 16.57-8.51 2.5-.01 5.17.22 8 .69 2.83.46 5.39 1.19 7.67 2.18l3.75-29.11c-3.2-1.59-7.23-2.93-12.08-4.02-4.86-1.09-9.88-1.66-15.06-1.71-9.16.19-17.14 2.61-23.92 7.24-6.78 4.62-12.66 10.31-17.64 17.06-4.99 6.74-9.37 13.38-13.14 19.91-3.78 6.54-7.24 11.81-10.39 15.81h-21.62v-57.81h-37.04zm-312.84 0h37.039v-117.83h74.571v-32.19h-111.61zm202.96 2.21c14.92-.13 28.18-3.54 39.79-10.22 11.6-6.68 20.74-15.82 27.42-27.43 6.68-11.6 10.08-24.87 10.22-39.79-.14-14.78-3.54-27.94-10.22-39.49-6.68-11.54-15.82-20.64-27.42-27.31-11.61-6.66-24.87-10.06-39.79-10.2-14.78.14-27.94 3.54-39.48 10.2-11.54 6.67-20.65 15.77-27.31 27.31-6.66 11.55-10.06 24.71-10.2 39.49.14 14.92 3.54 28.19 10.2 39.79 6.66 11.61 15.77 20.75 27.31 27.43s24.7 10.09 39.48 10.22z"/><path d="m798.19 557.38-22.69-58.62h44.29zm466.32 4.43v-37.02h33.51c6.13.09 10.95 1.79 14.47 5.13 3.51 3.33 5.3 7.79 5.37 13.38-.07 5.79-1.86 10.3-5.37 13.55-3.52 3.25-8.34 4.91-14.47 4.96zm-1227.523 0v-45.86h31.522c6.646.09 12.092 2.17 16.34 6.23s6.443 9.55 6.586 16.48c-.143 7.33-2.338 13.01-6.586 17.03-4.248 4.03-9.694 6.07-16.34 6.12zm1190.543 32.15h71.15c9.87.04 19.15-1.63 27.83-5.01 8.69-3.38 15.76-8.7 21.22-15.97 5.45-7.27 8.27-16.72 8.44-28.36-.22-11.91-3.91-21.81-11.09-29.7s-16.55-13.05-28.1-15.49c6.7-6.46 13.39-12.27 20.09-17.41s13.5-7.86 20.42-8.16c2.49 0 5.17.23 8.02.69 2.85.47 5.46 1.19 7.84 2.18l3.53-29.07c-3.12-1.58-6.85-2.92-11.18-4.01s-9.05-1.66-14.15-1.71c-8.58.19-16.61 2.48-24.09 6.89-7.49 4.4-14.48 9.79-20.98 16.16-6.51 6.37-12.58 12.59-18.22 18.68-5.65 6.09-10.91 10.91-15.81 14.46h-7.94v-53.99h-36.98zm-154.06 0h120.26v-32.15h-85.04v-25.81h68.96v-31.04h-68.96v-28.67h85.04v-32.15h-120.26zm-179.02 0h36.98v-83.08c.02-10.89 2.75-19.4 8.19-25.5 5.44-6.11 13.51-9.21 24.22-9.31 11.02.13 19.28 3.28 24.79 9.47s8.27 14.64 8.27 25.34v83.08h36.99v-85.5c-.03-12.13-2.72-23.22-8.08-33.27-5.36-10.04-13.24-18.09-23.64-24.15-10.4-6.05-23.18-9.16-38.33-9.32-22.46.36-39.62 6.63-51.47 18.83-11.85 12.19-17.83 28.16-17.92 47.91zm-118.07 0h43.41l56.84-149.82h-37.45l-10.14 27.55h-62.79l-10.36-27.55h-37.45zm-361.02 0h119.2v-25.54l-71.17-92.13h71.17v-32.15h-119.2v25.54l71.39 92.13h-71.39zm-178.47 0h32.14l75.38-90.99v90.99h36.99v-149.82h-31.93l-75.59 90.99v-90.99h-36.99zm-77.86 0h36.99v-149.82h-36.99zm-159.03 0h74.461c10.046.02 19.23-1.96 27.549-5.92 8.32-3.97 14.99-10.06 20.01-18.26 5.02-8.21 7.59-18.65 7.72-31.34-.13-11.43-2.7-21.21-7.72-29.34-5.02-8.14-11.69-14.38-20.01-18.72-8.319-4.34-17.503-6.53-27.549-6.57h-37.474v-39.67h-36.987zm637.48 2.2c12.13-.09 23.09-1.95 32.89-5.56s18.44-8.44 25.93-14.48l-16.95-27.98c-5.59 4.44-11.76 7.86-18.51 10.25-6.74 2.4-14.24 3.62-22.47 3.64-12.28-.08-22.34-3.83-30.17-11.27-7.84-7.44-11.89-18.08-12.15-31.93.23-13.64 4.34-24.15 12.34-31.54 8-7.4 18.51-11.13 31.52-11.22 4.89.02 9.65.59 14.3 1.71 4.64 1.12 8.91 2.68 12.81 4.68v22.06h-35.93v28.18h70.93v-69.84c-4.74-3.8-10.67-7.27-17.8-10.42s-14.76-5.67-22.9-7.57c-8.13-1.9-16.08-2.88-23.84-2.93-14.93.06-28.38 3.13-40.36 9.21s-21.5 14.85-28.55 26.29c-7.06 11.45-10.67 25.25-10.83 41.39.16 16.29 3.77 30.19 10.83 41.7 7.05 11.51 16.57 20.31 28.55 26.41 11.98 6.09 25.43 9.17 40.36 9.22z"/></g></g></svg>