<svg xmlns="http://www.w3.org/2000/svg" viewBox="200 200 2000 1799.83"><g stroke-width=".32" transform="matrix(9.6036091 0 0 9.6036091 -331.65574 -362.9161)"><path d="m117.04642 230.95999c-.0475-7.964-.0809-14.50948-.0742-14.54553.007-.036 1.18416.75464 2.61654 1.75708 3.91922 2.7428 3.75383 2.20998 3.87008 12.46845l.0988 8.72h5.66998c7.16764 0 7.0924-.0375 7.0924 3.53815v2.54185h-9.59358-9.59358zm-47.393369 1.10992c1.898588-.99046 2.751331-2.32292 2.778851-4.34212.04862-3.5672-2.372775-5.31634-7.509382-5.42455l-3.002522-.0632-.0879 5.39659-.0879 5.39659 3.287901-.13392c2.570326-.10468 3.578838-.28568 4.620957-.82934zm-14.293053-1.18992v-14.56h5.876323c3.231978 0 6.641443.1451 7.576589.32245 4.080137.77378 7.295811 3.14024 8.803158 6.47836 1.243248 2.75325 1.268435 6.32338.06318 8.95599-1.995946 4.35972-6.185949 6.59883-12.604678 6.73586l-3.154576.0673-.16 2.97263c-.116387 2.16238-.290835 3.05508-.64 3.2751-.264.16636-1.668.30468-3.12.30737l-2.64.005zm45.607692 8.44964c7.02434-2.62814 7.44608-13.32548.6501-16.49005-3.182807-1.48209-7.17914-.89879-9.838305 1.43599-2.588029 2.27232-3.520643 7.46964-1.903561 10.60827 2.2815 4.42822 6.557702 6.1422 11.091766 4.44579zm-6.213027 6.40425c-4.198727-.82458-8.527402-4.18876-10.44089-8.1145-3.769043-7.7326-.655987-16.55874 7.156263-20.28943 2.398755-1.1455 2.53022-1.16996 6.289961-1.16996 3.773283 0 3.883413.0207 6.338713 1.19312 7.21149 3.44342 10.57898 11.40966 7.88239 18.64688-2.62492 7.0449-9.92232 11.16834-17.226437 9.73389z" fill="#e60001"/><path d="m222.72049 233.83999c.00064-13.7101-.20698-12.84602 3.7595-15.65046l2.64-1.86657v14.55852 14.55851h-3.2-3.2l.00064-11.6zm-54.0805-2.96v-14.56h11.38726 11.38725l-1.20327 1.68c-2.99709 4.1845-3.08084 4.22062-9.81009 4.23141l-5.35885.009-.001 2.8-.001 2.8h6.08356 6.08357l-1.61573 2.22141c-2.31342 3.18068-3.22832 3.66009-7.27026 3.80972l-3.28088.12147v2.68371 2.6837h6.51041c7.8257 0 7.56959-.12265 7.56959 3.6252v2.4548h-10.24-10.24zm-14.84515 1.28753c.90523-.26883 1.99284-.89191 2.52327-1.44556.78711-.82157.94973-1.28359 1.04445-2.96752.21525-3.82685-1.69827-5.31803-7.18348-5.59798l-3.29908-.16838v5.32596 5.32595h2.66192c1.46405 0 3.37787-.21261 4.25292-.47247zm-13.31484-1.28753v-14.56h5.87632c3.23198 0 6.64144.1451 7.57659.32245 3.78377.71758 7.00989 2.93712 8.5717 5.89725.76144 1.44318.85492 1.97011.85514 4.8203.00019 2.49981-.12823 3.43557-.5869 4.2766-.85623 1.57-2.96307 3.752-4.06247 4.20738l-.95353.39497 1.09617 1.21333c.60289.66733 2.11882 2.73756 3.36873 4.60052l2.27256 3.3872h-3.06305c-3.44571 0-4.65495-.41877-5.40664-1.87238-.91869-1.77654-3.14494-4.27383-4.20473-4.71664-.59364-.24804-1.94796-.45098-3.00962-.45098h-1.93027v2.99041c0 3.86237-.175 4.04959-3.7852 4.04959h-2.6148zm112.11986 8.15433c4.90716-2.47767 6.22488-9.75289 2.54514-14.05185-1.67419-1.95591-3.83947-2.89541-6.68218-2.89935-5.12334-.007-8.58615 3.5407-8.58615 8.79687 0 3.80631 1.81051 6.7885 5.08332 8.37301 2.13792 1.03506 5.33819.94345 7.63987-.21868zm-6.67987 6.71316c-5.86645-1.20258-10.27126-5.16918-11.85028-10.67135-.39542-1.37786-.50706-2.71973-.41563-4.99589.11297-2.81278.2389-3.34252 1.30949-5.50872 3.23013-6.53572 10.39814-9.89048 17.29457-8.09419 2.77815.72361 4.95756 1.96649 6.94378 3.95989 7.28538 7.31172 5.27531 19.31463-4.00193 23.8971-3.25194 1.60629-6.17009 2.05067-9.28 1.41316zm-41.76.13878c-5.04964-.93294-9.19875-4.18158-11.43259-8.95142-.8221-1.7554-.88741-2.19043-.88741-5.91144 0-3.98586.009-4.03484 1.18081-6.4 4.45257-8.98728 16.11782-11.37336 23.61919-4.83119l1.44 1.25586-1.44 1.30287c-1.96524 1.77809-2.99011 1.9367-5.15647.79804-1.54017-.80953-2.04694-.90607-4.76353-.90745-3.39593-.002-4.30767.32747-6.22933 2.24913-2.15252 2.15252-3.02093 5.15459-2.42446 8.38122.52677 2.84958 2.08062 4.92522 4.62463 6.17763 1.86805.91964 2.30286 1.01005 4.25492.88472 1.19583-.0768 2.71424-.37404 3.37424-.66059l1.2-.52099v-2.25633-2.25633h-1.61589c-1.74647 0-3.30756-.62624-3.62533-1.45433-.10933-.28491-.19878-1.22623-.19878-2.09184v-1.57383h5.92 5.92v6.02422c0 5.84207-.0218 6.04381-.72 6.672-1.3854 1.24642-3.61579 2.57536-5.48884 3.27042-1.84442.68444-5.86828 1.11055-7.55116.79963z" fill="#56636b"/><g fill="#e50102"><path d="m156.30527 195.65318c-1.7519-2.39075-3.90527-5.3368-4.78527-6.54678-1.5935-2.19101-16.5108-22.43402-24.16067-32.7864-4.74663-6.4235-6.08692-8.51139-8.31889-12.95912-4.87503-9.71462-6.12017-19.83667-3.46415-28.16088 3.06854-9.61707 10.91987-16.456713 21.10983-18.389718 3.2714-.620573 9.85317-.633847 13.30237-.02682 2.94603.518467 6.45118 1.507661 8.58815 2.423673.78285.335572 1.42336.506785 1.42336.380478 0-.906294-1.50597-5.142601-2.70257-7.602352-3.26261-6.706681-8.67622-11.622607-15.85743-14.399619-5.40871-2.091574-4.93413-2.065446-37.55535-2.067497-17.167782-.00096-30.262751-.129287-31.347299-.306909-2.51711-.412243-4.984582-1.592886-6.771587-3.240086-1.33447-1.230074-10.085766-12.707949-10.085766-13.228118 0-.117895 18.468-.162506 41.039999-.09914l41.040003.115213 3.2.72144c9.62506 2.169978 16.81228 6.063763 23.36007 12.655664 6.46858 6.512169 10.18416 13.403942 12.00796 22.272713.59695 2.902838.66871 4.078732.53654 8.791078-.1689 6.02159-.89888 9.91384-2.76069 14.72-1.46485 3.78144-1.24601 3.66198-3.61353 1.97256-4.67938-3.33914-11.59899-6.13528-17.53035-7.08383-10.4187-1.66617-18.46514 1.10714-21.32889 7.35127-2.38562 5.20161-.0795 13.10549 6.53574 22.4 2.59063 3.63989 17.1802 23.47773 23.06344 31.35999 1.83911 2.464 3.78452 5.416 4.32315 6.56.88374 1.87702.98064 2.39229.99294 5.28.0174 4.09947-.63493 5.72759-4.26548 10.64528-1.45962 1.9771-2.68457 3.59472-2.7221 3.59472-.0375 0-1.50163-1.95606-3.25353-4.34681z"/><path d="m180.88497 131.85786c3.73692-3.97237 6.92932-8.47971 8.90848-12.57786l.73407-1.52h14.83803 14.83802l-.72778 1.04c-.40029.572-2.40336 3.272-4.45129 6-7.17939 9.56351-7.23776 9.58601-24.89775 9.59444l-11.63324.006z"/><path d="m194.77127 102.16c.34161-3.559408.25964-8.921296-.17705-11.581254-.18611-1.133686-.29303-2.106614-.23758-2.162064.0555-.05545 10.75812-.06388 23.78372-.01875l23.6829.08206-4.26799 5.742781c-2.3474 3.158528-4.78987 6.277227-5.42771 6.930437-1.55252 1.58992-4.62147 3.07854-7.16757 3.47669-1.17585.18387-8.24763.32631-16.26872.32768l-14.18873.003.26873-2.8z"/><path d="m188.63999 72.61739c-2.05423-3.720451-5.08539-7.76377-8.31939-11.097392l-2.5611-2.64h42.80024c23.54014 0 42.79159.108 42.78101.24-.0106.132-2.13459 3.048-4.72 6.48-3.71452 4.930825-5.07001 6.486886-6.46076 7.416745-3.72398 2.489882-1.57082 2.334007-33.44 2.420832l-28.48.07759z"/></g></g></svg>