<?xml version="1.0" encoding="UTF-8" standalone="no"?>
<svg
   xmlns:dc="http://purl.org/dc/elements/1.1/"
   xmlns:cc="http://creativecommons.org/ns#"
   xmlns:rdf="http://www.w3.org/1999/02/22-rdf-syntax-ns#"
   xmlns:svg="http://www.w3.org/2000/svg"
   xmlns="http://www.w3.org/2000/svg"
   viewBox="0 0 2400 2199.833"
   height="2199.833"
   width="2400"
   id="svg2"
   version="1.1">
  <metadata
     id="metadata8">
    <rdf:RDF>
      <cc:Work
         rdf:about="">
        <dc:format>image/svg+xml</dc:format>
        <dc:type
           rdf:resource="http://purl.org/dc/dcmitype/StillImage" />
        <dc:title></dc:title>
      </cc:Work>
    </rdf:RDF>
  </metadata>
  <defs
     id="defs6" />
  <g
     transform="matrix(9.6036091,0,0,9.6036091,-331.65574,-362.9161)"
     id="g64">
    <g
       id="g55">
      <path
         d="m 117.04642,230.95999 c -0.0475,-7.964 -0.0809,-14.50948 -0.0742,-14.54553 0.007,-0.036 1.18416,0.75464 2.61654,1.75708 3.91922,2.7428 3.75383,2.20998 3.87008,12.46845 l 0.0988,8.72 h 5.66998 c 7.16764,0 7.0924,-0.0375 7.0924,3.53815 v 2.54185 h -9.59358 -9.59358 z m -47.393369,1.10992 c 1.898588,-0.99046 2.751331,-2.32292 2.778851,-4.34212 0.04862,-3.5672 -2.372775,-5.31634 -7.509382,-5.42455 l -3.002522,-0.0632 -0.0879,5.39659 -0.0879,5.39659 3.287901,-0.13392 c 2.570326,-0.10468 3.578838,-0.28568 4.620957,-0.82934 z m -14.293053,-1.18992 v -14.56 h 5.876323 c 3.231978,0 6.641443,0.1451 7.576589,0.32245 4.080137,0.77378 7.295811,3.14024 8.803158,6.47836 1.243248,2.75325 1.268435,6.32338 0.06318,8.95599 -1.995946,4.35972 -6.185949,6.59883 -12.604678,6.73586 l -3.154576,0.0673 -0.16,2.97263 c -0.116387,2.16238 -0.290835,3.05508 -0.64,3.2751 -0.264,0.16636 -1.668,0.30468 -3.12,0.30737 l -2.64,0.005 z m 45.607692,8.44964 c 7.02434,-2.62814 7.44608,-13.32548 0.6501,-16.49005 -3.182807,-1.48209 -7.17914,-0.89879 -9.838305,1.43599 -2.588029,2.27232 -3.520643,7.46964 -1.903561,10.60827 2.2815,4.42822 6.557702,6.1422 11.091766,4.44579 z m -6.213027,6.40425 c -4.198727,-0.82458 -8.527402,-4.18876 -10.44089,-8.1145 -3.769043,-7.7326 -0.655987,-16.55874 7.156263,-20.28943 2.398755,-1.1455 2.53022,-1.16996 6.289961,-1.16996 3.773283,0 3.883413,0.0207 6.338713,1.19312 7.21149,3.44342 10.57898,11.40966 7.88239,18.64688 -2.62492,7.0449 -9.92232,11.16834 -17.226437,9.73389 z"
         style="fill:#e60001;fill-opacity:1;stroke-width:0.31999999"
         id="path30" />
      <path
         d="m 222.72049,233.83999 c 6.4e-4,-13.7101 -0.20698,-12.84602 3.7595,-15.65046 l 2.64,-1.86657 v 14.55852 14.55851 h -3.2 -3.2 l 6.4e-4,-11.6 z m -54.0805,-2.96 v -14.56 h 11.38726 11.38725 l -1.20327,1.68 c -2.99709,4.1845 -3.08084,4.22062 -9.81009,4.23141 l -5.35885,0.009 -0.001,2.8 -0.001,2.8 h 6.08356 6.08357 l -1.61573,2.22141 c -2.31342,3.18068 -3.22832,3.66009 -7.27026,3.80972 l -3.28088,0.12147 v 2.68371 2.6837 h 6.51041 c 7.8257,0 7.56959,-0.12265 7.56959,3.6252 v 2.4548 h -10.24 -10.24 z m -14.84515,1.28753 c 0.90523,-0.26883 1.99284,-0.89191 2.52327,-1.44556 0.78711,-0.82157 0.94973,-1.28359 1.04445,-2.96752 0.21525,-3.82685 -1.69827,-5.31803 -7.18348,-5.59798 L 146.88,221.98808 v 5.32596 5.32595 h 2.66192 c 1.46405,0 3.37787,-0.21261 4.25292,-0.47247 z M 140.48,230.87999 v -14.56 h 5.87632 c 3.23198,0 6.64144,0.1451 7.57659,0.32245 3.78377,0.71758 7.00989,2.93712 8.5717,5.89725 0.76144,1.44318 0.85492,1.97011 0.85514,4.8203 1.9e-4,2.49981 -0.12823,3.43557 -0.5869,4.2766 -0.85623,1.57 -2.96307,3.752 -4.06247,4.20738 l -0.95353,0.39497 1.09617,1.21333 c 0.60289,0.66733 2.11882,2.73756 3.36873,4.60052 l 2.27256,3.3872 h -3.06305 c -3.44571,0 -4.65495,-0.41877 -5.40664,-1.87238 -0.91869,-1.77654 -3.14494,-4.27383 -4.20473,-4.71664 -0.59364,-0.24804 -1.94796,-0.45098 -3.00962,-0.45098 H 146.88 v 2.99041 c 0,3.86237 -0.175,4.04959 -3.7852,4.04959 H 140.48 Z m 112.11986,8.15433 c 4.90716,-2.47767 6.22488,-9.75289 2.54514,-14.05185 -1.67419,-1.95591 -3.83947,-2.89541 -6.68218,-2.89935 -5.12334,-0.007 -8.58615,3.5407 -8.58615,8.79687 0,3.80631 1.81051,6.7885 5.08332,8.37301 2.13792,1.03506 5.33819,0.94345 7.63987,-0.21868 z m -6.67987,6.71316 c -5.86645,-1.20258 -10.27126,-5.16918 -11.85028,-10.67135 -0.39542,-1.37786 -0.50706,-2.71973 -0.41563,-4.99589 0.11297,-2.81278 0.2389,-3.34252 1.30949,-5.50872 3.23013,-6.53572 10.39814,-9.89048 17.29457,-8.09419 2.77815,0.72361 4.95756,1.96649 6.94378,3.95989 7.28538,7.31172 5.27531,19.31463 -4.00193,23.8971 -3.25194,1.60629 -6.17009,2.05067 -9.28,1.41316 z m -41.76,0.13878 c -5.04964,-0.93294 -9.19875,-4.18158 -11.43259,-8.95142 -0.8221,-1.7554 -0.88741,-2.19043 -0.88741,-5.91144 0,-3.98586 0.009,-4.03484 1.18081,-6.4 4.45257,-8.98728 16.11782,-11.37336 23.61919,-4.83119 l 1.44,1.25586 -1.44,1.30287 c -1.96524,1.77809 -2.99011,1.9367 -5.15647,0.79804 -1.54017,-0.80953 -2.04694,-0.90607 -4.76353,-0.90745 -3.39593,-0.002 -4.30767,0.32747 -6.22933,2.24913 -2.15252,2.15252 -3.02093,5.15459 -2.42446,8.38122 0.52677,2.84958 2.08062,4.92522 4.62463,6.17763 1.86805,0.91964 2.30286,1.01005 4.25492,0.88472 1.19583,-0.0768 2.71424,-0.37404 3.37424,-0.66059 l 1.2,-0.52099 v -2.25633 -2.25633 h -1.61589 c -1.74647,0 -3.30756,-0.62624 -3.62533,-1.45433 -0.10933,-0.28491 -0.19878,-1.22623 -0.19878,-2.09184 v -1.57383 h 5.92 5.92 v 6.02422 c 0,5.84207 -0.0218,6.04381 -0.72,6.672 -1.3854,1.24642 -3.61579,2.57536 -5.48884,3.27042 -1.84442,0.68444 -5.86828,1.11055 -7.55116,0.79963 z"
         style="fill:#56636b;fill-opacity:1;stroke-width:0.31999999"
         id="path22" />
      <path
         id="path20"
         d="m 156.30527,195.65318 c -1.7519,-2.39075 -3.90527,-5.3368 -4.78527,-6.54678 -1.5935,-2.19101 -16.5108,-22.43402 -24.16067,-32.7864 -4.74663,-6.4235 -6.08692,-8.51139 -8.31889,-12.95912 -4.87503,-9.71462 -6.12017,-19.83667 -3.46415,-28.16088 3.06854,-9.61707 10.91987,-16.456713 21.10983,-18.389718 3.2714,-0.620573 9.85317,-0.633847 13.30237,-0.02682 2.94603,0.518467 6.45118,1.507661 8.58815,2.423673 C 159.35949,99.542707 160,99.71392 160,99.587613 160,98.681319 158.49403,94.445012 157.29743,91.985261 154.03482,85.27858 148.62121,80.362654 141.44,77.585642 136.03129,75.494068 136.50587,75.520196 103.88465,75.518145 86.716868,75.517185 73.621899,75.388858 72.537351,75.211236 70.020241,74.798993 67.552769,73.61835 65.765764,71.97115 64.431294,70.741076 55.679998,59.263201 55.679998,58.743032 c 0,-0.117895 18.468,-0.162506 41.039999,-0.09914 l 41.040003,0.115213 3.2,0.72144 c 9.62506,2.169978 16.81228,6.063763 23.36007,12.655664 6.46858,6.512169 10.18416,13.403942 12.00796,22.272713 0.59695,2.902838 0.66871,4.078732 0.53654,8.791078 -0.1689,6.02159 -0.89888,9.91384 -2.76069,14.72 -1.46485,3.78144 -1.24601,3.66198 -3.61353,1.97256 -4.67938,-3.33914 -11.59899,-6.13528 -17.53035,-7.08383 -10.4187,-1.66617 -18.46514,1.10714 -21.32889,7.35127 -2.38562,5.20161 -0.0795,13.10549 6.53574,22.4 2.59063,3.63989 17.1802,23.47773 23.06344,31.35999 1.83911,2.464 3.78452,5.416 4.32315,6.56 0.88374,1.87702 0.98064,2.39229 0.99294,5.28 0.0174,4.09947 -0.63493,5.72759 -4.26548,10.64528 -1.45962,1.9771 -2.68457,3.59472 -2.7221,3.59472 -0.0375,0 -1.50163,-1.95606 -3.25353,-4.34681 z"
         style="fill:#e50102;fill-opacity:1;stroke-width:0.31999999" />
      <path
         id="path18"
         d="m 180.88497,131.85786 c 3.73692,-3.97237 6.92932,-8.47971 8.90848,-12.57786 l 0.73407,-1.52 h 14.83803 14.83802 l -0.72778,1.04 c -0.40029,0.572 -2.40336,3.272 -4.45129,6 -7.17939,9.56351 -7.23776,9.58601 -24.89775,9.59444 l -11.63324,0.006 z"
         style="fill:#e50102;fill-opacity:1;stroke-width:0.31999999" />
      <path
         id="path16"
         d="m 194.77127,102.16 c 0.34161,-3.559408 0.25964,-8.921296 -0.17705,-11.581254 -0.18611,-1.133686 -0.29303,-2.106614 -0.23758,-2.162064 0.0555,-0.05545 10.75812,-0.06388 23.78372,-0.01875 l 23.6829,0.08206 -4.26799,5.742781 c -2.3474,3.158528 -4.78987,6.277227 -5.42771,6.930437 -1.55252,1.58992 -4.62147,3.07854 -7.16757,3.47669 -1.17585,0.18387 -8.24763,0.32631 -16.26872,0.32768 l -14.18873,0.003 0.26873,-2.8 z"
         style="fill:#e50102;fill-opacity:1;stroke-width:0.31999999" />
      <path
         id="path12"
         d="m 188.63999,72.61739 c -2.05423,-3.720451 -5.08539,-7.76377 -8.31939,-11.097392 l -2.5611,-2.64 h 42.80024 c 23.54014,0 42.79159,0.108 42.78101,0.24 -0.0106,0.132 -2.13459,3.048 -4.72,6.48 -3.71452,4.930825 -5.07001,6.486886 -6.46076,7.416745 -3.72398,2.489882 -1.57082,2.334007 -33.44,2.420832 l -28.48,0.07759 z"
         style="fill:#e50102;fill-opacity:1;stroke-width:0.31999999" />
    </g>
  </g>
</svg>
