<svg xmlns="http://www.w3.org/2000/svg" viewBox="4.5 4.59 831.67 64.38"><g fill="#ed1c24" transform="translate(121.498 -779.902)"><path d="m9.952 816.5c1.727-3.495 17.26-5.735 17.41 2.078v10.2h-10.65v-8.583c-.3779-3.414-7.017-2.065-6.801.6073v8.003h-10.53v-20.93h10.57v8.623"/><path d="m69.1 828.8h66.32v-20.96h-66.32z"/><path d="m135.4 801.9h-172.4l-16.03 16.13 10.73 10.84h-20.57l-6.518-6.1c-2.456-2.47-2.456-6.478 0-8.934l19.72-20.27c2.47-2.996 6.329-5.115 10.47-5.115h174.6v13.45"/><path d="m73.55 848.3c3.86-.04049 7.868-1.471 10.49-4.71l8.758-8.826h-209.8v13.54h190.5"/><path d="m-19.71 812.7h-3.981v5.088h5.034c3.306 0 3.131-5.088.04049-5.088h-3.549v-4.831h9.635c9.312.04047 8.394 12.33.4588 12.32l-.2699-.027 7.976 8.677h-13.4l-5.965-8.259v8.259h-10.23v-20.97h11.79"/><path d="m55.85 817.8c7.8-.8502 6.694-9.986-1.7-9.986h-20.42v21h21.65c9.325-.01349 9.46-10.57.4723-11.01m-11.89-6.181h3.563l.01349-.06749 1.849.06749c2.564 0 2.564 4.075.01351 4.075h-5.439zm5.479 12.79h-5.465v-4.453h5.425c2.564 0 2.591 4.453.04047 4.453"/><path d="m195.6 848h17.38l-11.96-24.68c6.37-2.524 9.19-8.34 9.19-14.87 0-15.64-10.05-19.73-23.97-19.73h-15.51v59.28h16.05v-15.8c0-2.915-.1484-5.816-.2159-8.718l.135-.1619 8.893 24.68zm-8.812-38.07v-8.475c4.413-.2294 7.557 1.97 7.557 7.166 0 3.846-2.281 7.544-6.518 7.544l-1.039-.08098v-6.154"/><path d="m240.1 848v-21c0-3.522-.1619-6.059-2.834-6.059-3.063 0-3.225 3.239-3.225 7.085v19.97h-15.41v-62.66h15.41l-.08098 22.56c0 2.119-.2294 4.17-.3104 6.289l.1619.1619c1.484-4.494 5.492-8.731 10.61-8.731 8.88 0 11.09 7.544 11.09 15.02v27.35h-15.41"/><path d="m290.4 800.9c3.617 0 6.451-2.834 6.451-6.37 0-3.698-3.077-6.437-6.613-6.437-3.455 0-6.37 2.901-6.37 6.289 0 3.603 2.915 6.518 6.532 6.518"/><path d="m284.6 806.5.6208 6.37-.1484.1619c-1.957-4.089-5.02-7.395-9.986-7.395-10.61 0-13.05 13.05-13.05 21.23 0 8.097 2.051 22.01 12.74 22.01 5.034 0 8.637-3.468 10.62-7.868l.1484.1754-.7152 6.828h15.42v-41.51h-15.65zm.2294 20.2c0 1.174 0 3.536-.4588 5.668-.3914 2.038-1.336 3.765-3.306 3.765-1.484 0-2.281-1.242-2.672-2.82-.3914-1.66-.4723-3.549-.4723-4.723 0-1.336 0-3.927.3914-6.127.4723-2.281 1.336-4.17 3.225-4.17 1.808 0 2.605 1.565 2.982 3.374.3644 1.714.3374 3.563.3104 4.696v.3374"/><path d="m273.2 800.9c3.617 0 6.437-2.834 6.437-6.37 0-3.698-3.063-6.437-6.599-6.437-3.455 0-6.37 2.901-6.37 6.289 0 3.603 2.915 6.518 6.532 6.518"/><path d="m312.1 848v-29.18h-4.399v-12.33h4.399v-12.19h15.42v12.19h5.101v12.33h-5.101v29.18z"/><path d="m339.4 806.5h15.4v41.52h-15.4zm-1.255-13.06c0-4.872 4.008-8.947 8.893-8.947 4.939 0 9.109 3.846 9.109 8.88 0 4.953-3.927 9.123-8.961 9.123-4.953 0-9.042-4.008-9.042-9.055"/><path d="m367 833c1.795 1.97 4.872 4.318 7.706 4.318 1.336 0 2.982-.6208 2.982-2.105 0-1.511-1.336-2.375-4.008-3.306-6.059-2.132-10.85-5.277-10.85-12.35 0-8.569 7.004-13.99 16.67-13.99 4.17 0 9.028 1.336 12.66 3.387l-5.263 11.24c-1.822-1.66-3.86-3.711-6.451-3.711-1.107 0-2.281.7152-2.281 2.051 0 2.132 2.996 3.225 4.642 3.86 5.573 2.119 10.05 5.101 10.05 11.86 0 9.366-8.003 14.55-16.59 14.55-5.668 0-10.07-1.646-14.94-4.318l5.668-11.48"/><path d="m420.4 848.5c-1.417.09447-2.739.3239-4.17.3239-11.93 0-18.62-10.7-18.62-21.78 0-11.39 7.625-21.46 19.58-21.46 1.093 0 2.119.06747 3.212.1619v13.44c-4.548.2294-6.923 3.144-6.923 7.544 0 3.306 1.97 7.706 5.911 7.706h1.012v14.06"/><path d="m449.6 848v-21c0-3.522-.1619-6.059-2.834-6.059-3.077 0-3.212 3.239-3.212 7.085v19.97h-15.42v-62.66h15.42l-.08096 22.56c0 2.119-.2429 4.17-.3239 6.289l.1619.1619c1.484-4.494 5.506-8.731 10.61-8.731 8.88 0 11.08 7.544 11.08 15.02v27.35h-15.4"/><path d="m490.6 836.8c-3.212 0-3.617-3.941-3.617-6.37h22.63c0-6.532-.4588-12.66-4.467-18.08-2.982-4.089-7.638-6.761-13.98-6.761-12.75 0-19.59 10.53-19.59 22.4 0 12.19 6.37 20.84 19.19 20.84 9.285 0 16.59-5.344 18.31-14.94h-15.1c-.3104 1.66-1.646 2.915-3.374 2.915m-.1619-19.97c2.766 0 3.617 2.982 3.698 5.263h-7.152c-.08096-2.119.8637-5.263 3.455-5.263"/><path d="m568.6 817.6v-.1619c6.761 0 11.08-5.182 11.08-11.86 0-12.82-11.01-16.91-20.44-16.91h-18.87v59.28h21.55c14.3 0 18.72-9.595 18.72-16.91 0-7.935-4.183-12.81-12.04-13.44m-12.19-16.13h1.565c3.306 0 5.749 1.498 5.749 5.047 0 3.846-3.077 5.196-6.37 5.196h-.9446v-10.24zm1.336 33.66h-1.336l-.08098-2.402.08098.027v-9.028h1.255c3.698 0 6.775 1.66 6.775 5.668s-3.158 5.735-6.694 5.735"/><path d="m608.6 806.5.6208 6.37-.1619.1619c-1.957-4.089-5.02-7.395-9.973-7.395-10.62 0-13.05 13.05-13.05 21.23 0 8.097 2.038 22.01 12.74 22.01 5.034 0 8.65-3.468 10.61-7.868l.1619.1754-.7152 6.828h15.41v-41.51h-15.64zm.2294 20.2c0 1.174 0 3.536-.4723 5.668-.3914 2.038-1.336 3.765-3.293 3.765-1.511 0-2.281-1.242-2.672-2.82-.3914-1.66-.4723-3.549-.4723-4.723 0-1.336 0-3.927.3779-6.127.4858-2.281 1.35-4.17 3.239-4.17 1.808 0 2.591 1.565 2.982 3.374.3509 1.714.3239 3.563.3104 4.696v.3374"/><path d="m654 848v-21c0-3.522-.1619-6.059-2.834-6.059-3.077 0-3.225 3.239-3.225 7.085v19.97h-15.41v-62.66h15.41l-.08098 22.56c0 2.119-.2294 4.17-.3104 6.289l.1484.1619c1.498-4.494 5.506-8.731 10.62-8.731 8.893 0 11.09 7.544 11.09 15.02v27.35h-15.41"/><path d="m692.8 814.2.1754.1619c1.484-4.494 5.492-8.731 10.61-8.731 8.88 0 11.08 7.544 11.08 15.02v27.37h-15.41v-21.01c0-3.536-.2294-6.059-2.82-6.059-2.982 0-3.239 2.847-3.239 7.085v19.99h-15.4v-41.52h15.4l-.3914 7.706"/></g></svg>