<svg xmlns="http://www.w3.org/2000/svg" xmlns:xlink="http://www.w3.org/1999/xlink" viewBox="0.01 -0.01 708.56 74.61"><clipPath id="a"><path d="m22.68 17.01h107.7v11.34h-107.7z"/></clipPath><clipPath id="b"><path d="m22.68 0h549.9v45.36h-549.9v-45.36z"/></clipPath><g clip-path="url(#b)" fill="#fff" transform="matrix(6.579 0 0 -6.579 -149.2 186.5)"><g clip-path="url(#a)" fill="none"><path d="m22.68 17.01h34.02v11.34h-34.02z" fill="#ec1b24"/><path d="m42.7 23.55h3.678v2.912h1.732v-2.912h3.678l-2.96 2.912h2.196l3.78-3.78-3.78-3.78h-2.196l2.96 2.912h-3.678v-2.912h-1.732v2.912h-3.678l2.959-2.912h-2.195l-3.78 3.78 3.78 3.78h2.195" fill="#fff"/><g fill="#000"><path d="m60.21 21.16c-.022-1.957 1.623-2.824 3.379-2.824 2.157 0 3.302 1.089 3.302 2.546 0 1.8-1.779 2.167-2.357 2.311-1.99.512-2.367.59-2.367 1.201 0 .667.644.9 1.2.9.834 0 1.512-.244 1.567-1.2h1.69c0 1.834-1.523 2.556-3.179 2.556-1.434 0-2.968-.778-2.968-2.401 0-1.489 1.189-1.945 2.368-2.256 1.167-.311 2.356-.456 2.356-1.311 0-.812-.934-.99-1.545-.99-.934 0-1.756.412-1.756 1.468"/><path d="m69.71 25.1h1.634c.622 0 1.2-.155 1.2-.911 0-.667-.456-.945-1.067-.945h-1.767zm-1.745-6.58h3.845c1.434 0 2.802.689 2.802 2.301 0 .989-.49 1.734-1.457 2.012.69.333 1.079.878 1.079 1.656 0 1.478-1.023 1.967-2.535 1.967h-3.734zm1.745 3.535h1.9c.745 0 1.256-.323 1.256-1.134 0-.822-.6-1.045-1.289-1.045h-1.867" fill-rule="evenodd"/><path d="m77.52 25.1h1.634c.622 0 1.2-.155 1.2-.911 0-.667-.456-.945-1.067-.945h-1.767zm-1.746-6.58h3.846c1.434 0 2.801.689 2.801 2.301 0 .989-.489 1.734-1.456 2.012.689.333 1.078.878 1.078 1.656 0 1.478-1.022 1.967-2.534 1.967h-3.735zm1.746 3.535h1.9c.745 0 1.256-.323 1.256-1.134 0-.822-.6-1.045-1.289-1.045h-1.867" fill-rule="evenodd"/><path d="m93.51 23.79c-.211 1.834-1.678 2.856-3.423 2.856-2.457 0-3.901-1.834-3.901-4.19 0-2.29 1.444-4.124 3.901-4.124 1.945 0 3.312 1.267 3.49 3.246h-1.69c-.133-1.045-.733-1.779-1.8-1.779-1.567 0-2.157 1.334-2.157 2.657 0 1.389.59 2.723 2.157 2.723.867 0 1.623-.6 1.734-1.389"/><path d="m94.65 18.52h1.745v3.279h3.324v1.356h-3.324v1.834h3.835v1.467h-5.58"/><path d="m101.3 18.52h1.74v3.279h3.32v1.356h-3.32v1.834h3.83v1.467h-5.57"/><path d="m110.6 18.52h1.75v3.279h3.32v1.356h-3.32v1.834h3.83v1.467h-5.58"/><path d="m117.5 18.52h1.74v3.279h3.32v1.356h-3.32v1.834h3.84v1.467h-5.58"/><path d="m123.7 21.16c-.02-1.957 1.62-2.824 3.38-2.824 2.16 0 3.3 1.089 3.3 2.546 0 1.8-1.78 2.167-2.35 2.311-1.99.512-2.37.59-2.37 1.201 0 .667.64.9 1.2.9.83 0 1.51-.244 1.57-1.2h1.68c0 1.834-1.52 2.556-3.17 2.556-1.44 0-2.97-.778-2.97-2.401 0-1.489 1.19-1.945 2.37-2.256 1.16-.311 2.35-.456 2.35-1.311 0-.812-.93-.99-1.54-.99-.94 0-1.76.412-1.76 1.468"/></g></g></g></svg>