<svg xmlns="http://www.w3.org/2000/svg" viewBox="1 0.99 315.72 129.38"><g transform="translate(-235.4234 -480.96875)"><path d="m236.4234 611.33995 19.52846-32.54743h30.5132c12.20529 0 22.37636-5.6958 22.37636-12.20528 0-8.13686-28.07216-20.34214-28.07216-39.46375 0-23.59688 34.58164-44.34587 53.70325-44.34587h153.37973l-54.92378 89.91226h-37.83637l33.76795-54.92378h-92.35332c-8.95053 0-10.57791 3.25474-10.57791 6.50949 0 3.25474 2.44106 6.50948 10.17107 10.17107 7.73002 4.47527 12.61213 10.17107 12.61213 21.56266 0 30.92006-33.76795 55.33063-56.95799 55.33063" fill="#007936"/><path d="m498.01947 484.3969-17.5 28.90625h19.9375c4.47527 0 6.9375 2.43157 6.9375 6.5 0 7.73001-3.26584 11.78125-13.84375 11.78125h-24.40625l-17.09375 27.6875h20.34375c4.88211 0 7.3125 3.24466 7.3125 6.90625 0 7.73001-5.70156 12.625-17.5 12.625h-80.53125l33.34375-54.125h-34.5625l-50.0625 82.59376h142.40625c28.88584 0 49.625-20.34003 49.625-44.34376 0-8.13686-3.65151-12.625-6.90625-12.625 18.30793 0 34.1875-15.46443 34.1875-39.875 0-16.68055-7.75932-26.03125-22.8125-26.03125z" fill="#dc2c22" stroke="#dc2c22" stroke-miterlimit="10" stroke-width="4.882113"/></g></svg>