<svg xmlns="http://www.w3.org/2000/svg" viewBox="0.25 0.92 324.18 158.63"><g transform="matrix(.13333333 0 0 -.13333333 0 160)"><g fill="#ed1c24"><path d="m609.48 865.766h-137.875c-47.519-150.649-81.964-351.77-182.57-351.77h-77.164l-64.527-191.086 117.191-.859c204.328-1.485 278.156 313.144 344.945 543.715zm45.805-2.571-182.914-543.086h156.606l182.82 543.086zm14.414-541.156h137.871c47.52 150.656 81.965 351.774 182.571 351.774h77.169l64.52 191.082-117.19.859c-204.327 1.484-278.156-313.145-344.941-543.715" fill-rule="evenodd"/><path d="m1046.64 630.352c11.81 0 20.43-1.985 25.87-5.954 3.87-2.976 5.8-7.16 5.8-12.539 0-.836-.05-1.777-.21-2.875-.16-1.043-.31-1.879-.42-2.507-1.72-7.836-5.95-13.739-12.7-17.606-6.74-3.867-16.19-5.801-28.47-5.801h-41.326l-8.411-39.808h35.687c12.22 0 20.79-1.934 25.7-5.801 3.97-2.981 5.96-7.106 5.96-12.383 0-.836-.05-1.777-.21-2.875-.16-1.043-.27-1.879-.37-2.508-1.67-7.836-5.9-13.738-12.75-17.605-6.79-3.867-16.3-5.801-28.42-5.801h-35.682l-8.883-41.848h42.845c6.21 0 11.44-.472 15.73-1.359 4.23-.941 7.62-2.402 10.13-4.441 3.92-2.977 5.85-7.106 5.85-12.383 0-.731-.1-1.621-.26-2.719-.15-1.043-.26-1.879-.37-2.504-1.62-7.941-5.79-13.898-12.53-17.765-6.74-3.864-16.31-5.797-28.63-5.797h-59.254c-13.269 0-21.836 2.246-25.703 6.738-2.355 2.664-3.5 6.793-3.5 12.383 0 3.5.52 7.785 1.672 12.851l33.07 155.227c2.926 13.476 7.629 22.777 14.004 27.949 6.371 5.172 15.934 7.731 28.684 7.731z"/><path d="m1059.97 435.633 105.96 174.187c4.39 7.735 9.35 13.641 14.89 17.606 5.59 3.972 11.02 5.961 16.3 5.961 5.64 0 10.29-1.989 13.95-5.907 3.66-3.917 6.22-9.82 7.63-17.66l30.77-176.332c.1-.625.16-1.515.16-2.769 0-.887-.06-1.778-.16-2.61-.11-.785-.21-1.621-.32-2.457-1.2-6.113-4.85-11.074-11.02-14.996-6.11-3.867-12.75-5.797-19.85-5.797-5.44 0-10.56 1.36-15.31 4.129-4.29 2.766-7.06 6.844-8.31 12.278l-19.43 117.242-68.87-117.242c-2.97-4.493-7.26-8.203-12.85-11.024-5.69-2.562-11.44-3.867-17.13-3.867-7.06 0-12.44 1.723-16.25 5.066-2.93 2.352-4.44 5.747-4.44 10.137 0 1.305.26 3.188.67 5.535.48 2.407 1.68 5.282 3.61 8.52"/><path d="m1411.54 630.352c11.8 0 20.42-1.985 25.86-5.954 3.86-2.976 5.8-7.16 5.8-12.539 0-.836-.06-1.777-.21-2.875-.16-1.043-.31-1.879-.42-2.507-1.72-7.836-5.96-13.739-12.69-17.606-6.75-3.867-16.2-5.801-28.48-5.801h-41.33l-8.41-39.808h35.69c12.22 0 20.79-1.934 25.7-5.801 3.97-2.981 5.96-7.106 5.96-12.383 0-.836-.05-1.777-.21-2.875-.16-1.043-.26-1.879-.37-2.508-1.67-7.836-5.9-13.738-12.75-17.605-6.79-3.867-16.3-5.801-28.42-5.801h-35.68l-8.88-41.848h42.84c6.21 0 11.44-.472 15.73-1.359 4.23-.941 7.62-2.402 10.13-4.441 3.92-2.977 5.85-7.106 5.85-12.383 0-.731-.11-1.621-.26-2.719-.15-1.043-.26-1.879-.36-2.504-1.63-7.941-5.81-13.898-12.54-17.765-6.74-3.864-16.3-5.797-28.64-5.797h-59.24c-13.27 0-21.84 2.246-25.71 6.738-2.35 2.664-3.5 6.793-3.5 12.383 0 3.5.52 7.785 1.67 12.851l33.08 155.227c2.92 13.476 7.62 22.777 14 27.949 6.37 5.172 15.93 7.731 28.68 7.731z"/><path d="m1521.25 547.387c14.43 4.386 22.68 11.234 24.82 20.48.21.731.31 1.778.31 3.238 0 3.032-1.09 5.801-3.24 8.258-1.41 1.621-3.08 2.871-4.96 3.657-1.88.835-4.18 1.253-6.95 1.253-10.03 0-21.05-5.902-33.23-17.765-6.32-6.32-13-9.508-20.06-9.508-6.22 0-11.12 2.246-14.68 6.738-2.46 3.399-3.66 7.266-3.66 11.653v3.031c.32 1.043.58 2.09.74 3.082.2 1.047.46 1.984.78 2.926.31.886.99 2.453 1.99 4.597 1.56 3.137 6.32 8.36 14.41 15.571 3.77 3.394 8 6.687 12.7 9.871 4.7 3.242 9.82 6.273 15.41 9.043 5.54 2.82 10.87 4.91 15.99 6.269 5.07 1.407 10.56 2.09 16.35 2.09h4.13c5.64 0 10.61-.523 15-1.519 2.56-.625 4.86-1.25 6.84-1.93 1.99-.68 4.02-1.516 6.17-2.508 7.78-3.605 13.74-7.992 17.91-13.168 4.19-5.223 6.96-11.285 8.26-18.234.31-1.567.52-3.446.63-5.746.1-2.297.16-3.606.16-3.918 0-2.457-.06-4.336-.16-5.641-.11-1.359-.42-3.293-.94-5.852-.99-4.496-2.41-8.726-4.13-12.695-1.73-3.972-4.02-8.051-6.89-12.125-5.29-7.836-12.39-14.836-21.27-20.949 5.12-2.977 9.4-6.426 12.96-10.344 3.5-3.972 6.21-8.203 8.2-12.801 2.45-6.007 3.66-12.277 3.66-18.703 0-3.242-.42-6.953-1.21-11.023-1.25-5.801-3.29-11.445-6.16-16.93-2.82-5.433-6.48-10.867-10.87-16.301-8.78-10.609-19.75-19.277-32.97-25.968-13.21-6.688-27.06-10.028-41.59-10.028-7.1 0-14.47 1.043-22.04 3.078-7.53 2.039-14.95 5.122-22.16 9.301-3.81 2.145-7 4.285-9.66 6.375s-5.07 4.547-7.21 7.418c-3.97 5.227-5.95 10.399-5.95 15.621 0 4.914.41 9.352 1.2 13.481 1.88 8.359 5.32 14.578 10.34 18.707 5.07 4.176 10.71 6.215 16.93 6.215 5.12 0 9.56-1.254 13.32-3.762s6.27-5.59 7.53-9.246c.78-2.981 2.08-5.696 3.86-8.254 1.83-2.563 3.87-4.758 6.22-6.586 5.22-3.5 10.55-5.223 16.09-5.223 5.69 0 11.13 1.672 16.3 4.961 5.17 3.348 9.25 8.36 12.33 15.102l1.04 3.5c.11.937.27 1.773.43 2.609.15.84.2 1.727.2 2.77 0 3.867-1.15 7.367-3.5 10.554-3.29 4.391-8.41 6.586-15.36 6.586-8.46 0-14.84 2.77-19.12 8.254-2.98 4.074-4.44 8.516-4.44 13.321 0 .839.05 1.726.21 2.769.15.992.31 1.828.42 2.457 1.2 5.695 4.12 10.551 8.77 14.524 4.65 3.972 11.24 6.425 19.8 7.367"/><path d="m1671.15 497.492-12.28-56.789c-2.61-12.387-6.69-21.476-12.17-27.277-5.43-5.797-12.39-8.723-20.85-8.723-8.62 0-14.31 2.977-17.19 8.883-1.51 3.082-2.3 7.156-2.3 12.227 0 1.929.16 4.226.47 6.839.32 2.563.73 5.282 1.26 7.996l33.49 156.477c2.66 12.332 6.68 21.422 12.12 27.328 5.38 5.848 12.38 8.774 20.95 8.774 8.46 0 14.26-3.032 17.29-9.036 1.46-2.875 2.15-6.847 2.15-11.914 0-4.91-.58-9.976-1.68-15.152l-11.34-52.664h93.37l11.34 52.664c2.66 12.332 6.68 21.422 12.12 27.328 5.38 5.848 12.38 8.774 20.95 8.774 8.46 0 14.21-3.032 17.29-9.036 1.41-2.875 2.15-6.847 2.15-11.914 0-4.91-.58-9.976-1.68-15.152l-33.54-156.477c-2.66-12.332-6.69-21.421-12.17-27.222-5.44-5.797-12.44-8.723-20.9-8.723-8.57 0-14.27 2.977-17.14 8.883-1.51 3.082-2.3 7.156-2.3 12.227 0 1.984.16 4.226.47 6.839.32 2.614.74 5.282 1.2 8.051l12.28 56.789z"/><path d="m2027.94 441.797c-2.77-12.328-6.85-21.418-12.28-27.274-5.38-5.8-12.33-8.726-20.79-8.726-8.57 0-14.37 2.98-17.3 8.887-1.57 3.078-2.3 6.996-2.3 11.754 0 4.386.58 9.507 1.83 15.308l21.89 102.559-117.71-121.367c-6.32-6.532-12.12-11.286-17.29-14.161-5.23-2.925-10.45-4.386-15.78-4.386-8.05 0-13.43 2.558-16.09 7.679-1.41 3.028-2.14 6.582-2.14 10.707 0 3.555.57 7.996 1.72 13.325l34.59 162.121c2.76 12.332 6.84 21.422 12.33 27.324 5.43 5.851 12.38 8.777 20.9 8.777 8.46 0 14.16-2.926 17.13-8.726 1.52-3.078 2.3-7 2.3-11.805 0-4.391-.63-9.457-1.88-15.309l-22.15-104.386 120.01 123.875c6.11 6.007 11.44 10.238 16.04 12.695 4.6 2.453 9.41 3.656 14.42 3.656 7.84 0 13.16-2.82 16.04-8.41 1.36-2.98 1.98-6.793 1.98-11.496 0-4.492-.57-9.195-1.67-14.105z"/><path d="m2221.09 452.77c10.14-8.254 15.16-19.489 15.16-33.7 0-4.754-.53-9.562-1.52-14.367-1.52-7.523-4.02-14.734-7.52-21.578-3.76-7.367-7.68-13.426-11.76-18.234-10.03-12.539-20.48-18.809-31.4-18.809-6.74 0-12.23 2.508-16.51 7.523-2.98 3.762-4.44 7.942-4.44 12.54v3.031c.31 1.043.52 1.773.63 2.14 1.2 5.852 4.81 11.704 10.86 17.61 4.76 4.492 7.37 7.836 7.79 9.976.62 3.032-1.36 5.696-5.96 7.942h-121.42c-6.11 0-10.5 1.515-13.11 4.597-2.09 2.664-3.09 6.063-3.09 10.239 0 1.258.06 2.199.16 2.929l39.34 183.856c1.52 7.523 5.39 13.476 11.55 17.867 6.17 4.391 12.85 6.582 19.96 6.582 3.97 0 7.73-.836 11.18-2.562 3.5-1.774 6.12-4.387 7.99-7.993 1.1-1.828 1.68-4.129 1.68-6.898 0-.781 0-1.563 0-2.297-.32-1.199-.53-2.141-.63-2.715l-33.65-157.679h72.67l33.71 157.05c1.51 7.524 5.43 13.43 11.7 17.606 6.27 4.183 12.9 6.273 19.95 6.273 6.64 0 12.18-1.879 16.52-5.644 3.18-2.766 4.75-6.426 4.75-11.024 0-.836 0-1.672 0-2.457-.31-1.25-.47-2.14-.57-2.769z"/><path d="m2401.55 630.352c11.81 0 20.43-1.985 25.86-5.954 3.87-2.976 5.8-7.16 5.8-12.539 0-.836-.05-1.777-.21-2.875-.15-1.043-.31-1.879-.41-2.507-1.73-7.836-5.96-13.739-12.7-17.606s-16.19-5.801-28.47-5.801h-41.33l-8.41-39.808h35.68c12.23 0 20.8-1.934 25.71-5.801 3.97-2.981 5.95-7.106 5.95-12.383 0-.836-.05-1.777-.2-2.875-.16-1.043-.27-1.879-.37-2.508-1.67-7.836-5.9-13.738-12.75-17.605-6.79-3.867-16.3-5.801-28.42-5.801h-35.69l-8.88-41.848h42.84c6.22 0 11.45-.472 15.73-1.359 4.24-.941 7.63-2.402 10.14-4.441 3.92-2.977 5.85-7.106 5.85-12.383 0-.731-.11-1.621-.26-2.719-.16-1.043-.26-1.879-.37-2.504-1.62-7.941-5.8-13.898-12.54-17.765-6.74-3.864-16.3-5.797-28.63-5.797h-59.25c-13.26 0-21.83 2.246-25.7 6.738-2.35 2.664-3.5 6.793-3.5 12.383 0 3.5.52 7.785 1.67 12.851l33.07 155.227c2.93 13.476 7.63 22.777 14.01 27.949 6.37 5.172 15.93 7.731 28.68 7.731z"/></g><path d="m1102.79 62.8711c-3.97-18.8164-10.16-32.6328-18.5-41.4453-8.26-8.8125-18.82-13.25783-31.68-13.25783-13.1 0-21.75 4.52343-26.12 13.49613-2.3 4.6875-3.49 10.875-3.49 18.5781 0 2.9414.23 6.4336.71 10.4023.48 3.9688 1.11 8.0196 1.9 12.2266l50.02 233.9809c4.45 20.484 11.6 34.617 21.28 42.476 9.69 7.863 24.22 11.75 43.59 11.75h69.55c38.27 0 66.38-10.398 84.24-31.203 12.23-14.211 18.34-32.23 18.34-53.906 0-5.004-.24-9.848-.71-14.61-.48-4.683-1.27-9.847-2.54-15.406-7.78-36.203-24.22-64.39-49.31-84.633-25.17-20.25-56.05-30.332-92.81-30.332h-51.85zm27.47 128.1449h33.27c17.38 0 31.28 3.73 41.76 11.195 10.48 7.383 17.31 18.656 20.56 33.664 1.11 5.48 1.67 9.766 1.67 13.023 0 8.258-2.46 15.004-7.46 20.243-6.83 7.304-19.3 10.961-37.48 10.961h-33.27z" fill="#2e3192"/><path d="m1391.63 353.141h181.42c7.15 0 13.1-1.825 17.71-5.555 4.84-3.258 7.78-7.938 8.81-13.973.48-2.222.79-3.73.95-4.523.16-.879.24-2.305.24-4.371 0-2.617-.4-5.875-1.19-9.766-1.83-8.336-5.87-15.879-12.07-22.625-6.19-6.75-13.26-10.164-21.2-10.164h-140.69l-13.97-65.5h94.72c10.64 0 20.09-2.937 28.27-8.734 8.09-5.797 14.84-13.895 20.08-24.219 5.24-10.32 8.73-22.07 10.48-35.406.48-4.528.72-8.899.72-13.102 0-4.133-.24-8.418-.72-12.785-.48-4.285-1.27-8.895-2.3-13.734-5-23.6606-16.44-44.5434-34.22-62.4067-17.87-17.9414-42.72-29.9335-74.71-35.9648h-135.61c-7.39 0-13.58 2.5391-18.58 7.6992-3.57 3.9688-5.32 8.5781-5.32 13.7344 0 .875.16 2.4648.48 4.6055l59.54 278.2074c3.49 10.636 8.82 19.769 15.8 27.312 6.99 7.543 14.05 11.27 21.36 11.27zm92.1-241.68c.48 2.699.72 5.164.72 7.465 0 5.558-1.27 10.797-3.98 15.562-3.96 7.461-9.52 11.192-16.51 11.192h-67.64l-14.69-68.598h57.24c11.36 0 20.72 1.668 28.19 4.9219 7.38 3.2578 12.78 11.1992 16.04 23.8981z" fill="#2e3192"/><path d="m1874.44 64.5391c-4.21-18.7383-10.4-32.5547-18.66-41.4453-8.18-8.8125-18.74-13.25786-31.6-13.25786-13.02 0-21.83 4.52346-26.28 13.49606-2.38 4.6836-3.49 10.6407-3.49 17.8672 0 6.6641.87 14.4453 2.78 23.2578l33.26 155.856-178.88-184.4341c-9.6-9.9258-18.41-17.1523-26.28-21.5195-7.93-4.44534-15.88-6.66799-23.97-6.66799-12.23 0-20.41 3.89059-24.46 11.67189-2.14 4.6015-3.25 10.0039-3.25 16.2773 0 5.3946.87 12.1446 2.62 20.2422l52.56 246.3672c4.21 18.738 10.4 32.551 18.74 41.523 8.25 8.895 18.81 13.34 31.75 13.34 12.86 0 21.52-4.445 26.05-13.258 2.3-4.683 3.49-10.64 3.49-17.945 0-6.668-.95-14.371-2.86-23.262l-33.66-158.632 182.37 188.246c9.29 9.133 17.39 15.562 24.37 19.293 6.99 3.734 14.3 5.558 21.92 5.558 11.91 0 20-4.289 24.37-12.785 2.07-4.523 3.02-10.32 3.02-17.465 0-6.828-.87-13.972-2.54-21.437z" fill="#2e3192"/><path d="m2008.38 140.602 34.22 159.98c4.05 18.738 10.16 32.555 18.42 41.527 8.18 8.891 18.82 13.336 31.84 13.336 12.7 0 21.35-4.605 26.04-13.734 2.46-5.242 3.73-11.512 3.73-18.816 0-6.512-.95-13.973-2.78-22.313l-39.54-184.91c-7.93-36.6056-22.39-64.4728-43.43-83.6056-20.96-19.1367-47.56-28.74218-79.63-28.74218-25.01 0-44.94 5.32031-59.79 16.03908-11.67 8.6523-17.46 18.9726-17.46 30.9648v3.5703c0 1.0313.32 2.7774.95 5.2422 1.98 9.9258 7.07 18.3399 15.09 25.2461 8.09 6.9102 17.46 10.3242 28.18 10.3242 6.51 0 14.45-2.7812 23.82-8.4179s16.59-8.4961 21.51-8.4961c9.14 0 16.6 4.3672 22.24 13.1015 5.63 8.8125 11.19 25.3286 16.59 49.7036" fill="#2e3192"/><path d="m2330.02 351.078c17.94 0 31.04-3.015 39.29-9.051 5.88-4.523 8.82-10.875 8.82-19.054 0-1.27-.08-2.7-.32-4.368-.24-1.585-.48-2.855-.63-3.808-2.63-11.91-9.05-20.883-19.3-26.758-10.24-5.875-24.61-8.812-43.27-8.812h-62.8l-12.79-60.5h54.23c18.58 0 31.61-2.938 39.07-8.813 6.03-4.527 9.05-10.797 9.05-18.816 0-1.27-.08-2.703-.32-4.368-.24-1.589-.4-2.859-.55-3.812-2.55-11.91-8.98-20.883-19.38-26.754-10.32-5.875-24.77-8.816-43.19-8.816h-54.23l-13.49-63.5941h65.1c9.45 0 17.39-.7148 23.9-2.0664 6.43-1.4297 11.59-3.6523 15.4-6.7461 5.96-4.5273 8.89-10.8008 8.89-18.8203 0-1.1094-.15-2.4609-.39-4.125-.24-1.5898-.4-2.8633-.56-3.8125-2.46-12.0703-8.81-21.1211-19.05-26.9961-10.25-5.875-24.78-8.8125-43.51-8.8125h-90.04c-20.16 0-33.18 3.4141-39.06 10.2422-3.57 4.0508-5.32 10.3242-5.32 18.8203 0 5.3164.79 11.8281 2.54 19.5273l50.26 235.8872c4.45 20.484 11.59 34.617 21.28 42.476 9.68 7.863 24.21 11.75 43.58 11.75z" fill="#2e3192"/><path d="m1098.15 937.137-94.77-6.559c-74.665 132.942-186.95 173.332-317.11 182.192-419.141 28.53-815.325-545.321-489.614-884.27 313.614-270.1367 639.602-4.094 745.395 131.379h90.019c-145.402-296.5118-615.789-439.7696-878.269-201.367-249.3791 226.511-172.6252 653.629 91.554 882.228 264.184 228.59 692.02 204.57 852.795-103.603" fill="#2e3192"/></g></svg>