<svg xmlns="http://www.w3.org/2000/svg" viewBox="0 0 185.24 66.43"><g fill="#2b2d7f"><path d="m71.68 16.48c5.38 0 8 2.08 8 4.91s-2.64 4.91-8 4.91h-5.32l-6.62 13.88h12.82c5.76 0 8.21 2 8.21 4.81s-2.45 4.82-8.21 4.82h-17.46l-8 16.62h23.57c18.47 0 27.66-8 27.66-18.47a18.15 18.15 0 0 0 -8.67-15.96c4.89-3.24 8.08-8 8.08-13.64 0-11.36-9.82-18.36-25.4-18.36h-23.58l-15 31.4-14.96-31.4h-18.8l24.16 51.22-7.16 15.21h18.5l23.88-49.95z"/><path d="m104.49 28.32h62.77l-7.32-15.48a24.67 24.67 0 0 0 -21.86-12.84h-37.93a25.3 25.3 0 0 1 6.85 17.32 26.22 26.22 0 0 1 -2.51 11z"/><path d="m105 38.11a24.77 24.77 0 0 1 2.52 11 22.82 22.82 0 0 1 -7.39 17.32h85.11l-13.35-28.32z"/></g></svg>