<svg height="541" viewBox="-6.7631283 -6.7631283 452.0262266 238.9638666" width="1024" xmlns="http://www.w3.org/2000/svg"><g fill="#ff690b" fill-rule="evenodd"><path d="m219.0937 0c-23.0175 0-44.3887 7.6925-61.375 20.5625h62.1875c44.6813.28876 80.875 36.43125 80.875 81.125 0 41.38374-30.97 75.6375-71 80.5625h52.9063c23.55869-18.62001 38.62496-47.69 38.62496-80.03125.00002-56.46001-45.75996-102.21875-102.21876-102.21875zm-175.6875 34.8125c0-.00001 39.7475 8.21125 86.3438 18.09375-8.2376 14.52375-12.875 31.51125-12.875 49.3125 0 32.34124 15.0625 61.41125 38.625 80.03125h54c-40.0175-4.92501-71-39.17875-71-80.5625-.0001-16.17376 4.6625-31.5 13.1562-44.125 59.1975 12.33876 121.1488 25.2125 122.7813 25.5-18.0888-16.19125-33.9725-47.14875-48.2188-48.25h-52.3437-31.5313z"/><path d="m.9375 192.34375 2.6875 4.15625h4.8437l2.6875-4.15625h-3.4375l-1.6562 2.28125-1.6875-2.28125zm91.5312 0 2.6875 4.15625h4.8438l2.6875-4.15625h-3.4375l-1.6875 2.28125-1.6563-2.28125zm36.75 0-2.5937 4.15625h3.0312l4.375-4.15625zm93.8438 0 2.6875 4.15625h4.8437l2.6875-4.15625h-3.4375l-1.6875 2.28125-1.6562-2.28125zm61.2812 0 2.6875 4.15625h4.8438l2.6875-4.15625h-3.4375l-1.6563 2.28125-1.6875-2.28125zm-186.7812 5.0625c-3.8988 0-7.0001 3.725-7 14.03125 0 6.64312.9787 11.1957 3.6875 13.0625.2257.15557.4685.2885.7187.40625.7508.35324 1.6066.53125 2.5938.53125 5.7525 0 6.4375-5.68374 6.4375-10.375l-4.1563-.1875c-.09 3.89375-.4412 6.37499-2.0625 6.375-1.5087 0-2.0625-.955-2.0625-9.8125 0-1.14578.0327-2.16629.0625-3.0625.2088-6.27346 1.102-6.81251 2-6.8125 1.1938 0 1.75 1.70876 1.75 6.15625l4.4063-.15625c0-4.935-.6988-10.15625-6.375-10.15625zm53.625 0c-4.165 0-6.3751 3.31751-6.375 7.375 0 7.96625 8.9375 9.08376 8.9375 13.875 0 .68828-.2159 1.52113-.7813 2.0625-.1131.10827-.2336.20151-.375.28125-.2827.15947-.6241.25-1.0312.25-2.1138 0-2.125-2.64126-2.125-4.15625h-4.375c0 3.47227.9251 7.78834 5.375 8.3125.2966.03494.6087.03125.9375.03125.2772 0 .5204-.00597.7812-.03125s.537-.04442.7813-.09375c2.931-.59199 4.658-2.86966 5.0937-5.78125.0363-.24263.0755-.49921.0938-.75.0182-.25079 0-.52352 0-.78125 0-3.42617-1.7032-5.63324-3.625-7.4375-.2746-.25775-.5336-.50721-.8125-.75-2.2313-1.94234-4.4688-3.49-4.4688-5.78125 0-.18406.0104-.36319.0313-.53125.1457-1.17643.781-1.93751 1.8125-1.9375 1.9737 0 1.9687 2.54624 1.9687 4.0625h4.4063c-.1213-4.8575-1.835-8.21875-6.25-8.21875zm30.6875 0c-.2725 0-.521.00397-.7813.03125s-.5338.06852-.7812.125c-1.732.39534-3.1489 1.54973-4.125 3.75-.1395.31432-.2536.6412-.375 1-.7287 2.15281-1.125 5.13031-1.125 9.125 0 9.28813 2.161 13.04712 5.625 13.84375.4948.1138 1.0175.15625 1.5625.15625 4.3537 0 7.1875-3.385 7.1875-14 0-10.6525-2.8338-14.03125-7.1875-14.03125zm30.0625 0c-.2724 0-.5525.00397-.8125.03125-.5202.05457-1.0014.16859-1.4688.34375-3.0378 1.13856-4.9062 5.0011-4.9062 13.65625 0 7.96125 1.5844 11.85762 4.2187 13.3125.8781.48496 1.8794.6875 2.9688.6875 4.3487 0 7.1874-3.385 7.1875-14 0-10.6525-2.8388-14.03125-7.1875-14.03125zm16.2187 0c-3.6269 0-6.5817 3.25589-6.9375 12.15625-.0237.59336-.0312 1.23086-.0312 1.875 0 7.75031 1.3112 12.67225 5.1562 13.78125.5493.15843 1.157.21875 1.8125.21875 5.765 0 6.4375-5.68374 6.4375-10.375l-4.125-.1875c-.09 3.89375-.4912 6.37499-2.125 6.375-1.5025 0-2.0312-.955-2.0312-9.8125 0-1.14578.0324-2.16629.0625-3.0625.2104-6.27346 1.0894-6.81251 1.9687-6.8125 1.062 0 1.652 1.29128 1.7813 4.59375.0184.47178.0312 1.00656.0312 1.5625l4.375-.15625c0-4.935-.6713-10.15625-6.375-10.15625zm32.3438 0c-4.3663 0-7.1875 3.37875-7.1875 14.03125 0 9.95156 2.4968 13.55592 6.4062 13.96875.2606.02752.5084.03125.7813.03125 4.35 0 7.1874-3.385 7.1875-14 0-10.6525-2.8375-14.03125-7.1875-14.03125zm15.0625 0c-.2603 0-.5053.00607-.75.03125-.2448.02518-.4896.07589-.7188.125-3.209.68759-4.9063 3.66845-4.9062 7.21875 0 .24895.0143.48286.0312.71875s.061.46402.0938.6875c.9816 6.70431 8.8124 7.97696 8.8125 12.46875 0 .68828-.2166 1.52113-.7813 2.0625-.1129.10827-.2333.20151-.375.28125-.2834.15947-.6206.25-1.0312.25-2.1088 0-2.1251-2.64126-2.125-4.15625h-4.375c0 3.24078.7981 7.21605 4.5312 8.15625.5333.13431 1.1222.1875 1.7813.1875.2771 0 .5518-.00597.8125-.03125.2606-.02528.5059-.04442.75-.09375 2.9286-.59199 4.6591-2.86966 5.0937-5.78125.0362-.24263.0756-.49921.0938-.75.0181-.25079.0312-.52352.0312-.78125 0-3.42617-1.7339-5.63324-3.6562-7.4375-.2747-.25775-.5336-.50721-.8125-.75-2.2319-1.94234-4.4688-3.49-4.4688-5.78125 0-.18406.0104-.36319.0313-.53125.1462-1.17643.7811-1.93751 1.8125-1.9375 1.9625 0 1.9687 2.54624 1.9687 4.0625h4.4063c-.1013-4.8575-1.8088-8.21875-6.25-8.21875zm34.90621 0c-.26094 0-.50453.00607-.75.03125-.49094.05036-.9466.16889-1.375.3125-2.78462.93346-4.25 3.73454-4.25 7.03125 0 7.96625 8.93747 9.08376 8.9375 13.875 0 .68828-.21991 1.52113-.78125 2.0625-.11227.10827-.23499.20151-.375.28125-.28002.15947-.62969.25-1.03125.25-2.1325 0-2.125-2.64126-2.125-4.15625h-4.375c0 3.24078.81032 7.21605 4.53125 8.15625.53156.13431 1.125.1875 1.78125.1875.27773 0 .55121-.00597.8125-.03125s.50528-.04442.75-.09375c2.93661-.59199 4.65673-2.86966 5.09375-5.78125.03642-.24263.07548-.49921.09375-.75s.03125-.52352.03125-.78125c0-3.42617-1.69993-5.63324-3.625-7.4375-.27501-.25775-.56437-.50721-.84375-.75-2.235-1.94234-4.46876-3.49-4.46875-5.78125 0-.18406.00998-.36319.03125-.53125.14889-1.17643.79749-1.93751 1.8125-1.9375 1.9625 0 1.96878 2.54624 1.96875 4.0625h4.40625c-.11375-4.8575-1.83001-8.21875-6.25-8.21875zm29.28125 0c-.27242 0-.52108.00397-.78125.03125s-.53397.06852-.78125.125c-3.46194.79068-5.62498 4.55407-5.625 13.875 0 9.28813 2.16307 13.04712 5.625 13.84375.49456.1138 1.01766.15625 1.5625.15625 4.35375 0 7.18752-3.385 7.1875-14 0-10.6525-2.83373-14.03125-7.1875-14.03125zm59.4375 0c-.26023 0-.50519.00607-.75.03125s-.48948.07589-.71875.125c-3.20976.68759-4.87499 3.66845-4.875 7.21875 0 7.96625 8.93747 9.08376 8.9375 13.875 0 .68828-.24634 1.52113-.8125 2.0625-.11323.10827-.23402.20151-.375.28125-.28195.15947-.59687.25-1 .25-2.1275 0-2.15623-2.64126-2.15625-4.15625h-4.40625c0 3.24078.832 7.21605 4.5625 8.15625.53293.13431 1.12375.1875 1.78125.1875.27625 0 .55247-.00597.8125-.03125s.50633-.04442.75-.09375c2.924-.59199 4.656-2.86966 5.09375-5.78125.03648-.24263.07544-.49921.09375-.75s.03125-.52352.03125-.78125c0-3.42617-1.72876-5.63324-3.65625-7.4375-.27536-.25775-.53277-.50721-.8125-.75-2.23781-1.94234-4.46876-3.49-4.46875-5.78125 0-.18406.00982-.36319.03125-.53125.15001-1.17643.8025-1.93751 1.84375-1.9375 1.9475 0 1.93749 2.54624 1.9375 4.0625h4.40625c-.12-4.8575-1.81997-8.21875-6.25-8.21875zm32.09375 0c-.27133 0-.55336.00397-.8125.03125s-.50369.06852-.75.125c-3.4483.79068-5.59374 4.55407-5.59375 13.875 0 9.28813 2.14543 13.04712 5.59375 13.84375.49262.1138 1.01984.15625 1.5625.15625 4.37 0 7.21875-3.385 7.21875-14 0-10.6525-2.84878-14.03125-7.21875-14.03125zm-430.75001.5625v4.125h5.6563l-6.1875 20.03125v2.78125h11.5625v-4.15625h-6.1875l6.375-20.3125v-2.46875zm13.1875 0v26.9375h11.4063v-4.15625h-6.4688v-7.375h4.5625v-4.375h-4.5625v-6.90625h6.2188v-4.125zm13.6563 0v26.9375h11.1875v-4.15625h-6.2813v-22.78125zm13.5937 0v26.9375h11.4063v-4.15625h-6.4688v-7.375h4.5938v-4.375h-4.5938v-6.90625h6.2188v-4.125zm12.6563 0v4.125h5.6875l-6.2188 20.03125v2.78125h11.5938v-4.15625h-6.2188l6.4063-20.3125v-2.46875zm13.0312 0v26.9375h4.1563v-16.34375h.0937l5.25 16.34375h3.8125v-26.9375h-3.9375v14.1875h-.0625l-4.5-14.1875zm16.4063 0v26.9375h4.9375v-26.9375zm23.75 0v26.9375h4.1562v-16.34375h.0938l5.25 16.34375h3.8125v-26.9375h-3.9063v14.1875h-.0937l-4.5-14.1875zm19.0312 0-3.7812 26.9375h4.125l.6875-6h3.9687l.7188 6h4.75l-3.3438-26.9375zm34.5313 0v26.9375h4.9375v-10.78125h1.9687c4.6025 0 6.5-3.23624 6.5-8.09375 0-5.825-2.9162-8.06249-8.4687-8.0625zm31.4687 0v26.9375h11.1875v-4.15625h-6.2812v-22.78125zm45.5625 0v26.9375h4.1875v-16.34375h.0313l5.2812 16.34375h3.8125v-26.9375h-3.9375v14.1875h-.0625l-4.5-14.1875zm45.375 0v4.125h4.25v22.8125h4.9375v-22.8125h4.2188v-4.125zm36.87501 0v26.9375h11.21875v-4.15625h-6.3125v-22.78125zm28.625 0 4 26.9375h5.65625l4.03125-26.9375h-3.9375l-2.5625 18.90625h-.0625l-2.3125-18.90625zm15.75 0v26.9375h11.40625v-4.15625h-6.46875v-7.375h4.5625v-4.375h-4.5625v-6.90625h6.1875v-4.125zm13.4375 0v26.9375h4.15625v-16.34375h.09375l5.21875 16.34375h3.84375v-26.9375h-3.9375v14.1875h-.0625l-4.53125-14.1875zm30.9375 0v26.9375h4.875v-7.84375l1.8125-4.21875h.0625l2.75 12.0625h4.71875l-4.4375-17.90625 3.6875-9.03125h-4.40625l-4.0625 11.25h-.125v-11.25zm-226.53121 3.59375c1.1325 0 1.8125 1.19125 1.8125 7v5.71875c0 5.8225-.6801 6.96874-1.8125 6.96875-1.1388 0-1.8125-1.14624-1.8125-6.96875v-5.71875c0-5.80875.6737-7.00001 1.8125-7zm30.0625 0c1.1225 0 1.8125 1.19125 1.8125 7v5.71875c0 5.8225-.69 6.96874-1.8125 6.96875-1.1438 0-1.8125-1.14624-1.8125-6.96875v-5.71875c0-5.80875.6687-7.00001 1.8125-7zm48.5625 0c1.1325 0 1.8125 1.19125 1.8125 7v5.71875c0 5.8225-.68 6.96874-1.8125 6.96875-1.1463 0-1.8125-1.14624-1.8125-6.96875v-5.71875c0-5.80875.6662-7.00001 1.8125-7zm79.24996 0c1.13375 0 1.81252 1.19125 1.8125 7v5.71875c0 5.8225-.67873 6.96874-1.8125 6.96875-1.1225 0-1.81253-1.14624-1.8125-6.96875v-5.71875c0-5.80875.69002-7.00001 1.8125-7zm91.53125 0c1.14625 0 1.84375 1.19125 1.84375 7v5.71875c0 5.8225-.69753 6.96874-1.84375 6.96875-1.115 0-1.81251-1.14624-1.8125-6.96875v-5.71875c0-5.80875.69747-7.00001 1.8125-7zm-302.37501.53125h.0938l1.4687 12.90625h-3.0937zm36.4375 0h.375c1.6213 0 3.125.14125 3.125 4.03125 0 3.24375-1.0963 4.0625-3.0937 4.0625h-.4063z"/></g></svg>