<svg height="297.48709" width="297.31567" xmlns="http://www.w3.org/2000/svg"><g fill-rule="evenodd" transform="matrix(28.566073 0 0 -28.566073 -13764.23462 13755.336)"><path d="m0 0c0-2.886-2.34-5.227-5.181-5.227-2.886 0-5.227 2.341-5.227 5.227 0 2.846 2.341 5.187 5.227 5.187 2.841 0 5.181-2.341 5.181-5.187" fill="#fff" transform="translate(492.24653 476.34002)"/><path d="m0 0c.587-.25 1.046-.337 1.754-.337.796 0 1.133.25 1.133.668 0 1.092-3.096.755-3.096 3.014 0 1.214 1.214 1.754 2.341 1.754.546 0 .917-.04 1.295-.168l.337 1.005c-.546.209-1.086.296-1.714.296-2.508 0-4.518-2.01-4.518-4.478 0-1.504.709-2.799 1.801-3.636z" fill="#003578" transform="translate(485.01553 474.58612)"/><path d="m489.52823 480.10372-.749-1.963s-.923.25-1.591.25-.837-.209-.837-.459c0-.877 3.177-.877 3.177-3.015 0-1.376-1.417-1.963-2.718-1.963-.627 0-1.045.082-1.463.169l-.291-.837c.587-.336 1.255-.459 2.01-.459 2.462 0 4.472 2.004 4.472 4.513 0 1.592-.796 2.928-2.01 3.764" fill="#009ee0"/></g></svg>