<?xml version="1.0" encoding="UTF-8"?>
<!DOCTYPE svg PUBLIC "-//W3C//DTD SVG 1.1//EN" "http://www.w3.org/Graphics/SVG/1.1/DTD/svg11.dtd">
<!-- Creator: CorelDRAW -->
<svg xmlns="http://www.w3.org/2000/svg" xml:space="preserve" width="2543px" height="499px" shape-rendering="geometricPrecision" text-rendering="geometricPrecision" image-rendering="optimizeQuality" fill-rule="evenodd" clip-rule="evenodd"
viewBox="0 0 2668.67 523.825"
 xmlns:xlink="http://www.w3.org/1999/xlink">
 <g id="Ebene_x0020_1">
  <metadata id="CorelCorpID_0Corel-Layer"/>
  <polygon fill="#294D9E" fill-rule="nonzero" points="1533.71,90.8764 2408.53,90.8764 2408.53,106.313 1533.71,106.313 "/>
  <polygon fill="#294D9E" fill-rule="nonzero" points="1592.52,176.399 2144.84,176.399 2144.84,192.426 1592.52,192.426 "/>
  <polygon fill="#294D9E" fill-rule="nonzero" points="1510.55,265.49 1998.14,265.49 1998.14,281.517 1510.55,281.517 "/>
  <path fill="#294D9E" d="M1088.29 153.233l-121.163 0c-4.74774,24.9498 -14.2593,51.6673 -19.5959,76.6171l44.5457 0 16.027 0c8.90542,0 16.0431,3.56886 19.5959,8.90542 3.56886,3.56886 5.35391,7.12161 5.35391,14.2593 0,7.12161 -1.78505,16.027 -7.12161,21.3809 -5.35391,5.33656 -8.92277,5.33656 -17.8282,5.33656l-16.027 0c-16.0444,0 -40.9768,0 -58.805,0 -3.55275,16.0444 -3.55275,19.5959 -8.90666,35.6403 -3.56886,16.027 -6.53155,32.0714 -12.4743,48.0984 -3.55275,12.4743 -5.33656,21.3797 -10.6905,26.7336 -5.33656,5.33656 -10.6905,7.12161 -21.3809,5.33656 -6.53155,0 -10.6892,-1.7677 -14.242,-8.90542 -5.35391,-5.33656 -7.13772,-14.2432 -5.35391,-26.7175 5.35391,-17.8282 13.0643,-37.4241 16.0444,-55.2361 5.33656,-19.5959 10.6905,-37.4241 14.242,-57.02 5.35391,-17.8121 10.6905,-37.408 14.2593,-55.2361 5.33656,-19.5959 8.90666,-37.408 14.2593,-57.0038 1.7677,-8.90666 3.55275,-17.8282 7.12161,-23.166 5.33656,-5.35267 5.33656,-5.35267 10.6905,-7.12037 7.12161,-3.56886 17.8108,-3.56886 26.7175,-3.56886l73.0643 0 42.7606 0c8.90666,0 23.1486,0 30.2864,7.12037 3.55275,3.56886 8.90666,8.90666 8.90666,16.0444 0,7.12161 -1.78505,17.8108 -8.90666,23.1647 -5.35267,3.55275 -10.6892,5.33656 -21.3797,5.33656z"/>
  <path fill="#294D9E" d="M749.75 324.278c0,3.56886 0,12.4755 -3.55151,19.5959 -5.35391,10.6905 -6.53279,14.2593 -16.0444,24.9498 -8.90542,8.90666 -21.3809,17.8121 -33.8552,23.166 -10.6905,3.55151 -32.0714,5.33656 -45.7246,5.33656 -9.49424,0 -29.1075,-1.78505 -38.0129,-3.55275 -14.2432,-3.56886 -32.0714,-16.0431 -42.7619,-35.6403 -3.55151,-8.90542 -7.12161,-17.8108 -7.12161,-30.2864 0,-10.6892 1.78505,-26.7336 5.3378,-37.4241 1.78381,-12.4743 8.92153,-37.408 12.4743,-51.6673 1.78505,-12.4743 7.13772,-32.0702 12.4743,-53.4511 5.35391,-19.5959 8.90666,-33.8552 21.3809,-48.0984 10.6905,-12.4743 16.0444,-17.8282 28.5025,-24.9498 14.2593,-5.35267 37.4241,-8.90542 49.8984,-8.90542 17.8121,0 42.7619,1.78505 55.2361,7.12161 14.2432,8.90542 26.7175,19.5959 32.0714,33.8552 5.33656,12.4743 7.12161,26.7175 5.33656,39.1918 -1.19499,5.35391 -7.12161,12.4755 -14.2593,14.2593l-21.3809 0 -8.90542 -8.90542c-1.17888,-3.56886 -3.55275,-5.35391 -3.55275,-14.2593 -1.78381,-10.6905 -5.35267,-14.2593 -8.92153,-16.027 -8.90666,-7.13772 -21.3809,-5.35391 -33.2503,-5.35391 -16.6332,0 -30.8925,0 -44.5457,17.8121 -5.94273,10.6905 -7.72654,21.3809 -13.0643,44.5457 -7.12037,32.0714 -16.0431,64.1416 -23.1647,96.213 -3.56886,17.8282 -5.33656,21.3809 1.78505,28.5187 7.12037,7.12161 17.8108,7.12161 28.5013,7.12161 12.4755,0 32.0714,0 40.9768,-8.90666 7.13772,-5.35267 12.4755,-10.6905 16.0444,-19.5959 3.56886,-7.13772 5.33656,-10.6905 8.90542,-14.2593 3.56886,-3.56886 8.90542,-3.56886 14.2593,-3.56886l16.027 5.35391c3.56886,3.55151 8.90542,8.90542 8.90542,17.8108z"/>
  <path fill="#294D9E" d="M1305.65 153.233c-19.5971,0 -24.9337,0 -44.5296,0 -3.56886,14.2593 -5.35391,21.3809 -10.6905,35.6403 -3.56886,14.2432 -7.13772,28.5025 -10.6905,40.9768l35.6241 0c14.2593,0 30.2864,1.78505 39.2091,-1.78505 8.90542,-3.56886 14.242,-7.12037 19.5959,-14.2593 5.33656,-10.6892 5.33656,-12.4569 8.90542,-23.1474 3.56886,-8.92277 3.56886,-14.2593 3.56886,-21.3809 -1.78381,-5.35391 -5.35391,-10.6905 -12.4743,-14.2593 -3.56886,-1.78505 -7.13896,-1.78505 -28.5187,-1.78505zm-62.3578 128.284l-17.8121 0c-7.12037,26.7336 -14.2593,57.02 -23.1647,85.5225 -3.56886,10.6905 -5.33656,17.8108 -10.6905,23.1647 -5.33656,7.12161 -12.4743,8.90542 -19.5959,7.12161 -8.90542,0 -14.2593,-5.33656 -17.8121,-10.6905 -3.56886,-5.33656 -5.35267,-12.4755 -3.56886,-21.3809 17.8121,-76.6158 42.7619,-155.001 60.5727,-226.281 3.5701,-12.4582 7.13896,-23.1474 12.4755,-28.5013 7.12161,-5.33656 16.0431,-8.90542 26.7336,-8.90542 14.2432,0 10.6905,1.78381 24.9337,1.78381l44.5457 0c12.4743,0 19.5959,1.78505 28.5013,3.55275 8.92277,1.78381 19.6132,7.13772 23.1647,12.4743 7.13896,7.13772 12.4755,14.2593 16.0444,21.3809 5.33656,7.13772 7.12161,14.2593 8.90542,24.9498 0,8.90542 0,19.5959 -1.78381,28.5013 -5.33656,23.166 -12.4755,42.7619 -24.9498,57.0212 -12.4582,14.2593 -32.0714,23.1647 -55.2188,28.5013 5.33656,12.4755 7.12037,17.8282 10.6892,30.2864 7.12161,21.3809 7.12161,23.166 16.027,53.4523 3.5701,10.6892 3.5701,16.0431 -1.78381,24.9498l-10.6905 7.12037 -14.242 3.56886c-5.35391,0 -8.92277,-1.78381 -12.4755,-5.33656l-7.13772 -12.4743c-1.7677,-3.56886 -1.7677,-5.35391 -5.33656,-14.2593 -8.90666,-32.0714 -15.4382,-57.0212 -26.7348,-85.5225 -5.33656,0 -10.6905,0 -19.5959,0z"/>
  <path fill="#294D9E" d="M1259.33 0l-705.561 1.78505c-24.9498,0 -35.6403,5.35267 -57.02,19.5959l-438.303 277.947c-130.068,103.352 -17.8121,206.685 90.8764,197.78l140.741 0c1.78381,16.027 17.8282,26.7175 39.2091,26.7175 19.5959,0 35.6229,-10.6905 37.408,-26.7175l87.3063 1.78381c1.78505,14.2432 18.4182,24.9337 39.1918,24.9337 19.6132,0 35.6403,-10.6905 37.4253,-24.9337l461.468 0c1.78381,14.2432 17.8108,24.9337 37.408,24.9337 19.5959,0 35.639,-10.6905 39.2079,-23.1486l96.213 0c1.7677,14.242 17.8121,23.1486 37.408,23.1486 19.5959,0 35.6403,-8.90666 39.1918,-23.1486l326.063 0 92.6441 -49.8996 -1514.46 -3.55151c-35.639,0 -60.5727,-7.13896 -76.6158,-16.0444l489.969 0 -504.228 -12.4743c-19.5959,-23.166 -3.55275,-55.2361 28.5187,-76.6171l55.2361 -33.8391 206.668 0 -188.857 -12.4743 44.5457 -26.7348 69.4794 0 -49.8822 -12.4743 286.853 -181.735c37.4253,-23.1486 42.7619,-21.3809 69.4955,-21.3809l639.634 -1.7677 65.9266 -37.4241 1386.17 0 -1361.24 -14.2593 -48.0972 0z"/>
 </g>
</svg>
