<?xml version="1.0" encoding="UTF-8" standalone="no"?>
<!-- Created with Inkscape (http://www.inkscape.org/) -->

<svg
   xmlns:dc="http://purl.org/dc/elements/1.1/"
   xmlns:cc="http://creativecommons.org/ns#"
   xmlns:rdf="http://www.w3.org/1999/02/22-rdf-syntax-ns#"
   xmlns:svg="http://www.w3.org/2000/svg"
   xmlns="http://www.w3.org/2000/svg"
   xmlns:sodipodi="http://sodipodi.sourceforge.net/DTD/sodipodi-0.dtd"
   xmlns:inkscape="http://www.inkscape.org/namespaces/inkscape"
   id="svg3132"
   version="1.1"
   inkscape:version="0.48.5 r10040"
   width="3215"
   height="1585"
   sodipodi:docname="regiojet_logo.svg"
   inkscape:export-filename="C:\Users\Jürgen\Documents\regiojet_logo_neu.png"
   inkscape:export-xdpi="69.980003"
   inkscape:export-ydpi="69.980003">
  <metadata
     id="metadata3138">
    <rdf:RDF>
      <cc:Work
         rdf:about="">
        <dc:format>image/svg+xml</dc:format>
        <dc:type
           rdf:resource="http://purl.org/dc/dcmitype/StillImage" />
        <dc:title></dc:title>
      </cc:Work>
    </rdf:RDF>
  </metadata>
  <defs
     id="defs3136" />
  <sodipodi:namedview
     pagecolor="#ffffff"
     bordercolor="#666666"
     borderopacity="1"
     objecttolerance="10"
     gridtolerance="10"
     guidetolerance="10"
     inkscape:pageopacity="0"
     inkscape:pageshadow="2"
     inkscape:window-width="1680"
     inkscape:window-height="1027"
     id="namedview3134"
     showgrid="false"
     showguides="true"
     inkscape:guide-bbox="true"
     inkscape:zoom="0.30351706"
     inkscape:cx="1547.4446"
     inkscape:cy="886.00963"
     inkscape:window-x="-8"
     inkscape:window-y="-8"
     inkscape:window-maximized="1"
     inkscape:current-layer="svg3132">
    <sodipodi:guide
       orientation="0,1"
       position="1814.8442,-757.1558"
       id="guide3170" />
    <sodipodi:guide
       orientation="0,1"
       position="985.1176,504.09028"
       id="guide3172" />
    <sodipodi:guide
       orientation="0,1"
       position="59.304738,1261.873"
       id="guide3174" />
  </sodipodi:namedview>
  <path
     inkscape:connector-curvature="0"
     id="path3150"
     d="m 646.9268,1093.407 c -1.03063,-1.2773 -1.66928,-84.0803 -1.13229,-146.81864 l 0.22669,-26.49909 4.89253,-0.25833 c 2.69087,-0.1421 5.22863,0.10978 5.63935,0.56019 0.70845,0.7764 1.29711,109.53537 0.82993,153.32807 l -0.21868,20.4989 -4.59052,0.2492 c -2.87323,0.156 -4.98582,-0.2407 -5.64711,-1.0603 z m 808.4472,5.1234 c -0.2517,-0.4412 -0.3645,-39.7764 -0.2507,-87.4115 0.2324,-97.2969 -0.5755,-88.41341 7.9265,-87.15555 l 4.4697,0.66132 -0.15,25.11383 c -0.082,13.81271 -0.082,26.46473 9e-4,28.11571 0.083,1.65098 0.07,29.55239 -0.029,62.00319 l -0.1802,59.0015 -5.6647,0.2369 c -3.1154,0.1302 -5.8705,-0.1247 -6.1222,-0.5654 z m -703.02673,-37.8375 c -12.36689,-2.3444 -22.39516,-9.8345 -26.75446,-19.9828 -3.52847,-8.2144 -3.02105,-9.4326 4.7687,-11.448 3.58509,-0.9275 6.88266,-1.5632 7.32798,-1.4124 0.44532,0.1506 2.21284,3.2047 3.92783,6.7867 3.93798,8.2251 8.84525,11.4317 17.47061,11.416 9.35912,-0.017 15.0322,-3.2289 17.27139,-9.7783 3.0263,-8.8513 -2.09625,-15.3146 -16.71813,-21.0942 -13.9446,-5.5118 -19.00825,-8.2707 -23.82319,-12.9801 -5.56416,-5.442 -8.15183,-10.72752 -8.71765,-17.80646 -1.46382,-18.31367 13.0907,-31.82138 34.00974,-31.56371 14.28023,0.17634 25.04626,6.58705 30.92163,18.4138 3.10413,6.24827 2.63443,7.38942 -4.00452,9.73013 -3.23124,1.1393 -6.54799,2.06428 -7.37045,2.05551 -0.82245,-0.009 -2.27058,-1.78524 -3.21807,-3.94757 -0.94749,-2.16243 -3.21686,-5.41112 -5.04308,-7.2193 -8.22746,-8.14643 -24.46077,-3.15181 -24.8593,7.64865 -0.28586,7.7468 2.77076,10.68687 17.45429,16.78945 20.00784,8.3152 26.8458,13.596 30.43203,23.5017 4.38621,12.1154 0.80504,25.5079 -9.00452,33.674 -7.61446,6.3389 -22.29687,9.4488 -34.07083,7.2169 z m 184.91523,0.5242 c -7.37708,-2.16 -10.30022,-3.8968 -14.44179,-8.5806 -7.57653,-8.5683 -8.38822,-14.6201 -8.07103,-60.1765 0.13242,-18.97465 0.27821,-35.07841 0.32476,-35.78606 0.0644,-0.97346 2.33596,-1.19274 9.33154,-0.9005 l 9.24641,0.38615 0.0914,39.00321 c 0.0875,37.3618 0.18082,39.203 2.21543,43.7494 2.75586,6.1586 6.96707,8.8428 13.99822,8.9229 7.13489,0.076 11.44569,-1.8604 14.38532,-6.4786 l 2.44359,-3.8388 0.46803,-40.4973 0.46803,-40.49735 8.11182,-0.20228 8.11181,-0.20218 0.57425,13.39489 c 0.8742,20.3937 -0.72827,70.32892 -2.41249,75.16802 -1.95906,5.6297 -10.36873,13.6155 -16.57484,15.7397 -6.8765,2.3537 -21.54114,2.7665 -28.2715,0.7959 z m -91.38553,-8.6311 c -0.23917,-3.9314 -0.34201,-23.3799 -0.22858,-43.219 0.13628,-23.83554 -0.15112,-36.51124 -0.84722,-37.36842 -0.72018,-0.88683 -3.99396,-1.32858 -10.34869,-1.39637 -5.11231,-0.0545 -10.00402,-0.37984 -10.87041,-0.723 -1.22499,-0.48509 -1.55893,-2.15205 -1.50191,-7.49735 0.0672,-6.29894 0.26191,-6.9175 2.32906,-7.39847 1.24065,-0.28869 15.9786,-0.25257 32.751,0.0803 l 30.49528,0.60524 -0.0747,6.9996 -0.0747,6.9996 -10.29435,0.39021 c -7.599,0.28806 -10.56802,0.78001 -11.33979,1.87914 -0.70251,1.00046 -0.98541,15.67889 -0.86234,44.74332 l 0.18319,43.2544 -9.44056,-0.1007 -9.44056,-0.1007 z m 178.56073,7.6208 c -0.3449,-0.9284 -0.4364,-24.7253 -0.2033,-52.8821 l 0.424,-51.19431 19.4988,0.20891 c 17.389,0.18631 20.2649,0.4588 26.5774,2.51776 19.9896,6.51991 30.4038,23.81118 29.986,49.78704 -0.3804,23.6399 -8.815,40.2935 -24.2131,47.807 -7.3692,3.5959 -13.1133,4.4563 -33.204,4.9738 -16.535,0.4259 -18.2973,0.3121 -18.8658,-1.2181 z m 39.2823,-15.9014 c 9.1853,-4.6481 14.0636,-12.8191 15.9037,-26.6381 1.152,-8.6506 0.4585,-19.3042 -1.7902,-27.50222 -1.5674,-5.71406 -6.4813,-12.74628 -10.9044,-15.60492 -3.8489,-2.4874 -11.9922,-4.58699 -18.0948,-4.66529 -5.9823,-0.0768 -5.9457,-0.32225 -5.7107,38.29153 0.1176,19.3316 0.4533,35.9934 0.746,37.0263 0.4753,1.6779 1.3475,1.8382 8.1802,1.503 5.0549,-0.2478 9.012,-1.0652 11.6702,-2.4103 z m 73.0415,10.2764 c -0.7445,-9.7972 0.058,-96.76065 0.9,-97.58481 0.7672,-0.75046 59.4179,0.30765 60.661,1.09436 0.9473,0.59953 1.0163,9.47708 0.092,11.81155 -0.5398,1.36321 -3.2963,1.54672 -20.4805,1.3634 -19.4188,-0.20716 -19.8831,-0.16411 -21.0543,1.96962 -1.4996,2.73165 -0.8379,24.51688 0.7957,26.18978 0.6784,0.6948 7.0293,1.3959 16.3078,1.8002 l 15.1966,0.6621 -0.069,6.4996 -0.069,6.4997 -16.0044,0.3293 -16.0044,0.3293 -0.436,14.8607 c -0.2965,10.1076 -0.073,15.3077 0.6991,16.2583 0.8988,1.1069 5.3492,1.4427 21.3875,1.6138 l 20.2526,0.216 0.4247,5.7549 c 0.2336,3.1652 0.2076,6.3151 -0.058,6.9998 -0.3716,0.9588 -7.55,1.1695 -31.2358,0.9168 l -30.7532,-0.3281 -0.5515,-7.2562 z m 93.6188,6.6711 c -0.3238,-0.8714 -0.3939,-24.611 -0.1559,-52.7547 l 0.4328,-51.17027 10.3835,-0.17565 c 8.6205,-0.14585 10.6977,0.11483 12.2343,1.5356 1.018,0.94111 1.8472,2.04982 1.8428,2.4638 0,0.41387 2.0262,5.20351 4.5125,10.64374 2.4863,5.44013 7.6979,16.90049 11.5812,25.46738 10.5843,23.3497 12.5283,27.1352 13.9415,27.1503 0.8886,0.01 1.3161,-1.6239 1.3699,-5.2357 0.043,-2.8872 0.3152,-17.8477 0.6047,-33.24545 l 0.5264,-27.99598 7.6043,-0.20829 7.6044,-0.2083 0.5687,6.79586 c 0.3129,3.73775 0.3521,27.39912 0.087,52.58086 l -0.4784,45.7851 -9.2464,-0.3863 -9.2464,-0.3861 -2.4463,-5.0523 c -1.3454,-2.7787 -4.6134,-9.789 -7.2623,-15.5784 -2.6488,-5.7893 -8.09,-17.5364 -12.0914,-26.1045 -4.0016,-8.5682 -8.5229,-18.4045 -10.0475,-21.8585 -1.6574,-3.75457 -3.3922,-6.28653 -4.3139,-6.29636 -1.3615,-0.0145 -1.5883,4.35391 -1.9406,37.37446 -0.4521,42.3819 0.4797,38.6143 -9.5245,38.5076 -4.4965,-0.048 -6.093,-0.4504 -6.5379,-1.6479 z m 122.2196,0.6696 c -0.2205,-0.7106 -0.377,-20.2789 -0.3479,-43.4849 0.041,-32.57341 -0.2381,-42.55146 -1.2241,-43.76554 -1.0047,-1.23739 -3.4641,-1.59605 -11.5339,-1.68213 l -10.2567,-0.10942 -0.4045,-6.25467 c -0.2224,-3.44007 -0.1923,-6.81494 0.067,-7.49972 0.3473,-0.91734 4.325,-1.20893 15.1137,-1.10784 8.0532,0.0749 22.743,0.11962 32.6438,0.0982 l 18.0014,-0.039 -0.08,7.49957 -0.08,7.49958 -9.9465,0.1825 c -5.7844,0.1061 -10.5505,0.6729 -11.39,1.35468 -1.2225,0.99271 -1.4572,7.8361 -1.5329,44.69759 l -0.089,43.5254 -9.2694,0.1888 c -6.8827,0.1403 -9.3727,-0.144 -9.6704,-1.1032 z M 151.78778,824.18323 c -0.96933,-0.9903 -0.49715,-3.81062 8.75309,-52.28121 2.72365,-14.27175 6.31351,-33.13453 7.97748,-41.91728 1.66395,-8.78275 5.72181,-30.11568 9.01745,-47.40651 3.29565,-17.29083 7.39595,-39.07333 9.11178,-48.40555 1.71583,-9.33223 4.05252,-21.45799 5.19262,-26.94614 1.1401,-5.48815 3.52142,-18.06347 5.29179,-27.94514 1.77038,-9.88168 4.40763,-24.02935 5.86056,-31.43928 2.9867,-15.2322 7.16703,-37.22416 13.1849,-69.36329 6.65939,-35.56529 12.49266,-66.37522 17.00639,-89.8237 2.32456,-12.07589 5.67495,-29.59115 7.44532,-38.92279 4.56242,-24.0484 4.10465,-22.81652 8.76722,-23.59322 2.17001,-0.36158 23.18216,-0.47804 46.69366,-0.25892 40.07031,0.37347 42.74659,0.50803 42.72288,2.14827 -0.0312,2.17079 -2.62892,16.14157 -10.62382,57.13992 -2.40832,12.35001 -4.79799,24.92523 -5.31037,27.94494 -1.21908,7.18471 -7.42995,40.27223 -21.26375,113.27962 -9.65948,50.97756 -11.36668,59.93545 -13.69476,71.858 -1.07179,5.48888 -2.94467,15.36946 -4.16196,21.95685 -3.98898,21.58648 -6.51811,34.85725 -7.51307,39.4221 -0.53823,2.4694 -1.72382,8.75711 -2.63465,13.97269 -0.91083,5.21558 -2.56538,13.97343 -3.67677,19.46188 -4.5627,22.53221 -18.61978,96.72068 -23.35465,123.25788 -0.73464,4.1174 -1.61278,7.77054 -1.95142,8.11805 -1.03105,1.05806 -91.79854,0.80659 -92.83992,-0.25717 z m 172.74449,-0.5817 c 0.0174,-1.63341 5.10277,-29.81347 5.84447,-32.3867 0.23708,-0.82252 2.14264,-10.92777 4.23459,-22.45611 2.09196,-11.52834 4.99273,-26.78346 6.44617,-33.90016 1.45345,-7.1168 4.26469,-21.71264 6.24721,-32.43521 1.98251,-10.72266 5.02512,-26.68091 6.76134,-35.46289 1.73622,-8.78198 6.78268,-35.05464 11.2144,-58.38369 4.43181,-23.32905 8.49531,-44.43691 9.02998,-46.90634 0.53478,-2.46944 3.16904,-16.16712 5.85404,-30.43929 2.6849,-14.27217 7.47626,-39.6475 10.64744,-56.38963 3.17118,-16.74212 6.48281,-34.25779 7.35913,-38.92371 1.9858,-10.57302 11.70814,-60.76226 13.72615,-70.85761 0.82286,-4.11645 2.76986,-14.22126 4.32658,-22.45512 1.55683,-8.23386 3.12047,-15.27948 3.47492,-15.65702 0.83038,-0.8845 91.9797,-0.32494 92.8558,0.56996 0.78509,0.80202 -0.35058,7.20567 -12.94234,72.97989 -2.73219,14.27167 -7.09588,37.17642 -9.69721,50.89945 -2.60134,13.72303 -5.93777,31.23844 -7.41443,38.92312 -4.14451,21.56812 -5.37173,28.02209 -10.53258,55.3908 -4.14024,21.95568 -7.91768,41.41849 -14.81786,76.34628 -1.87706,9.50151 -13.32544,69.71531 -28.55801,150.2039 -8.01906,42.37247 -10.13603,52.32325 -11.28267,53.03366 -0.71426,0.44251 -21.88496,0.59188 -47.04612,0.33186 -40.69594,-0.42014 -45.74574,-0.64422 -45.731,-2.02544 z m 1158.57713,-94.8071 c -10.3241,-1.08509 -27.8529,-4.79859 -36.4197,-7.71574 -12.6294,-4.30047 -31.7167,-14.03463 -40.2832,-20.54379 -19.5342,-14.84262 -36.2655,-37.86661 -44.7416,-61.56877 -11.4696,-32.07318 -13.0075,-67.16508 -4.9225,-112.31771 11.0579,-61.75545 33.1143,-105.38315 72.2047,-142.82119 35.6507,-34.14364 75.1158,-52.34938 128.3573,-59.21263 24.0481,-3.10004 65.4674,-1.1603 90.5638,4.24112 22.0865,4.75368 58.6514,18.36191 62.4861,23.25519 0.7309,0.93265 -0.9583,12.39648 -5.8556,39.7395 -3.7855,21.13582 -7.0651,38.61243 -7.2879,38.83687 -0.5136,0.51755 -3.2386,-0.95541 -11.3444,-6.13217 -10.6525,-6.80322 -31.8345,-16.85735 -43.905,-20.83984 -35.0503,-11.56425 -73.4354,-11.96794 -103.4252,-1.08734 -17.8531,6.47703 -32.1127,15.69644 -45.8112,29.6185 -24.0552,24.44789 -39.2042,58.90725 -45.5745,103.66854 -2.0143,14.15312 -2.3272,39.0092 -0.6316,50.20522 1.7393,11.48721 6.4679,25.72306 11.4477,34.46438 4.814,8.45013 15.8445,19.88475 23.9518,24.82961 7.0555,4.30321 19.5642,8.97751 29.4189,10.99335 11.7467,2.40295 39.067,2.36558 52.4632,-0.0717 12.9607,-2.35807 21.3503,-5.22154 22.0872,-7.53861 0.6827,-2.14634 5.9147,-29.85541 10.3747,-54.94406 3.3993,-19.12252 3.4144,-19.33447 1.483,-20.84176 -1.6704,-1.3036 -5.5845,-1.46736 -27.2067,-1.13789 l -25.2555,0.38481 0.024,-2.29777 c 0.046,-5.22311 10.9789,-63.24258 12.0405,-63.9077 0.6343,-0.39735 28.1521,-0.47471 61.1507,-0.17179 32.9987,0.30303 63.7192,0.38044 68.268,0.17245 7.1026,-0.32475 8.359,-0.13913 8.8991,1.31431 0.3459,0.93084 -0.925,10.0485 -2.8241,20.26143 -1.8991,10.21302 -4.3379,23.73497 -5.4194,30.0488 -1.0816,6.31382 -3.9282,22.25936 -6.3257,35.43453 -2.3975,13.17518 -7.2757,40.34969 -10.8403,60.3878 -3.5648,20.03811 -6.8664,37.42738 -7.337,38.64293 -1.0377,2.68059 -10.3132,7.37471 -29.0635,14.70841 -27.5106,10.75994 -59.9192,18.65758 -89.7384,21.86827 -11.0076,1.18524 -49.9843,1.23297 -61.0043,0.0748 z M 644.68712,717.05008 c 0.0171,-1.60631 4.35137,-26.54109 6.93818,-39.91486 0.84939,-4.39119 3.25447,-17.8663 5.34464,-29.94469 2.09016,-12.07839 8.28236,-47.56435 13.76039,-78.8577 5.47793,-31.29334 13.16085,-75.31389 17.07299,-97.82344 3.91214,-22.50955 9.02559,-51.48165 11.36334,-64.38244 2.33765,-12.9008 5.6296,-31.65495 7.31529,-41.67594 1.68569,-10.02109 3.84203,-22.20848 4.79178,-27.08333 l 1.72675,-8.86318 47.17269,-0.2168 c 25.94495,-0.11914 64.04448,0.16559 84.66567,0.6328 35.97125,0.81496 37.91814,0.95754 47.96527,3.51186 21.41763,5.44528 34.04815,12.32621 47.28788,25.7619 15.12483,15.34872 21.32943,31.40182 22.37142,57.88174 1.14292,29.04625 -5.79017,55.19068 -19.75884,74.50937 -6.46018,8.93439 -21.58373,23.6138 -31.0821,30.16925 -3.69794,2.5523 -11.98091,7.05209 -18.40642,9.99952 -6.4255,2.94742 -11.43794,5.76461 -11.13881,6.26033 0.29913,0.49582 3.81357,2.74164 7.80991,4.9907 8.44726,4.75408 17.51084,14.06629 22.95215,23.58158 5.91804,10.34912 12.58936,28.1934 16.82791,45.01067 1.67356,6.64043 12.53088,47.9061 24.099,91.59389 2.16615,8.18097 3.93174,15.51272 3.92342,16.29278 -0.009,0.87925 -1.06039,1.40936 -2.76503,1.39478 -1.51242,-0.0161 -22.15763,0.0627 -45.87811,0.16821 l -43.1282,0.19174 -1.50873,-2.42383 c -1.36538,-2.19349 -5.72657,-18.19162 -13.23553,-48.55155 -9.30625,-37.62701 -15.95912,-60.21997 -20.69893,-70.2932 -7.14718,-15.18961 -15.13673,-22.34224 -29.36999,-26.2936 -7.4024,-2.05508 -40.1003,-2.48271 -41.74275,-0.54602 -1.0291,1.21339 -4.43414,19.61892 -21.3449,115.37807 -3.16262,17.90849 -5.87785,30.71215 -6.60944,31.16597 -0.68285,0.42364 -20.47806,0.57189 -43.98931,0.32947 -37.50591,-0.38711 -42.74575,-0.62632 -42.73159,-1.95405 z M 821.99827,501.34076 c 35.33706,-5.21725 55.73752,-29.82523 54.49521,-65.73442 -0.4055,-11.72029 -2.544,-17.88126 -8.33454,-24.01108 -8.67513,-9.18356 -15.81585,-10.91603 -49.07707,-11.9072 -32.73936,-0.9756 -30.23042,-2.1 -33.16716,14.86474 -1.14054,6.58821 -4.71828,26.8775 -7.95061,45.08725 -6.42509,36.19612 -6.98875,41.87043 -4.2277,42.55583 3.21846,0.79878 41.67472,0.11746 48.26187,-0.85512 z M 2065.613,731.56509 c -41.066,-2.59732 -73.7322,-16.69648 -96.6545,-41.71733 -18.6494,-20.3568 -30.4197,-46.49384 -34.7564,-77.17965 -2.4252,-17.16005 -1.8156,-51.69951 1.2554,-71.13946 4.4631,-28.25059 8.7293,-45.52077 16.8903,-68.37411 24.0837,-67.44103 71.0228,-116.4407 131.9927,-137.78692 24.4393,-8.55648 46.4259,-11.37061 80.9108,-10.35618 21.2262,0.62446 25.6683,1.04627 36.1697,3.43483 29.2379,6.65037 50.3319,17.95043 67.9375,36.39419 35.0219,36.68948 39.2345,111.9478 31.8105,166.16719 -7.424,54.21939 -34.9045,107.39086 -70.8481,142.52974 -19.2379,18.80715 -29.5646,26.29182 -52.5926,38.11884 -30.1636,15.49182 -70.0284,22.57077 -112.1153,19.90886 z m 55.2956,-74.29027 c 37.5456,-11.38583 65.3672,-45.41429 81.4363,-99.60425 11.2488,-37.93477 14.1307,-85.55383 6.744,-111.4344 -3.2709,-11.46005 -10.1333,-23.81225 -17.526,-31.54655 -12.0077,-12.56261 -26.6196,-18.1829 -47.5868,-18.30357 -16.3279,-0.0942 -27.8572,2.40717 -41.3275,8.96545 -41.9642,20.43091 -73.1028,85.58515 -75.9636,158.94561 -0.6061,15.54182 -0.439,21.68435 0.8242,30.30402 5.1469,35.1182 21.4644,56.56668 48.4526,63.68818 9.1469,2.41361 35.612,1.81629 44.9468,-1.01449 z m -1104.772,61.98679 c -0.4406,-1.18617 43.0677,-248.88034 58.6909,-334.12854 2.666,-14.54738 5.3061,-29.37006 5.8668,-32.93929 1.7316,-11.02345 4.1547,-22.36595 4.927,-23.06285 1.1478,-1.03572 242.2387,0.36898 242.2276,1.41142 -0.012,1.11573 -8.864,51.29776 -11.2574,63.81764 -1.674,8.75694 -1.8629,9.15145 -4.6312,9.67445 -1.5873,0.29988 -33.477,0.2367 -70.8662,-0.14057 -37.3891,-0.37686 -70.735,-0.42748 -74.1018,-0.11188 -4.939,0.46304 -6.2903,0.97746 -6.9948,2.66274 -1.4998,3.5875 -11.8236,65.06587 -11.5222,68.61449 l 0.286,3.36784 70.9791,0.75721 c 65.387,0.69755 71.0034,0.88847 71.2848,2.42346 0.3385,1.84592 -3.2949,24.20653 -8.652,53.24784 l -3.4982,18.96376 -71.4602,0.0674 c -58.4352,0.055 -71.7212,0.31524 -72.8935,1.42719 -0.7885,0.74794 -2.2831,6.2089 -3.3213,12.13557 -1.0382,5.92666 -4.5146,25.36368 -7.7254,43.19334 -4.4528,24.72721 -5.5703,32.74685 -4.7107,33.80548 0.9435,1.16193 13.7823,1.4653 78.8342,1.86306 42.7388,0.26132 77.9853,0.75894 78.3253,1.10649 0.4892,0.49944 -11.9288,72.67218 -12.6378,73.45136 -0.1026,0.11262 -32.5692,0.10258 -72.148,-0.0223 -39.5789,-0.12481 -95.0275,-0.21511 -123.2192,-0.20064 -43.4826,0.0223 -51.337,-0.18774 -51.7818,-1.38465 z m 727.1276,3.13733 c -0.4807,-0.79667 5.2333,-34.02411 14.2678,-82.96872 1.7733,-9.60663 4.9005,-26.89925 6.9495,-38.42805 2.049,-11.5288 4.2039,-23.43149 4.7888,-26.45042 2.4805,-12.80387 10.6823,-57.83404 13.7257,-75.35787 1.8116,-10.43127 3.7574,-21.21113 4.324,-23.95524 0.9757,-4.72546 13.5464,-73.75809 16.5398,-90.82873 0.7701,-4.39204 2.6538,-14.72253 4.186,-22.95665 1.5321,-8.23413 3.3741,-18.34005 4.0934,-22.45761 l 1.3075,-7.48648 19.4653,-0.40938 c 30.7963,-0.64782 68.7951,-0.23495 69.3917,0.75427 0.5149,0.85334 -1.1617,10.4924 -14.3421,82.455 -3.0164,16.46876 -5.8556,32.18937 -6.3093,34.93468 -1.7735,10.73009 -5.4227,31.19353 -6.4081,35.93369 -0.5704,2.74407 -2.9497,15.76943 -5.2873,28.94524 -2.3375,13.17582 -8.5217,47.5368 -13.7426,76.35775 -5.2208,28.82095 -12.693,70.14359 -16.6046,91.8281 -3.9116,21.6845 -7.5766,39.98395 -8.1443,40.66543 -0.7969,0.95666 -10.9055,1.13373 -44.3483,0.77697 -24.0028,-0.25607 -43.5554,-0.85877 -43.8529,-1.35168 z"
     style="fill:#e2003b"
     sodipodi:nodetypes="cscscsccccsssccsscscscccsscssscscscssssssccccccsccscccccscsccccsscssscccscscccccscssssscsccccscssccccscsscccccscscccsccccccscsssscscccsccccssssssscccccsccccscccscscccccsssssssssscscsssssssssscscssssscsssscscssssssccscssssssssscsscsscscsssscsccssscccsssssccsssssssscsssssscscssscscscsssscsccssssscscssssssssssssssscsscssssscsccsssccsscscscsssscsccssccscsscccccscsccssssscccc" />
  <path
     inkscape:connector-curvature="0"
     id="path3148"
     d="m 2191.0337,1095.2411 c -1.5273,-1.1628 -1.6456,-8.3848 -1.4266,-87.1095 0.2601,-93.45753 -0.1236,-87.61799 5.7551,-87.58897 4.5657,0.0227 5.6995,1.01055 6.1852,5.38958 0.254,2.29164 0.3206,41.01136 0.1479,86.04389 -0.2323,60.5578 -0.6147,82.2319 -1.4689,83.2391 -1.4425,1.7008 -6.9722,1.7164 -9.1927,0.026 z m -521.5185,-37.6515 c -6.9543,-2.6079 -13.892,-7.698 -17.9474,-13.168 -6.827,-9.208 -11.1567,-29.4337 -9.6836,-45.236 2.1582,-23.15316 10.2487,-37.72449 24.6608,-44.41493 8.7429,-4.05867 20.751,-4.84602 30.7741,-2.01773 10.887,3.07201 19.5747,12.73533 22.1053,24.588 1.069,5.00659 9e-4,6.56918 -5.4487,7.96993 -6.8553,1.76217 -9.4198,1.33249 -10.6141,-1.77833 -5.3089,-13.82711 -8.207,-17.02071 -16.4087,-18.08086 -5.9104,-0.76399 -10.8467,1.16266 -15.8186,6.17381 -9.4497,9.52463 -11.8735,43.35071 -4.336,60.51431 4.1781,9.5141 13.7754,14.779 23.3954,12.8343 7.6974,-1.556 12.7454,-9.4167 12.8585,-20.0233 0.061,-5.7301 -1.3926,-6.6844 -10.3273,-6.7797 -7.2683,-0.078 -8.5889,-1.176 -8.5258,-7.0914 0.074,-6.8979 0.3423,-6.9967 18.4863,-6.8032 11.8708,0.1267 16.6127,0.5193 17.3328,1.435 1.2889,1.6391 2.2435,37.4973 1.2277,46.1143 l -0.7832,6.6434 -3.917,-0.042 c -3.4166,-0.036 -4.1761,-0.4917 -5.9446,-3.5637 -2.2907,-3.9788 -4.8387,-4.521 -7.602,-1.6176 -3.2927,3.4594 -11.1092,6.0982 -19.1967,6.4805 -6.3067,0.2982 -8.7793,-0.072 -14.2872,-2.1371 z m -133.1497,-1.5423 c -0.2992,-0.8053 1.1136,-6.9781 3.1394,-13.7173 2.0258,-6.7394 4.9902,-16.7397 6.5875,-22.223 4.051,-13.9068 11.3411,-38.28403 12.521,-41.86884 0.5412,-1.64432 2.3923,-7.69072 4.1136,-13.43649 1.7213,-5.74566 3.529,-10.83767 4.0171,-11.31549 1.2208,-1.19504 13.1083,-1.92858 17.4087,-1.07425 4.1778,0.83001 3.3642,-1.4001 14.6872,40.25617 5.8164,21.3982 8.2063,29.9958 10.1762,36.6106 0.9039,3.0349 2.8576,10.4065 4.3416,16.3815 2.2892,9.2166 2.481,11.0079 1.2652,11.8157 -1.7618,1.1705 -15.6654,0.3593 -16.9873,-0.9911 -0.5266,-0.538 -2.0639,-5.2331 -3.4164,-10.4339 -3.8157,-14.673 -2.8788,-13.9606 -18.5806,-14.1281 -9.0884,-0.097 -13.8064,0.2477 -14.9355,1.0908 -0.9318,0.6959 -2.8454,5.7884 -4.3951,11.6965 -1.5096,5.7551 -3.2203,11.0246 -3.8015,11.7101 -1.5842,1.8678 -15.4273,1.548 -16.1411,-0.3729 z m 47.9136,-39.9475 2.3811,-1.8889 -2.2703,-9.3606 c -3.7545,-15.48009 -6.9129,-26.3514 -7.9669,-27.42221 -1.7468,-1.77443 -3.5957,2.11257 -6.5394,13.74824 -5.581,22.05987 -5.6703,22.67417 -3.6028,24.78627 2.6637,2.7212 14.6263,2.8124 17.9983,0.137 z m 407.7552,44.2896 c -15.7471,-3.5361 -26.9632,-18.143 -30.3092,-39.4726 -1.983,-12.6406 -1.801,-20.3324 0.754,-31.86983 2.3653,-10.68078 5.6365,-17.9151 10.9061,-24.11914 13.2093,-15.55177 43.5129,-16.62287 55.7854,-1.97182 4.128,4.92811 9.3763,17.41411 9.3254,22.18554 l -0.037,3.4228 -6.9375,1.06976 c -3.8154,0.58843 -7.6227,0.79833 -8.4605,0.46657 -0.8378,-0.33175 -2.2245,-3.158 -3.0815,-6.28043 -1.876,-6.8351 -5.7041,-12.84447 -9.4479,-14.83142 -3.2509,-1.72528 -9.5796,-1.9628 -13.5457,-0.50833 -10.3605,3.7996 -16.7056,22.23496 -15.2381,44.2734 1.4811,22.2411 8.653,33.4997 21.4735,33.709 7.2441,0.1182 14.7884,-6.9466 16.343,-15.3046 0.4085,-2.1957 1.195,-4.55 1.7479,-5.2316 1.2316,-1.5182 7.9095,-1.5306 13.1177,-0.024 l 3.8579,1.1156 -0.5034,4.7118 c -1.177,11.0129 -11.1462,24.1487 -20.7159,27.2959 -5.7987,1.9069 -19.3326,2.6444 -25.0347,1.3639 z m -232.2243,-4.3393 c -1.4498,-2.7799 -0.3997,-100.00823 1.0997,-101.77563 0.936,-1.10358 6.6211,-1.30915 29.4643,-1.06546 31.7368,0.33857 31.4479,0.27149 31.3725,7.33509 -0.072,6.74721 -0.8499,6.99133 -21.5734,6.77025 -15.3541,-0.1638 -18.6158,0.0584 -19.9443,1.35872 -1.265,1.23848 -1.6137,3.96571 -1.7145,13.41108 -0.1008,9.44536 0.1897,12.17945 1.4281,13.44465 1.2675,1.2948 4.1813,1.616 15.7823,1.7398 9.7328,0.1038 14.6028,0.5349 15.4149,1.3645 0.6529,0.667 1.1651,3.2826 1.1381,5.8125 -0.027,2.5299 -0.5948,5.1339 -1.2618,5.7869 -0.8292,0.8117 -5.6964,1.1393 -15.3896,1.0359 -11.9753,-0.1278 -14.3925,0.1035 -15.5667,1.4898 -1.0232,1.2079 -1.4272,5.1226 -1.5307,14.8321 -0.1036,9.7111 0.2167,13.6307 1.2139,14.858 1.1719,1.4419 3.8929,1.694 20.1496,1.8674 10.337,0.1103 19.5034,0.4812 20.3698,0.8244 1.1853,0.4694 1.56,2.0561 1.5135,6.4095 -0.046,4.3533 -0.4549,5.9318 -1.6499,6.3758 -0.8735,0.3246 -14.5847,0.4514 -30.4695,0.2819 -27.0136,-0.2881 -28.9438,-0.4276 -29.8458,-2.1572 z m 94.6413,1.5984 c -1.4568,-1.1331 -1.643,-6.5132 -1.7571,-50.7716 -0.1114,-43.23399 0.066,-49.75187 1.3992,-51.45914 1.2941,-1.65719 2.799,-1.95335 9.8788,-1.94433 4.5936,0.006 9.3146,0.35208 10.4912,0.76926 1.2952,0.45924 3.1941,3.06385 4.8128,6.60131 1.4704,3.21347 4.8673,10.59133 7.5486,16.39526 7.734,16.74104 12.9154,28.15254 15.8257,34.85494 2.4943,5.7439 4.873,8.2917 6.3709,6.8236 0.3373,-0.3306 0.8379,-14.7983 1.1124,-32.15035 0.3973,-25.11529 0.7736,-31.71915 1.8456,-32.38276 1.5244,-0.94369 9.2766,-1.0401 12.4395,-0.15471 2.08,0.58222 2.0948,0.9199 2.2745,51.63842 0.1224,34.5743 -0.1546,51.3807 -0.8582,52.0694 -0.5713,0.5592 -4.5467,0.9203 -8.8341,0.8021 -6.7807,-0.1869 -8.0524,-0.5153 -9.7708,-2.5235 -1.0865,-1.2697 -5.6648,-10.4411 -10.174,-20.3809 -4.5091,-9.9397 -11.6642,-25.4536 -15.9002,-34.4753 -11.2763,-24.01639 -11.0183,-24.45647 -11.8206,20.1574 -0.4896,27.2179 -0.9482,36.118 -1.8916,36.7031 -1.9789,1.2275 -11.201,0.8213 -12.9926,-0.5722 z m 230.3904,0.8331 c -2.0046,-2.0478 -2.0926,-3.0856 -1.8881,-22.2641 l 0.2146,-20.116 -5.2728,-11.1897 c -2.9,-6.1543 -9.0611,-19.20909 -13.6913,-29.01074 -4.6301,-9.80165 -8.4114,-18.48458 -8.4027,-19.29543 0.024,-2.24498 6.0704,-2.7541 17.7861,-1.49776 0.6974,0.0744 5.1565,8.43649 9.9093,18.58167 4.7526,10.14517 9.1804,18.78686 9.8394,19.20396 2.6535,1.6794 4.0912,-0.7018 16.9584,-28.08681 2.1383,-4.55114 4.6779,-8.68679 5.6435,-9.19032 2.6362,-1.37485 13.4595,-1.01298 14.6807,0.49084 1.2229,1.50593 0.3612,3.41524 -16.274,36.05999 l -11.6576,22.8769 0.043,21.0017 c 0.024,11.5509 -0.3716,21.6161 -0.8784,22.3673 -0.5732,0.8495 -3.5642,1.5264 -7.9145,1.791 -6.1784,0.3759 -7.238,0.1752 -9.0956,-1.7225 z m 201.099,-221.5871 c -0.2991,-4.37174 0.8793,-12.96405 5.5338,-40.34896 1.0732,-6.31391 3.0849,-18.21773 4.4706,-26.45302 2.9124,-17.30921 3.5906,-18.46315 10.8063,-18.38737 7.9042,0.0833 19.3132,-2.67183 28.0664,-6.77679 17.1978,-8.0652 29.628,-24.59244 36.8777,-49.0328 2.0325,-6.85181 4.1921,-17.56918 10.5569,-52.39037 1.756,-9.60681 4.6062,-25.10229 6.3338,-34.43439 1.7276,-9.3321 3.8677,-21.00994 4.756,-25.95074 3.3919,-18.86839 6.0633,-33.41412 8.5235,-46.41172 1.4026,-7.41046 3.7423,-20.21123 5.1992,-28.44616 1.4569,-8.23492 3.8119,-21.03553 5.2333,-28.44579 1.4214,-7.41026 3.3484,-17.9653 4.2822,-23.45565 0.9338,-5.49035 2.1606,-12.22765 2.7262,-14.97177 0.5656,-2.74413 2.7298,-14.4217 4.8094,-25.95018 2.0796,-11.52847 4.5048,-24.77835 5.3896,-29.44418 0.8847,-4.66583 2.033,-10.72892 2.5518,-13.47354 0.5189,-2.74462 1.6921,-9.25748 2.6072,-14.47302 3.0081,-17.14558 6.166,-30.93368 7.2947,-31.85029 0.6172,-0.50115 20.1942,-0.84423 44.1052,-0.77286 l 42.9955,0.12826 0.2666,3.67875 c 0.1468,2.02338 -0.9747,10.33689 -2.4921,18.47447 -1.5174,8.13768 -3.9577,21.30829 -5.4229,29.26812 -1.4653,7.95982 -3.5812,19.4129 -4.702,25.45129 -1.1208,6.03838 -3.9364,21.30922 -6.2567,33.93518 -2.3203,12.62597 -5.4585,29.69347 -6.9737,37.92777 -1.5151,8.23431 -4.6702,25.52663 -7.0111,38.4274 -2.3411,12.90076 -5.442,29.74364 -6.8911,37.42862 -1.449,7.68498 -4.54,24.69217 -6.8688,37.79367 -2.3288,13.10151 -4.9015,27.02486 -5.7171,30.94078 -1.4288,6.85995 -2.6971,13.66781 -8.5779,46.04631 -6.8437,37.68004 -11.9151,57.41277 -20.2463,78.77921 -10.2782,26.35946 -24.1652,46.01494 -41.886,59.28506 -29.5789,22.14993 -64.7183,33.86065 -105.9536,35.31056 -13.5497,0.47649 -14.2627,0.40678 -14.3866,-1.40585 z m 261.5131,-119.02921 c -1.1849,-1.45912 -1.1339,-3.06987 0.3603,-11.386 3.2054,-17.83742 11.2549,-61.46904 13.3877,-72.56572 2.0023,-10.41803 5.1052,-27.26559 11.2133,-60.88384 1.4962,-8.23451 3.9118,-21.25949 5.3682,-28.94439 3.8509,-20.32047 7.5017,-40.34917 10.6433,-58.38978 0.8127,-4.6666 2.9218,-16.11975 4.6868,-25.45145 1.7652,-9.33171 5.1153,-27.29699 7.4448,-39.92286 4.0378,-21.88387 5.4018,-29.12813 9.115,-48.40552 0.8986,-4.66568 2.0849,-11.40341 2.6361,-14.97273 1.5478,-10.02216 5.8845,-29.91653 6.6947,-30.71123 0.9292,-0.91124 60.7343,-1.06279 151.5666,-0.38401 39.3241,0.29381 74.9348,0.28798 79.1347,-0.0129 4.2001,-0.30102 9.262,-0.22442 11.2488,0.17 3.2705,0.64982 3.6092,1.02506 3.5778,3.96459 -0.019,1.7857 -1.2222,9.06538 -2.6738,16.1771 -2.5198,12.34522 -3.745,18.89893 -7.9031,42.2752 -1.3427,7.54841 -2.3542,10.7435 -3.7076,11.71112 -1.5003,1.07265 -12.2498,1.25569 -55.419,0.94397 -29.4569,-0.21264 -54.4589,-0.29875 -55.5601,-0.19119 -1.1012,0.10756 -10.8036,0.14596 -21.561,0.0854 -14.4144,-0.0808 -20.0336,0.2293 -21.3639,1.18047 -2.0433,1.46088 -4.0714,10.46496 -10.6638,47.34453 -3.149,17.61592 -3.8912,23.64404 -3.0744,24.96863 1.0083,1.63515 5.5531,1.77384 71.466,2.18028 46.0456,0.284 70.8901,0.78726 71.8373,1.4545 1.5984,1.12631 1.6621,0.67357 -5.85,41.56866 -4.3344,23.59651 -5.6111,29.42532 -6.8837,31.42836 -0.8224,1.2943 -10.3382,1.4555 -72.4498,1.22722 -61.7947,-0.22711 -71.7032,-0.0612 -72.9753,1.22161 -1.4075,1.41936 -4.1352,14.15419 -9.0828,42.40552 -1.2498,7.13708 -3.4525,18.94555 -4.8946,26.24098 -1.4422,7.29543 -2.505,15.15954 -2.3617,17.4758 l 0.2606,4.21132 78.6952,0.83952 c 51.1467,0.54564 79.0326,1.19324 79.6594,1.84987 0.9696,1.0159 -0.2476,8.87596 -5.721,36.94107 -1.3916,7.13556 -3.4019,17.86353 -4.4673,23.84 -1.5241,8.54883 -2.3681,11.13518 -3.9576,12.12758 -1.5995,0.99849 -27.5456,1.13902 -124.5333,0.67439 -114.1755,-0.54689 -122.6067,-0.70244 -123.8928,-2.28635 z m 375.0121,1.5661 c -0.9591,-1.83904 0.992,-17.2409 3.183,-25.12668 0.5333,-1.91942 1.6898,-7.75742 2.5699,-12.97332 0.88,-5.21591 2.6047,-14.87306 3.8324,-21.46034 1.2278,-6.58728 3.1364,-17.14252 4.2415,-23.45609 1.105,-6.31357 3.725,-20.46143 5.8223,-31.43968 2.0972,-10.97825 4.2486,-22.43096 4.7807,-25.45045 2.9695,-16.84788 14.2114,-77.01409 18.6486,-99.80675 0.8014,-4.11668 2.202,-11.75218 3.1122,-16.96776 0.9103,-5.21559 2.5538,-13.97356 3.6519,-19.46216 5.1815,-25.8964 6.8937,-37.45549 5.8074,-39.20768 -0.9991,-1.61185 -4.4643,-1.78032 -45.655,-2.21974 -32.9477,-0.35149 -44.8807,-0.78701 -45.7506,-1.66984 -1.3229,-1.34259 -0.8733,-4.66958 4.3612,-32.27361 6.5873,-34.73901 7.6167,-39.4597 8.8759,-40.70594 1.0443,-1.03351 27.659,-1.14031 136.2137,-0.54698 74.2037,0.40568 136.7132,0.99113 138.91,1.30108 l 3.9942,0.56354 -0.3028,4.47613 c -0.1664,2.46186 -1.5293,10.98841 -3.0283,18.94787 -2.8796,15.28955 -7.2786,38.04982 -8.487,43.91196 -1.4811,7.18561 2.4415,6.63203 -48.1737,6.7989 -42.8382,0.14124 -45.9059,0.26932 -47.3388,1.97643 -0.9028,1.07553 -3.4003,11.63599 -6.0803,25.71051 -2.5015,13.13686 -5.4705,28.37565 -6.5978,33.86394 -1.8733,9.12054 -18.0816,95.24924 -21.6934,115.27515 -3.6772,20.38943 -4.9839,27.37709 -7.9324,42.41779 -1.7215,8.78214 -4.3127,22.70529 -5.7583,30.94034 -1.4455,8.23505 -3.3872,19.01495 -4.315,23.95533 -0.9277,4.94039 -2.858,15.27038 -4.2896,22.95555 -3.3991,18.24768 -3.8738,19.7319 -6.7678,21.16431 -1.8203,0.90093 -12.9514,1.1009 -43.656,0.78435 -39.0095,-0.40216 -41.2642,-0.52422 -42.1781,-2.27616 z"
     style="fill:#00519e" />
</svg>
