<svg height="10.90362mm" viewBox="0 0 28.599409 10.90362" width="28.599409mm" xmlns="http://www.w3.org/2000/svg"><g fill="#aaa" transform="translate(-107.40863 -184.20295)"><path d="m112.78383 184.20295h11.37589l-1.89209 2.84473h-6.63921l-.94989 1.41968h6.6366l-1.58069 2.37222h-6.6391l-.9422 1.4224h6.63137l-1.8947 2.84459h-6.63659l-2.84459-2.84459zm9.4838 4.26441 2.27358 3.32479-6.69879 3.31442h4.73671l3.16121-1.56771 1.07449 1.56771h4.76528l-2.2866-3.32221 6.71453-3.317h-4.73932l-3.1768 1.5754-1.08758-1.5754z"/><path d="m112.78383 184.20295h11.37589l-1.89209 2.84473h-6.63921l-.94989 1.41968h6.6366l-1.58069 2.37222h-6.6391l-.9422 1.4224h6.63137l-1.8947 2.84459h-6.63659l-2.84459-2.84459zm9.4838 4.26441 2.27358 3.32479-6.69879 3.31442h4.73671l3.16121-1.56771 1.07449 1.56771h4.76528l-2.2866-3.32221 6.71453-3.317h-4.73932l-3.1768 1.5754-1.08758-1.5754z"/></g></svg>