<svg height="89.958328mm" viewBox="0 0 235.95422 89.95833" width="235.95422mm" xmlns="http://www.w3.org/2000/svg"><g transform="translate(-107.40863 -184.20295)"><path d="m151.75574 184.20295h93.85471l-15.61034 23.46993h-54.7756l-7.83689 11.71281h54.75406l-13.0412 19.57157h-54.77468l-7.77345 11.73525h54.71091l-15.63188 23.46877h-54.75398l-23.46877-23.46877zm78.24437 35.18274 18.75775 27.43057-55.26714 27.34502h39.07936l26.08099-12.9341 8.86488 12.9341h39.31508l-18.86518-27.40929 55.39701-27.3663h-39.1009l-26.20961 12.99755-8.97288-12.99755z"/><path d="m151.75574 184.20295h93.85471l-15.61034 23.46993h-54.7756l-7.83689 11.71281h54.75406l-13.0412 19.57157h-54.77468l-7.77345 11.73525h54.71091l-15.63188 23.46877h-54.75398l-23.46877-23.46877zm78.24437 35.18274 18.75775 27.43057-55.26714 27.34502h39.07936l26.08099-12.9341 8.86488 12.9341h39.31508l-18.86518-27.40929 55.39701-27.3663h-39.1009l-26.20961 12.99755-8.97288-12.99755z"/></g></svg>