<?xml version="1.0" encoding="utf-8"?>
<!-- Generator: Adobe Illustrator 25.4.1, SVG Export Plug-In . SVG Version: 6.00 Build 0)  -->
<svg version="1.1" id="Ebene_1" xmlns="http://www.w3.org/2000/svg" xmlns:xlink="http://www.w3.org/1999/xlink" x="0px" y="0px"
	 viewBox="0 0 841.9 362.2" style="enable-background:new 0 0 841.9 362.2;" xml:space="preserve">
<style type="text/css">
	.st0{enable-background:new    ;}
	.st1{fill:#1A171B;}
	.st2{fill:#FFFFFF;}
	.st3{fill:#BE0A26;}
	.st4{fill:none;}
</style>
<g class="st0">
	<path class="st1" d="M18,358.7c0.9,0,1.6,0,2.4-0.1c0.7-0.1,1.4-0.2,2-0.4c0.6-0.2,1.2-0.4,1.8-0.6c0.6-0.2,1.1-0.5,1.7-0.8v-7
		h-4.9c-0.3,0-0.5-0.1-0.7-0.2c-0.2-0.2-0.3-0.4-0.3-0.6v-2.4h9.7v12.2c-0.8,0.6-1.6,1.1-2.5,1.5c-0.9,0.4-1.8,0.8-2.8,1.1
		c-1,0.3-2,0.5-3.2,0.6c-1.1,0.1-2.3,0.2-3.6,0.2c-2.3,0-4.4-0.4-6.3-1.2c-1.9-0.8-3.6-1.9-5-3.3c-1.4-1.4-2.5-3.1-3.2-5.1
		c-0.8-2-1.2-4.2-1.2-6.6c0-2.4,0.4-4.6,1.1-6.6c0.8-2,1.8-3.7,3.3-5.1c1.4-1.4,3.1-2.5,5.1-3.3c2-0.8,4.2-1.2,6.7-1.2
		c1.3,0,2.4,0.1,3.5,0.3c1.1,0.2,2.1,0.5,3,0.8c0.9,0.3,1.8,0.8,2.6,1.3c0.8,0.5,1.5,1.1,2.2,1.7l-1.2,1.9c-0.2,0.4-0.6,0.6-1,0.6
		c-0.2,0-0.5-0.1-0.8-0.2c-0.4-0.2-0.8-0.5-1.2-0.8c-0.5-0.3-1-0.6-1.7-0.8c-0.7-0.3-1.4-0.5-2.3-0.7c-0.9-0.2-1.9-0.3-3.2-0.3
		c-1.8,0-3.4,0.3-4.8,0.9c-1.4,0.6-2.7,1.4-3.7,2.5c-1,1.1-1.8,2.4-2.3,3.9c-0.5,1.5-0.8,3.3-0.8,5.2c0,2,0.3,3.8,0.9,5.4
		c0.6,1.6,1.4,2.9,2.4,4c1,1.1,2.3,1.9,3.7,2.5S16.3,358.7,18,358.7z"/>
</g>
<g class="st0">
	<path class="st1" d="M35.7,361.9v-22.4H38c0.4,0,0.7,0.1,0.9,0.2c0.2,0.2,0.3,0.4,0.3,0.8l0.3,3.5c0.8-1.6,1.7-2.8,2.8-3.7
		c1.1-0.9,2.5-1.3,4-1.3c0.6,0,1.2,0.1,1.7,0.2c0.5,0.1,1,0.3,1.4,0.6l-0.5,2.9c-0.1,0.4-0.3,0.6-0.7,0.6c-0.2,0-0.5-0.1-1-0.2
		c-0.4-0.1-1-0.2-1.8-0.2c-1.4,0-2.5,0.4-3.4,1.2c-0.9,0.8-1.7,2-2.3,3.5v14.3H35.7z"/>
</g>
<g class="st0">
	<path class="st1" d="M69.1,361.9h-1.7c-0.4,0-0.7-0.1-0.9-0.2c-0.2-0.1-0.4-0.4-0.5-0.8l-0.4-2.1c-0.6,0.5-1.2,1-1.7,1.4
		c-0.6,0.4-1.2,0.8-1.8,1.1c-0.6,0.3-1.3,0.5-2,0.7c-0.7,0.1-1.5,0.2-2.3,0.2c-0.9,0-1.7-0.1-2.4-0.4c-0.8-0.2-1.4-0.6-2-1.1
		c-0.6-0.5-1-1.1-1.3-1.9s-0.5-1.6-0.5-2.7c0-0.9,0.2-1.7,0.7-2.6c0.5-0.8,1.3-1.5,2.4-2.2c1.1-0.6,2.5-1.2,4.3-1.6
		c1.8-0.4,3.9-0.6,6.4-0.6v-1.8c0-1.8-0.4-3.1-1.1-4c-0.7-0.9-1.8-1.4-3.3-1.4c-1,0-1.8,0.1-2.4,0.4c-0.7,0.2-1.2,0.5-1.7,0.8
		c-0.5,0.3-0.9,0.6-1.2,0.8c-0.3,0.2-0.7,0.4-1,0.4c-0.3,0-0.5-0.1-0.7-0.2c-0.2-0.1-0.4-0.3-0.5-0.5l-0.7-1.3
		c1.2-1.2,2.6-2.1,4-2.7c1.4-0.6,3-0.9,4.8-0.9c1.3,0,2.4,0.2,3.3,0.6c1,0.4,1.8,1,2.5,1.7c0.7,0.7,1.2,1.6,1.5,2.7
		c0.3,1,0.5,2.2,0.5,3.5V361.9z M58.9,359.4c0.7,0,1.3-0.1,1.9-0.2c0.6-0.1,1.1-0.3,1.6-0.6c0.5-0.3,1-0.6,1.5-0.9
		c0.5-0.4,0.9-0.8,1.4-1.3v-4.6c-1.8,0-3.4,0.1-4.6,0.3c-1.3,0.2-2.3,0.5-3.1,0.9c-0.8,0.4-1.4,0.8-1.7,1.3
		c-0.4,0.5-0.5,1.1-0.5,1.7c0,0.6,0.1,1.1,0.3,1.5c0.2,0.4,0.4,0.8,0.8,1.1c0.3,0.3,0.7,0.5,1.2,0.6
		C57.9,359.4,58.4,359.4,58.9,359.4z"/>
	<path class="st1" d="M90.7,341.1c0,0.3,0,0.5-0.2,0.8c-0.1,0.3-0.2,0.5-0.4,0.7l-12.1,16.2h12.2v3.1H73.4v-1.6c0-0.2,0-0.4,0.1-0.7
		c0.1-0.3,0.2-0.5,0.4-0.7l12.2-16.3H74.1v-3.1h16.6V341.1z"/>
	<path class="st1" d="M94.5,346.9h10.9v3.3H94.5V346.9z"/>
</g>
<g class="st0">
	<path class="st1" d="M116.3,344.1h1.6c0.6,0,1-0.1,1.3-0.2c0.3-0.1,0.6-0.4,0.9-0.7l10.6-11.9c0.3-0.4,0.6-0.6,0.9-0.8
		c0.3-0.2,0.7-0.2,1.2-0.2h3.6l-12.1,13.6c-0.3,0.3-0.6,0.6-0.9,0.9c-0.3,0.2-0.6,0.4-0.9,0.6c0.4,0.1,0.8,0.3,1.1,0.6
		c0.3,0.3,0.6,0.6,1,1l12.6,15h-3.7c-0.3,0-0.5,0-0.7-0.1c-0.2,0-0.4-0.1-0.5-0.2s-0.3-0.2-0.4-0.3c-0.1-0.1-0.2-0.2-0.4-0.4
		l-10.9-12.6c-0.2-0.2-0.3-0.3-0.5-0.5c-0.1-0.1-0.3-0.2-0.5-0.3c-0.2-0.1-0.4-0.1-0.6-0.2c-0.2,0-0.5-0.1-0.9-0.1h-1.9v14.5H112
		v-31.7h4.3V344.1z"/>
</g>
<g class="st0">
	<path class="st1" d="M149.3,339.1c1.6,0,3.1,0.3,4.4,0.8c1.3,0.5,2.4,1.3,3.4,2.3c0.9,1,1.6,2.2,2.1,3.6c0.5,1.4,0.7,3,0.7,4.8
		c0,1.8-0.2,3.4-0.7,4.8c-0.5,1.4-1.2,2.6-2.1,3.6c-0.9,1-2,1.8-3.4,2.3c-1.3,0.5-2.8,0.8-4.4,0.8c-1.6,0-3.1-0.3-4.4-0.8
		s-2.4-1.3-3.4-2.3c-0.9-1-1.6-2.2-2.1-3.6c-0.5-1.4-0.8-3-0.8-4.8c0-1.8,0.3-3.3,0.8-4.8c0.5-1.4,1.2-2.6,2.1-3.6
		c0.9-1,2.1-1.8,3.4-2.3C146.2,339.4,147.6,339.1,149.3,339.1z M149.3,359.1c2.2,0,3.9-0.7,5-2.2c1.1-1.5,1.6-3.6,1.6-6.2
		c0-2.7-0.5-4.8-1.6-6.2c-1.1-1.5-2.7-2.2-5-2.2c-1.1,0-2.1,0.2-2.9,0.6c-0.8,0.4-1.5,0.9-2.1,1.7s-1,1.6-1.2,2.7
		c-0.3,1.1-0.4,2.2-0.4,3.6c0,1.3,0.1,2.5,0.4,3.6c0.3,1.1,0.7,1.9,1.2,2.7s1.2,1.3,2.1,1.6C147.2,358.9,148.2,359.1,149.3,359.1z
		 M147.8,333.3c0,0.3-0.1,0.7-0.2,1c-0.1,0.3-0.3,0.5-0.6,0.8c-0.2,0.2-0.5,0.4-0.8,0.5c-0.3,0.1-0.6,0.2-1,0.2
		c-0.3,0-0.6-0.1-0.9-0.2c-0.3-0.1-0.6-0.3-0.8-0.5c-0.2-0.2-0.4-0.5-0.5-0.8c-0.1-0.3-0.2-0.6-0.2-1c0-0.3,0.1-0.7,0.2-1
		c0.1-0.3,0.3-0.6,0.5-0.8c0.2-0.2,0.5-0.4,0.8-0.5c0.3-0.1,0.6-0.2,0.9-0.2c0.3,0,0.7,0.1,1,0.2c0.3,0.1,0.6,0.3,0.8,0.5
		c0.2,0.2,0.4,0.5,0.6,0.8C147.8,332.7,147.8,333,147.8,333.3z M155.8,333.3c0,0.3-0.1,0.7-0.2,1c-0.1,0.3-0.3,0.5-0.5,0.8
		c-0.2,0.2-0.5,0.4-0.8,0.5c-0.3,0.1-0.6,0.2-1,0.2c-0.3,0-0.7-0.1-1-0.2c-0.3-0.1-0.6-0.3-0.8-0.5c-0.2-0.2-0.4-0.5-0.5-0.8
		c-0.1-0.3-0.2-0.6-0.2-1c0-0.3,0.1-0.7,0.2-1c0.1-0.3,0.3-0.6,0.5-0.8c0.2-0.2,0.5-0.4,0.8-0.5c0.3-0.1,0.6-0.2,1-0.2
		c0.3,0,0.7,0.1,1,0.2c0.3,0.1,0.6,0.3,0.8,0.5c0.2,0.2,0.4,0.5,0.5,0.8C155.7,332.7,155.8,333,155.8,333.3z"/>
	<path class="st1" d="M165.7,361.9v-19l-2.5-0.3c-0.3-0.1-0.6-0.2-0.8-0.3c-0.2-0.2-0.3-0.4-0.3-0.7v-1.6h3.5v-1.2
		c0-1.2,0.2-2.4,0.6-3.5s1-2.1,1.7-2.9c0.8-0.8,1.7-1.5,2.9-2c1.2-0.5,2.5-0.7,4-0.7c1.2,0,2.4,0,3.5,0.1c1.1,0.1,2.2,0.1,3.3,0.1
		h2.2v32H180v-29.3c-0.8,0-1.6,0-2.4,0c-0.8,0-1.5,0-2.1,0c-1.9,0-3.4,0.5-4.4,1.6c-1,1.1-1.5,2.6-1.5,4.6v1.2h5.8v2.9h-5.7v19.1
		H165.7z"/>
	<path class="st1" d="M207.5,361.9h-1.7c-0.4,0-0.7-0.1-0.9-0.2c-0.2-0.1-0.4-0.4-0.5-0.8l-0.4-2.1c-0.6,0.5-1.2,1-1.7,1.4
		c-0.6,0.4-1.2,0.8-1.8,1.1c-0.6,0.3-1.3,0.5-2,0.7c-0.7,0.1-1.5,0.2-2.3,0.2c-0.9,0-1.7-0.1-2.4-0.4c-0.8-0.2-1.4-0.6-2-1.1
		c-0.6-0.5-1-1.1-1.3-1.9s-0.5-1.6-0.5-2.7c0-0.9,0.2-1.7,0.7-2.6c0.5-0.8,1.3-1.5,2.4-2.2c1.1-0.6,2.5-1.2,4.3-1.6
		c1.8-0.4,3.9-0.6,6.4-0.6v-1.8c0-1.8-0.4-3.1-1.1-4c-0.7-0.9-1.8-1.4-3.3-1.4c-1,0-1.8,0.1-2.4,0.4c-0.7,0.2-1.2,0.5-1.7,0.8
		c-0.5,0.3-0.9,0.6-1.2,0.8c-0.3,0.2-0.7,0.4-1,0.4c-0.3,0-0.5-0.1-0.7-0.2s-0.4-0.3-0.5-0.5l-0.7-1.3c1.2-1.2,2.6-2.1,4-2.7
		c1.4-0.6,3-0.9,4.8-0.9c1.3,0,2.4,0.2,3.3,0.6c1,0.4,1.8,1,2.5,1.7c0.7,0.7,1.2,1.6,1.5,2.7c0.3,1,0.5,2.2,0.5,3.5V361.9z
		 M197.3,359.4c0.7,0,1.3-0.1,1.9-0.2c0.6-0.1,1.1-0.3,1.6-0.6c0.5-0.3,1-0.6,1.5-0.9c0.5-0.4,0.9-0.8,1.4-1.3v-4.6
		c-1.8,0-3.4,0.1-4.6,0.3c-1.3,0.2-2.3,0.5-3.1,0.9c-0.8,0.4-1.4,0.8-1.7,1.3c-0.4,0.5-0.5,1.1-0.5,1.7c0,0.6,0.1,1.1,0.3,1.5
		c0.2,0.4,0.4,0.8,0.8,1.1c0.3,0.3,0.7,0.5,1.2,0.6C196.3,359.4,196.8,359.4,197.3,359.4z"/>
	<path class="st1" d="M228.8,343.4c-0.1,0.2-0.2,0.3-0.4,0.4c-0.1,0.1-0.3,0.1-0.5,0.1c-0.2,0-0.5-0.1-0.7-0.3s-0.6-0.4-1-0.6
		c-0.4-0.2-0.9-0.4-1.4-0.6c-0.6-0.2-1.3-0.3-2.1-0.3c-1.1,0-2.1,0.2-2.9,0.6c-0.8,0.4-1.5,1-2.1,1.7c-0.6,0.7-1,1.6-1.3,2.7
		c-0.3,1-0.4,2.2-0.4,3.5c0,1.4,0.2,2.6,0.5,3.6c0.3,1.1,0.7,1.9,1.3,2.7c0.6,0.7,1.2,1.3,2,1.6c0.8,0.4,1.7,0.6,2.7,0.6
		c1,0,1.7-0.1,2.4-0.3c0.6-0.2,1.1-0.5,1.5-0.8c0.4-0.3,0.8-0.5,1-0.8c0.3-0.2,0.5-0.3,0.8-0.3c0.3,0,0.6,0.1,0.8,0.4l1.1,1.4
		c-1,1.2-2.2,2.1-3.7,2.6c-1.5,0.6-3,0.8-4.6,0.8c-1.4,0-2.7-0.3-3.9-0.8c-1.2-0.5-2.2-1.3-3.1-2.2c-0.9-1-1.6-2.2-2.1-3.6
		c-0.5-1.4-0.8-3.1-0.8-4.9c0-1.7,0.2-3.2,0.7-4.6c0.5-1.4,1.1-2.6,2-3.7c0.9-1,2-1.8,3.3-2.4c1.3-0.6,2.8-0.9,4.5-0.9
		c1.6,0,2.9,0.3,4.2,0.8c1.2,0.5,2.3,1.2,3.2,2.2L228.8,343.4z"/>
	<path class="st1" d="M234.2,361.9v-32.6h3.9v13.2c1-1,2-1.8,3.2-2.4c1.2-0.6,2.5-0.9,4-0.9c1.2,0,2.3,0.2,3.2,0.6
		c0.9,0.4,1.7,1,2.3,1.7c0.6,0.7,1.1,1.6,1.4,2.7c0.3,1,0.5,2.2,0.5,3.5v14.3h-3.9v-14.3c0-1.7-0.4-3-1.2-3.9
		c-0.8-0.9-2-1.4-3.6-1.4c-1.2,0-2.3,0.3-3.3,0.8c-1,0.6-1.9,1.3-2.8,2.3v16.5H234.2z"/>
	<path class="st1" d="M267.7,339.1c1.3,0,2.6,0.2,3.7,0.7c1.1,0.4,2.1,1.1,2.9,1.9c0.8,0.8,1.5,1.9,1.9,3.1c0.5,1.2,0.7,2.7,0.7,4.3
		c0,0.6-0.1,1-0.2,1.2c-0.1,0.2-0.4,0.3-0.8,0.3h-14.9c0,1.4,0.2,2.6,0.6,3.7c0.4,1,0.8,1.9,1.5,2.6c0.6,0.7,1.4,1.2,2.2,1.6
		c0.9,0.3,1.8,0.5,2.9,0.5c1,0,1.8-0.1,2.6-0.3c0.7-0.2,1.3-0.5,1.8-0.7c0.5-0.3,0.9-0.5,1.3-0.7c0.3-0.2,0.6-0.3,0.9-0.3
		c0.3,0,0.6,0.1,0.8,0.4l1.1,1.4c-0.5,0.6-1.1,1.1-1.7,1.5c-0.7,0.4-1.4,0.8-2.2,1.1c-0.8,0.3-1.6,0.5-2.4,0.6
		c-0.8,0.1-1.6,0.2-2.5,0.2c-1.5,0-3-0.3-4.3-0.8c-1.3-0.5-2.4-1.3-3.4-2.3c-1-1-1.7-2.3-2.2-3.7c-0.5-1.5-0.8-3.2-0.8-5.1
		c0-1.6,0.2-3,0.7-4.4c0.5-1.4,1.2-2.5,2.1-3.5c0.9-1,2-1.8,3.3-2.3C264.6,339.4,266,339.1,267.7,339.1z M267.7,342
		c-1.9,0-3.4,0.5-4.5,1.7c-1.1,1.1-1.8,2.6-2,4.6h12.2c0-0.9-0.1-1.7-0.4-2.5c-0.3-0.8-0.6-1.4-1.1-2c-0.5-0.5-1.1-1-1.8-1.3
		C269.4,342.1,268.6,342,267.7,342z"/>
	<path class="st1" d="M282,361.9v-22.4h2.3c0.4,0,0.7,0.1,0.9,0.2c0.2,0.2,0.3,0.4,0.3,0.8l0.3,3.5c0.8-1.6,1.7-2.8,2.8-3.7
		c1.1-0.9,2.5-1.3,4-1.3c0.6,0,1.2,0.1,1.7,0.2c0.5,0.1,1,0.3,1.4,0.6l-0.5,2.9c-0.1,0.4-0.3,0.6-0.7,0.6c-0.2,0-0.5-0.1-1-0.2
		c-0.4-0.1-1-0.2-1.8-0.2c-1.4,0-2.5,0.4-3.4,1.2c-0.9,0.8-1.7,2-2.3,3.5v14.3H282z"/>
	<path class="st1" d="M309,361.9v-31.7h10.1c1.9,0,3.6,0.2,5,0.6c1.4,0.4,2.6,0.9,3.5,1.6c0.9,0.7,1.6,1.6,2,2.6
		c0.4,1,0.7,2.2,0.7,3.5c0,0.8-0.1,1.5-0.4,2.3c-0.2,0.7-0.6,1.4-1.1,2c-0.5,0.6-1.1,1.2-1.9,1.7c-0.7,0.5-1.6,0.9-2.6,1.2
		c2.3,0.5,4.1,1.3,5.2,2.5c1.2,1.2,1.8,2.8,1.8,4.8c0,1.3-0.2,2.6-0.7,3.7c-0.5,1.1-1.2,2.1-2.2,2.8c-1,0.8-2.1,1.4-3.5,1.8
		c-1.4,0.4-3,0.7-4.7,0.7H309z M313.2,344.4h5.7c1.2,0,2.3-0.1,3.1-0.4c0.9-0.3,1.6-0.6,2.2-1.1c0.6-0.5,1-1,1.3-1.7
		c0.3-0.7,0.4-1.4,0.4-2.2c0-1.9-0.6-3.2-1.7-4.1c-1.1-0.9-2.9-1.3-5.2-1.3h-5.8V344.4z M313.2,347.4v11h6.9c1.2,0,2.3-0.1,3.2-0.4
		c0.9-0.3,1.6-0.7,2.2-1.2c0.6-0.5,1-1.1,1.3-1.8c0.3-0.7,0.4-1.5,0.4-2.3c0-1.6-0.6-2.9-1.7-3.9c-1.2-0.9-2.9-1.4-5.3-1.4H313.2z"
		/>
	<path class="st1" d="M353.4,361.9h-1.7c-0.4,0-0.7-0.1-0.9-0.2c-0.2-0.1-0.4-0.4-0.5-0.8l-0.4-2.1c-0.6,0.5-1.2,1-1.7,1.4
		c-0.6,0.4-1.2,0.8-1.8,1.1c-0.6,0.3-1.3,0.5-2,0.7c-0.7,0.1-1.5,0.2-2.3,0.2c-0.9,0-1.7-0.1-2.4-0.4c-0.8-0.2-1.4-0.6-2-1.1
		c-0.6-0.5-1-1.1-1.3-1.9c-0.3-0.7-0.5-1.6-0.5-2.7c0-0.9,0.2-1.7,0.7-2.6c0.5-0.8,1.3-1.5,2.4-2.2c1.1-0.6,2.5-1.2,4.3-1.6
		c1.8-0.4,3.9-0.6,6.4-0.6v-1.8c0-1.8-0.4-3.1-1.1-4c-0.7-0.9-1.8-1.4-3.3-1.4c-1,0-1.8,0.1-2.4,0.4c-0.7,0.2-1.2,0.5-1.7,0.8
		c-0.5,0.3-0.9,0.6-1.2,0.8c-0.3,0.2-0.7,0.4-1,0.4c-0.3,0-0.5-0.1-0.7-0.2c-0.2-0.1-0.4-0.3-0.5-0.5l-0.7-1.3
		c1.2-1.2,2.6-2.1,4-2.7c1.4-0.6,3-0.9,4.8-0.9c1.3,0,2.4,0.2,3.3,0.6c1,0.4,1.8,1,2.5,1.7c0.7,0.7,1.2,1.6,1.5,2.7
		c0.3,1,0.5,2.2,0.5,3.5V361.9z M343.2,359.4c0.7,0,1.3-0.1,1.9-0.2c0.6-0.1,1.1-0.3,1.6-0.6c0.5-0.3,1-0.6,1.5-0.9
		c0.5-0.4,0.9-0.8,1.4-1.3v-4.6c-1.8,0-3.4,0.1-4.6,0.3c-1.3,0.2-2.3,0.5-3.1,0.9c-0.8,0.4-1.4,0.8-1.7,1.3
		c-0.4,0.5-0.5,1.1-0.5,1.7c0,0.6,0.1,1.1,0.3,1.5c0.2,0.4,0.4,0.8,0.8,1.1c0.3,0.3,0.7,0.5,1.2,0.6
		C342.2,359.4,342.7,359.4,343.2,359.4z"/>
	<path class="st1" d="M359.4,361.9v-32.6h3.9v13.2c1-1,2-1.8,3.2-2.4c1.2-0.6,2.5-0.9,4-0.9c1.2,0,2.3,0.2,3.2,0.6
		c0.9,0.4,1.7,1,2.3,1.7c0.6,0.7,1.1,1.6,1.4,2.7s0.5,2.2,0.5,3.5v14.3h-3.9v-14.3c0-1.7-0.4-3-1.2-3.9c-0.8-0.9-2-1.4-3.6-1.4
		c-1.2,0-2.3,0.3-3.3,0.8c-1,0.6-1.9,1.3-2.8,2.3v16.5H359.4z"/>
	<path class="st1" d="M384,361.9v-22.4h2.3c0.6,0,0.9,0.3,1.1,0.8l0.3,2.4c1-1.1,2.1-1.9,3.3-2.6c1.2-0.7,2.6-1,4.2-1
		c1.2,0,2.3,0.2,3.2,0.6c0.9,0.4,1.7,1,2.3,1.7c0.6,0.7,1.1,1.6,1.4,2.7s0.5,2.2,0.5,3.5v14.3h-3.9v-14.3c0-1.7-0.4-3-1.2-3.9
		c-0.8-0.9-2-1.4-3.6-1.4c-1.2,0-2.3,0.3-3.3,0.8c-1,0.6-1.9,1.3-2.8,2.3v16.5H384z"/>
	<path class="st1" d="M420.5,339.4v14.3c0,1.7,0.4,3,1.2,3.9c0.8,0.9,2,1.4,3.5,1.4c1.2,0,2.2-0.3,3.2-0.8c1-0.5,2-1.3,2.8-2.3
		v-16.5h3.9v22.4h-2.3c-0.6,0-0.9-0.3-1.1-0.8l-0.3-2.4c-1,1.1-2.1,1.9-3.3,2.6c-1.2,0.7-2.6,1-4.2,1c-1.2,0-2.3-0.2-3.2-0.6
		c-0.9-0.4-1.7-1-2.4-1.7c-0.6-0.7-1.1-1.6-1.4-2.7s-0.5-2.2-0.5-3.5v-14.3H420.5z"/>
	<path class="st1" d="M441.7,361.9v-22.4h2.3c0.6,0,0.9,0.3,1.1,0.8l0.3,2.4c1-1.1,2.1-1.9,3.3-2.6c1.2-0.7,2.6-1,4.2-1
		c1.2,0,2.3,0.2,3.2,0.6c0.9,0.4,1.7,1,2.3,1.7c0.6,0.7,1.1,1.6,1.4,2.7c0.3,1,0.5,2.2,0.5,3.5v14.3h-3.9v-14.3c0-1.7-0.4-3-1.2-3.9
		c-0.8-0.9-2-1.4-3.6-1.4c-1.2,0-2.3,0.3-3.3,0.8c-1,0.6-1.9,1.3-2.8,2.3v16.5H441.7z"/>
	<path class="st1" d="M482.1,361.9c-0.6,0-0.9-0.3-1.1-0.8l-0.4-2.7c-1,1.2-2.1,2.1-3.3,2.8c-1.2,0.7-2.6,1-4.2,1
		c-1.3,0-2.5-0.2-3.5-0.7c-1-0.5-1.9-1.2-2.7-2.2c-0.7-1-1.3-2.2-1.7-3.6c-0.4-1.4-0.6-3.1-0.6-4.9c0-1.7,0.2-3.2,0.7-4.6
		c0.4-1.4,1.1-2.7,1.9-3.7c0.8-1,1.8-1.9,3-2.5c1.2-0.6,2.6-0.9,4.1-0.9c1.4,0,2.5,0.2,3.5,0.7c1,0.5,1.8,1.1,2.6,2v-12.4h3.9v32.6
		H482.1z M474.5,359c1.3,0,2.4-0.3,3.4-0.9c1-0.6,1.9-1.4,2.7-2.5v-10.8c-0.7-1-1.5-1.7-2.4-2c-0.9-0.4-1.8-0.6-2.9-0.6
		c-2.1,0-3.7,0.7-4.8,2.2c-1.1,1.5-1.7,3.6-1.7,6.4c0,1.5,0.1,2.7,0.4,3.7c0.2,1,0.6,1.9,1.1,2.6c0.5,0.7,1.1,1.2,1.8,1.5
		C472.7,358.8,473.5,359,474.5,359z"/>
	<path class="st1" d="M500.2,361.9v-31.7h10.1c1.9,0,3.6,0.2,5,0.6c1.4,0.4,2.6,0.9,3.5,1.6c0.9,0.7,1.6,1.6,2,2.6
		c0.4,1,0.6,2.2,0.6,3.5c0,0.8-0.1,1.5-0.4,2.3c-0.2,0.7-0.6,1.4-1.1,2c-0.5,0.6-1.1,1.2-1.9,1.7c-0.7,0.5-1.6,0.9-2.6,1.2
		c2.3,0.5,4.1,1.3,5.2,2.5c1.2,1.2,1.8,2.8,1.8,4.8c0,1.3-0.2,2.6-0.7,3.7c-0.5,1.1-1.2,2.1-2.2,2.8c-1,0.8-2.1,1.4-3.5,1.8
		c-1.4,0.4-2.9,0.7-4.7,0.7H500.2z M504.5,344.4h5.7c1.2,0,2.3-0.1,3.1-0.4c0.9-0.3,1.6-0.6,2.2-1.1c0.6-0.5,1-1,1.3-1.7
		c0.3-0.7,0.4-1.4,0.4-2.2c0-1.9-0.6-3.2-1.7-4.1c-1.1-0.9-2.9-1.3-5.2-1.3h-5.8V344.4z M504.5,347.4v11h6.9c1.2,0,2.3-0.1,3.1-0.4
		c0.9-0.3,1.6-0.7,2.2-1.2s1-1.1,1.3-1.8c0.3-0.7,0.4-1.5,0.4-2.3c0-1.6-0.6-2.9-1.7-3.9c-1.2-0.9-2.9-1.4-5.3-1.4H504.5z"/>
	<path class="st1" d="M531.6,339.4v14.3c0,1.7,0.4,3,1.2,3.9c0.8,0.9,2,1.4,3.5,1.4c1.2,0,2.2-0.3,3.2-0.8c1-0.5,2-1.3,2.8-2.3
		v-16.5h3.9v22.4H544c-0.6,0-0.9-0.3-1.1-0.8l-0.3-2.4c-1,1.1-2.1,1.9-3.3,2.6c-1.2,0.7-2.6,1-4.2,1c-1.2,0-2.3-0.2-3.2-0.6
		c-0.9-0.4-1.7-1-2.4-1.7c-0.6-0.7-1.1-1.6-1.4-2.7s-0.5-2.2-0.5-3.5v-14.3H531.6z"/>
	<path class="st1" d="M565.6,343.1c-0.2,0.3-0.5,0.5-0.8,0.5c-0.2,0-0.5-0.1-0.7-0.2c-0.3-0.2-0.6-0.3-1-0.5
		c-0.4-0.2-0.9-0.4-1.5-0.6c-0.6-0.2-1.2-0.3-2-0.3c-0.7,0-1.3,0.1-1.8,0.3c-0.5,0.2-1,0.4-1.4,0.7c-0.4,0.3-0.7,0.6-0.9,1
		c-0.2,0.4-0.3,0.8-0.3,1.3c0,0.6,0.2,1.1,0.5,1.4c0.3,0.4,0.8,0.7,1.3,1c0.5,0.3,1.2,0.5,1.9,0.7c0.7,0.2,1.4,0.4,2.1,0.7
		c0.7,0.2,1.4,0.5,2.1,0.8c0.7,0.3,1.3,0.7,1.9,1.1s1,1,1.3,1.6c0.3,0.6,0.5,1.4,0.5,2.3c0,1-0.2,2-0.5,2.9
		c-0.4,0.9-0.9,1.6-1.6,2.3c-0.7,0.6-1.6,1.1-2.7,1.5c-1,0.4-2.3,0.6-3.6,0.6c-1.6,0-3-0.3-4.2-0.8c-1.3-0.5-2.4-1.2-3.2-2l0.9-1.5
		c0.1-0.2,0.3-0.3,0.4-0.4c0.2-0.1,0.4-0.2,0.6-0.2s0.5,0.1,0.8,0.3c0.3,0.2,0.6,0.4,1.1,0.7c0.4,0.2,0.9,0.5,1.5,0.7
		c0.6,0.2,1.3,0.3,2.3,0.3c0.8,0,1.4-0.1,2-0.3s1.1-0.5,1.4-0.8c0.4-0.3,0.7-0.7,0.9-1.2c0.2-0.4,0.3-0.9,0.3-1.4
		c0-0.6-0.2-1.1-0.5-1.5c-0.3-0.4-0.8-0.7-1.3-1c-0.5-0.3-1.2-0.5-1.9-0.8c-0.7-0.2-1.4-0.4-2.1-0.7c-0.7-0.2-1.4-0.5-2.1-0.8
		c-0.7-0.3-1.3-0.7-1.9-1.1c-0.5-0.5-1-1-1.3-1.7c-0.3-0.7-0.5-1.5-0.5-2.4c0-0.9,0.2-1.7,0.5-2.5c0.3-0.8,0.9-1.5,1.5-2.1
		c0.7-0.6,1.5-1.1,2.5-1.4c1-0.3,2.1-0.5,3.4-0.5c1.5,0,2.8,0.2,4,0.7c1.2,0.5,2.2,1.1,3,1.9L565.6,343.1z"/>
	<path class="st1" d="M572.1,361.9v-32.6h4v13.4c0.9-1.1,2-1.9,3.2-2.6c1.2-0.7,2.6-1,4.1-1c1.3,0,2.5,0.2,3.5,0.7
		c1,0.5,1.9,1.2,2.7,2.2c0.7,1,1.3,2.2,1.7,3.6s0.6,3.1,0.6,4.9c0,1.7-0.2,3.2-0.7,4.6c-0.4,1.4-1.1,2.7-1.9,3.7
		c-0.8,1-1.8,1.9-3,2.5c-1.2,0.6-2.6,0.9-4.1,0.9c-1.4,0-2.7-0.3-3.7-0.8c-1-0.6-1.9-1.3-2.6-2.3l-0.2,2c-0.1,0.6-0.5,0.8-1,0.8
		H572.1z M582.1,342.2c-1.3,0-2.4,0.3-3.4,0.9c-1,0.6-1.9,1.4-2.7,2.5v10.8c0.7,1,1.5,1.7,2.4,2.1c0.9,0.4,1.8,0.6,2.9,0.6
		c2.1,0,3.7-0.7,4.8-2.2c1.1-1.5,1.7-3.6,1.7-6.4c0-1.5-0.1-2.7-0.4-3.8s-0.6-1.9-1.1-2.6c-0.5-0.7-1.1-1.2-1.8-1.5
		C583.9,342.4,583,342.2,582.1,342.2z"/>
	<path class="st1" d="M605.6,339.1c1.3,0,2.6,0.2,3.7,0.7c1.1,0.4,2.1,1.1,2.9,1.9c0.8,0.8,1.5,1.9,1.9,3.1c0.5,1.2,0.7,2.7,0.7,4.3
		c0,0.6-0.1,1-0.2,1.2c-0.1,0.2-0.4,0.3-0.8,0.3H599c0,1.4,0.2,2.6,0.6,3.7c0.4,1,0.8,1.9,1.5,2.6c0.6,0.7,1.4,1.2,2.2,1.6
		c0.9,0.3,1.8,0.5,2.9,0.5c1,0,1.8-0.1,2.6-0.3c0.7-0.2,1.3-0.5,1.8-0.7c0.5-0.3,0.9-0.5,1.3-0.7c0.3-0.2,0.6-0.3,0.9-0.3
		c0.3,0,0.6,0.1,0.7,0.4l1.1,1.4c-0.5,0.6-1.1,1.1-1.7,1.5c-0.7,0.4-1.4,0.8-2.2,1.1c-0.8,0.3-1.6,0.5-2.4,0.6
		c-0.8,0.1-1.6,0.2-2.5,0.2c-1.5,0-3-0.3-4.3-0.8c-1.3-0.5-2.4-1.3-3.4-2.3c-1-1-1.7-2.3-2.2-3.7c-0.5-1.5-0.8-3.2-0.8-5.1
		c0-1.6,0.2-3,0.7-4.4c0.5-1.4,1.2-2.5,2.1-3.5c0.9-1,2-1.8,3.3-2.3C602.5,339.4,604,339.1,605.6,339.1z M605.7,342
		c-1.9,0-3.4,0.5-4.5,1.7c-1.1,1.1-1.8,2.6-2,4.6h12.2c0-0.9-0.1-1.7-0.4-2.5c-0.3-0.8-0.6-1.4-1.1-2c-0.5-0.5-1.1-1-1.8-1.3
		C607.4,342.1,606.6,342,605.7,342z"/>
	<path class="st1" d="M626.7,362.2c-1.8,0-3.1-0.5-4.1-1.5c-0.9-1-1.4-2.4-1.4-4.3v-13.7h-2.7c-0.2,0-0.4-0.1-0.6-0.2
		c-0.2-0.1-0.2-0.4-0.2-0.6v-1.6l3.7-0.5l0.9-6.9c0-0.2,0.1-0.4,0.3-0.5c0.2-0.1,0.4-0.2,0.6-0.2h2v7.7h6.4v2.9h-6.4v13.4
		c0,0.9,0.2,1.6,0.7,2.1c0.5,0.5,1,0.7,1.8,0.7c0.4,0,0.8-0.1,1.1-0.2c0.3-0.1,0.6-0.2,0.8-0.4c0.2-0.1,0.4-0.3,0.6-0.4
		c0.2-0.1,0.3-0.2,0.4-0.2c0.2,0,0.4,0.1,0.5,0.4l1.2,1.9c-0.7,0.6-1.5,1.1-2.5,1.5C628.7,362,627.7,362.2,626.7,362.2z"/>
	<path class="st1" d="M636.4,361.9v-22.4h2.3c0.4,0,0.7,0.1,0.9,0.2c0.2,0.2,0.3,0.4,0.3,0.8l0.3,3.5c0.8-1.6,1.7-2.8,2.8-3.7
		c1.1-0.9,2.5-1.3,4-1.3c0.6,0,1.2,0.1,1.7,0.2c0.5,0.1,1,0.3,1.4,0.6l-0.5,2.9c-0.1,0.4-0.3,0.6-0.7,0.6c-0.2,0-0.5-0.1-0.9-0.2
		c-0.4-0.1-1-0.2-1.8-0.2c-1.4,0-2.5,0.4-3.4,1.2c-0.9,0.8-1.7,2-2.3,3.5v14.3H636.4z"/>
	<path class="st1" d="M659.5,332.4c0,0.4-0.1,0.7-0.2,1.1c-0.2,0.3-0.4,0.6-0.6,0.9s-0.6,0.5-0.9,0.6c-0.3,0.1-0.7,0.2-1.1,0.2
		c-0.4,0-0.7-0.1-1.1-0.2c-0.3-0.1-0.6-0.3-0.9-0.6c-0.3-0.3-0.5-0.6-0.6-0.9c-0.1-0.3-0.2-0.7-0.2-1.1c0-0.4,0.1-0.7,0.2-1.1
		c0.1-0.3,0.3-0.7,0.6-0.9c0.3-0.3,0.6-0.5,0.9-0.6c0.3-0.1,0.7-0.2,1.1-0.2c0.4,0,0.7,0.1,1.1,0.2c0.3,0.1,0.6,0.3,0.9,0.6
		c0.3,0.3,0.5,0.6,0.6,0.9C659.4,331.7,659.5,332,659.5,332.4z M658.6,339.4v22.4h-3.9v-22.4H658.6z"/>
	<path class="st1" d="M674.5,339.1c1.3,0,2.6,0.2,3.7,0.7c1.1,0.4,2.1,1.1,2.9,1.9c0.8,0.8,1.5,1.9,1.9,3.1c0.5,1.2,0.7,2.7,0.7,4.3
		c0,0.6-0.1,1-0.2,1.2c-0.1,0.2-0.4,0.3-0.8,0.3h-14.9c0,1.4,0.2,2.6,0.6,3.7c0.4,1,0.8,1.9,1.5,2.6c0.6,0.7,1.4,1.2,2.2,1.6
		c0.9,0.3,1.8,0.5,2.9,0.5c1,0,1.8-0.1,2.6-0.3c0.7-0.2,1.3-0.5,1.8-0.7c0.5-0.3,0.9-0.5,1.3-0.7c0.3-0.2,0.6-0.3,0.9-0.3
		c0.3,0,0.6,0.1,0.7,0.4l1.1,1.4c-0.5,0.6-1.1,1.1-1.7,1.5c-0.7,0.4-1.4,0.8-2.2,1.1c-0.8,0.3-1.6,0.5-2.4,0.6
		c-0.8,0.1-1.6,0.2-2.5,0.2c-1.5,0-3-0.3-4.3-0.8c-1.3-0.5-2.4-1.3-3.4-2.3c-1-1-1.7-2.3-2.2-3.7c-0.5-1.5-0.8-3.2-0.8-5.1
		c0-1.6,0.2-3,0.7-4.4c0.5-1.4,1.2-2.5,2.1-3.5c0.9-1,2-1.8,3.3-2.3C671.4,339.4,672.8,339.1,674.5,339.1z M674.5,342
		c-1.9,0-3.4,0.5-4.5,1.7c-1.1,1.1-1.8,2.6-2,4.6h12.2c0-0.9-0.1-1.7-0.4-2.5c-0.3-0.8-0.6-1.4-1.1-2c-0.5-0.5-1.1-1-1.8-1.3
		C676.2,342.1,675.4,342,674.5,342z"/>
	<path class="st1" d="M688.9,361.9v-32.6h4v13.4c0.9-1.1,2-1.9,3.2-2.6c1.2-0.7,2.6-1,4.1-1c1.3,0,2.5,0.2,3.5,0.7
		c1,0.5,1.9,1.2,2.7,2.2c0.7,1,1.3,2.2,1.7,3.6c0.4,1.4,0.6,3.1,0.6,4.9c0,1.7-0.2,3.2-0.7,4.6c-0.4,1.4-1.1,2.7-1.9,3.7
		c-0.8,1-1.9,1.9-3,2.5c-1.2,0.6-2.6,0.9-4.1,0.9c-1.4,0-2.7-0.3-3.7-0.8c-1-0.6-1.9-1.3-2.6-2.3l-0.2,2c-0.1,0.6-0.5,0.8-1,0.8
		H688.9z M698.9,342.2c-1.3,0-2.4,0.3-3.4,0.9c-1,0.6-1.9,1.4-2.7,2.5v10.8c0.7,1,1.5,1.7,2.4,2.1s1.8,0.6,2.9,0.6
		c2.1,0,3.7-0.7,4.8-2.2s1.7-3.6,1.7-6.4c0-1.5-0.1-2.7-0.4-3.8c-0.3-1-0.6-1.9-1.1-2.6c-0.5-0.7-1.1-1.2-1.8-1.5
		C700.6,342.4,699.8,342.2,698.9,342.2z"/>
	<path class="st1" d="M736.8,358.7c0.9,0,1.6,0,2.4-0.1c0.7-0.1,1.4-0.2,2-0.4c0.6-0.2,1.2-0.4,1.8-0.6c0.6-0.2,1.1-0.5,1.7-0.8v-7
		h-4.9c-0.3,0-0.5-0.1-0.7-0.2c-0.2-0.2-0.3-0.4-0.3-0.6v-2.4h9.7v12.2c-0.8,0.6-1.6,1.1-2.5,1.5c-0.9,0.4-1.8,0.8-2.8,1.1
		c-1,0.3-2,0.5-3.1,0.6c-1.1,0.1-2.3,0.2-3.6,0.2c-2.3,0-4.4-0.4-6.3-1.2c-1.9-0.8-3.6-1.9-5-3.3c-1.4-1.4-2.5-3.1-3.2-5.1
		c-0.8-2-1.2-4.2-1.2-6.6c0-2.4,0.4-4.6,1.1-6.6c0.8-2,1.8-3.7,3.2-5.1c1.4-1.4,3.1-2.5,5.1-3.3c2-0.8,4.2-1.2,6.7-1.2
		c1.3,0,2.4,0.1,3.5,0.3c1.1,0.2,2.1,0.5,3,0.8c0.9,0.3,1.8,0.8,2.6,1.3c0.8,0.5,1.5,1.1,2.2,1.7l-1.2,1.9c-0.2,0.4-0.6,0.6-1,0.6
		c-0.2,0-0.5-0.1-0.8-0.2c-0.4-0.2-0.8-0.5-1.2-0.8c-0.5-0.3-1-0.6-1.7-0.8c-0.7-0.3-1.4-0.5-2.3-0.7c-0.9-0.2-1.9-0.3-3.2-0.3
		c-1.8,0-3.4,0.3-4.8,0.9c-1.4,0.6-2.7,1.4-3.7,2.5c-1,1.1-1.8,2.4-2.3,3.9c-0.5,1.5-0.8,3.3-0.8,5.2c0,2,0.3,3.8,0.9,5.4
		c0.6,1.6,1.4,2.9,2.4,4c1,1.1,2.3,1.9,3.7,2.5C733.5,358.5,735.1,358.7,736.8,358.7z"/>
	<path class="st1" d="M754.5,361.9v-22.4h2.4c0.6,0,0.9,0.3,1.1,0.8l0.3,2.3c0.8-1,1.8-1.8,2.8-2.5c1-0.7,2.2-1,3.6-1
		c1.5,0,2.8,0.4,3.7,1.3c0.9,0.8,1.6,2,2,3.4c0.3-0.8,0.7-1.5,1.2-2.1c0.5-0.6,1.1-1.1,1.7-1.5c0.6-0.4,1.3-0.7,2-0.8
		c0.7-0.2,1.4-0.3,2.2-0.3c1.2,0,2.2,0.2,3.1,0.6c0.9,0.4,1.7,0.9,2.4,1.7c0.6,0.7,1.1,1.6,1.5,2.7c0.3,1.1,0.5,2.3,0.5,3.6v14.3
		h-3.9v-14.3c0-1.8-0.4-3.1-1.1-4c-0.8-0.9-1.9-1.4-3.3-1.4c-0.7,0-1.3,0.1-1.9,0.3c-0.6,0.2-1.1,0.6-1.5,1c-0.4,0.4-0.8,1-1,1.7
		c-0.3,0.7-0.4,1.4-0.4,2.3v14.3h-3.9v-14.3c0-1.8-0.4-3.1-1.1-4c-0.7-0.9-1.8-1.3-3.2-1.3c-1,0-1.9,0.3-2.7,0.8
		c-0.8,0.5-1.6,1.2-2.3,2.1v16.7H754.5z"/>
	<path class="st1" d="M791,361.9v-32.6h4v13.4c0.9-1.1,2-1.9,3.2-2.6c1.2-0.7,2.6-1,4.1-1c1.3,0,2.5,0.2,3.5,0.7
		c1,0.5,1.9,1.2,2.7,2.2c0.7,1,1.3,2.2,1.7,3.6c0.4,1.4,0.6,3.1,0.6,4.9c0,1.7-0.2,3.2-0.7,4.6c-0.4,1.4-1.1,2.7-1.9,3.7
		c-0.8,1-1.9,1.9-3,2.5c-1.2,0.6-2.6,0.9-4.1,0.9c-1.4,0-2.7-0.3-3.7-0.8c-1-0.6-1.9-1.3-2.6-2.3l-0.2,2c-0.1,0.6-0.5,0.8-1,0.8H791
		z M801,342.2c-1.3,0-2.4,0.3-3.4,0.9c-1,0.6-1.9,1.4-2.7,2.5v10.8c0.7,1,1.5,1.7,2.4,2.1s1.8,0.6,2.9,0.6c2.1,0,3.7-0.7,4.8-2.2
		s1.7-3.6,1.7-6.4c0-1.5-0.1-2.7-0.4-3.8c-0.3-1-0.6-1.9-1.1-2.6c-0.5-0.7-1.1-1.2-1.8-1.5C802.7,342.4,801.9,342.2,801,342.2z"/>
	<path class="st1" d="M841.9,361.9h-4.3v-14.4h-17.1v14.4h-4.3v-31.7h4.3v14.1h17.1v-14.1h4.3V361.9z"/>
</g>
<path class="st1" d="M142.1,284.2C63.6,284.2,0,220.6,0,142.1S63.6,0,142.1,0h555c78.5,0,142.1,63.6,142.1,142.1
	s-63.6,142.1-142.1,142.1H142.1z"/>
<path class="st2" d="M424.5,100.6c50.7-1.9,91.3-42.8,92.8-93.6l37-0.2c-1.6,71.1-58.8,128.3-129.8,129.9V100.6z"/>
<path class="st3" d="M424.5,54.5c24.8-1.8,44.3-21.8,45.6-46.5h39C507.4,54,470.6,91.1,424.5,93V54.5z"/>
<path class="st2" d="M517.1,275.7c-3-49.7-42.8-89.3-92.6-92v-37.2c70.3,2.7,126.7,58.9,129.8,129.2H517.1z"/>
<path class="st3" d="M469.7,275.7c-3.4-22.9-22.1-40.5-45.3-42.5v-39.2c44.8,1.9,81,37.1,84.4,81.8H469.7z"/>
<path class="st4" d="M700.9,53.7"/>
<path class="st4" d="M608.7,141.9"/>
<path class="st4" d="M701.2,230.1"/>
<path class="st4" d="M701.1,92.4"/>
<path class="st4" d="M647,141.6"/>
<path class="st4" d="M701.2,190.6"/>
<path class="st3" d="M785.2,137.7c-2.1-45.5-38.6-81.9-84.1-84v38.7c23.9,2.2,42.7,21.4,44.5,45.3H785.2z"/>
<path class="st3" d="M745.6,145.3c-1.9,23.9-20.6,42.9-44.4,45.3V230c45.9-2.2,82.4-39.2,84.1-85.1L745.6,145.3z"/>
<path class="st4" d="M138.3,53.7"/>
<path class="st4" d="M138.3,45.4"/>
<path class="st2" d="M138.3,238.4c-50.5-2-91-42.5-92.8-93.1H8.3c1.7,71.2,58.9,128.5,130,130.3V238.4 M138.3,45.3V7.9
	C67.6,10,10.6,66.9,8.4,137.7h37.2C47.8,87.4,88.1,47.3,138.3,45.3"/>
<path class="st3" d="M138.3,230.1c-46.1-1.9-82.9-39-84.6-85.1h38.4c1.8,24.6,21.6,44.1,46.2,45.5l0,0v39.3 M138.3,53.4V92l0,0
	c-24.5,1.6-44.2,20.9-46.2,45.4H53.9C56,91.8,92.7,55.3,138.3,53.4"/>
<path class="st2" d="M100,137.7c2-20.2,18.1-36.1,38.4-37.7l0,0v37.7H100z M138.3,145.3v37.8l0,0c-20.4-1.4-36.7-17.4-38.5-37.8
	H138.3z"/>
<path class="st4" d="M138.3,275.7"/>
<path class="st4" d="M145.9,275.7"/>
<path class="st4" d="M701.2,45.4"/>
<path class="st4" d="M693.2,45.4"/>
<path class="st4" d="M701.2,238.4"/>
<path class="st3" d="M693.3,190.6c-24.6-1.5-44.4-20.9-46.3-45.5h-38.3c1.6,46.1,38.4,83.2,84.5,85.1L693.3,190.6z"/>
<path class="st2" d="M563.4,145.3c1.7,71.1,58.8,128.3,129.8,130.3v-36.9c-50.7-1.9-91.2-42.8-92.7-93.4H563.4z"/>
<path class="st2" d="M654.9,145.3h38.4v37.8l0,0C672.9,181.6,656.6,165.6,654.9,145.3"/>
<path class="st2" d="M830.7,137.7C828.7,66.9,771.9,10,701.2,7.9v37.5c50,2.2,90.1,42.2,92.3,92.2H830.7z"/>
<path class="st2" d="M793.5,145.3c-1.8,50.3-42,90.8-92.3,93v37.4c70.7-2.3,127.5-59.2,129.6-129.9L793.5,145.3z"/>
<path class="st2" d="M648.9,275.7c-55-20-92.1-71.6-93.6-130.1V53.8c-16.9,44.3-54.6,77.3-100.7,88.3
	c61.7,15.6,105.8,70,108.2,133.6H648.9z"/>
<rect x="654.7" y="7.9" class="st2" width="38.4" height="129.4"/>
<rect x="608.6" y="7.9" class="st3" width="38.4" height="129.4"/>
<polyline class="st2" points="561.8,7.9 600.2,7.9 600.2,137.3 561.8,137.3 561.8,7.9 "/>
<rect x="146" y="146" class="st2" width="38.4" height="129.4"/>
<rect x="192.4" y="146" class="st3" width="38.4" height="129.4"/>
<rect x="238.8" y="146" class="st2" width="38.4" height="129.4"/>
<rect x="285.2" y="146" class="st2" width="38.4" height="129.4"/>
<rect x="331.7" y="146" class="st3" width="38.4" height="129.4"/>
<rect x="378" y="147.1" class="st2" width="38.4" height="129.4"/>
<rect x="378" y="9" class="st2" width="38.4" height="129.4"/>
<rect x="331.8" y="7.9" class="st3" width="38.4" height="129.4"/>
<rect x="285.2" y="7.9" class="st2" width="38.4" height="129.4"/>
<rect x="146" y="53.4" class="st3" width="131.2" height="38.4"/>
<rect x="146" y="7.9" class="st2" width="131.2" height="38.4"/>
<rect x="146" y="99" class="st2" width="131.2" height="38.4"/>
<path class="st2" d="M424.5,8.1h37.9c-1.4,20.4-17.5,36.8-37.9,38.6V8.1z"/>
<path class="st2" d="M424.5,275.7v-35.1c18.9,2,34.2,16.3,37.4,35.1H424.5z"/>
<line class="st4" x1="100" y1="145.3" x2="138.4" y2="145.3"/>
<path class="st2" d="M737.7,137.3c-1.9-19.5-17.2-35-36.6-37.2v37.2L737.7,137.3z"/>
<path class="st2" d="M701.2,145.3v37.6c19.6-2.3,34.9-18,36.7-37.6H701.2z"/>
</svg>
