<svg xmlns="http://www.w3.org/2000/svg" xmlns:xlink="http://www.w3.org/1999/xlink" version="1.1" id="Layer_1" x="0px" y="0px" viewBox="0 0 456.5 493.7" style="enable-background:new 0 0 456.5 493.7;" xml:space="preserve">
<style type="text/css">
	.st0{fill:#FCE000;}
	.st1{fill:#009430;}
	.st2{fill:#FFFFFF;}
	.st3{fill:#002D62;}
</style>
<rect x="0" y="1.9" class="st0" width="456.2" height="491.8"/>
<path class="st1" d="M0,493.7h456.5v-84.8H0V493.7z M0,84.8h456.5V0H0V84.8z"/>
<path class="st2" d="M409.6,475.9V445h10.2v6.3c1.5-2.5,3.2-4.4,5.1-5.5c1.9-1.2,4.3-1.7,7-1.7c2.1,0,3.9,0.3,5.5,1  c1.6,0.7,2.9,1.6,3.8,2.7c1,1.2,1.6,2.6,1.9,4.2c0.3,1.6,0.4,3.7,0.4,6.3v17.7h-11.2v-16.6c0-2.4-0.4-4.2-1.2-5.4  c-0.8-1.1-2.1-1.7-4-1.7c-2.4,0-4.1,0.9-5.1,2.6c-1,1.8-1.5,4.4-1.5,8v13H409.6 M363.8,475.9v-47.4h10.9v16.6c0,2-0.1,3.8-0.4,5.6  c1.1-1.6,2.1-3,3.2-3.9c1.1-0.9,2.3-1.6,3.7-2.1c1.4-0.5,3-0.7,4.8-0.7c2.1,0,3.9,0.3,5.5,1c1.6,0.7,2.9,1.6,3.8,2.7  c1,1.2,1.6,2.6,1.9,4.2c0.3,1.6,0.5,3.7,0.5,6.3v17.7h-11.2v-16.6c0-2.4-0.4-4.2-1.2-5.4c-0.8-1.1-2.1-1.7-4-1.7  c-2.4,0-4.1,0.9-5.1,2.6c-1,1.8-1.5,4.4-1.5,8v13H363.8z M341.6,460.4c0-2.4-0.7-4.3-2-5.7c-1.3-1.4-3.1-2.1-5.4-2.1  c-2.2,0-4,0.7-5.3,2.1c-1.3,1.4-2,3.3-2,5.7c0,2.4,0.6,4.3,2,5.7c1.3,1.4,3.1,2.1,5.3,2.1c2.3,0,4.1-0.7,5.4-2.1  C340.9,464.7,341.6,462.8,341.6,460.4 M351.4,445v30.9h-10.3v-5c-1.5,2.2-3.1,3.7-4.9,4.7c-1.8,1-3.9,1.5-6.4,1.5  c-2.1,0-3.9-0.4-5.6-1.2c-1.7-0.8-3.2-1.9-4.4-3.4c-1.2-1.5-2.2-3.2-2.8-5.2c-0.7-2.1-1-4.4-1-6.9c0-2.5,0.3-4.8,1-6.8  c0.6-2,1.6-3.7,2.9-5.2c1.3-1.4,2.8-2.6,4.6-3.3c1.8-0.8,3.8-1.2,6-1.2c4.6,0,8.1,2,10.6,6.1V445H351.4z M281.2,460.5  c0,2.4,0.6,4.3,1.9,5.7c1.3,1.4,3.1,2.1,5.3,2.1c2.2,0,4-0.7,5.3-2.1c1.3-1.4,2-3.3,2-5.7c0-2.4-0.7-4.3-2-5.7  c-1.3-1.4-3.1-2.1-5.3-2.1c-2.2,0-4,0.7-5.3,2.1C281.8,456.2,281.2,458.1,281.2,460.5 M271.3,428.5H282v16.1c0,2.2-0.1,4.1-0.3,5.5  c1-1.6,1.9-2.8,2.9-3.7c1-0.9,2.1-1.5,3.4-1.9c1.3-0.4,2.8-0.6,4.6-0.6c2,0,3.9,0.4,5.7,1.2c1.7,0.8,3.2,1.9,4.5,3.3  c1.3,1.4,2.3,3.2,2.9,5.2c0.7,2,1,4.3,1,6.8c0,2.5-0.3,4.8-1,6.9c-0.7,2.1-1.7,3.8-3,5.3c-1.3,1.4-2.9,2.5-4.7,3.3  c-1.8,0.8-3.7,1.2-5.9,1.2c-4.3,0-7.8-2.1-10.7-6.2v5h-10.3V428.5z M238.7,475.9V445h10.5v7.3c0.7-1.7,1.6-3.1,2.6-4.3  c1.1-1.2,2.3-2.1,3.7-2.7c1.4-0.6,2.9-0.9,4.5-0.9c0.8,0,1.8,0,3.1,0.2l-1.1,9.9c-1.4-0.4-2.7-0.6-3.9-0.6c-2.7,0-4.7,0.8-6.2,2.3  c-1.5,1.6-2.2,3.9-2.2,7v12.8H238.7z M217.3,456.5c-0.2-1.8-0.9-3.2-2-4.3c-1.1-1-2.6-1.6-4.3-1.6c-3.7,0-5.8,1.9-6.5,5.8H217.3z   M228.3,462.6h-24c0,2.4,0.7,4.3,1.9,5.6c1.2,1.3,3,1.9,5.2,1.9c3.4,0,5.7-1.3,6.9-3.7l8.4,3.3c-1,2.3-2.7,4.1-5.3,5.4  c-2.5,1.3-5.7,2-9.4,2c-3.8,0-7-0.7-9.7-2.1c-2.7-1.4-4.8-3.4-6.3-5.8c-1.5-2.5-2.2-5.3-2.2-8.4c0-2.3,0.4-4.5,1.3-6.5  c0.8-2,2-3.8,3.6-5.4c1.6-1.6,3.4-2.7,5.6-3.6c2.2-0.8,4.5-1.3,7.1-1.3c2.5,0,4.8,0.4,6.9,1.3c2.1,0.8,3.9,2,5.4,3.6  c1.5,1.5,2.6,3.4,3.4,5.7c0.8,2.2,1.2,4.8,1.2,7.6V462.6z M159.3,460.5c0,2.4,0.6,4.3,1.9,5.7c1.3,1.4,3.1,2.1,5.3,2.1  c2.2,0,4-0.7,5.3-2.1c1.3-1.4,2-3.3,2-5.7c0-2.4-0.7-4.3-2-5.7c-1.3-1.4-3.1-2.1-5.3-2.1c-2.2,0-4,0.7-5.3,2.1  C159.9,456.2,159.3,458.1,159.3,460.5 M149.4,428.5H160v16.1c0,2.2-0.1,4.1-0.3,5.5c0.9-1.6,1.9-2.8,2.9-3.7c1-0.9,2.1-1.5,3.4-1.9  c1.3-0.4,2.8-0.6,4.6-0.6c2,0,3.9,0.4,5.7,1.2c1.7,0.8,3.3,1.9,4.5,3.3c1.3,1.4,2.3,3.2,3,5.2c0.7,2,1,4.3,1,6.8  c0,2.5-0.3,4.8-1,6.9c-0.7,2.1-1.7,3.8-3,5.3c-1.3,1.4-2.8,2.5-4.7,3.3c-1.8,0.8-3.8,1.2-5.9,1.2c-4.3,0-7.9-2.1-10.7-6.2v5h-10.2  V428.5z M127.1,460.4c0-2.4-0.6-4.3-2-5.7c-1.3-1.4-3.1-2.1-5.4-2.1c-2.3,0-4,0.7-5.4,2.1c-1.3,1.4-2,3.3-2,5.7  c0,2.4,0.6,4.3,1.9,5.7c1.3,1.4,3.1,2.1,5.4,2.1c2.3,0,4.1-0.7,5.4-2.1C126.5,464.7,127.1,462.8,127.1,460.4 M136.9,445v30.9h-10.3  v-5c-1.5,2.2-3.1,3.7-5,4.7c-1.8,1-3.9,1.5-6.4,1.5c-2.1,0-3.9-0.4-5.6-1.2c-1.7-0.8-3.2-1.9-4.4-3.4c-1.2-1.5-2.2-3.2-2.8-5.2  c-0.7-2.1-1-4.4-1-6.9c0-2.5,0.3-4.8,1-6.8c0.7-2,1.6-3.7,2.9-5.2c1.3-1.4,2.8-2.6,4.6-3.3c1.8-0.8,3.8-1.2,6-1.2  c4.6,0,8.1,2,10.6,6.1V445H136.9z M80.9,460.4c0-2.4-0.7-4.3-2-5.7c-1.3-1.4-3.1-2.1-5.4-2.1c-2.3,0-4,0.7-5.4,2.1  c-1.3,1.4-2,3.3-2,5.7c0,2.4,0.6,4.3,1.9,5.7c1.3,1.4,3.1,2.1,5.4,2.1c2.3,0,4.1-0.7,5.4-2.1C80.2,464.7,80.9,462.8,80.9,460.4   M90.7,445v30.9H80.4v-5c-1.5,2.2-3.1,3.7-4.9,4.7c-1.8,1-4,1.5-6.4,1.5c-2.1,0-4-0.4-5.7-1.2c-1.7-0.8-3.2-1.9-4.4-3.4  c-1.2-1.5-2.2-3.2-2.8-5.2c-0.7-2.1-1-4.4-1-6.9c0-2.5,0.3-4.8,1-6.8c0.7-2,1.6-3.7,2.9-5.2c1.3-1.4,2.8-2.6,4.7-3.3  c1.8-0.8,3.8-1.2,6-1.2c4.6,0,8.1,2,10.6,6.1V445H90.7z M12.5,475.9v-44.8h13.8c2.7,0,4.8,0.1,6.4,0.2c1.6,0.1,3.1,0.4,4.6,0.8  c1.5,0.4,2.8,1.1,4.1,2c1.7,1.3,3,2.8,3.8,4.7c0.8,1.8,1.3,4,1.3,6.3c0,2.3-0.4,4.3-1.2,6.1c-0.8,1.8-1.9,3.2-3.5,4.3  c-1.5,1.1-3.4,1.9-5.6,2.4l12.5,18.1H34.7l-10.5-17.5v17.5H12.5z M24.2,452.3h2.3c2.7,0,4.6-0.4,5.9-1.3c1.2-0.9,1.9-2.3,1.9-4.3  c0-1.6-0.2-2.8-0.8-3.7c-0.5-0.9-1.3-1.5-2.4-1.9c-1.1-0.4-2.5-0.6-4.3-0.6h-2.5V452.3z M348.5,67.7L330,18.2h11.8l9.7,30.8  c0.5,1.5,1.2,4.6,2.1,9.3c0.7-4.4,1.3-7.6,2-9.7l9.9-30.5h11.7l-18.6,49.4H348.5z M276.1,67.7V18.2h29.5v8.9h-18.8v10.2h18.8v9  h-18.8v12.4h18.8v9H276.1z M213.9,61.4l5.9-6.7c0.8,1.8,2,3.3,3.7,4.3c1.6,1,3.5,1.6,5.6,1.6c1.6,0,3.1-0.3,4.3-0.8  c1.2-0.5,2.2-1.3,2.8-2.2c0.6-1,1-2.1,1-3.5c0-1.1-0.3-2-0.7-2.7l-2-1.9c-0.9-0.6-2.1-1.2-3.5-1.9c-1.5-0.7-3.1-1.5-4.8-2.3  c-2.7-1.4-4.8-2.7-6.5-4c-1.7-1.3-2.9-2.8-3.8-4.5c-0.9-1.7-1.3-3.6-1.3-5.8c0-2.6,0.7-5,2.2-7.1c1.5-2.1,3.5-3.8,6.2-5  c2.7-1.2,5.8-1.9,9.3-1.9c3,0,5.6,0.5,7.8,1.6c2.2,1,4.2,2.7,5.9,4.9l-6.3,6c-1.5-2.9-4-4.3-7.5-4.3c-2.1,0-3.8,0.5-5.1,1.6  c-1.3,1-1.9,2.4-1.9,4.1c0,1.1,0.2,2,0.7,2.8l2.1,2c0.9,0.6,2.2,1.2,4,2c1.8,0.8,2.9,1.2,3.3,1.4c4.2,1.9,7.3,4,9.4,6.5  c2.1,2.4,3.1,5.1,3.1,8.3c0,4.5-1.6,8.2-4.8,11c-3.2,2.8-7.5,4.2-12.9,4.2c-3.8,0-7.1-0.6-9.8-2C217.3,65.7,215.2,63.9,213.9,61.4   M165.2,67.7V45.1l-16.9-26.9h12.5l7.4,13.5c0.7,1.4,1.5,3.5,2.3,6.1c0.6-2.2,1.4-4.3,2.4-6.2l7.3-13.5h12.5l-16.9,26.9v22.6H165.2z   M105.1,41.6h22.8c0,0.5,0.1,1.4,0.1,2.5c0,3.7-0.6,7.1-1.7,10.2c-1.1,3-2.7,5.7-4.8,7.9c-2.1,2.2-4.5,3.9-7.4,5.1  c-2.8,1.2-5.9,1.7-9.2,1.7c-5.2,0-9.8-1.1-13.8-3.4c-4.1-2.2-7.3-5.4-9.5-9.3c-2.3-4-3.4-8.4-3.4-13.3c0-4.9,1.2-9.3,3.5-13.3  c2.3-3.9,5.5-7,9.6-9.2c4.1-2.2,8.6-3.3,13.7-3.3c4.1,0,7.8,0.9,11.2,2.5c3.4,1.7,6.4,4.2,9.1,7.5l-7.2,5.3  c-1.7-2.1-3.5-3.6-5.4-4.7c-2-1.1-4.3-1.6-7.1-1.6c-3.3,0-6.1,0.7-8.6,2.1c-2.4,1.4-4.3,3.3-5.7,5.9c-1.3,2.6-2,5.5-2,8.8  c0,3.3,0.7,6.3,2,8.8c1.4,2.5,3.3,4.5,5.7,5.8c2.5,1.4,5.2,2.1,8.4,2.1c2.3,0,4.3-0.4,6.2-1.1c1.8-0.7,3.2-1.8,4.2-3.1  c1-1.3,1.5-2.9,1.5-4.5v-0.6h-12V41.6z"/>
<path class="st3" d="M256.9,220.9l-28,30l-28.1-30h-69c11.3-40.8,49.1-70.8,94-70.8c42.2,0,78.2,26.6,91.7,63.7h56.2  C358.5,146.9,298.1,97,225.9,97c-74.8,0-136.9,53.6-149.1,123.9H5.3L57.5,274h19.7c13.1,69.4,74.7,122,148.8,122  c74,0,135.6-52.6,148.7-122h25.6l52.2-53.1H256.9z M200.8,339.3c-32.7-8.5-58.7-33.4-68.4-65.3H158l42.8,43.9V339.3z M256.9,337.4  v-19.6l42.9-43.9H319C310,303.8,286.7,327.5,256.9,337.4z"/>
</svg>