<?xml version="1.0" encoding="utf-8"?>
<!-- Generator: Adobe Illustrator 16.0.0, SVG Export Plug-In . SVG Version: 6.00 Build 0)  -->
<!DOCTYPE svg PUBLIC "-//W3C//DTD SVG 1.1//EN" "http://www.w3.org/Graphics/SVG/1.1/DTD/svg11.dtd">
<svg version="1.1" id="Layer_1" xmlns="http://www.w3.org/2000/svg" xmlns:xlink="http://www.w3.org/1999/xlink" x="0px" y="0px"
	 width="283.46px" height="283.46px" viewBox="0 0 283.46 283.46" enable-background="new 0 0 283.46 283.46" xml:space="preserve">
<g>
	<path fill="#FFFFFF" d="M269.295,141.73c0,70.451-57.116,127.562-127.565,127.562c-70.448,0-127.56-57.111-127.56-127.562
		c0-70.447,57.112-127.559,127.56-127.559C212.179,14.172,269.295,71.283,269.295,141.73z"/>
	<path fill="#1E1E1E" d="M141.731,0C63.454,0,0,63.455,0,141.734c0,78.275,63.454,141.73,141.731,141.73
		c78.275,0,141.733-63.455,141.733-141.73C283.465,63.455,220.007,0,141.731,0z M141.731,259.76
		c-65.081,0-118.026-52.948-118.026-118.025c0-65.081,52.946-118.029,118.026-118.029c65.08,0,118.028,52.948,118.028,118.029
		C259.76,206.812,206.812,259.76,141.731,259.76z"/>
	<polygon fill="#1E1E1E" points="177.499,114.854 105.965,114.854 105.965,71.002 82.567,71.002 82.567,137.086 177.499,137.086 
		177.499,212.733 200.897,212.733 200.897,71.002 177.499,71.002 	"/>
	<polygon fill="#1E1E1E" points="82.567,212.726 105.965,212.726 105.965,168.866 168.542,168.866 168.542,146.635 82.567,146.635 	
		"/>
</g>
</svg>
