<svg height="13.329967mm" viewBox="0 0 20.649565 13.329967" width="20.649563mm" xmlns="http://www.w3.org/2000/svg"><g transform="matrix(.08874811 0 0 .08874811 .00982 -.15975)"><path d="m225.04482 1.8c4.8 0 7.8 1.3 7.5 2.5l-3.2 14.2c-.4 2-6 2.8-9 2.8h-23.4c-4.9 0-7.6-1.5-7.3-2.8l3.2-14.2c.3-1.1 3.8-2.5 8.6-2.5z"/><path d="m202.34482 138.2c-1.6 7.2-17 13.8-34.8 13.8-4.8 0-7.8-1.2-7.5-2.6l25.4-112.3c.3-1.2 3.8-2.6 8.7-2.6h23.2c5.2 0 8 1.4 7.8 2.6z"/><path d="m156.5 47.6-3 13.1-6.7 29.2-6.3 27.2c-.2.7-1.2 1.4-2.8 2-1.5.5-3.4.8-5.7.8h-23c-2.2 0-4-.3-5.2-.8-1.4-.6-2-1.3-1.9-2l6.3-27.2 6.8-29.2.8-3.7c.5-2.3-3.5-3.6-8-3.6h-54.4l-1.7 7.3-6.7 29.2-6.4 27.1c-.2.7-1.2 1.4-2.8 2-1.5.5-3.4.8-5.7.8h-23.1c-2.2 0-4-.3-5.2-.8-1.4-.6-2-1.3-1.9-2l6.4-27 6.7-29.3 5.7-24.6c.4-1.2 3.8-2.6 8.5-2.6h101.9c17.3 0 29.2 6.6 27.4 14.2"/></g></svg>