<?xml version="1.0" encoding="UTF-8" standalone="no"?>
<!DOCTYPE svg PUBLIC "-//W3C//DTD SVG 1.1//EN" "http://www.w3.org/Graphics/SVG/1.1/DTD/svg11.dtd">
<svg xmlns:svg="http://www.w3.org/2000/svg" xmlns="http://www.w3.org/2000/svg" version="1.1" width="1010" height="230" id="svg5451">
  <defs id="defs5453"/>
  <path d="m 172.889,216.998 -17.774,0 c 0,0 -60.7643,0.06 -74.7744,-42.118 l 19.3003,0 59.6521,0 c 0,0 60.735,-0.04 74.738,42.118 l -61.142,0 z m -25.064,-81.515 -30.106,0 c 0,0 -60.7423,0.07 -74.7524,-42.1174 l 30.0114,0 86.314,0 c 0,0 60.735,-0.073 74.738,42.1174 l -86.205,0 z m 0,-81.4098 -67.0201,0 c 0,0 -60.7204,0.073 -74.75233,-42.1177 l 86.21913,0 67.0203,0 c 0,0 60.735,-0.073 74.738,42.1177 l -86.205,0 z" id="path3051" style="fill: rgb(248, 156, 14); fill-opacity: 1; fill-rule: nonzero; stroke: none;"/>
  <path d="m 839.234,216.998 17.789,0 c 0,0 60.727,0.06 74.759,-42.118 l -19.322,0 -59.63,0 c 0,0 -60.757,-0.04 -74.752,42.118 l 61.156,0 z m 25.067,-81.515 30.07,0 c 0,0 60.756,0.07 74.781,-42.1174 l -30.004,0 -86.314,0 c 0,0 -60.757,-0.073 -74.759,42.1174 l 86.226,0 z m 0,-81.4098 66.999,0 c 0,0 60.757,0.073 74.75,-42.1177 l -86.217,0 -66.999,0 c 0,0 -60.757,-0.073 -74.759,42.1177 l 86.226,0 z" id="path3063" style="fill: rgb(248, 156, 14); fill-opacity: 1; fill-rule: nonzero; stroke: none;"/>
  <path d="m 692.314,216.198 c -18.633,-2.72 -30.183,-9.86 -37.146,-22.97 -6.104,-11.49 -6.456,-15.833 -6.436,-79.358 0,-62.242 0.297,-65.955 5.699,-76.617 3.399,-6.708 10.882,-14.856 16.863,-18.361 15.409,-9.03 40.117,-9.036 55.514,0 13.747,8.056 23.64,26.566 23.64,44.23 l 0,6.338 -15.981,0 -15.98,0 -0.39,-8.045 c -0.708,-14.614 -5.67,-20.191 -18.069,-20.308 -7.138,-0.07 -10.262,1.396 -14.133,6.617 -3.502,4.723 -4.127,16.833 -3.777,73.184 0.325,52.163 0.407,54.052 2.482,58.01 2.929,5.59 6.58,8.04 12.846,8.65 7.073,0.67 13.752,-1.92 17.465,-6.78 l 2.837,-3.717 0.314,-23.701 0.314,-23.7 -9.917,0 -9.916,0 0,-15.052 0,-15.053 25.952,0 25.953,0 0,38.15 c 0,40.923 -0.244,43.163 -5.547,54.353 -7.944,16.77 -30.899,27.31 -52.574,24.14 z m -70.708,1.07 0,-30.25 -59.107,0 0,-57.263 58.991,0 0,-31.036 -58.991,0 0,-58.148 59.122,0 0,-28.805 -94.387,0 0,205.502 94.372,0 z m -193.559,-176.63 12.041,0 c 18.552,0 24.983,7.129 24.983,28.711 l 0,89.169 c 0,21.6 -6.431,28.81 -24.983,28.81 l -12.041,0 0,-146.69 z m -34.844,176.39 51.659,0 c 35.97,0 55.031,-19.92 55.031,-62.071 l 0,-81.35 c 0,-42.081 -19.061,-62.021 -55.031,-62.021 l -51.659,0 0,205.442 z m -133.282,-51.15 c 0,28.28 16.83,51.39 53.345,51.39 36.413,0 53.286,-23.11 53.286,-51.39 l 0,-103.238 c 0,-28.347 -16.873,-51.361 -53.286,-51.361 -36.515,0 -53.345,23.014 -53.345,51.361 l 0,103.238 z M 294.67,63.462 c 0,-14.992 4.535,-22.193 18.596,-22.193 13.959,0 18.443,7.201 18.443,22.193 l 0,101.588 c 0,15.008 -4.484,22.188 -18.443,22.188 -14.061,0 -18.596,-7.18 -18.596,-22.188 l 0,-101.588 z" id="path7819" style="fill: rgb(44, 83, 87);"/>
</svg>
