<?xml version="1.0" encoding="utf-8"?>
<!-- Generator: Adobe Illustrator 12.0.0, SVG Export Plug-In . SVG Version: 6.00 Build 51448)  -->
<!DOCTYPE svg PUBLIC "-//W3C//DTD SVG 1.1//EN" "http://www.w3.org/Graphics/SVG/1.1/DTD/svg11.dtd" [
	<!ENTITY ns_svg "http://www.w3.org/2000/svg">
	<!ENTITY ns_xlink "http://www.w3.org/1999/xlink">
]>
<svg  version="1.1" id="Ebene_1" xmlns="&ns_svg;" xmlns:xlink="&ns_xlink;" width="778.834" height="164.25"
	 viewBox="0 0 778.834 164.25" overflow="visible" enable-background="new 0 0 778.834 164.25" xml:space="preserve">
<g>
	<path fill="#464644" d="M112.802,5.324l-20.52,21.301h-9.865c-13.68,0-25.814,5.326-36.402,15.979
		c-10.59,10.652-15.883,22.818-15.883,36.494c0,16.176,4.801,29.654,14.406,40.438c9.867,11.311,22.826,16.965,38.877,16.965
		c16.445,0,29.469-5.131,39.074-15.396c9.078-9.736,14.209-22.961,15.393-39.672c0.92-13.289-2.248-24.475-9.502-33.555
		l21.51-22.502c11.578,13.547,17.367,32.484,17.367,56.813c0,25.645-7.496,45.734-22.484,60.266
		c-14.99,14.529-35.305,21.797-60.943,21.797c-25.246,0-45.594-7.658-61.043-22.971C7.337,125.965-0.257,105.754,0.007,80.646
		C0.269,54.619,9.538,34.18,27.812,19.324C43.585,6.441,62.253,0,83.813,0C96.04,0,105.702,1.775,112.802,5.324z M159.618,5.264
		l-45.686,45.361H80.067l45.158-45.361H159.618z M274.335,4.25c8.938,0,17.283,2.631,25.039,7.893
		c11.172,7.496,16.758,18.676,16.758,33.539c0,8.945-0.527,14.996-1.58,18.152c-1.713,4.998-5.598,9.799-11.656,14.402
		c8.531,4.998,14.439,9.93,17.723,14.797c3.676,5.523,5.514,12.955,5.514,22.293c0,14.074-4.697,25.518-14.092,34.33
		s-21.186,13.219-35.373,13.219h-81.785V4.25H274.335z M227.257,65.75h39.174c4.855,0,9.186-1.643,12.992-4.932
		c3.805-3.287,5.709-7.299,5.709-12.033c0-5.652-1.904-9.926-5.709-12.82c-3.807-2.893-8.596-4.34-14.369-4.34h-37.797V65.75z
		 M227.257,135.5h44.709c5.908,0,10.996-1.91,15.264-5.732c4.268-3.82,6.402-8.631,6.402-14.43c0-5.664-1.938-10.408-5.811-14.23
		c-3.875-3.82-8.635-5.732-14.279-5.732h-46.285V135.5z M436.985,4.25c8.801,0,17.141,2.631,25.023,7.893
		c11.164,7.496,16.748,18.676,16.748,33.539c0,8.287-0.656,14.404-1.967,18.35c-1.705,5.129-5.377,9.865-11.014,14.205
		c8.268,4.998,14.107,9.996,17.521,14.994c3.805,5.656,5.709,13.021,5.709,22.096c0,14.074-4.697,25.518-14.09,34.33
		s-21.182,13.219-35.367,13.219h-82.167V4.25H436.985z M389.881,65.75h39.568c4.461,0,8.627-1.709,12.498-5.129
		c3.871-3.418,5.809-7.363,5.809-11.836c0-11.439-6.693-17.16-20.078-17.16h-37.797V65.75z M389.881,135.5h44.941
		c5.65,0,10.678-1.943,15.08-5.83s6.604-8.664,6.604-14.332c0-5.402-2.004-10.08-6.012-14.033s-8.707-5.93-14.094-5.93h-46.52V135.5
		z"/>
	<path fill="#BF111B" d="M654.407,69.875h65.27c0.656,2.766,0.986,6.713,0.986,11.846c0,5.135-0.33,10.465-0.986,15.992
		c-2.762,23.035-12.488,40.74-29.184,53.111c-12.096,8.949-23.797,13.426-35.102,13.426l-154.4-0.197l59.75-60.193h75.918
		c6.703,0,12.389-2.008,17.057-6.025s6.672-9.32,6.016-15.906C659.336,78.504,657.561,74.486,654.407,69.875z M632.52,0.875
		c-16.301,0-30.828,4.145-43.58,12.43c-18.01,11.707-28.789,30.32-32.338,55.836c-0.658,4.734-0.986,8.943-0.986,12.627
		c0,5.525,0.592,9.668,1.775,12.43h65.268c-3.113-2.637-4.668-6.326-4.668-11.072c0-5.535,2.266-10.545,6.801-15.027
		c4.533-4.48,9.559-6.723,15.078-6.723h77.859l61.105-60.5H632.52z"/>
</g>
</svg>
