<svg enable-background="new 0 0 398.6 140" viewBox="0 0 398.6 140" xmlns="http://www.w3.org/2000/svg"><g clip-rule="evenodd" fill-rule="evenodd"><g fill="#002d58"><path d="m163.3 63.6c-2.4 1.3-4.5 1.3-7.1 1.3h-5.4l-3.4 7.4h-4.4l9.6-21.1h9.6c2.9 0 4.8.2 5.7 1.1 1.3 1.2 1.4 3.2.3 5.8-1.1 2.5-2.7 4.3-4.9 5.5zm-2.8-8.6h-5.1l-2.8 6.2h5.4c2.7 0 4.4-1 5.4-3.1 1-2.4 0-3.1-2.9-3.1z"/><path d="m175.8 72.3-3.2-10.5-4.8 10.5h-4.4l9.6-21.1h4.4l-4.6 10.1 12.9-10.1h5.3l-13.4 10.5 3.6 10.6z"/><path d="m203.2 63.6c-2.4 1.3-4.5 1.3-7.1 1.3h-5.4l-3.4 7.4h-4.3l9.6-21.1h9.6c2.9 0 4.8.2 5.7 1.1 1.3 1.2 1.4 3.2.3 5.8-1.2 2.5-2.8 4.3-5 5.5zm-2.8-8.6h-5.1l-2.8 6.2h5.4c2.7 0 4.4-1 5.4-3.1 1-2.4.1-3.1-2.9-3.1z"/><path d="m213.5 72.3 9.6-21.1h4.7l-9.6 21.1z"/><path d="m235.6 72.3-1.7-16-7.1 16h-4.5l9.5-21.1h5.6l1.8 15.1 6.7-15.1h4.5l-9.6 21.1z"/><path d="m261.4 54.9-7.9 17.4h-4.6l7.9-17.4h-6.8l1.7-3.7h18.2l-1.7 3.7z"/><path d="m261.7 72.3 9.7-21.1h15.3l-1.7 3.6h-11l-2.1 4.5h10.1l-1.6 3.6h-10.1l-2.5 5.5h11.6l-1.8 3.9z"/><path d="m294.4 72.3-.9-8.3h-5.2l-3.8 8.3h-4.4l9.6-21.1h10.9c5 0 6.5 1.9 4.5 6.3-1.5 3.3-4 5.3-7 5.9l1.2 8.8h-4.9zm3.5-17.3h-5.4l-2.4 5.3h5.4c2.6 0 4.2-.5 5.1-2.7 1-2.2-.1-2.6-2.7-2.6z"/><path d="m309.9 72.3c-2.5 0-4.4-.2-5.7-1.8-1.4-1.7-1.2-4.5.6-8.3 3.4-7.4 8.1-10.9 14.9-10.9h7.4l-1.6 3.6h-7.5c-3.7 0-6.2 2.3-8.6 7.5-2.2 4.7-1.4 6.3 2.3 6.3h7.3l-1.7 3.7h-7.4z"/><path d="m319.9 72.3 9.6-21.1h4.6l-9.6 21.1z"/><path d="m345.3 54.9-7.9 17.4h-4.6l7.9-17.4h-6.8l1.7-3.7h18.2l-1.7 3.7z"/><path d="m358 63-4.2 9.3h-4.4l4.2-9.3-2.7-11.8h5l1.5 8 9-8h5.1z"/></g><path d="m93 48.8-.8 1.9h-12.9c-2 0-3.3.8-4.1 2.5l-7.7 17.2c-.2.4-.2.7-.2 1 0 1 .8 1.7 2.1 1.7h13.5l-1.3 3c-2.2 5-5 5.8-10.7 5.8h-14.5c-3.6 0-5.7-1.8-5.7-4.4 0-.7.2-1.5.7-2.5l12.4-27.3c2.3-5 5-5.8 10.7-5.8h13.5c3.6 0 5.7 1.7 5.7 4.4 0 .6-.2 1.4-.7 2.5z" fill="#e95a1d" stroke="#e20613" stroke-miterlimit="22.9256"/><path d="m57.6 50.3 3.9-8.4h-14l-3.8 8.4z" fill="#e95a1d"/><path d="m41.6 55.1-12.2 26.8h13.9l12.2-26.8z" fill="#e95a1d"/><path d="m47.5 40.8c-.4 0-.8.2-1 .6l-3.9 8.4c-.1.3-.1.7.1 1s.5.5.9.5h13.9c.4 0 .8-.2 1-.6l3.9-8.4c.1-.3.1-.7-.1-1s-.5-.5-.9-.5zm12.4 2.1c-.8 1.8-2.5 5.5-2.9 6.3-1.1 0-9.2 0-11.6 0 .8-1.8 2.5-5.5 2.9-6.3z" fill="#002d58"/><path d="m41.6 54c-.4 0-.8.2-1 .6l-12.2 26.8c-.1.3-.1.7.1 1s.5.5.9.5h13.9c.4 0 .8-.2 1-.6l12.2-26.8c.1-.3.1-.7-.1-1s-.5-.5-.9-.5zm12.3 2.1c-1.2 2.6-10.7 23.6-11.2 24.7-1.1 0-9.2 0-11.6 0 1.2-2.6 10.7-23.6 11.2-24.7z" fill="#002d58"/><path d="m137.2 46.3c0-3.2-2.4-5.1-6.4-5.1h-13.5c-1.7 0-3.2.1-4.5.3-.9-.3-2-.5-3.2-.5h-13.5c-1.9 0-3.4.1-4.8.4-.9-.4-2.1-.6-3.3-.6h-13.6c-6 0-9.1.9-11.6 6.4l-12.4 27.3c-.5 1.1-.8 2.1-.8 3 0 3.3 2.6 5.4 6.7 5.4h14.4c1.9 0 3.6-.1 5-.4.7.2 1.4.2 2.2.2h14.4c1.9 0 3.4-.1 4.8-.4.6.1 1.3.2 2 .2h14.4c5.9 0 8.9-.9 11.3-6.2l1.3-3c.1-.2.1-.5-.1-.7-.1-.2-.3-.3-.6-.3h-13.5c-.8 0-1.4-.4-1.4-1 0-.2.1-.4.2-.7l7.7-17.2c.7-1.5 1.7-2.1 3.4-2.1h13.2c.3 0 .5-.2.6-.4.3-.6.9-1.9.8-1.9.7-1.2.8-2.2.8-2.7zm-27-3.6v1.1c.4-.3 1-.6 1.6-.8.1 0 .1 0 .2.1 1.5.5 2.3 1.6 2.3 3.2 0 .3-.1 1-.6 2.1 0 0-.4.8-.6 1.4h-7.1l1-1.8c.3-.6.5-1 .8-1.5v-2.4c-.8.9-1.4 2-2 3.3l-1 2.4h-3.8c-2.3 0-3.9 1-4.9 3.1l-7.7 17.2c-.2.5-.3.9-.3 1.4 0 1.5 1.2 2.6 2.9 2.6h3.1l-.2.7c-.5 1-.8 2-.8 2.9 0 1.4.5 2.6 1.5 3.4-.7 0-1.4 0-2.1 0h-13.3c1.3-1 2.3-2.4 3.2-4.5l1.3-3c.1-.3.1-.7-.1-1s-.5-.5-.9-.5h-7.6l9.2-20.3h7.6c.4 0 .8-.2 1-.6l.8-1.9c.5-1.1.8-2.1.8-2.9 0-1.4-.4-2.6-1.3-3.5.8-.1 1.6-.1 2.6-.1h13.3c-.6.3-1.1.8-1.6 1.3v2.4c.7-1.2 1.5-2 2.5-2.6v-1.2zm-13.4 38c-1.5-.6-2.3-1.7-2.3-3.2 0-.7.3-1.5.6-2.3l.6-1.3h7.5c-.4.8-.8 1.7-.8 1.7-1.2 2.8-2.5 4.1-4.6 4.8-.4.2-.7.2-1 .3zm-21.5-.2c-1 .2-1.8.3-2.6.3-.6 0-1.2 0-1.8 0h-14.5c-2.9 0-4.7-1.2-4.7-3.3 0-.4.1-1.1.6-2.1l12.4-27.3c2-4.5 4.2-5.2 9.7-5.2h13.4c1.2 0 1.8 0 2.8.4 1.1.4 2 1.3 2 2.9 0 .3-.1 1-.6 2 0 0-.3.7-.6 1.3-4.1 0-8.1 0-12.2 0-2.4 0-4.1 1-5 3.2l-7.6 17.3s-.3.7-.3 1.4c0 1.6 1.3 2.7 3.1 2.7h3.1 1.9 6.9c-.3.7-.7 1.5-.7 1.5-1.4 3-2.8 4.4-5.3 4.9zm7.3-28.8-9.2 20.3h-4.1c-.2 0-1 0-1-.6 0-.1 0-.3.1-.5l7.7-17.2c.6-1.4 1.5-1.9 3.1-1.9h3.4zm21.5-.2-9.4 20.7h-3.7c-.6 0-1.2-.2-1.2-.8 0-.1 0-.3.2-.6l7.7-17.2c.6-1.4 1.6-2 3.3-2h3.1zm31.1-3s-.4 1-.7 1.5c-.8 0-12.4 0-12.4 0-2.3 0-3.8 1-4.7 3-2.5 5.7-7.7 17.2-7.7 17.2-.2.4-.3.8-.3 1.3 0 1.4 1.1 2.4 2.8 2.4h12.4c-.4.9-.9 2-.9 2-2 4.6-4.4 5.4-10 5.4h-13.4c1.5-1 2.6-2.4 3.7-4.8l1.3-3c.1-.3.1-.6-.1-.8s-.4-.4-.7-.4h-8.2l9.4-20.7h8.1c.3 0 .7-.2.8-.5l.8-1.9c.5-1 .7-2 .7-2.9 0-1.5-.5-2.7-1.5-3.6.8-.1 1.7-.1 2.6-.1h13.5c3.2 0 5 1.4 5 3.7.1.3 0 1.1-.5 2.2z" fill="#002d58"/></g></svg>