<?xml version="1.0" encoding="utf-8"?>
<!-- Generator: Adobe Illustrator 21.1.0, SVG Export Plug-In . SVG Version: 6.00 Build 0)  -->
<svg version="1.1" id="Warstwa_1" xmlns="http://www.w3.org/2000/svg" xmlns:xlink="http://www.w3.org/1999/xlink" x="0px" y="0px"
	 viewBox="0 0 398.6 140" style="enable-background:new 0 0 398.6 140;" xml:space="preserve">
<style type="text/css">
	.st0{fill-rule:evenodd;clip-rule:evenodd;fill:#002D58;}
	.st1{fill-rule:evenodd;clip-rule:evenodd;fill:#E95A1D;stroke:#E20613;stroke-miterlimit:22.9256;}
	.st2{fill-rule:evenodd;clip-rule:evenodd;fill:#E95A1D;}
</style>
<g>
	<path class="st0" d="M163.3,63.6c-2.4,1.3-4.5,1.3-7.1,1.3h-5.4l-3.4,7.4H143l9.6-21.1h9.6c2.9,0,4.8,0.2,5.7,1.1
		c1.3,1.2,1.4,3.2,0.3,5.8C167.1,60.6,165.5,62.4,163.3,63.6L163.3,63.6z M160.5,55h-5.1l-2.8,6.2h5.4c2.7,0,4.4-1,5.4-3.1
		C164.4,55.7,163.4,55,160.5,55L160.5,55z"/>
	<polygon class="st0" points="175.8,72.3 172.6,61.8 167.8,72.3 163.4,72.3 173,51.2 177.4,51.2 172.8,61.3 185.7,51.2 191,51.2 
		177.6,61.7 181.2,72.3 175.8,72.3 	"/>
	<path class="st0" d="M203.2,63.6c-2.4,1.3-4.5,1.3-7.1,1.3h-5.4l-3.4,7.4H183l9.6-21.1h9.6c2.9,0,4.8,0.2,5.7,1.1
		c1.3,1.2,1.4,3.2,0.3,5.8C207,60.6,205.4,62.4,203.2,63.6L203.2,63.6z M200.4,55h-5.1l-2.8,6.2h5.4c2.7,0,4.4-1,5.4-3.1
		C204.3,55.7,203.4,55,200.4,55L200.4,55z"/>
	<polygon class="st0" points="213.5,72.3 223.1,51.2 227.8,51.2 218.2,72.3 213.5,72.3 	"/>
	<polygon class="st0" points="235.6,72.3 233.9,56.3 226.8,72.3 222.3,72.3 231.8,51.2 237.4,51.2 239.2,66.3 245.9,51.2 
		250.4,51.2 240.8,72.3 235.6,72.3 	"/>
	<polygon class="st0" points="261.4,54.9 253.5,72.3 248.9,72.3 256.8,54.9 250,54.9 251.7,51.2 269.9,51.2 268.2,54.9 261.4,54.9 	
		"/>
	<polygon class="st0" points="261.7,72.3 271.4,51.2 286.7,51.2 285,54.8 274,54.8 271.9,59.3 282,59.3 280.4,62.9 270.3,62.9 
		267.8,68.4 279.4,68.4 277.6,72.3 261.7,72.3 	"/>
	<path class="st0" d="M294.4,72.3l-0.9-8.3h-5.2l-3.8,8.3h-4.4l9.6-21.1h10.9c5,0,6.5,1.9,4.5,6.3c-1.5,3.3-4,5.3-7,5.9l1.2,8.8
		H294.4L294.4,72.3z M297.9,55h-5.4l-2.4,5.3h5.4c2.6,0,4.2-0.5,5.1-2.7C301.6,55.4,300.5,55,297.9,55L297.9,55z"/>
	<path class="st0" d="M309.9,72.3c-2.5,0-4.4-0.2-5.7-1.8c-1.4-1.7-1.2-4.5,0.6-8.3c3.4-7.4,8.1-10.9,14.9-10.9h7.4l-1.6,3.6H318
		c-3.7,0-6.2,2.3-8.6,7.5c-2.2,4.7-1.4,6.3,2.3,6.3h7.3l-1.7,3.7H309.9L309.9,72.3z"/>
	<polygon class="st0" points="319.9,72.3 329.5,51.2 334.1,51.2 324.5,72.3 319.9,72.3 	"/>
	<polygon class="st0" points="345.3,54.9 337.4,72.3 332.8,72.3 340.7,54.9 333.9,54.9 335.6,51.2 353.8,51.2 352.1,54.9 
		345.3,54.9 	"/>
	<polygon class="st0" points="358,63 353.8,72.3 349.4,72.3 353.6,63 350.9,51.2 355.9,51.2 357.4,59.2 366.4,51.2 371.5,51.2 
		358,63 	"/>
	<path class="st1" d="M93,48.8l-0.8,1.9H79.3c-2,0-3.3,0.8-4.1,2.5l-7.7,17.2c-0.2,0.4-0.2,0.7-0.2,1c0,1,0.8,1.7,2.1,1.7h13.5
		l-1.3,3c-2.2,5-5,5.8-10.7,5.8H56.4c-3.6,0-5.7-1.8-5.7-4.4c0-0.7,0.2-1.5,0.7-2.5l12.4-27.3c2.3-5,5-5.8,10.7-5.8H88
		c3.6,0,5.7,1.7,5.7,4.4C93.7,46.9,93.5,47.7,93,48.8L93,48.8z"/>
	<polygon class="st2" points="57.6,50.3 61.5,41.9 47.5,41.9 43.7,50.3 57.6,50.3 	"/>
	<polygon class="st2" points="41.6,55.1 29.4,81.9 43.3,81.9 55.5,55.1 41.6,55.1 	"/>
	<path class="st0" d="M47.5,40.8c-0.4,0-0.8,0.2-1,0.6l-3.9,8.4c-0.1,0.3-0.1,0.7,0.1,1c0.2,0.3,0.5,0.5,0.9,0.5h13.9
		c0.4,0,0.8-0.2,1-0.6l3.9-8.4c0.1-0.3,0.1-0.7-0.1-1c-0.2-0.3-0.5-0.5-0.9-0.5H47.5L47.5,40.8z M59.9,42.9
		c-0.8,1.8-2.5,5.5-2.9,6.3c-1.1,0-9.2,0-11.6,0c0.8-1.8,2.5-5.5,2.9-6.3C49.3,42.9,57.4,42.9,59.9,42.9L59.9,42.9z"/>
	<path class="st0" d="M41.6,54c-0.4,0-0.8,0.2-1,0.6L28.4,81.4c-0.1,0.3-0.1,0.7,0.1,1c0.2,0.3,0.5,0.5,0.9,0.5h13.9
		c0.4,0,0.8-0.2,1-0.6l12.2-26.8c0.1-0.3,0.1-0.7-0.1-1c-0.2-0.3-0.5-0.5-0.9-0.5H41.6L41.6,54z M53.9,56.1
		c-1.2,2.6-10.7,23.6-11.2,24.7c-1.1,0-9.2,0-11.6,0c1.2-2.6,10.7-23.6,11.2-24.7C43.3,56.1,51.5,56.1,53.9,56.1L53.9,56.1z"/>
	<path class="st0" d="M137.2,46.3c0-3.2-2.4-5.1-6.4-5.1h-13.5c-1.7,0-3.2,0.1-4.5,0.3c-0.9-0.3-2-0.5-3.2-0.5H96.1
		c-1.9,0-3.4,0.1-4.8,0.4c-0.9-0.4-2.1-0.6-3.3-0.6H74.4c-6,0-9.1,0.9-11.6,6.4L50.4,74.5c-0.5,1.1-0.8,2.1-0.8,3
		c0,3.3,2.6,5.4,6.7,5.4h14.4c1.9,0,3.6-0.1,5-0.4c0.7,0.2,1.4,0.2,2.2,0.2h14.4c1.9,0,3.4-0.1,4.8-0.4c0.6,0.1,1.3,0.2,2,0.2h14.4
		c5.9,0,8.9-0.9,11.3-6.2l1.3-3c0.1-0.2,0.1-0.5-0.1-0.7c-0.1-0.2-0.3-0.3-0.6-0.3h-13.5c-0.8,0-1.4-0.4-1.4-1
		c0-0.2,0.1-0.4,0.2-0.7c0,0,0,0,0,0l7.7-17.2c0.7-1.5,1.7-2.1,3.4-2.1H135c0.3,0,0.5-0.2,0.6-0.4c0.3-0.6,0.9-1.9,0.8-1.9
		C137.1,47.8,137.2,46.8,137.2,46.3L137.2,46.3z M110.2,42.7v1.1c0.4-0.3,1-0.6,1.6-0.8l0,0c0.1,0,0.1,0,0.2,0.1
		c1.5,0.5,2.3,1.6,2.3,3.2c0,0.3-0.1,1-0.6,2.1c0,0-0.4,0.8-0.6,1.4h-7.1L107,48c0.3-0.6,0.5-1,0.8-1.5v-2.4c-0.8,0.9-1.4,2-2,3.3
		l-1,2.4h-3.8c-2.3,0-3.9,1-4.9,3.1l-7.7,17.2c0,0,0,0,0,0c-0.2,0.5-0.3,0.9-0.3,1.4c0,1.5,1.2,2.6,2.9,2.6h3.1l-0.2,0.7
		c-0.5,1-0.8,2-0.8,2.9c0,1.4,0.5,2.6,1.5,3.4c-0.7,0-1.4,0-2.1,0H79.2c1.3-1,2.3-2.4,3.2-4.5l1.3-3c0.1-0.3,0.1-0.7-0.1-1
		c-0.2-0.3-0.5-0.5-0.9-0.5h-7.6l9.2-20.3h7.6c0.4,0,0.8-0.2,1-0.6l0.8-1.9c0.5-1.1,0.8-2.1,0.8-2.9c0-1.4-0.4-2.6-1.3-3.5
		c0.8-0.1,1.6-0.1,2.6-0.1h13.3c-0.6,0.3-1.1,0.8-1.6,1.3v2.4c0.7-1.2,1.5-2,2.5-2.6V42.7L110.2,42.7z M96.8,80.7
		c-1.5-0.6-2.3-1.7-2.3-3.2c0-0.7,0.3-1.5,0.6-2.3l0.6-1.3h7.5c-0.4,0.8-0.8,1.7-0.8,1.7c-1.2,2.8-2.5,4.1-4.6,4.8v0
		C97.4,80.6,97.1,80.6,96.8,80.7L96.8,80.7z M75.3,80.5c-1,0.2-1.8,0.3-2.6,0.3c-0.6,0-1.2,0-1.8,0H56.4c-2.9,0-4.7-1.2-4.7-3.3
		c0-0.4,0.1-1.1,0.6-2.1l12.4-27.3c2-4.5,4.2-5.2,9.7-5.2h13.4c1.2,0,1.8,0,2.8,0.4c1.1,0.4,2,1.3,2,2.9c0,0.3-0.1,1-0.6,2
		c0,0-0.3,0.7-0.6,1.3c-4.1,0-8.1,0-12.2,0c-2.4,0-4.1,1-5,3.2L66.6,70c0,0-0.3,0.7-0.3,1.4c0,1.6,1.3,2.7,3.1,2.7c0,0,1.3,0,3.1,0
		h1.9c2.7,0,5.6,0,6.9,0c-0.3,0.7-0.7,1.5-0.7,1.5C79.2,78.6,77.8,80,75.3,80.5L75.3,80.5z M82.6,51.7L73.4,72h-4.1
		c-0.2,0-1,0-1-0.6c0-0.1,0-0.3,0.1-0.5c0,0,0,0,0,0l7.7-17.2c0.6-1.4,1.5-1.9,3.1-1.9H82.6L82.6,51.7z M104.1,51.5l-9.4,20.7H91
		c-0.6,0-1.2-0.2-1.2-0.8c0-0.1,0-0.3,0.2-0.6c0,0,0,0,0,0l7.7-17.2c0.6-1.4,1.6-2,3.3-2H104.1L104.1,51.5z M135.2,48.5
		c0,0-0.4,1-0.7,1.5c-0.8,0-12.4,0-12.4,0c-2.3,0-3.8,1-4.7,3c-2.5,5.7-7.7,17.2-7.7,17.2c-0.2,0.4-0.3,0.8-0.3,1.3
		c0,1.4,1.1,2.4,2.8,2.4c0,0,10.6,0,12.4,0c-0.4,0.9-0.9,2-0.9,2c-2,4.6-4.4,5.4-10,5.4h-13.4c1.5-1,2.6-2.4,3.7-4.8l1.3-3
		c0.1-0.3,0.1-0.6-0.1-0.8c-0.2-0.2-0.4-0.4-0.7-0.4h-8.2l9.4-20.7h8.1c0.3,0,0.7-0.2,0.8-0.5l0.8-1.9c0,0,0,0,0,0
		c0.5-1,0.7-2,0.7-2.9c0-1.5-0.5-2.7-1.5-3.6c0.8-0.1,1.7-0.1,2.6-0.1h13.5c3.2,0,5,1.4,5,3.7C135.8,46.6,135.7,47.4,135.2,48.5
		L135.2,48.5z"/>
</g>
</svg>
