<?xml version="1.0" encoding="UTF-8" standalone="no"?>
<svg
   xmlns:dc="http://purl.org/dc/elements/1.1/"
   xmlns:cc="http://creativecommons.org/ns#"
   xmlns:rdf="http://www.w3.org/1999/02/22-rdf-syntax-ns#"
   xmlns:svg="http://www.w3.org/2000/svg"
   xmlns="http://www.w3.org/2000/svg"
   viewBox="0 0 3779.52 794.88"
   height="794.88"
   width="3779.52"
   xml:space="preserve"
   id="svg2"
   version="1.1"><metadata
     id="metadata8"><rdf:RDF><cc:Work
         rdf:about=""><dc:format>image/svg+xml</dc:format><dc:type
           rdf:resource="http://purl.org/dc/dcmitype/StillImage" /></cc:Work></rdf:RDF></metadata><defs
     id="defs6"><clipPath
       id="clipPath18"
       clipPathUnits="userSpaceOnUse"><path
         style="clip-rule:evenodd"
         id="path16"
         d="M 0,1.2207e-4 H 2834.64 V 596.16012 H 0 Z" /></clipPath><clipPath
       id="clipPath28"
       clipPathUnits="userSpaceOnUse"><path
         style="clip-rule:evenodd"
         id="path26"
         d="M 0,1.2207e-4 H 2834.64 V 596.16012 H 0 Z" /></clipPath></defs><g
     transform="matrix(1.3333333,0,0,-1.3333333,0,794.88)"
     id="g10"><g
       id="g12"><g
         clip-path="url(#clipPath18)"
         id="g14"><path
           id="path20"
           style="fill:#ffffff;fill-opacity:1;fill-rule:evenodd;stroke:none"
           d="M 0,0 H 2834.64 V 596.16 H 0 Z" /></g></g><g
       id="g22"><g
         clip-path="url(#clipPath28)"
         id="g24"><path
           id="path30"
           style="fill:#000000;fill-opacity:1;fill-rule:evenodd;stroke:none"
           d="m 2662.9,163.51 c -29.31,0 -52.77,-18.94 -52.77,-51.2 0,-31.936 23.46,-50.891 52.77,-50.891 15.15,0 33.08,6.266 42.27,13.55 v 46.521 h -46.5 v -17.64 h 26.1 V 85.633 c -5.4,-3.214 -12.68,-5.255 -20.57,-5.255 -18.94,0 -32.94,11.656 -32.94,31.932 0,20.57 14.01,32.26 32.09,32.26 11.65,0 20.83,-3.67 28.57,-10.09 l 9.48,15.63 c -9.92,8.01 -22.47,13.4 -38.5,13.4 z m -757.44,-0.14 c -27.25,0 -39.65,-13.57 -39.65,-30.05 0,-13.41 7.73,-22.61 22.74,-26.55 l 18.79,-5.1 c 8.9,-2.481 14.15,-5.101 14.15,-10.495 0,-6.561 -6.71,-11.074 -18.67,-11.074 -11.94,0 -23.46,4.662 -30.6,9.304 l -4.81,-19.378 c 6.41,-3.662 20.56,-8.608 34.99,-8.608 23.91,0 40.38,12.682 40.38,31.347 0,14.154 -8.75,22.334 -26.68,27.444 l -18.37,5.23 c -7.14,2.06 -10.8,4.24 -10.8,9.63 0,5.69 5.27,9.63 17.79,9.63 10.79,0 23.19,-3.65 30.48,-8.31 l 5.83,19.09 c -7.58,4.08 -21.28,7.89 -35.57,7.89 z m 909.12,-0.61 c -14.02,0 -25.24,-9.07 -25.24,-24.49 0,-15.25 11.22,-24.33 25.24,-24.33 7.24,0 15.83,2.99 20.22,6.48 v 22.25 h -22.24 v -8.45 h 12.47 v -8.71 c -2.57,-1.53 -6.05,-2.49 -9.83,-2.49 -9.06,0 -15.76,5.56 -15.76,15.25 0,9.84 6.7,15.43 15.35,15.43 5.57,0 9.97,-1.75 13.66,-4.81 l 4.53,7.45 c -4.73,3.85 -10.74,6.42 -18.4,6.42 z m -59.37,-0.7 -18.89,-47.41 h 9.91 l 3.67,9.48 h 21.57 l 3.61,-9.48 h 9.91 l -18.34,47.41 z m -759.24,-0.02 -39.5,-99.155 h 20.7 l 7.73,19.835 h 45.04 l 7.6,-19.835 h 20.7 l -38.35,99.155 z m 83.71,0 V 62.885 h 64.7 v 17.788 h -44.27 v 81.367 z m 86.63,0 v -17.78 h 51.03 L 2166.31,77.178 V 62.885 h 77.26 v 17.788 h -50.72 l 50.72,67.077 v 14.29 z m 105.08,0 V 62.885 h 48.11 c 23.18,0 35.57,10.205 35.57,26.52 0,14.445 -8.74,22.345 -23.16,25.105 9.47,3.63 15.3,10.77 15.3,21.15 0,18.08 -12.83,26.38 -34.4,26.38 z m 108.26,0 v -57.31 c 0,-25.214 15.61,-43.444 44.89,-43.444 29.61,0 45.34,20.124 45.34,43.444 v 57.31 h -20.41 v -55.85 c 0,-15.301 -8.16,-25.965 -24.93,-25.965 -16.47,0 -24.49,10.063 -24.49,25.815 v 56 z m 119.84,0 V 62.885 h 20.4 v 35.727 h 9.91 c 12.4,-9.204 28.71,-37.193 50.88,-37.193 6.42,0 12.25,1.753 16.33,3.798 l -2.05,16.188 c -3.19,-1.464 -7.71,-2.333 -11.07,-2.333 -10.35,0 -19.98,10.937 -29.3,19.977 15.88,2.471 28,14.291 28,30.771 0,24.34 -20,32.22 -39.51,32.22 z m 261.43,-9.67 8.1,-20.98 h -16.6 z m -469.1,-7.81 h 18.07 c 10.34,0 16.16,-2.63 16.16,-11.24 0,-8.17 -6.25,-11.07 -16.6,-11.07 h -17.63 z m 228.07,-0.3 h 25.37 c 9.33,0 16.03,-5.12 16.03,-14.87 0,-9.19 -6.7,-14.74 -16.03,-14.74 h -25.37 z m -511.94,-2.47 16.91,-43.908 h -34.7 z m 283.87,-37.49 h 23.03 c 11.8,0 18.36,-3.21 18.36,-12.266 0,-8.007 -5.39,-11.654 -16.62,-11.654 h -24.77 z" /></g></g><path
       id="path32"
       style="fill:#e2001a;fill-opacity:1;fill-rule:evenodd;stroke:none"
       d="m 1631.66,224.47 c -1.98,0 -4.02,-1.53 -4.71,-3.39 -0.02,-0.07 -47.19,-154.522 -47.19,-154.522 -0.6,-1.959 0.59,-3.599 2.64,-3.599 h 113.65 c 2.05,0 4.23,1.611 4.82,3.57 l 8.94,29.307 c 0.59,1.959 -0.58,3.57 -2.64,3.57 h -73.29 c -2.06,0 -3.25,1.604 -2.66,3.554 l 24.97,81.62 c 0.59,1.96 2.76,3.56 4.81,3.56 h 73.3 c 2.04,0 4.22,1.61 4.82,3.59 l 8.91,29.18 c 0.6,1.96 -0.59,3.56 -2.64,3.56 z m 56.85,-62.44 c -2.06,0 -4.23,-1.6 -4.83,-3.56 l -8.93,-29.32 c -0.6,-1.96 0.58,-3.57 2.63,-3.57 h 73.3 c 2.06,0 3.24,-1.6 2.65,-3.58 l -24.95,-81.589 c -0.6,-1.959 -2.78,-3.57 -4.83,-3.57 h -73.29 c -2.05,0 -4.22,-1.609 -4.82,-3.567 l -8.91,-29.1928 c -0.61,-1.9589 0.59,-3.56979 2.64,-3.56979 h 113.73 c 1.97,0 4.01,1.53629 4.7,3.39849 0.02,0.0528 47.2,154.5201 47.2,154.5201 0.6,1.97 -0.6,3.6 -2.65,3.6 z" /><path
       id="path34"
       style="fill:#000000;fill-opacity:1;fill-rule:evenodd;stroke:none"
       d="m 832.53,289.17 v -31.58 h 34 c 6.95,0.01 12.14,1.31 15.59,3.92 3.44,2.6 5.16,6.45 5.16,11.54 -0.03,5.5 -1.96,9.57 -5.8,12.2 -3.83,2.63 -9.4,3.94 -16.71,3.92 z m 185.43,52.27 -22.73,-58.7 h 44.35 z m -464.33,0 -22.72,-58.7 h 44.35 z m -345.29,3.78 c -12.04,-0.25 -21.79,-4.28 -29.27,-12.08 -7.49,-7.81 -11.34,-17.91 -11.56,-30.3 0.22,-12.19 4.07,-22.19 11.56,-30.02 7.48,-7.83 17.23,-11.88 29.27,-12.14 12.32,0.26 22.16,4.31 29.52,12.14 7.35,7.83 11.12,17.83 11.31,30.02 -0.19,12.39 -3.96,22.49 -11.31,30.3 -7.36,7.8 -17.2,11.83 -29.52,12.08 z m 624.19,3.31 v -29.37 h 23.4 c 6.66,-0.03 11.78,1.13 15.35,3.47 3.57,2.35 5.37,6.05 5.41,11.1 -0.02,5.26 -1.75,9.05 -5.19,11.38 -3.44,2.33 -8.48,3.47 -15.13,3.42 z m 476.68,29.54 h 32.19 l 75.48,-91.12 v 91.12 h 37.04 V 228.05 h -31.97 l -75.7,91.12 v -91.12 h -37.04 z m -187.7,0 h 37.04 v -58.03 h 70.85 v 58.03 h 37.04 V 228.05 h -37.04 v 59.8 h -70.85 v -59.8 h -37.04 z m -125.4,0 h 43.47 l 56.92,-150.02 h -37.51 l -10.15,27.58 h -62.88 l -10.37,-27.58 h -37.5 z m -200.62,0 h 66.41 c 16.78,0.05 29.76,-3.24 38.95,-9.84 9.2,-6.6 13.86,-16.77 13.98,-30.52 -0.06,-7.53 -1.98,-13.95 -5.76,-19.26 -3.78,-5.32 -9.06,-9.42 -15.84,-12.3 10.56,-2.17 18.76,-6.32 24.61,-12.46 5.85,-6.14 8.82,-14.5 8.9,-25.06 -0.07,-12.69 -4.77,-22.6 -14.11,-29.72 -9.33,-7.12 -22.86,-10.74 -40.58,-10.86 h -76.56 z m -138.3,0 h 37.03 V 260.24 H 768.8 V 228.05 H 657.19 Z m -125.4,0 h 43.47 l 56.92,-150.02 h -37.51 l -10.15,27.58 h -62.88 l -10.37,-27.58 h -37.51 z m -213.79,0 h 37.04 v -60.24 h 25.81 l 37.51,60.24 h 38.17 v -5.51 l -48.1,-71.71 c 3.3,-4.28 6.96,-9.76 10.99,-16.45 4.02,-6.68 8.52,-12.71 13.48,-18.08 4.96,-5.36 10.48,-8.2 16.57,-8.51 2.5,-0.01 5.17,0.22 8,0.69 2.83,0.46 5.39,1.19 7.67,2.18 l 3.75,-29.11 c -3.2,-1.59 -7.23,-2.93 -12.08,-4.02 -4.86,-1.09 -9.88,-1.66 -15.06,-1.71 -9.16,0.19 -17.14,2.61 -23.92,7.24 -6.78,4.62 -12.66,10.31 -17.64,17.06 -4.99,6.74 -9.37,13.38 -13.14,19.91 -3.78,6.54 -7.24,11.81 -10.39,15.81 H 355.04 V 228.05 H 318 Z m -312.84,0 H 42.199 V 260.24 H 116.77 V 228.05 H 5.16 Z m 202.96,2.21 c 14.92,-0.13 28.18,-3.54 39.79,-10.22 11.6,-6.68 20.74,-15.82 27.42,-27.43 6.68,-11.6 10.08,-24.87 10.22,-39.79 -0.14,-14.78 -3.54,-27.94 -10.22,-39.49 -6.68,-11.54 -15.82,-20.64 -27.42,-27.31 -11.61,-6.66 -24.87,-10.06 -39.79,-10.2 -14.78,0.14 -27.94,3.54 -39.48,10.2 -11.54,6.67 -20.65,15.77 -27.31,27.31 -6.66,11.55 -10.06,24.71 -10.2,39.49 0.14,14.92 3.54,28.19 10.2,39.79 6.66,11.61 15.77,20.75 27.31,27.43 11.54,6.68 24.7,10.09 39.48,10.22 z" /><path
       id="path36"
       style="fill:#000000;fill-opacity:1;fill-rule:evenodd;stroke:none"
       d="M 798.19,557.38 775.5,498.76 h 44.29 z m 466.32,4.43 v -37.02 h 33.51 c 6.13,0.09 10.95,1.79 14.47,5.13 3.51,3.33 5.3,7.79 5.37,13.38 -0.07,5.79 -1.86,10.3 -5.37,13.55 -3.52,3.25 -8.34,4.91 -14.47,4.96 z m -1227.523,0 v -45.86 h 31.522 c 6.646,0.09 12.092,2.17 16.34,6.23 4.248,4.06 6.443,9.55 6.586,16.48 -0.143,7.33 -2.338,13.01 -6.586,17.03 -4.248,4.03 -9.694,6.07 -16.34,6.12 z m 1190.543,32.15 h 71.15 c 9.87,0.04 19.15,-1.63 27.83,-5.01 8.69,-3.38 15.76,-8.7 21.22,-15.97 5.45,-7.27 8.27,-16.72 8.44,-28.36 -0.22,-11.91 -3.91,-21.81 -11.09,-29.7 -7.18,-7.89 -16.55,-13.05 -28.1,-15.49 6.7,-6.46 13.39,-12.27 20.09,-17.41 6.7,-5.14 13.5,-7.86 20.42,-8.16 2.49,0 5.17,0.23 8.02,0.69 2.85,0.47 5.46,1.19 7.84,2.18 l 3.53,-29.07 c -3.12,-1.58 -6.85,-2.92 -11.18,-4.01 -4.33,-1.09 -9.05,-1.66 -14.15,-1.71 -8.58,0.19 -16.61,2.48 -24.09,6.89 -7.49,4.4 -14.48,9.79 -20.98,16.16 -6.51,6.37 -12.58,12.59 -18.22,18.68 -5.65,6.09 -10.91,10.91 -15.81,14.46 h -7.94 v -53.99 h -36.98 z m -154.06,0 h 120.26 v -32.15 h -85.04 V 536 h 68.96 v -31.04 h -68.96 v -28.67 h 85.04 v -32.15 h -120.26 z m -179.02,0 h 36.98 v -83.08 c 0.02,-10.89 2.75,-19.4 8.19,-25.5 5.44,-6.11 13.51,-9.21 24.22,-9.31 11.02,0.13 19.28,3.28 24.79,9.47 5.51,6.19 8.27,14.64 8.27,25.34 v 83.08 h 36.99 v -85.5 c -0.03,-12.13 -2.72,-23.22 -8.08,-33.27 -5.36,-10.04 -13.24,-18.09 -23.64,-24.15 -10.4,-6.05 -23.18,-9.16 -38.33,-9.32 -22.46,0.36 -39.62,6.63 -51.47,18.83 -11.85,12.19 -17.83,28.16 -17.92,47.91 z m -118.07,0 h 43.41 l 56.84,-149.82 h -37.45 l -10.14,27.55 h -62.79 l -10.36,-27.55 h -37.45 z m -361.02,0 h 119.2 v -25.54 l -71.17,-92.13 h 71.17 v -32.15 h -119.2 v 25.54 l 71.39,92.13 h -71.39 z m -178.47,0 h 32.14 l 75.38,-90.99 v 90.99 H 381.4 V 444.14 h -31.93 l -75.59,90.99 v -90.99 h -36.99 z m -77.86,0 h 36.99 V 444.14 H 159.03 Z M 0,593.96 h 74.461 c 10.046,0.02 19.23,-1.96 27.549,-5.92 8.32,-3.97 14.99,-10.06 20.01,-18.26 5.02,-8.21 7.59,-18.65 7.72,-31.34 -0.13,-11.43 -2.7,-21.21 -7.72,-29.34 -5.02,-8.14 -11.69,-14.38 -20.01,-18.72 -8.319,-4.34 -17.503,-6.53 -27.549,-6.57 H 36.987 V 444.14 H 0 Z m 637.48,2.2 c 12.13,-0.09 23.09,-1.95 32.89,-5.56 9.8,-3.61 18.44,-8.44 25.93,-14.48 l -16.95,-27.98 c -5.59,4.44 -11.76,7.86 -18.51,10.25 -6.74,2.4 -14.24,3.62 -22.47,3.64 -12.28,-0.08 -22.34,-3.83 -30.17,-11.27 -7.84,-7.44 -11.89,-18.08 -12.15,-31.93 0.23,-13.64 4.34,-24.15 12.34,-31.54 8,-7.4 18.51,-11.13 31.52,-11.22 4.89,0.02 9.65,0.59 14.3,1.71 4.64,1.12 8.91,2.68 12.81,4.68 v 22.06 h -35.93 v 28.18 h 70.93 v -69.84 c -4.74,-3.8 -10.67,-7.27 -17.8,-10.42 -7.13,-3.15 -14.76,-5.67 -22.9,-7.57 -8.13,-1.9 -16.08,-2.88 -23.84,-2.93 -14.93,0.06 -28.38,3.13 -40.36,9.21 -11.98,6.08 -21.5,14.85 -28.55,26.29 -7.06,11.45 -10.67,25.25 -10.83,41.39 0.16,16.29 3.77,30.19 10.83,41.7 7.05,11.51 16.57,20.31 28.55,26.41 11.98,6.09 25.43,9.17 40.36,9.22 z" /></g></svg>