<svg height="200" width="200" xmlns="http://www.w3.org/2000/svg"><circle cx="100" cy="100" fill="none" r="88.5" stroke="#000" stroke-width="20"/><path d="m94.6 92c5.5 0 9.5-1.1 11.9-3.2 2.4-2 3.7-5.4 3.7-10.2 0-4.7-1.3-8-3.7-10.1-2.4-2-6.4-3-11.9-3h-11.2v26.5zm-11.2 18.3v39h-26.6v-103.1h40.6c13.6 0 23.5 2.3 29.8 6.9 6.4 4.5 9.5 11.7 9.5 21.6 0 6.8-1.6 12.4-4.9 16.8-3.3 4.3-8.2 7.6-14.9 9.6 3.7.9 6.9 2.8 9.8 5.7s5.8 7.3 8.7 13.3l14.5 29.2h-28.3l-12.6-25.6c-2.5-5.1-5.1-8.7-7.7-10.5-2.6-1.9-6.1-2.9-10.4-2.9z"/></svg>