<svg height="13.50003mm" viewBox="0 0 14.505837 13.50003" width="14.505836mm" xmlns="http://www.w3.org/2000/svg"><path d="m295.42544 130.16104c-.1458.64513-1.52467 1.23183-3.12427 1.23183-.42972-.002-.69452-.10622-.6665-.2281l2.27397-10.08081c.0288-.10339.3417-.2287.77953-.2287h2.08679c.46139 0 .72199.1265.69818.2287zm-3.81879-9.30317c.46461 0 .72221.12689.70422.231l-.29083 1.28788c-.0388.17382-.53837.24681-.81149.24522h-1.8868c-.40951.00071-.8424.1179-.88791.31877l-1.20618 5.34363c-.0385.17378-.53792.24687-.81111.24539h-2.1197c-.4379-.002-.6907-.12079-.6623-.24539l1.6232-7.19571c.0267-.11751.3441-.23121.78571-.23121l5.56319.00034zm5.85679-2.96503c.43532 0 .69691.1245.67331.23012l-.28861 1.2767c-.0385.17269-.53418.24511-.80447.24349h-2.10252c-.43459-.002-.68221-.13321-.65751-.24349l.28801-1.2767c.0283-.10421.34082-.23012.779-.23012z" transform="translate(-283.63239 -117.89284)"/></svg>