<svg height="897" width="1343" xmlns="http://www.w3.org/2000/svg"><path d="m638 878.39503c-49.26526-4.25948-86.70722-14.16293-124-32.79816-55.20566-27.58632-95.27282-66.88192-127.5531-125.09687-20.44438-36.86984-26.82074-44.50533-42.34162-50.70276-5.40931-2.15993-7.1261-2.25902-49.10528-2.83441-47.43399-.65015-47.57618-.6667-60-6.98464-22.82574-11.60766-47.87388-39.23128-69.85823-77.04114-6.19435-10.65338-7.4679-15.21419-4.55998-16.33006 2.72081-1.04407 152.121-.65755 166.91821.43185 43.66156 3.21444 75.1162 13.25353 100.68972 32.13624 20.18291 14.90244 33.64227 32.82479 54.31471 72.32492 14.118 26.97614 23.4055 39.38431 39.76794 53.13026 28.86629 24.25033 66.91499 41.31424 109.22763 48.98592 15.52402 2.81466 50.88217 2.59008 67-.42555 47.4121-8.87076 89.21387-29.78398 117.62314-58.84628 11.47176-11.73545 16.97447-19.99482 31.84854-47.8035 17.36719-32.46984 28.74232-48.37208 43.69185-61.08048 27.11892-23.05344 60.59044-34.86958 108.83647-38.42153 20.7398-1.5269 165.7516-1.38721 167.3.16116 2.0821 2.08208 1.3518 4.46606-4.446 14.51462-22.2999 38.64928-48.3711 67.3116-71.6428 78.76287-12.1878 5.9973-16.6106 6.48566-58.912 6.50515-39.78015.01832-44.40294.42253-53.49141 4.67723-11.53994 5.40234-19.70896 15.8482-37.8036 48.34013-17.94353 32.22057-32.97585 52.45083-54.63942 73.53284-15.51933 15.10272-24.63215 22.49762-42.06872 34.13806-38.55601 25.73951-85.22769 42.49853-136.2062 48.90937-11.47407 1.44293-60.35572 2.69961-70.58985 1.81476zm-98.14753-215.41054c-7.34486-3.88056-15.57385-16.63037-21.49719-33.30725-19.23271-54.14878-73.94959-96.61759-141.88142-110.12206-24.32865-4.8364-23.728-4.81318-140.97386-5.45117l-111-.60401-5.99328-2.25982c-14.67006-5.53148-33.351886-20.41755-47.774109-38.06741-13.776297-16.85938-31.837897-46.85006-30.427887-50.52448.611756-1.59422 11.851557-1.68188 178.924016-1.3955 176.72567.30293 178.38397.32414 191.27126 2.44606 68.33893 11.25215 116.44466 42.66863 140.99787 92.08168 11.50258 23.14882 15.39456 42.16567 16.21971 79.25208.84035 37.76932-1.57651 55.53374-8.73205 64.18256-4.77167 5.76747-12.47769 7.28559-19.13306 3.76932zm234.64753.60387c-10.9535-4.86832-14.49551-19.44773-14.47678-59.58836.01194-25.57315.88264-38.05486 3.59253-51.5 6.31135-31.31367 23.71856-61.54454 47.36985-82.26654 27.76873-24.32949 61.74042-39.17827 106.4465-46.527 12.96831-2.13172 14.42538-2.15042 191.2008-2.4536 168.9681-.2898 178.1675-.21538 178.8052 1.44652.9004 2.3464-4.8383 13.49611-14.7678 28.69209-20.7282 31.72237-40.6201 50.60458-62.6703 59.48944l-6.5 2.61909-111 .60459c-119.09418.64868-117.41531.57833-144 6.03396-13.17962 2.70467-36.58194 10.46136-48.74167 16.15541-42.96391 20.11873-76.08875 54.14412-89.76562 92.20604-4.1703 11.6057-10.1217 23.12242-14.73226 28.50882-6.01351 7.02544-14.03634 9.56809-20.76045 6.57954zm-68.83489-248.58041c-9.01986-1.13376-9.66511-1.4527-9.66511-4.7773 0-2.38559.7442-3.19368 4.72012-5.12533 13.30957-6.46629 30.36689-19.83102 41.2602-32.32814 13.09335-15.02108 21.4733-31.17566 26.30682-50.71341 2.099-8.48442 2.12166-9.86327 2.44559-148.81377l.32696-140.25h44.97016 44.97015v138.53941c0 91.95607-.36062 141.77346-1.07248 148.1575-1.5291 13.71311-5.12526 26.87811-10.36152 37.93196-14.70917 31.05136-39.62685 48.44535-79.54572 55.52751-12.91091 2.29058-51.93107 3.41323-64.35517 1.85157zm-148.66511-27.63572c-29.26253-1.50051-57.38291-7.12744-77.75-15.5579l-7.25-3.00097v-28.90668c0-15.89867.23007-28.90668.51126-28.90668s5.79369 1.60791 12.25 3.57314c24.38295 7.42189 52.64032 13.25572 72.23874 14.91393 9.55436.80838 30.79-1.00367 40.31711-3.44029 15.86395-4.05732 25.22005-11.20697 28.23437-21.57587 3.45448-11.88299.38231-22.49364-9.32269-32.19864-10.89858-10.89858-27.38097-19.5827-63.22879-33.31353-31.50196-12.06623-44.25565-18.78542-60.30899-31.77337-13.8342-11.19256-26.07651-30.19864-30.71538-47.68537-3.23365-12.18959-3.82154-35.86877-1.20423-48.50465 9.38264-45.297701 45.40249-73.067973 106.38264-82.017958 41.45775-6.084706 84.85922-1.995741 118.59596 11.173233l10.25 4.001037v29.424169c0 16.183293-.1474 29.424169-.32755 29.424169-.18016 0-4.40715-1.76941-9.39331-3.932032-13.96931-6.058821-35.202-12.835699-49.15054-15.687471-11.3302-2.316454-14.22222-2.531638-28.1286-2.092939-24.17509.762642-38.05644 5.60549-48.54736 16.936938-12.47691 13.476554-11.14705 30.568224 3.42039 43.959524 11.31023 10.39706 25.31689 17.17258 59.52826 28.79593 33.03277 11.22292 54.68284 23.32237 71.60956 40.02005 17.84363 17.60217 25.98915 36.37149 25.98915 59.88548 0 66.74246-41.63584 106.98928-119 115.03005-11.01931 1.14528-35.57281 1.94011-45 1.4567z"/></svg>