<svg height="141.732" viewBox="0 0 283.465 141.732" width="283.465" xmlns="http://www.w3.org/2000/svg"><g fill="#aaa295"><path d="m175.44 119.074c-.12-1.252-.465-2.334-1.03-3.254-.573-.924-1.35-1.662-2.336-2.205-.982-.542-2.137-.82-3.46-.82h-11.899l-1.596 5.164h7.158c.643 0 1.217.129 1.714.4.487.265.887.628 1.178 1.093.299.458.474 1.004.529 1.631.054.634-.029 1.296-.235 1.999l-1.594 5.159c-.208.7-.536 1.362-.973 1.993-.439.63-.947 1.176-1.52 1.635-.563.461-1.188.827-1.861 1.095-.678.262-1.338.393-1.979.393h-9.531l7.888-25.681h-14.273c.649 0 1.22.135 1.712.398.492.266.883.625 1.165 1.073.288.445.47.968.546 1.572.08.599.016 1.237-.189 1.913l-7.941 25.886h24.123c1.322 0 2.639-.269 3.949-.81 1.309-.553 2.539-1.283 3.691-2.205 1.155-.926 2.175-2.008 3.06-3.254.88-1.242 1.222-2.584 1.665-4.009l1.592-5.159c.416-1.429.56-2.765.447-4.007"/><path d="m282.629 119.105c-.111-1.244-.459-2.332-1.025-3.25-.574-.922-1.351-1.652-2.339-2.203-.979-.543-2.134-.818-3.457-.818h-28.587c.65 0 1.226.137 1.732.403.507.266.9.631 1.191 1.108.279.474.453 1.034.496 1.655.053.634-.022 1.29-.23 1.989l-6.296 20.528h9.53l6.301-20.56h9.521c.652 0 1.221.131 1.713.4.488.267.885.628 1.186 1.092.296.459.474 1.005.522 1.634.058.634-.023 1.292-.231 1.995l-4.743 15.438h9.528l4.748-15.411c.413-1.424.561-2.759.44-4"/><path d="m96.237 121.083c.44-.63.948-1.173 1.518-1.631.566-.463 1.185-.826 1.844-1.093.66-.27 1.319-.4 1.971-.4h19.05l1.6-5.125h-23.841c-1.325 0-2.647.274-3.968.818-1.323.546-2.554 1.277-3.695 2.193-1.139.926-2.155 1.999-3.038 3.243-.88 1.239-1.94 3.991-1.94 3.991l-1.558 5.159h23.764c-.213.702-.536 1.366-.979 1.998-.436.629-.941 1.171-1.51 1.632-.572.461-1.195.829-1.87 1.097-.673.263-1.334.393-1.982.393h-19.052l-1.559 5.159h23.8c1.323 0 2.638-.271 3.949-.811 1.31-.551 2.542-1.281 3.692-2.203 1.151-.926 2.169-2.006 3.051-3.252.883-1.244 1.544-2.586 1.982-4.013l1.599-5.159h-23.84c.233-.7.572-1.36 1.012-1.996"/><path d="m57.892 132.964c-.487-.268-.879-.634-1.161-1.095-.29-.459-.451-1.005-.507-1.635-.05-.631.022-1.293.237-1.993l1.591-5.159c.207-.703.529-1.365.976-1.999.438-.627.944-1.173 1.51-1.631.57-.465 1.187-.828 1.851-1.093.666-.271 1.315-.4 1.964-.4h4.787c.647 0 1.219.129 1.729.4.504.265.9.628 1.185 1.093.292.458.451 1.004.506 1.631.053.634-.027 1.296-.234 1.999h-11.904l-1.591 5.159h21.426l1.595-5.159c.416-1.424.568-2.755.448-3.995-.117-1.242-.458-2.315-1.031-3.239-.572-.918-1.347-1.651-2.336-2.195-.986-.543-2.132-.818-3.459-.818h-14.271c-1.323 0-2.647.275-3.971.818-1.323.544-2.555 1.277-3.711 2.195-1.149.924-2.168 1.997-3.051 3.239-.884 1.24-1.533 2.571-1.952 3.995l-1.588 5.159c-.44 1.425-.604 2.767-.491 4.009.124 1.246.469 2.328 1.052 3.254.588.922 1.37 1.652 2.357 2.205.984.541 2.139.81 3.459.81h23.817l1.581-5.162h-19.056c-.68-.001-1.263-.131-1.757-.393"/><path d="m130.676 131.869c-.286-.457-.463-1.003-.532-1.637-.061-.629.021-1.297.26-1.991l3.074-10.224h5.345c.229-.693 1.164-3.277 1.698-5.099h-5.449l1.569-5.329h-9.523l-1.573 5.329h-.041l-1.56 5.099-3.072 10.224c-.438 1.425-.602 2.767-.485 4.004.112 1.251.466 2.333 1.048 3.251.579.928 1.366 1.662 2.354 2.207.982.544 2.135.814 3.462.814h6.807l1.59-5.159c-.677 0-3.321-.133-3.813-.398-.488-.264-.877-.63-1.159-1.091"/><path d="m246.494 119.116c-.112-1.246-.457-2.339-1.021-3.253-.574-.93-1.358-1.66-2.339-2.207-.983-.547-2.144-.822-3.46-.822h-14.275l1.599-5.158-14.319.041c.652 0 1.229.135 1.734.398.503.262.901.627 1.188 1.09.285.464.464 1.01.523 1.639.063.631-.02 1.295-.252 1.99l-7.857 25.685h9.526l6.267-20.52h9.529c.641 0 1.217.135 1.711.4.494.269.889.632 1.184 1.089.297.463.472 1.011.527 1.639.047.627-.029 1.297-.23 1.997l-4.746 15.395h9.527l4.701-15.395c.443-1.433.601-2.763.483-4.008"/><path d="m198.268 130.144c-.439.63-.947 1.175-1.52 1.635-.561.459-1.182.826-1.84 1.089-.665.27-1.321.4-1.974.4h-4.78c-.648 0-1.226-.131-1.73-.4-.506-.263-.899-.63-1.182-1.089-.291-.46-.457-1.005-.506-1.635-.047-.567-.067-.728.084-1.344.514-2.292 2.121-2.893 5.695-3.12h9.691l-.967 2.467c-.209.701-.531 1.363-.971 1.997m12.617-10.251c.004-.31-.005-.617-.036-.914-.114-1.244-.465-2.328-1.047-3.256-.587-.918-1.37-1.656-2.356-2.201-.982-.544-2.138-.814-3.465-.814h-22.094l-1.576 5.161h17.434c.674 0 1.257.131 1.754.395 1.482.793 1.324 2.122 1.391 2.299h-12.174c-2.563 0-9.363.931-12.157 5.304-.618.977-.894 1.633-1.117 2.281-.26.732-.569 2.752-.448 3.99.115 1.242.453 2.318 1.025 3.242.578.916 1.354 1.651 2.341 2.197.981.54 2.135.816 3.455.816 0 0 10.162.293 11.657 0 1.416-.287 3.131-1.549 3.131-1.549l-.473 1.536h9.525l4.75-15.415c.286-.986.432-1.93.465-2.826l.016-.229v-.017z"/><path d="m17.081 133.404h-3.573c-.649 0-1.216-.135-1.707-.405-.492-.262-.894-.629-1.187-1.091-.304-.461-.475-1.005-.525-1.634-.055-.632.021-1.294.231-1.995l4.742-15.445h-9.528l-4.744 15.42c-.417 1.425-.562 2.758-.44 4.002.111 1.242.455 2.328 1.027 3.248.565.922 1.347 1.652 2.333 2.203.985.54 2.135.811 3.454.811h32.813"/><path d="m16.851 132.256c.117 1.24.46 2.325 1.022 3.248.573.922 1.353 1.652 2.34 2.203.982.54 2.138.811 3.456.811h21.848c-.648 0-1.228-.131-1.731-.396-.506-.266-.905-.636-1.19-1.108-.285-.478-.456-1.032-.501-1.655-.051-.634.025-1.296.235-1.993l6.293-20.529h-9.523l-6.302 20.568h-2.787c-.647 0-1.22-.137-1.71-.405-.492-.264-.89-.629-1.191-1.091-.296-.459-.47-1.002-.521-1.637-.052-.631.025-1.293.233-1.992l4.743-15.443h-9.522l-4.751 15.42c-.413 1.423-.562 2.755-.441 3.999"/></g><path d="m80.092 15.011h-.002-30.858l-7.136 13.532h25.384l-15.395 22.684 3.573 16.763h-7.126l7.528 18.168h39.064l-4.278-10.317h-26.957l-5.582-27.183z" fill="#ebe662"/><path d="m137.062.258h-47.418l-9.552 14.753h8.208l-12.706 24.052 15.251 36.778h20.463l-5.583-24.412z" fill="#ebe662"/><path d="m42.096 28.543h-9.263l-15.256 22.747 3.432 16.7h27.521l-11.982-28.927z" fill="#008bcb"/><path d="m67.481 28.543h-25.384l-5.55 10.52 11.985 28.927h7.126l-3.573-16.763z" fill="#00a68b"/><path d="m88.3 15.011h-8.208l-21.783 33.647 5.58 27.183h26.956l-15.251-36.778z" fill="#cad400"/></svg>