<?xml version="1.0" standalone="no"?>
<!DOCTYPE svg PUBLIC "-//W3C//DTD SVG 1.1//EN" "http://www.w3.org/Graphics/SVG/1.1/DTD/svg11.dtd" >
<svg xmlns="http://www.w3.org/2000/svg" xmlns:xlink="http://www.w3.org/1999/xlink" version="1.1" viewBox="-10 0 1593 1000">
   <path fill="currentColor"
d="M418 304l-134 155h297v-155h-163zM665 459h327q15 0 15 -12q0 -10 -3 -13q-31 -36 -70 -70q-48 -43 -65 -53l-23 -7h-181v155zM1146 728q0 -38 27 -65.5t65 -27.5q37 0 64.5 27.5t27.5 65.5q0 36 -27.5 63t-64.5 27q-38 0 -65 -27t-27 -63zM281 728q0 -38 27 -65.5
t65 -27.5q37 0 63.5 27.5t26.5 65.5q0 36 -26.5 63t-63.5 27q-38 0 -65 -27t-27 -63zM1492 569v119h-109q-11 -51 -51.5 -84t-93.5 -33q-54 0 -94.5 33t-51.5 84h-575q-10 -51 -50.5 -84t-93.5 -33q-54 0 -94.5 33t-50.5 84h-95v-195q0 -42 37 -79l157 -162q14 -19 42 -19
h476q38 0 54.5 6.5t46.5 34.5l150 140l317 73q79 17 79 82z" />
</svg>
