<?xml version="1.0" standalone="no"?>
<!DOCTYPE svg PUBLIC "-//W3C//DTD SVG 1.1//EN" "http://www.w3.org/Graphics/SVG/1.1/DTD/svg11.dtd" >
<svg xmlns="http://www.w3.org/2000/svg" xmlns:xlink="http://www.w3.org/1999/xlink" version="1.1" viewBox="-10 0 1074 1000">
   <path fill="currentColor"
d="M112 383q16 0 27 -14q0 -3 14 -25.5t45.5 -57.5t74 -68t109 -57t141.5 -24q71 0 136.5 23t106.5 51.5t77 66.5t48.5 56.5t20.5 32.5l1 2q5 11 16.5 14.5t22.5 -2.5q10 -4 13 -16t-2 -22q-8 -15 -19.5 -33t-52 -63.5t-86.5 -78.5t-122 -60.5t-160 -27.5q-85 0 -160.5 27
t-122.5 62t-84 77.5t-51 65t-18 32.5q-6 10 -2 21.5t15 15.5q5 2 12 2zM817 452q2 0 11 -3q11 -5 15 -15.5t-1 -21.5q-3 -8 -12 -23.5t-36.5 -48t-61 -58t-89.5 -46t-119 -20.5q-167 0 -276 137q-19 23 -39 59q-6 11 -2 21.5t14 15.5t21 1.5t16 -13.5q86 -151 236 -166
q15 -1 30 -1q53 0 99.5 17t75 39t51.5 49.5t30.5 41t10.5 20.5q11 15 26 15zM375 532q19 0 26 -18q1 -3 4 -8.5t13.5 -19t23.5 -24t35 -19t47 -8.5t47.5 8.5t35.5 18.5t24.5 24t14.5 19.5t6 10.5q6 10 16 14t21 -1t15.5 -15.5t-1.5 -21.5q-2 -5 -7 -14t-20.5 -28t-34.5 -34
t-50.5 -26.5t-66.5 -11.5t-66 12t-49.5 27t-32.5 33.5t-19 28t-6 13.5q-6 11 -1.5 22t14.5 15q4 3 11 3zM480 798h36v-212h-36v212zM383 745l-37 -150h-37l-37 150l-37 -150h-37l55 203h39l37 -138l35 138h39l54 -203h-37zM642 701v15q-30 -4 -39 -4q-54 0 -54 44t48 44
q25 0 45 -12q2 12 20 12q21 0 35 -7v-21h-20v-78q0 -49 -62 -49q-32 0 -54 9l7 26q21 -8 42 -8q18 0 25 6.5t7 22.5zM761 798v-118q29 -8 37 -8q25 0 25 29v97h36v-107q0 -46 -49 -46q-28 0 -47 14h-2v-12h-33v151h33zM605 738h25v28q-15 6 -37 6q-8 -2 -8 -16q0 -18 20 -18
z" />
</svg>
