<?xml version="1.0" standalone="no"?>
<!DOCTYPE svg PUBLIC "-//W3C//DTD SVG 1.1//EN" "http://www.w3.org/Graphics/SVG/1.1/DTD/svg11.dtd" >
<svg xmlns="http://www.w3.org/2000/svg" xmlns:xlink="http://www.w3.org/1999/xlink" version="1.1" viewBox="-10 0 865 1000">
   <path fill="currentColor"
d="M470 265l105 -175h-156l-104 162l25 92h150zM556 677l29 -108q3 11 43 11q56 0 77.5 -20.5t30.5 -77.5q9 -52 -17.5 -73.5t-86.5 -21.5h-428l76 290h276zM592 535l36 -98q41 0 57 8t16 37q0 28 -19 45t-54 17q-26 0 -36 -9zM714 800l42 -61h-676l42 61h592z" />
</svg>
