<?xml version="1.0" standalone="no"?>
<!DOCTYPE svg PUBLIC "-//W3C//DTD SVG 1.1//EN" "http://www.w3.org/Graphics/SVG/1.1/DTD/svg11.dtd" >
<svg xmlns="http://www.w3.org/2000/svg" xmlns:xlink="http://www.w3.org/1999/xlink" version="1.1" viewBox="-10 0 1941 1000">
   <path fill="currentColor"
d="M1516 133l38 163l163 -163h199l-324 325l81 342h-170l-49 -203l-202 203h-201l364 -366l-71 -301h172zM8 800l401 -667h358l74 111l-146 242h-171l159 314h-148l-154 -311l-183 311h-190zM707 244h-180l-83 143h177zM1142 637l-163 163h-230l-77 -154l309 -513h308
l27 111h-234l-88 143h240l-55 99h-235l-86 151h284z" />
</svg>
