<?xml version="1.0" standalone="no"?>
<!DOCTYPE svg PUBLIC "-//W3C//DTD SVG 1.1//EN" "http://www.w3.org/Graphics/SVG/1.1/DTD/svg11.dtd" >
<svg xmlns="http://www.w3.org/2000/svg" xmlns:xlink="http://www.w3.org/1999/xlink" version="1.1" viewBox="-10 0 1060 1000">
   <path fill="currentColor"
d="M717 609h117l-59 -159zM827 400l135 349h-81l-31 -86h-149l-31 86h-77l133 -349h101zM204 180l-24 6l7 24l10 -2l131 454l-11 3l7 24l24 -7l-4 -13l26 -6v-459h89l-19 -65l11 -2l-5 -25l-25 8l3 9l-217 62zM468 281h-26v26h12v497h-12v26h26v-13h239v11h26v-26h-13v-17
h86v114h-436v-155l-94 27l-183 -636l398 -114l53 183h262v124h-86v-19h11v-25h-25v9h-238v-12z" />
</svg>
