<?xml version="1.0" standalone="no"?>
<!DOCTYPE svg PUBLIC "-//W3C//DTD SVG 1.1//EN" "http://www.w3.org/Graphics/SVG/1.1/DTD/svg11.dtd" >
<svg xmlns="http://www.w3.org/2000/svg" xmlns:xlink="http://www.w3.org/1999/xlink" version="1.1" viewBox="-10 0 1602 1000">
   <path fill="currentColor"
d="M158 214h-37l-29 142h43q114 0 114 -87q0 -55 -91 -55zM210 42h-52l-25 128h41q45 0 74.5 -19t29.5 -61q0 -25 -20.5 -36.5t-47.5 -11.5zM246 192q69 16 69 79q0 48 -28.5 78t-65.5 40t-84 10h-117l87 -401h127q44 0 76 22t32 62q0 42 -26 72t-70 38zM576 136
q-59 0 -103 52.5t-44 115.5q0 58 46 58q35 0 67 -40t45 -98l20 -84q-10 -4 -31 -4zM675 104l-39 173q-16 88 -16 122h-60q0 -23 10 -75q-44 82 -120 82q-40 0 -62 -26.5t-22 -68.5q0 -91 66.5 -154.5t155.5 -63.5q43 0 87 11zM987 216l-37 183h-62l38 -178q4 -19 4 -37
q0 -47 -46 -47q-69 0 -90 97l-37 165h-59l84 -397h60l-32 147q42 -56 104 -56q36 0 58.5 19.5t22.5 54.5q0 7 -8 49zM1323 204l-40 195h-61l37 -180q5 -23 5 -35q0 -47 -47 -47q-37 0 -59 26.5t-30 65.5l-35 170h-62l49 -231q5 -23 13 -69h54l-8 53q42 -59 107 -59
q37 0 59 20t22 56q0 19 -4 35zM588 515l-16 49q-30 -18 -78 -18q-34 0 -63.5 18t-29.5 50q0 20 23.5 37t51 29.5t51 39t23.5 61.5q0 59 -47 95t-122 36q-55 0 -100 -17l17 -52q39 23 87 23q41 0 69 -21.5t28 -57.5q0 -22 -23.5 -40.5t-51 -31t-51 -37t-23.5 -57.5
q0 -60 48 -91.5t120 -31.5q53 0 87 17zM884 722l-39 183h-61l39 -178q4 -28 4 -37q0 -47 -47 -47q-70 0 -91 97l-36 165h-59l85 -397h59l-32 147q42 -56 103 -56q36 0 59 20t23 54q0 13 -7 49zM1111 643q-48 0 -77.5 48.5t-29.5 101.5q0 75 63 75q48 0 79.5 -50t31.5 -100
q0 -34 -17 -54.5t-50 -20.5zM1058 912q-50 0 -84.5 -30t-34.5 -79q0 -85 50 -144.5t135 -59.5q49 0 82.5 29.5t33.5 78.5q0 85 -49.5 145t-132.5 60zM1462 643q-38 0 -64.5 38t-34.5 83q-2 11 -2 35q0 69 52 69q49 0 77 -50t28 -106q0 -69 -56 -69zM1420 912q-60 0 -77 -54
l-36 177h-61l70 -335q11 -50 18 -95h58l-10 54q39 -60 107 -60q93 0 93 112q0 76 -44.5 138.5t-117.5 62.5z" />
</svg>
