<?xml version="1.0" standalone="no"?>
<!DOCTYPE svg PUBLIC "-//W3C//DTD SVG 1.1//EN" "http://www.w3.org/Graphics/SVG/1.1/DTD/svg11.dtd" >
<svg xmlns="http://www.w3.org/2000/svg" xmlns:xlink="http://www.w3.org/1999/xlink" version="1.1" viewBox="-10 0 1232 1000">
   <path fill="currentColor"
d="M465 902h-85q-59 -52 -143 -95q-27 -12 -27 -40v-155q0 -18 12.5 -31t31.5 -13h135v-80h60v95q0 17 -15 31t-31 14h-133v130q106 51 188 136zM214 154q0 -7 3 -13h-67v-48h180v48h-30q2 8 2 13q0 18 -12.5 30.5t-31.5 12.5q-18 0 -31 -12.5t-13 -30.5zM393 132
q-4 -7 -4 -15v-117h60v109l97 168q5 10 5 21q0 16 -11.5 27.5t-27.5 11.5h-53v110h-131v-39h71v-104q0 -11 7.5 -18.5t18.5 -7.5h52zM794 862q85 -58 138 -148t62 -196q4 -35 1 -71l49 -31q5 46 2 106q-11 117 -69 215.5t-150 164.5zM954 281q-36 -79 -98 -139l39 -33
q65 63 102 144zM667 710q74 -44 107 -121l69 -43q-29 130 -144 204zM785 390q-25 -73 -81 -120l40 -34q56 53 85 126zM588 367q29 17 46.5 45.5t17.5 61.5l-60 39q8 -13 9 -30q3 -27 -13.5 -50t-43.5 -29zM492 635l586 -380l42 63l-587 379z" />
</svg>
