<?xml version="1.0" standalone="no"?>
<!DOCTYPE svg PUBLIC "-//W3C//DTD SVG 1.1//EN" "http://www.w3.org/Graphics/SVG/1.1/DTD/svg11.dtd" >
<svg xmlns="http://www.w3.org/2000/svg" xmlns:xlink="http://www.w3.org/1999/xlink" version="1.1" viewBox="-10 0 946 1000">
   <path fill="currentColor"
d="M93 135l398 -114l52 183h262v695h-435v-155l-94 27zM202 180l-23 6l7 25l10 -4l132 455l-12 3l7 24l24 -7l-4 -12l27 -7v-459h88l-18 -64l10 -3l-6 -24l-23 7l2 9l-217 63zM468 293v-12h-26v26h11v497h-11v27h26v-13h238v11h27v-27h-14v-493h11v-25h-26v9h-236z" />
</svg>
