<?xml version="1.0" standalone="no"?>
<!DOCTYPE svg PUBLIC "-//W3C//DTD SVG 1.1//EN" "http://www.w3.org/Graphics/SVG/1.1/DTD/svg11.dtd" >
<svg xmlns="http://www.w3.org/2000/svg" xmlns:xlink="http://www.w3.org/1999/xlink" version="1.1" viewBox="-10 0 1232 1000">
   <path fill="currentColor"
d="M1116 157q0 -34 -22 -52t-59 -18h-42v135h56q30 0 48.5 -16.5t18.5 -48.5zM842 396h-44v-345h44v345zM1157 150q0 48 -31 78.5t-81 30.5h-52v137h-42v-345h89q48 0 82.5 25t34.5 74zM730 51l-115 345h-42l-114 -345h47l71 221q9 26 18 68l1 -1v-1q4 -16 19 -62l71 -225
h44zM857 738q8 15 3 31.5t-20 25.5q-16 9 -32 3.5t-25 -20.5l-114 -205l-242 62q-8 1 -14 1q-24 1 -44.5 -12t-30.5 -36l-88 -197q-13 -31 -1.5 -61.5t41.5 -44.5q29 -13 60.5 -1t44.5 41l87 195l185 -46q36 -11 56 26zM608 800h-209q-63 2 -118.5 -32t-82.5 -94l-87 -198
q-11 -25 4 -44.5t39.5 -18.5t35.5 26l89 199q19 42 58 62t81 9l166 -42q31 -8 50 36q20 45 4 77q-9 20 -30 20zM216 168q0 -29 20 -49.5t48 -20.5q29 0 49.5 20.5t20.5 49.5t-20.5 49t-49.5 20q-28 0 -48 -20.5t-20 -48.5z" />
</svg>
