<?xml version="1.0" standalone="no"?>
<!DOCTYPE svg PUBLIC "-//W3C//DTD SVG 1.1//EN" "http://www.w3.org/Graphics/SVG/1.1/DTD/svg11.dtd" >
<svg xmlns="http://www.w3.org/2000/svg" xmlns:xlink="http://www.w3.org/1999/xlink" version="1.1" viewBox="-10 0 894 1000">
   <path fill="currentColor"
d="M176 359q29 -109 125.5 -176.5t210.5 -67.5q147 0 253 104l-34 92q-100 -107 -219 -107q-78 0 -143 41.5t-98 113.5h391l-30 70h-378q-3 20 -3 38q0 19 3 40h351l-31 70h-303q29 70 98 111t143 41q119 0 205 -96l28 -32v133q-97 84 -233 84q-112 0 -210 -66t-125 -175
h-109l31 -70h65q0 -7 -0.5 -20.5t-0.5 -19.5q0 -25 1 -38h-96l31 -70h77z" />
</svg>
