<?xml version="1.0" standalone="no"?>
<!DOCTYPE svg PUBLIC "-//W3C//DTD SVG 1.1//EN" "http://www.w3.org/Graphics/SVG/1.1/DTD/svg11.dtd" >
<svg xmlns="http://www.w3.org/2000/svg" xmlns:xlink="http://www.w3.org/1999/xlink" version="1.1" viewBox="-10 0 760 1000">
   <path fill="currentColor"
d="M340 290q0 48 -44 57l25 88l160 14q21 0 36 15l189 181q8 10 8 23t-8 22q-11 10 -24 9.5t-23 -9.5l-52 -45l-114 60l-1 85q0 31 -28 33q-30 3 -35 -28l-13 -193v-9q-3 -21 -18.5 -34t-36.5 -12l-115 10q-26 3 -45.5 -16t-24.5 -45l-36 -237q-6 -36 13 -59t46 -23
q42 0 60 33zM145 72q0 -29 19.5 -49t48.5 -20t49.5 20t20.5 49t-20.5 49t-49.5 20t-48.5 -20t-19.5 -49z" />
</svg>
