<?xml version="1.0" standalone="no"?>
<!DOCTYPE svg PUBLIC "-//W3C//DTD SVG 1.1//EN" "http://www.w3.org/Graphics/SVG/1.1/DTD/svg11.dtd" >
<svg xmlns="http://www.w3.org/2000/svg" xmlns:xlink="http://www.w3.org/1999/xlink" version="1.1" viewBox="-10 0 927 1000">
   <path fill="currentColor"
d="M528 230q-17 -13 -23 -32q-8 -22 0.5 -44.5t28.5 -33.5q35 -17 77 -8l12 4t11.5 2.5t12.5 -1.5q11 -3 20 -14l30 -45q12 -12 20 -16q24 -9 35 1l16 10q12 7 12 34q0 9 -8 25l-31 42q-7 13 -7 24q0 7 3 12t8 11.5t7 10.5q18 26 18 68q-3 26 -21 43t-42 17q-19 0 -36 -11z
M326 892q-15 0 -28 -10l-162 -114q-13 -8 -18 -23q-10 -24 5 -48q169 -262 296 -413q12 -13 23 -18q28 -9 50 6l152 107q22 17 22 44q0 13 -9 27q-99 173 -288 419q-18 23 -43 23zM508 559l93 -133l-140 -99l-162 232h209z" />
</svg>
