<?xml version="1.0" standalone="no"?>
<!DOCTYPE svg PUBLIC "-//W3C//DTD SVG 1.1//EN" "http://www.w3.org/Graphics/SVG/1.1/DTD/svg11.dtd" >
<svg xmlns="http://www.w3.org/2000/svg" xmlns:xlink="http://www.w3.org/1999/xlink" version="1.1" viewBox="-10 0 816 1000">
   <path fill="currentColor"
d="M186 73q0 -29 21 -49.5t49 -20.5q30 0 50.5 20.5t20.5 49.5q0 30 -20.5 51t-50.5 21q-29 0 -49.5 -21t-20.5 -51zM398 137q0 -21 15 -36t37 -15q21 0 35.5 15t14.5 36q0 22 -14.5 37.5t-35.5 15.5q-22 0 -37 -15.5t-15 -37.5zM499 388h88q11 0 19 9l64 64q8 7 8 18.5
t-8 18.5q-7 8 -18.5 8t-18.5 -8l-57 -56h-150q-22 0 -26 -23l-24 -135q-4 -22 8.5 -39.5t33.5 -20.5q4 -1 13 -1q145 26 157 28q8 2 13 8.5t3 15.5q-6 19 -24 16l-101 -18zM390 494h118q29 3 39 31l81 219q8 18 3 36.5t-23 24.5t-33.5 -2t-22.5 -27l-68 -181h-208
q-27 0 -46 -18t-24 -46l-46 -260q-5 -31 13 -57.5t49 -32.5q32 -6 57.5 12.5t31.5 50.5l39 216q3 14 14.5 24t25.5 10z" />
</svg>
