<?xml version="1.0" standalone="no"?>
<!DOCTYPE svg PUBLIC "-//W3C//DTD SVG 1.1//EN" "http://www.w3.org/Graphics/SVG/1.1/DTD/svg11.dtd" >
<svg xmlns="http://www.w3.org/2000/svg" xmlns:xlink="http://www.w3.org/1999/xlink" version="1.1" viewBox="-10 0 1010 1000">
   <path fill="currentColor"
d="M241 693q0 29 19.5 49t48.5 20t48.5 -20t19.5 -49q0 -28 -20 -48t-48 -20t-48 20t-20 48zM618 693q0 29 19.5 49t48.5 20t49 -20t20 -49q0 -28 -20.5 -48t-48.5 -20t-48 20t-20 48zM606 -9q96 0 168 63t84 156h-312v-219h60zM184 693q0 -51 36.5 -88t88.5 -37q51 0 88 37
t37 88q0 52 -37 88.5t-88 36.5q-52 0 -88.5 -36.5t-36.5 -88.5zM562 693q0 -51 36.5 -88t87.5 -37q52 0 88.5 37t36.5 88q0 52 -36.5 88.5t-88.5 36.5q-51 0 -87.5 -36.5t-36.5 -88.5zM226 280h632q-11 94 -83 159t-167 65h-244q-54 0 -99 -26t-66 -70l-134 -290
q-7 -15 -1.5 -30t20.5 -22t30 -1t22 20z" />
</svg>
