<?xml version="1.0" standalone="no"?>
<!DOCTYPE svg PUBLIC "-//W3C//DTD SVG 1.1//EN" "http://www.w3.org/Graphics/SVG/1.1/DTD/svg11.dtd" >
<svg xmlns="http://www.w3.org/2000/svg" xmlns:xlink="http://www.w3.org/1999/xlink" version="1.1" viewBox="-10 0 580 1000">
   <path fill="currentColor"
d="M140 860v-720h420v720h-420zM400 560q0 59 -14.5 84.5t-45.5 25.5q-26 0 -42 -14t-18 -26h-100q9 64 43.5 102t116.5 38q80 0 120 -72.5t40 -197.5q0 -260 -160 -260q-69 0 -114.5 54t-45.5 121q0 66 41.5 120.5t118.5 54.5q10 0 19.5 -4t15.5 -8t25 -18zM290 415
q0 -38 10 -56.5t40 -18.5t40 21t10 56q0 22 -3 36t-14.5 25.5t-32.5 11.5q-30 0 -40 -18.5t-10 -56.5z" />
</svg>
