<?xml version="1.0" standalone="no"?>
<!DOCTYPE svg PUBLIC "-//W3C//DTD SVG 1.1//EN" "http://www.w3.org/Graphics/SVG/1.1/DTD/svg11.dtd" >
<svg xmlns="http://www.w3.org/2000/svg" xmlns:xlink="http://www.w3.org/1999/xlink" version="1.1" viewBox="-10 0 1689 1000">
   <path fill="currentColor"
d="M133 752q12 5 31.5 13.5t26.5 10.5t23 4t40 2t42 -3t26.5 -5.5t30.5 -12t34 -14.5q9 -4 27.5 -11t25.5 -10t21.5 -7.5t25 -6t26 -3t33.5 -1.5q22 0 38 1.5t32.5 6t25 7t30 11.5t32.5 13q12 5 34 14.5t30.5 12t27 5.5t41.5 3t41.5 -3t27 -5.5t30.5 -12t34 -14.5
q9 -4 32.5 -13t31 -11.5t25 -7t33.5 -6t37 -1.5q18 0 33.5 1.5t25.5 3t25 6t21.5 7.5t25 10.5t27.5 10.5q11 4 33.5 14t31 12.5t27 5.5t42.5 3t40.5 -2.5t24 -4.5t27.5 -11t32 -14q26 -10 42 3.5t11.5 34t-28.5 29.5q-13 5 -32 12.5t-27.5 10.5t-23 6.5t-30 5t-36.5 1.5
t-37.5 -1.5t-33 -6t-25.5 -7.5t-30.5 -12t-32.5 -13q-14 -5 -34 -13.5t-29.5 -11.5t-27.5 -6t-42 -3t-42 3t-27.5 6t-29.5 12t-34 14q-11 4 -32 12.5t-30.5 11.5t-26 7.5t-33 6t-37.5 1.5q-26 0 -48.5 -3.5t-32 -6.5t-38.5 -14t-39 -15q-14 -5 -34.5 -14t-29.5 -12t-27.5 -6
t-41.5 -3q-24 0 -42.5 3t-27.5 6t-30.5 12t-33.5 14q-11 4 -32 12.5t-30 11.5t-25.5 7.5t-33 6t-37.5 1.5t-35.5 -1t-29.5 -4.5t-21.5 -5.5t-27.5 -10.5t-32 -12.5q-24 -9 -27.5 -29.5t12.5 -33.5t40 -4zM611 -18l-3 20q-60 0 -60 24q0 14 15 23q15 10 56 16q-8 13 -8 19
q0 13 19 21q13 11 61 11q33 0 44 1q14 1 26 7q19 6 19 39l-30 -3q0 -10 -12 -10q-8 -3 -47 -3q-116 0 -118 -59q-26 -1 -45 -17q-22 -18 -22 -37q0 -21 25 -35q29 -17 80 -17zM783 53q13 1 32.5 4.5t20.5 3.5q32 8 39 18q9 11 17 31q3 15 3 22q1 8 1 31h-37v-42
q0 -26 -24 -33q-35 -7 -118 -7h-13l10 -5q40 -21 40 -39q0 -9 -12 -16q-9 -9 -28 -9l3 -30q24 0 52 18q25 17 25 34q0 7 -11 19zM279 681l-136 -248h294l57 -106h237l21 -102h172l21 102h237l55 106h295l-137 248q-20 -1 -33.5 -5t-38 -14t-36.5 -15l-32.5 -12.5t-29.5 -11
t-25.5 -8t-32.5 -6t-38 -1.5q-26 0 -48 3.5t-33.5 7t-37.5 13.5t-40 15q-11 4 -28.5 12t-24.5 10.5t-20.5 6.5t-27 5t-32.5 1t-32.5 -1t-27 -5t-20.5 -6.5t-24.5 -10.5t-28.5 -12q-14 -5 -39.5 -15t-37 -13.5t-33.5 -7t-48 -3.5t-48.5 3.5t-33.5 7t-38 14t-39 14.5
q-14 5 -30.5 12.5t-25.5 11t-22.5 6.5t-29.5 4z" />
</svg>
