<?xml version="1.0" standalone="no"?>
<!DOCTYPE svg PUBLIC "-//W3C//DTD SVG 1.1//EN" "http://www.w3.org/Graphics/SVG/1.1/DTD/svg11.dtd" >
<svg xmlns="http://www.w3.org/2000/svg" xmlns:xlink="http://www.w3.org/1999/xlink" version="1.1" viewBox="-10 0 1232 1000">
   <path fill="currentColor"
d="M247 800q-31 0 -52 -21t-21 -52v-399q0 -31 21 -52t52 -21h54v545h-54zM390 800v-545h69v-118q0 -16 10 -26q11 -11 27 -11h229q17 0 26 11q11 10 11 26v118h69v545h-441zM974 800h-53v-545h53q31 0 52 21t21 52v399q0 31 -21 52t-52 21zM713 151h-204v104h204v-104z" />
</svg>
