<?xml version="1.0" standalone="no"?>
<!DOCTYPE svg PUBLIC "-//W3C//DTD SVG 1.1//EN" "http://www.w3.org/Graphics/SVG/1.1/DTD/svg11.dtd" >
<svg xmlns="http://www.w3.org/2000/svg" xmlns:xlink="http://www.w3.org/1999/xlink" version="1.1" viewBox="-10 0 1010 1000">
   <path fill="currentColor"
d="M172 337q-45 -39 -50 -101q-4 -60 36 -105t100 -49q54 -3 96 30l-26 30q-29 -22 -68 -20q-44 3 -72.5 36t-25.5 76q3 42 34 71zM527 182q37 -19 76.5 -5.5t58.5 50.5l264 526q19 37 5.5 77t-50.5 59l-154 77q-37 19 -77 5.5t-59 -50.5l-330 -659q-6 -13 -1.5 -27
t17.5 -20q14 -7 27.5 -2.5t20.5 17.5l21 42zM623 884q7 14 22 19t29 -2l40 -21q14 -7 19 -21.5t-2 -28.5t-21.5 -19t-28.5 2l-41 20q-14 7 -19 22t2 29zM572 782q7 14 22 19t29 -2l40 -21q14 -7 19 -21.5t-2 -28.5t-22 -19t-29 2l-40 20q-14 7 -19 22t2 29zM521 680
q7 14 22 19t29 -2l40 -21q14 -7 19 -22t-2 -28q-7 -14 -22 -19t-29 2l-40 20q-14 7 -19 22t2 29zM431 383q-19 10 -25.5 29.5t2.5 38.5l57 114q10 19 29.5 25.5t38.5 -3.5l161 -80q19 -10 25.5 -29.5t-3.5 -38.5l-57 -114q-9 -19 -28.5 -25.5t-38.5 2.5zM766 812q7 14 22 19
t29 -2l41 -20q14 -8 18.5 -22.5t-2.5 -28.5t-22 -19t-28 2l-41 20q-14 7 -19 22t2 29zM715 710q7 14 22 19t29 -2l40 -20q14 -8 19 -22.5t-2 -28.5t-22 -19t-28 2l-41 20q-14 7 -19 22t2 29zM664 608q7 14 22 19t29 -2l40 -20q14 -8 19 -22.5t-2 -28.5t-22 -19t-28 2l-41 20
q-14 7 -19 22t2 29zM100 429q-86 -70 -94 -185q-7 -109 64.5 -190t179.5 -88q102 -6 180 56l-26 31q-67 -53 -151 -47q-92 6 -152.5 75t-55.5 160q6 95 80 157z" />
</svg>
