<?xml version="1.0" standalone="no"?>
<!DOCTYPE svg PUBLIC "-//W3C//DTD SVG 1.1//EN" "http://www.w3.org/Graphics/SVG/1.1/DTD/svg11.dtd" >
<svg xmlns="http://www.w3.org/2000/svg" xmlns:xlink="http://www.w3.org/1999/xlink" version="1.1" viewBox="-10 0 921 1000">
   <path fill="currentColor"
d="M429 614l-51 120q97 31 195 -4q-57 -72 -144 -116zM483 492l-33 75q103 52 171 139q66 -41 103 -110zM403 547l32 -76l-242 -103q-24 73 -8 150q111 -11 218 29zM331 713l52 -119q-90 -33 -183 -25q40 96 131 144zM275 842l35 -81q-118 -62 -163 -188t8 -250t176 -177.5
t249 -11.5l34 -80l48 20l-35 81q118 63 163.5 188t-7.5 250q-35 81 -104.5 135t-151.5 67t-169 -14l-35 82zM555 322q85 32 182 27q-39 -97 -130 -146zM364 187q60 72 144 115l52 -120q-98 -31 -196 5zM488 349q-100 -49 -171 -139q-66 42 -104 110l242 105zM753 398
q-112 11 -218 -29l-32 76l242 104q24 -74 8 -151z" />
</svg>
