<?xml version="1.0" standalone="no"?>
<!DOCTYPE svg PUBLIC "-//W3C//DTD SVG 1.1//EN" "http://www.w3.org/Graphics/SVG/1.1/DTD/svg11.dtd" >
<svg xmlns="http://www.w3.org/2000/svg" xmlns:xlink="http://www.w3.org/1999/xlink" version="1.1" viewBox="-10 0 931 1000">
   <path fill="currentColor"
d="M793 120v281q0 8 -6 13.5t-14 5.5h-50v-139q0 -23 -17 -40t-39 -17h-41q-7 -7 -13 -7t-11 4t-5 9h-408v-110q0 -8 5.5 -14t13.5 -6h565q8 0 14 6t6 14zM597 127v1q7 7 16 7q5 0 9 -4.5t4 -10.5q-7 -6 -13 -6q-16 0 -16 13zM613 191h-3q7 -5 7 -13q0 -6 -4 -11t-9 -5
q-7 7 -7 16q0 13 16 13zM681 282v289q0 7 -5 12t-12 5h-565q-8 0 -14 -5t-6 -12v-289q0 -8 6 -13.5t14 -3.5h565q17 0 17 17zM488 302v-3q6 7 13 7q6 0 10.5 -4t4.5 -9q-6 -7 -15 -7q-13 0 -13 16zM488 346v3q6 7 13 7q15 0 15 -16q-6 -7 -15 -7q-5 0 -9 4t-4 9zM488 399v1
q6 4 13 4q15 0 15 -13q-6 -7 -15 -7q-13 0 -13 15zM488 450v-1q6 6 13 6q15 0 15 -13q-6 -7 -15 -7q-13 0 -13 15zM488 497v3q6 6 13 6q15 0 15 -15q-6 -7 -15 -7q-5 0 -9 4t-4 9zM501 563h2q6 -6 6 -13q0 -15 -12 -15q-3 0 -6 4.5t-3 10.5q0 13 13 13zM362 665h-22v124
q3 1 10 3.5t14.5 4t14.5 1.5q21 0 32 -14.5t11 -35.5q0 -46 -36 -46q-16 0 -24 7v-44zM775 665v42q-7 -5 -22 -5q-39 0 -39 48q0 20 9.5 34t27.5 14q12 0 24 -9v7h21v-131h-21zM670 796v-72q14 -4 31 -4v-18q-16 -2 -29 9h-2v-9h-21v94h21zM122 702q-43 0 -43 48t41 48
q46 0 46 -50q0 -46 -44 -46zM209 796v-72q15 -6 22 -6q15 0 15 19v59h22v-65q0 -29 -30 -29q-15 0 -29 9v-9h-21v94h21zM483 702q-45 0 -45 48t43 48q46 0 46 -50q0 -46 -44 -46zM596 737v9q-20 -5 -24 -5q-32 0 -32 29q0 28 28 28q14 0 28 -9q0 9 13 9q14 0 22 -7v-10h-13
v-48q0 -31 -39 -31q-22 0 -33 5l5 17q12 -6 26 -6q19 0 19 19zM120 781q-21 0 -21 -31q0 -32 23 -32q22 0 22 30q0 33 -24 33zM362 778v-56q8 -4 17 -4q22 0 22 30q0 33 -24 33q-2 0 -7 -1.5t-8 -1.5zM481 781q-22 0 -22 -31q0 -32 24 -32q22 0 22 30q0 33 -24 33zM775 722
v54q-17 5 -20 5q-19 0 -19 -31q0 -32 21 -32q4 0 18 4zM572 759h24v17q-15 5 -21 5q-13 0 -13 -11t10 -11z" />
</svg>
