<?xml version="1.0" standalone="no"?>
<!DOCTYPE svg PUBLIC "-//W3C//DTD SVG 1.1//EN" "http://www.w3.org/Graphics/SVG/1.1/DTD/svg11.dtd" >
<svg xmlns="http://www.w3.org/2000/svg" xmlns:xlink="http://www.w3.org/1999/xlink" version="1.1" viewBox="-10 0 1456 1000">
   <path fill="currentColor"
d="M785 634l171 -54q20 -7 33.5 7t10.5 33t-24 26l-142 45q30 157 30 165l61 -13q23 -5 37 11.5t8 37t-30 25.5l-87 20q-71 15 -136 5l-113 -19q-14 -2 -22.5 -12t-9 -21.5t3.5 -23t15.5 -17.5t26.5 -3l78 15l-29 -158l-171 -27q-22 -3 -28 -21.5t5.5 -33.5t32.5 -12l208 32
q38 3 71 -7zM1107 676v-204q0 -35 19 -56l-146 -86q-19 -11 -17.5 -30.5t17 -28.5t35.5 0l225 132q34 19 34 69v131q0 34 -21 57q0 1 -3.5 4t-7.5 6.5t-5 4.5l-67 47h119q25 0 35 19.5t0 39t-35 19.5h-233q-35 0 -42.5 -24.5t21.5 -45.5zM486 69h-301q-18 0 -31 13t-13 31
v208q0 18 13 31t31 13h301q18 0 31.5 -13t13.5 -31v-208q0 -18 -13.5 -31t-31.5 -13zM185 2h301q46 0 79 32.5t33 78.5v208q0 46 -32.5 78t-79.5 32h-301q-45 0 -77.5 -32t-32.5 -78v-208q0 -46 32.5 -78.5t77.5 -32.5zM660 491q0 -38 27 -65.5t65 -27.5t65.5 27.5
t27.5 65.5t-27.5 64.5t-65.5 26.5t-65 -26.5t-27 -64.5zM1155 246q0 -39 26.5 -66t64.5 -27q39 0 66 27t27 66q0 38 -27 64.5t-66 26.5q-38 0 -64.5 -26.5t-26.5 -64.5z" />
</svg>
