<?xml version="1.0" standalone="no"?>
<!DOCTYPE svg PUBLIC "-//W3C//DTD SVG 1.1//EN" "http://www.w3.org/Graphics/SVG/1.1/DTD/svg11.dtd" >
<svg xmlns="http://www.w3.org/2000/svg" xmlns:xlink="http://www.w3.org/1999/xlink" version="1.1" viewBox="-10 0 1065 1000">
   <path fill="currentColor"
d="M715 714q7 14 21.5 19t28.5 -2l40 -20q14 -8 19 -22.5t-2 -28.5q-8 -14 -22.5 -18.5t-28.5 2.5l-40 20q-14 7 -18.5 21.5t2.5 28.5zM765 815q7 14 21.5 19t28.5 -2l40 -20q14 -7 19 -22t-2 -29t-21.5 -18.5t-28.5 2.5l-40 20q-14 7 -19 21.5t2 28.5zM613 681
q25 -13 20 -41l30 -30q7 16 22.5 21.5t28.5 -1.5l40 -20q14 -7 19 -22t-2 -28q-11 -25 -38 -21l54 -54l136 272q19 37 5.5 76t-50.5 58l-152 76q-37 19 -76 6t-58 -50l-81 -162l60 -59zM573 785q7 14 21.5 19t28.5 -2l40 -20q14 -7 19 -22t-2 -29t-21.5 -18.5t-28.5 2.5
l-40 20q-14 7 -19 21.5t2 28.5zM624 886q7 14 21.5 19t28.5 -2l40 -21q14 -7 19 -21.5t-2 -28.5q-8 -14 -22.5 -18.5t-28.5 2.5l-40 20q-14 7 -18.5 21.5t2.5 28.5zM528 191q37 -18 76.5 -5t57.5 50l39 77l-34 35l-8 -15q-9 -19 -28.5 -25.5t-38.5 3.5l-159 80
q-19 9 -25.5 28.5t3.5 38.5l49 97l-35 34l-159 -318q-7 -13 -2.5 -26.5t17.5 -20.5t27 -2t20 18l21 41zM177 345q-46 -39 -49 -100q-4 -59 35.5 -103.5t98.5 -48.5q53 -3 95 29l-25 30q-32 -22 -68 -19q-43 2 -71 34.5t-26 75.5q3 42 34 71zM162 921l821 -818l57 58
l-821 817zM106 436q-87 -72 -93 -183q-7 -107 64 -187.5t178 -87.5q101 -6 177 56l-26 30q-65 -52 -149 -46q-91 5 -151 73t-54 159q6 95 79 155z" />
</svg>
