<?xml version="1.0" standalone="no"?>
<!DOCTYPE svg PUBLIC "-//W3C//DTD SVG 1.1//EN" "http://www.w3.org/Graphics/SVG/1.1/DTD/svg11.dtd" >
<svg xmlns="http://www.w3.org/2000/svg" xmlns:xlink="http://www.w3.org/1999/xlink" version="1.1" viewBox="-10 0 3158 1000">
   <path fill="currentColor"
d="M3010 355h-111q-74 224 -74 242q0 29 11 49t27.5 28t32.5 12.5t27 3.5h11l-35 110h-167q-52 0 -88 -45q-55 -73 -24 -176l130 -429h206l-38 112h130zM1340 465h242q2 -4 5 -11t8 -28t0 -34q-7 -24 -19 -30.5t-32 -6.5h-111h-17q-41 0 -77 33t-53 77q-29 73 -37 114
q-15 50 4 89q6 11 23.5 16.5t32.5 5.5h15h388l-38 110h-371h-127q-26 0 -54 -11t-41 -26q-53 -52 -36 -146q2 -16 20 -82.5t33 -106.5q13 -34 47.5 -72.5t57.5 -55.5q59 -38 121 -38h130h183q5 -1 14.5 -1.5t34 2.5t45.5 11t43 29t32 52q0 25 -2 45t-9 44.5t-11 37t-17 47.5
t-19 50h-445zM1081 262l-130 428q-3 9 -5 23t6.5 44t36.5 43h-808q-24 0 -62.5 -30t-55.5 -80q-17 -49 0 -111q3 -17 26 -96.5t44 -150.5l21 -70h206q-94 317 -95 335q-3 34 14.5 63.5t44.5 29.5h91q-3 -5 -7.5 -13t-10.5 -27.5t-2 -32.5l111 -355h205q-61 185 -100 302
q-11 31 -12 37q-4 22 19.5 55.5t53.5 33.5h74l130 -428h205zM2658 262l-38 93h-404q-49 0 -96 55q-12 14 -21 28t-13 20l-3 7h501l-37 114l-19 54q-13 40 -26 60t-44 52q-26 26 -67.5 40.5t-75.5 14.5h-546l37 -110h406q29 0 60 -15.5t54 -41.5q8 -7 12 -20.5t4 -23.5l1 -10
h-501q1 -1 10 -34t22 -74.5t22 -60.5q8 -17 16.5 -31t16 -24.5t18 -20.5t17 -15.5t17.5 -12.5t15.5 -9t16 -8t13.5 -7q17 -9 40.5 -14t38.5 -6h15h538z" />
</svg>
