<?xml version="1.0" standalone="no"?>
<!DOCTYPE svg PUBLIC "-//W3C//DTD SVG 1.1//EN" "http://www.w3.org/Graphics/SVG/1.1/DTD/svg11.dtd" >
<svg xmlns="http://www.w3.org/2000/svg" xmlns:xlink="http://www.w3.org/1999/xlink" version="1.1" viewBox="-10 0 3970 1000">
   <path fill="currentColor"
d="M1945 512h-72q-48 145 -48 157q0 29 17.5 44t35.5 15l18 1l-23 71h-108q-33 0 -56 -29q-37 -48 -16 -114l84 -277h133l-25 72h85zM2193 452h148h11.5t26 3.5t32.5 9.5t25.5 19.5t11.5 31.5q0 20 -12 68l-35 120q-9 32 -54 64t-77 32h-14h-336l97 -323q12 -36 12 -58
q0 -16 -9 -25.5t-18 -11.5l-9 -2h192l-120 349h132q64 0 83 -60l24 -85q8 -33 0 -48q-6 -24 -40 -24h-91zM3131 452h192h11.5t26.5 3t33 8.5t26 18t12 30.5t-13 72l-61 216h-130l59 -216q7 -31 0 -48q-11 -24 -35 -24h-132l-97 288h-131l95 -312q1 -3 5.5 -17t6 -21t4 -18
t1.5 -17.5t-5 -10.5q-5 -11 -14 -17t-15 -7h-6h191zM866 584h156q2 -3 3.5 -7.5t5 -18t-0.5 -22.5q-7 -24 -32 -24h-72h-11q-26 0 -49.5 21.5t-34.5 50.5q-17 41 -24 73q-9 35 3 58q4 7 15 10.5t21 3.5h9h251l-24 71h-240h-82q-39 0 -61 -24q-34 -33 -24 -95q9 -54 35 -121
q8 -22 30.5 -47.5t36.5 -35.5q39 -25 78 -25h84h119q3 0 9 -0.5t22 1t29.5 7t27.5 19t21 33.5q0 16 -1.5 29.5t-5.5 28.5t-7 24t-11 30t-12 33h-288zM2538 452h294q3 0 9 -0.5t22 1t29.5 7t27.5 19t20 33.5q0 23 -8.5 53t-47.5 150q-17 53 -28 85h-119l8 -20q-6 7 -26 13.5
t-30 6.5h-146q-60 0 -83 -36q-16 -24 -19.5 -55t7.5 -52q24 -51 72 -73q18 -8 43.5 -14t42.5 -8l16 -2h173q8 -21 3 -34.5t-33 -13.5h-245zM3446 452h381q3 0 8 -0.5t19 1.5t26 7.5t25 18.5t19 33q8 28 0 72l-74 216h-132l73 -216q5 -31 -7 -48q-11 -24 -40 -24h-132
l-85 288h-131l84 -288q6 -18 0 -35q-9 -25 -34 -25zM699 452l-84 277q-2 6 -3.5 15t4 28t23.5 28h-522q-20 0 -42.5 -18.5t-34.5 -52.5q-10 -30 0 -72l59 -205h133q-60 205 -61 217q-2 21 9.5 40.5t28.5 19.5h59q-2 -3 -5 -8.5t-7 -18t-1 -21.5l72 -229h132q-41 126 -65 198
q-6 17 -7 21q-3 15 12.5 36.5t34.5 21.5h48l84 -277h133zM1717 452l-24 60h-261q-31 0 -62 36l-24 36h323l-23 73l-12 35q-13 38 -46 72q-17 17 -43.5 26.5t-48.5 9.5h-353l24 -71h262q42 0 74 -37q5 -5 7.5 -13.5t3.5 -14.5v-7h-324l6 -22q6 -22 14.5 -48.5t14.5 -38.5
q6 -14 14.5 -26t14 -19t15.5 -14.5t14 -9.5t14.5 -8t11.5 -6q11 -6 26.5 -9t24.5 -4h10h347zM2748 704q12 -15 21 -36t12 -34l3 -14h-121q-81 0 -89 49q-4 29 11.5 44.5t38.5 15.5h65q39 0 59 -25z" />
</svg>
