<?xml version="1.0" standalone="no"?>
<!DOCTYPE svg PUBLIC "-//W3C//DTD SVG 1.1//EN" "http://www.w3.org/Graphics/SVG/1.1/DTD/svg11.dtd" >
<svg xmlns="http://www.w3.org/2000/svg" xmlns:xlink="http://www.w3.org/1999/xlink" version="1.1" viewBox="-10 0 1690 1000">
   <path fill="currentColor"
d="M1346 740q0 -34 23.5 -57t56.5 -23t56 23t23 57q0 32 -23 55t-56 23t-56.5 -23t-23.5 -55zM1137 602l-56 57h-480l-58 -57h-434v-81h1462v81h-434zM1129 740q0 -34 23.5 -57t56.5 -23t56 23t23 57q0 32 -23 55t-56 23t-56.5 -23t-23.5 -55zM392 740q0 -34 23.5 -57
t56.5 -23t56 23t23 57q0 32 -23 55t-56 23t-56.5 -23t-23.5 -55zM175 740q0 -34 23.5 -57t56.5 -23t56 23t23 57q0 32 -23 55t-56 23t-56.5 -23t-23.5 -55zM503 60l-108 127h243v-127h-135zM706 187h268q12 0 12 -10q0 -6 -3 -12q-16 -20 -56 -56q-38 -34 -54 -44l-19 -5
h-148v127zM1099 406q0 -31 22 -53t54 -22q31 0 53 22t22 53q0 30 -22 52t-53 22t-53.5 -22t-22.5 -52zM392 406q0 -31 22 -53t53 -22t52.5 22t21.5 53q0 30 -21.5 52t-52.5 22t-53 -22t-22 -52zM1383 276v97h-89q-9 -42 -42.5 -69t-76.5 -27q-44 0 -77 27t-42 69h-471
q-8 -41 -41.5 -68.5t-76.5 -27.5q-44 0 -77 27.5t-41 68.5h-78v-159q0 -35 30 -65l129 -132q10 -16 34 -16h390q31 0 44 5t38 28l123 115l259 60q35 8 50 24t15 43z" />
</svg>
