<?xml version="1.0" standalone="no"?>
<!DOCTYPE svg PUBLIC "-//W3C//DTD SVG 1.1//EN" "http://www.w3.org/Graphics/SVG/1.1/DTD/svg11.dtd" >
<svg xmlns="http://www.w3.org/2000/svg" xmlns:xlink="http://www.w3.org/1999/xlink" version="1.1" viewBox="-10 0 1052 1000">
   <path fill="currentColor"
d="M893 467q0 153 -107.5 261.5t-261.5 110.5l121 -151q30 -40 33 -86q4 -73 -56 -123l-105 -83q-33 -26 -31 -67q1 -22 18 -48l135 -168q112 38 183 135.5t71 218.5zM148 467q0 -154 107.5 -262.5t261.5 -110.5l-121 151q-30 40 -33 86q-4 73 56 123l105 83q33 27 31 67
q-1 23 -19 48l-134 168q-112 -38 -183 -135t-71 -218z" />
</svg>
