<?xml version="1.0" standalone="no"?>
<!DOCTYPE svg PUBLIC "-//W3C//DTD SVG 1.1//EN" "http://www.w3.org/Graphics/SVG/1.1/DTD/svg11.dtd" >
<svg xmlns="http://www.w3.org/2000/svg" xmlns:xlink="http://www.w3.org/1999/xlink" version="1.1" viewBox="-10 0 973 1000">
   <path fill="currentColor"
d="M143 795q-9 -7 -9 -19t9 -20l109 -109q12 14 19 20q6 7 20 19l-109 109q-8 9 -20 9t-19 -9zM704 647l110 109q8 8 8 20t-8 19q-8 9 -19.5 9t-20.5 -9l-109 -109q14 -12 20 -19q7 -6 19 -20zM814 124q8 8 8.5 20t-8.5 20l-110 109q-12 -14 -19 -20q-6 -7 -20 -19l109 -110
q8 -8 20 -8t20 8zM143 124q7 -8 19 -8t20 8l109 110q-14 12 -20 19q-7 6 -19 20l-109 -109q-9 -9 -9 -20.5t9 -19.5zM3 460q0 -12 8 -20t20 -8h155q-1 10 -1 28t1 29h-155q-12 0 -20 -8.5t-8 -20.5zM507 752v155q0 12 -8.5 20t-20.5 8t-20 -8t-8 -20v-155q10 1 28 1t29 -1z
M953 460q0 12 -8 20t-20 8h-155q1 -10 1 -28t-1 -29h155q12 0 20 8.5t8 20.5zM478 276q-76 0 -130 54t-54 130t54 130t130 54t130 -54t54 -130t-54 -130t-130 -54zM478 217q100 0 171.5 71.5t71.5 171.5t-71.5 171.5t-171.5 71.5t-171.5 -71.5t-71.5 -171.5t71.5 -171.5
t171.5 -71.5zM478 -15q12 0 20.5 8t8.5 20v155q-11 -1 -29 -1t-28 1v-155q0 -12 8 -20t20 -8z" />
</svg>
