<?xml version="1.0" standalone="no"?>
<!DOCTYPE svg PUBLIC "-//W3C//DTD SVG 1.1//EN" "http://www.w3.org/Graphics/SVG/1.1/DTD/svg11.dtd" >
<svg xmlns="http://www.w3.org/2000/svg" xmlns:xlink="http://www.w3.org/1999/xlink" version="1.1" viewBox="-10 0 4100 1000">
   <path fill="currentColor"
d="M1804 915q208 0 387 -37t326 -103.5t290 -177.5t265.5 -239t265.5 -307h-488q-48 200 -160.5 358.5t-269 260.5t-347 155.5t-401.5 53.5q-232 0 -505 -58l-35 38q408 56 672 56zM2630 882q743 -170 1258 -550h-487q-42 58 -160.5 149t-280.5 179q117 -95 245 -231
q121 -88 157 -166h718q-379 311 -856 503.5t-1001 256.5q211 -42 407 -141zM3435 38q-123 158 -230.5 277t-230.5 230t-247 187.5t-266.5 134.5t-304.5 85.5t-346 27.5q-293 0 -816 -73l151 -159q273 59 520 59q178 0 335.5 -34.5t301 -107t257 -198.5t182.5 -297
q16 -41 29.5 -87.5t18.5 -72.5l5 -26h682zM92 167h176q53 0 85 31.5t32 79.5t-32 79.5t-85 31.5h-116v103h-60v-325zM152 332h111q31 0 46.5 -15.5t15.5 -38.5t-15.5 -38.5t-46.5 -15.5h-111v108zM599 160q74 0 125 49t51 120q0 72 -51 121t-125 49q-73 0 -124 -49t-51 -121
q0 -71 51 -120t124 -49zM599 442q45 0 78.5 -33t33.5 -80t-33.5 -79.5t-78.5 -32.5q-44 0 -77.5 33t-33.5 79q0 47 33.5 80t77.5 33zM1102 389q0 53 -41 79t-102 26h-160l53 -57h110q41 0 59 -9t18 -36q0 -19 -21.5 -28t-52.5 -12.5t-62 -9.5t-52.5 -27t-21.5 -58
q0 -44 38.5 -68t96.5 -24h155l-48 51h-110q-69 0 -69 38q0 20 21.5 29t52.5 12.5t62 9t52.5 26.5t21.5 58zM1247 224h-108l53 -57h214v57h-98v268h-61v-268zM1464 167h183q40 0 67.5 22.5t27.5 63.5q0 46 -41 66q59 17 59 78q0 43 -28 69t-72 26h-196v-325zM1524 297h117
q19 0 30 -11t11 -26t-11 -25.5t-30 -10.5h-117v73zM1524 435h129q20 0 33 -12t13 -29t-13 -28.5t-33 -11.5h-129v81zM1826 167h60v180q0 43 24.5 69t60.5 26t60.5 -26t24.5 -69v-180h59v192q0 59 -40 99.5t-104 40.5t-104.5 -40.5t-40.5 -99.5v-192zM2465 389
q-1 53 -41 78.5t-102 25.5h-161l54 -56h109q42 0 60 -9t18 -35q0 -23 -33 -32.5t-72 -12t-72 -24.5t-33 -67q0 -44 38 -68t97 -24h155l-49 51h-109q-69 0 -69 38q0 24 33 33.5t72 11t72 23t33 67.5z" />
</svg>
