<?xml version="1.0" standalone="no"?>
<!DOCTYPE svg PUBLIC "-//W3C//DTD SVG 1.1//EN" "http://www.w3.org/Graphics/SVG/1.1/DTD/svg11.dtd" >
<svg xmlns="http://www.w3.org/2000/svg" xmlns:xlink="http://www.w3.org/1999/xlink" version="1.1" viewBox="-10 0 1371 1000">
   <path fill="currentColor"
d="M503 585q-2 -20 -16 -51q-16 -32 -31 -45l-69 96h116zM560 585h86l-86 -243l-71 100q70 60 71 143zM867 309h-259l87 245zM1066 603q6 16 -2 28q-11 11 -25 11q-16 0 -26 -20l-56 -157q-36 17 -60 53q-23 40 -23 85q0 68 43 111q44 44 114 44q65 0 108 -43
q48 -48 48 -112q0 -62 -48 -110q-46 -46 -108 -46l-20 2zM816 603q0 -67 34 -117q34 -49 89 -76l-26 -68l-203 285q-4 15 -27 15h-124q-14 76 -73 126t-139 50q-91 0 -154 -63t-63 -154q0 -89 62 -151q63 -62 155 -62q52 0 96 22l96 -134l-30 -84h-41q-28 0 -28 -29
q0 -28 28 -28h157q28 0 28 29q0 28 -28 28h-57l20 61h375q14 0 22 -10q9 -6 9 -20t-9 -23q-8 -8 -22 -8h-91q-29 0 -29 -29q0 -28 29 -28h91q35 0 62 27q26 26 26 61q0 33 -24 62q-24 24 -58 24h-6l29 84l38 -5q89 0 152 63q62 62 62 152t-63 153q-62 62 -150 62
q-91 0 -153 -63q-62 -62 -62 -152zM310 597l98 -139q-31 -13 -61 -13q-65 0 -113 46q-44 43 -44 110q0 72 44 113q41 44 113 44q57 0 99 -35q39 -34 53 -81h-167q-29 0 -29 -26q0 -12 7 -19z" />
</svg>
