<?xml version="1.0" standalone="no"?>
<!DOCTYPE svg PUBLIC "-//W3C//DTD SVG 1.1//EN" "http://www.w3.org/Graphics/SVG/1.1/DTD/svg11.dtd" >
<svg xmlns="http://www.w3.org/2000/svg" xmlns:xlink="http://www.w3.org/1999/xlink" version="1.1" viewBox="-10 0 1751 1000">
   <path fill="currentColor"
d="M1414 661q33 0 56.5 23.5t23.5 55.5t-23.5 55.5t-56.5 23.5q-34 0 -58 -23.5t-24 -55.5t24 -55.5t58 -23.5zM1206 661q33 0 56.5 23.5t23.5 55.5t-23.5 55.5t-56.5 23.5q-34 0 -58 -23.5t-24 -55.5t24 -55.5t58 -23.5zM464 740q0 -34 23.5 -57t56.5 -23t56 23t23 57
q0 32 -23 55t-56 23t-56.5 -23t-23.5 -55zM247 740q0 -34 23.5 -57t56.5 -23t56 23t23 57q0 32 -23 55t-56 23t-56.5 -23t-23.5 -55zM200 623v-562h1341v562h-1341zM1433 155h-1127v223h1127v-223z" />
</svg>
