<?xml version="1.0" standalone="no"?>
<!DOCTYPE svg PUBLIC "-//W3C//DTD SVG 1.1//EN" "http://www.w3.org/Graphics/SVG/1.1/DTD/svg11.dtd" >
<svg xmlns="http://www.w3.org/2000/svg" xmlns:xlink="http://www.w3.org/1999/xlink" version="1.1" viewBox="-10 0 1663 1000">
   <path fill="currentColor"
d="M705 686q0 -54 38.5 -92t92.5 -38q55 0 93 38t38 92q0 55 -38 93.5t-93 38.5q-54 0 -92.5 -38.5t-38.5 -93.5zM297 686q0 -54 38 -92t92 -38q55 0 93.5 38t38.5 92q0 55 -38.5 93.5t-93.5 38.5q-54 0 -92 -38.5t-38 -93.5zM1114 686q0 -54 38 -92t93 -38q54 0 92.5 38
t38.5 92q0 55 -38.5 93.5t-92.5 38.5q-55 0 -93 -38.5t-38 -93.5zM190 234h239v113h329q0 -34 23 -53q29 -17 57 -17q29 0 56 17q23 23 23 53h406v-113h97v113h75v309h-61q-11 -69 -64.5 -114.5t-124.5 -45.5t-125 45.5t-65 114.5h-30q-11 -69 -64.5 -114.5t-124.5 -45.5
t-124.5 45.5t-64.5 114.5h-31q-11 -69 -64 -114.5t-125 -45.5q-71 0 -124.5 45.5t-64.5 114.5h-48v-422zM791 65q16 0 23 -7q12 -5 27 -20q11 -15 33 -30q17 -10 40 -10q22 0 50 10q33 14 60 30q6 4 20 13t20 11q22 10 45 2q18 -6 25 -12q18 -12 26 -20q43 -47 92 -47
q29 0 49 7q21 9 35 19q59 37 59 148q0 16 -12.5 22t-24.5 0t-12 -22q0 -63 -21 -89q-24 -21 -25 -22q-17 -10 -40 -10t-35 8q-18 11 -29 25q-6 7 -17 16.5t-15 13.5q-37 16 -58 16q-24 0 -59 -16q-22 -12 -50 -30q-31 -19 -43 -23q-19 -10 -40 -10q-22 0 -33 7l-24 23
q-2 2 -12.5 10.5t-13.5 12.5q-17 10 -40 10q-35 0 -54.5 -19.5t-18.5 -53.5q0 -11 7.5 -15t15.5 0.5t10 14.5q2 15 14 27q9 10 26 10z" />
</svg>
