<?xml version="1.0" standalone="no"?>
<!DOCTYPE svg PUBLIC "-//W3C//DTD SVG 1.1//EN" "http://www.w3.org/Graphics/SVG/1.1/DTD/svg11.dtd" >
<svg xmlns="http://www.w3.org/2000/svg" xmlns:xlink="http://www.w3.org/1999/xlink" version="1.1" viewBox="-10 0 2289 1000">
   <path fill="currentColor"
d="M200 26h1879v775h-1879v-775zM709 134l-178 191h141l174 -191h-137zM1100 591v-140h154q13 0 21 1t20 6.5t18 19.5t6 36q0 27 -7.5 44t-23 23.5t-26 8t-29.5 1.5h-133zM1100 356v-126h137q69 0 69 62q0 64 -77 64h-129zM986 134v552h251q78 0 135 -38.5t57 -115.5
q0 -87 -64 -141q50 -42 50 -112q0 -12 -2 -25t-13.5 -36t-31 -40.5t-59.5 -30.5t-94 -13h-229zM1647 591v-140h156q12 0 20 1t20 6.5t18.5 19.5t6.5 36q0 27 -8 44t-24 23.5t-26.5 8t-29.5 1.5h-133zM1647 356v-126h138q68 0 68 62q0 64 -77 64h-129zM1533 134v552h252
q91 0 131 -35q61 -53 61 -119q0 -84 -65 -141q51 -38 51 -112q0 -12 -2 -25t-13.5 -36t-31.5 -40.5t-60 -30.5t-94 -13h-229zM587 229l90 -100q-44 -14 -90 -14q-124 0 -211 85.5t-87 208.5q0 120 87.5 206t210.5 86q121 0 207.5 -86.5t86.5 -205.5q0 -112 -74 -194l-78 83
q38 50 38 111q0 72 -53.5 125t-126.5 53q-75 0 -129 -53t-54 -125q0 -75 53.5 -127.5t129.5 -52.5z" />
</svg>
