<?xml version="1.0" standalone="no"?>
<!DOCTYPE svg PUBLIC "-//W3C//DTD SVG 1.1//EN" "http://www.w3.org/Graphics/SVG/1.1/DTD/svg11.dtd" >
<svg xmlns="http://www.w3.org/2000/svg" xmlns:xlink="http://www.w3.org/1999/xlink" version="1.1" viewBox="-10 0 1090 1000">
   <path fill="currentColor"
d="M385 827q-17 -4 -18 -19.5t16 -20.5l64 -4q0 -105 11 -259q5 -51 -0.5 -78.5t-16 -32.5t-25.5 3t-25.5 18t-21.5 23q-14 14 -28 2.5t-3 -28.5q13 -15 41 -35t38 -30q3 -3 22 -28t34 -31q10 -2 19 1q14 12 12 25q-2 8 -4 14q-5 16 -5 41t2 53.5t2 41.5q-1 52 -7 151.5
t-7 143.5l52 -3q21 2 22 19.5t-20 20.5q-25 0 -76.5 5.5t-77.5 6.5z" />
</svg>
