<?xml version="1.0" standalone="no"?>
<!DOCTYPE svg PUBLIC "-//W3C//DTD SVG 1.1//EN" "http://www.w3.org/Graphics/SVG/1.1/DTD/svg11.dtd" >
<svg xmlns="http://www.w3.org/2000/svg" xmlns:xlink="http://www.w3.org/1999/xlink" version="1.1" viewBox="-10 0 1090 1000">
   <path fill="currentColor"
d="M444 355q-16 8 -26 -3.5t-1 -26.5q36 -32 70 -36q46 -7 83 20t24 72q-12 39 -69 79q20 4 58 14q34 9 67 27q61 34 76 79t-8 87t-75 79q-49 35 -78 42q-57 14 -125 13q-50 -1 -96 -34t-40 -81q1 -7 4.5 -13t9 -13.5t7.5 -11.5q11 -19 26.5 -9.5t7.5 29.5q-1 3 -6.5 11
t-7.5 13q-8 29 28.5 47t69.5 22q56 8 108 -11q39 -14 72.5 -37.5t54.5 -53t10 -63t-60 -61.5q-30 -18 -87 -31q-55 -14 -103 -11q-2 1 -7 1q-17 -4 -18.5 -19t15.5 -21h4q42 -9 86.5 -37.5t38.5 -62.5q-2 -12 -36 -22q-38 -12 -77 23z" />
</svg>
