<?xml version="1.0" standalone="no"?>
<!DOCTYPE svg PUBLIC "-//W3C//DTD SVG 1.1//EN" "http://www.w3.org/Graphics/SVG/1.1/DTD/svg11.dtd" >
<svg xmlns="http://www.w3.org/2000/svg" xmlns:xlink="http://www.w3.org/1999/xlink" version="1.1" viewBox="-10 0 1090 1000">
   <path fill="currentColor"
d="M350 460q-8 19 -25.5 12.5t-11.5 -26.5q9 -28 42 -65q69 -79 112 -83q7 -1 13.5 1.5t13 8.5t10 10t10 13t7.5 10q19 22 31.5 41.5t20.5 42.5t5.5 48t-14.5 52q-41 91 -117 158q-40 33 -74 55q84 5 214 59q75 21 125 27q17 5 15 20.5t-20 18.5q-58 -5 -96 -16
q-22 -6 -53 -17t-53.5 -19t-52 -16.5t-54.5 -12.5t-54 -3t-56 8l-68 32q-15 2 -22.5 -8.5t-1.5 -24.5q14 -12 51 -28q95 -45 157.5 -92t99.5 -108q16 -27 25 -54.5t6.5 -58t-20.5 -53.5q-9 -7 -23.5 -26.5t-25.5 -26.5q-37 21 -71.5 54t-44.5 67z" />
</svg>
