<?xml version="1.0" standalone="no"?>
<!DOCTYPE svg PUBLIC "-//W3C//DTD SVG 1.1//EN" "http://www.w3.org/Graphics/SVG/1.1/DTD/svg11.dtd" >
<svg xmlns="http://www.w3.org/2000/svg" xmlns:xlink="http://www.w3.org/1999/xlink" version="1.1" viewBox="-10 0 1090 1000">
   <path fill="currentColor"
d="M580 281q22 2 22 21q0 1 5 7t6 10q5 2 17.5 21.5t12.5 31.5q0 37 -50 92q54 29 95 94t41 143q0 63 -39.5 102t-71.5 39q-46 0 -103.5 -78.5t-57.5 -154.5q0 -43 18 -74.5t54 -66.5q-60 -46 -60 -88q0 -94 111 -99zM670 606q-11 -27 -30.5 -50t-33 -33t-42.5 -30
q-71 67 -71 118q0 54 47 123t72 69q9 0 21.5 -7t16.5 -11q37 -30 37 -90q0 -40 -17 -89zM602 376v-1q1 -1 1 -2q0 -32 -19 -45l-11 -6q-63 3 -63 54q0 32 46 64q32 -34 46 -64z" />
</svg>
