<?xml version="1.0" standalone="no"?>
<!DOCTYPE svg PUBLIC "-//W3C//DTD SVG 1.1//EN" "http://www.w3.org/Graphics/SVG/1.1/DTD/svg11.dtd" >
<svg xmlns="http://www.w3.org/2000/svg" xmlns:xlink="http://www.w3.org/1999/xlink" version="1.1" viewBox="-10 0 1090 1000">
   <path fill="currentColor"
d="M609 333q-15 0 -49 1.5t-51 1.5q-27 0 -51 -3q2 30 2 46q0 27 -11 71q45 -12 81 -12q76 0 118.5 49t42.5 99q0 29 -9.5 63t-28 67.5t-51 55.5t-73.5 22q-65 0 -131.5 -40t-66.5 -89q0 -18 10.5 -38.5t23.5 -20.5q8 0 13.5 6t5.5 15q0 5 -6 15.5t-6 16.5q0 40 50 66
t103 26t89.5 -48t36.5 -108q0 -54 -37 -85t-89 -31q-14 0 -92 13l-12 5q-19 0 -21 -21q1 -4 10.5 -39t9.5 -59q0 -1 -3 -58q-5 -7 -5 -13q0 -8 8.5 -15.5t16.5 -7.5q7 0 13 6q42 3 157 3q10 0 16 6.5t6 13.5q0 17 -20 20z" />
</svg>
