<?xml version="1.0" standalone="no"?>
<!DOCTYPE svg PUBLIC "-//W3C//DTD SVG 1.1//EN" "http://www.w3.org/Graphics/SVG/1.1/DTD/svg11.dtd" >
<svg xmlns="http://www.w3.org/2000/svg" xmlns:xlink="http://www.w3.org/1999/xlink" version="1.1" viewBox="-10 0 1090 1000">
   <path fill="currentColor"
d="M530 457q5 -17 20.5 -17t19.5 18l-3 78q52 2 78 2q21 2 22 19.5t-20 20.5q-28 0 -82 -2q-13 196 -15 261q-2 13 -11.5 18t-18.5 -0.5t-10 -18.5q1 -63 15 -262q-6 0 -18 -0.5t-17 -0.5l-127 3q-65 -3 -74 -28q0 -15 11 -23q47 -21 36 -21q25 -22 46 -59q47 -87 56 -158
q5 -17 20.5 -17t19.5 18q-8 63 -38.5 136t-71.5 112q22 1 63 -1t57 -2q6 0 19 0.5t20 0.5z" />
</svg>
