<?xml version="1.0" standalone="no"?>
<!DOCTYPE svg PUBLIC "-//W3C//DTD SVG 1.1//EN" "http://www.w3.org/Graphics/SVG/1.1/DTD/svg11.dtd" >
<svg xmlns="http://www.w3.org/2000/svg" xmlns:xlink="http://www.w3.org/1999/xlink" version="1.1" viewBox="-10 0 1090 1000">
   <path fill="currentColor"
d="M554 412q8 -5 15 -5q8 0 13.5 5.5t5.5 13.5q0 16 -26 32.5t-51 16.5q-35 0 -62.5 -28.5t-27.5 -63.5q0 -14 6 -29q40 -89 132 -89q65 0 125.5 50.5t60.5 118.5q0 48 -12 90q-16 56 -63.5 126.5t-114 128.5t-123.5 70q-60 13 -72 13q-21 0 -21 -19q0 -12 13.5 -17.5
t36 -8.5t30.5 -6q101 -36 193.5 -146t92.5 -214q0 -20 -15 -69q-8 -25 -49.5 -52.5t-76.5 -27.5q-24 0 -63.5 24t-39.5 58q0 20 16 35.5t36 15.5q7 0 13.5 -2.5t9.5 -5t9.5 -8t8.5 -7.5z" />
</svg>
