<?xml version="1.0" standalone="no"?>
<!DOCTYPE svg PUBLIC "-//W3C//DTD SVG 1.1//EN" "http://www.w3.org/Graphics/SVG/1.1/DTD/svg11.dtd" >
<svg xmlns="http://www.w3.org/2000/svg" xmlns:xlink="http://www.w3.org/1999/xlink" version="1.1" viewBox="-10 0 1090 1000">
   <path fill="currentColor"
d="M523 394q22 2 22 20q0 13 -7 15q-7 5 -10 5q42 24 51 35q4 5 17 19.5t20 25.5t11 23q24 72 24 118q0 73 -54 111q-55 39 -117 39q-94 0 -168 -77q-21 -22 -29 -53q-9 -36 -9 -52q2 -19 3.5 -31t2 -14.5t0.5 -3.5q10 -59 64 -102q3 -2 22.5 -15.5t26.5 -17.5t22 -12.5
t26.5 -11.5t23.5 -3q26 -9 58 -18zM497 462q-25 -7 -36 -7q-115 42 -142 128q-7 20 -7 41q0 60 50.5 99.5t115.5 39.5q53 0 94 -29q42 -30 42 -89q0 -57 -35.5 -112.5t-81.5 -70.5z" />
</svg>
