<?xml version="1.0" standalone="no"?>
<!DOCTYPE svg PUBLIC "-//W3C//DTD SVG 1.1//EN" "http://www.w3.org/Graphics/SVG/1.1/DTD/svg11.dtd" >
<svg xmlns="http://www.w3.org/2000/svg" xmlns:xlink="http://www.w3.org/1999/xlink" version="1.1" viewBox="-10 0 1090 1000">
   <path fill="currentColor"
d="M561 227q8 -5 15 -5q8 0 13.5 5.5t5.5 13.5q0 9 -7 16q-71 71 -76 77q-39 45 -58.5 69.5t-47 66.5t-39.5 83.5t-12 87.5q0 83 50 112q16 10 47.5 15.5t55.5 5.5l24 1q82 -15 86 -18q2 -2 5 -8q12 -26 -22.5 -68t-70.5 -71q-3 -2 -6 -4.5t-5 -4.5t-4 -3.5t-4 -2.5
q-9 11 -24.5 21.5t-23.5 10.5t-13.5 -5.5t-5.5 -13.5q0 -9 10 -18l8 -3q7 -6 9 -8q-4 -8 -4 -12q0 -19 24 -19q53 14 96 62q77 87 77 138q0 31 -16 44q-36 27 -124 27q-107 0 -142 -33q-70 -67 -70 -146q0 -49 28 -120.5t67 -126.5q15 -22 36.5 -46.5t35.5 -38.5t43.5 -43
t38.5 -38z" />
</svg>
