<?xml version="1.0" standalone="no"?>
<!DOCTYPE svg PUBLIC "-//W3C//DTD SVG 1.1//EN" "http://www.w3.org/Graphics/SVG/1.1/DTD/svg11.dtd" >
<svg xmlns="http://www.w3.org/2000/svg" xmlns:xlink="http://www.w3.org/1999/xlink" version="1.1" viewBox="-10 0 1090 1000">
   <path fill="currentColor"
d="M649 335q-23 0 -71 -2.5t-72 -3.5q-2 86 -8 128h14q138 0 182 82q30 56 30 97q0 59 -20 112.5t-65 66.5q-24 7 -57 7q-94 0 -128 -62q-28 -50 -28 -82q0 -15 7.5 -27t21.5 -12q9 0 14.5 6t5.5 14q0 3 -2.5 12t-2.5 15q0 42 36 71t81 29q35 0 58.5 -24.5t32 -55t8.5 -61.5
q0 -76 -51 -112t-131 -36q-20 0 -30 1q-18 -4 -19 -22q6 -35 11 -155q-3 -3 -3 -10.5t2 -10.5q8 -9 13 -10.5t21 -0.5q146 6 148 6q10 1 16 7t6 13q0 17 -20 20zM310 346q0 -2 0.5 -5.5t0.5 -4.5q-6 -23 -6 -28q0 -18 20 -18q27 0 27 56q0 16 -3.5 42t-3.5 31
q-2 36 -8.5 109.5t-10 131t-4.5 110.5q-3 20 -21 20q-17 0 -19 -21q1 -53 4.5 -110.5t10 -131t8.5 -109.5q5 -58 5 -72z" />
</svg>
