<?xml version="1.0" standalone="no"?>
<!DOCTYPE svg PUBLIC "-//W3C//DTD SVG 1.1//EN" "http://www.w3.org/Graphics/SVG/1.1/DTD/svg11.dtd" >
<svg xmlns="http://www.w3.org/2000/svg" xmlns:xlink="http://www.w3.org/1999/xlink" version="1.1" viewBox="-10 0 1090 1000">
   <path fill="currentColor"
d="M613 434q7 -11 18 -11q8 0 13.5 6t5.5 15t-3 27t-3 27t0.5 27t0.5 28q0 15 -1 23q11 2 28 3.5t29 3t24 4t18 7.5t6 12q0 17 -20 20q-25 -1 -89 -12q-15 61 -21.5 104.5t-7 70.5t-1.5 32q1 20 -18 20q-18 0 -19 -21q1 -32 5 -66t11.5 -80.5t10.5 -65.5q-61 -9 -96 -9
q-23 0 -48.5 8t-33.5 8q-26 0 -26 -20q0 -11 11 -25q30 -54 42.5 -79t28 -69.5t18.5 -86.5q5 -17 20 -17q16 0 20 18q-8 93 -67 203l-13 25q24 -6 51 -6q37 0 97 11q1 -9 1 -27q0 -8 -0.5 -22t-0.5 -22q0 -37 9 -64zM338 316q5 -17 20 -17q16 0 20 18q-6 245 -78 513
q-6 13 -18 13q-8 0 -14 -6t-7 -15q71 -265 77 -506z" />
</svg>
