<?xml version="1.0" standalone="no"?>
<!DOCTYPE svg PUBLIC "-//W3C//DTD SVG 1.1//EN" "http://www.w3.org/Graphics/SVG/1.1/DTD/svg11.dtd" >
<svg xmlns="http://www.w3.org/2000/svg" xmlns:xlink="http://www.w3.org/1999/xlink" version="1.1" viewBox="-10 0 1090 1000">
   <path fill="currentColor"
d="M345 311q5 -17 20 -17t20 18q0 183 -8 274q-2 16 -9 66.5t-7 77.5q0 39 10 70q1 3 1 7q0 19 -19 19q-32 0 -32 -98q0 -24 16 -143q9 -64 9 -155q0 -20 -0.5 -60t-0.5 -59zM657 474q15 4 15 18q0 18 -20 21q-23 -5 -35 -8.5t-30.5 -12.5t-28 -20t-17 -30.5t-7.5 -45.5
q0 -43 27.5 -77.5t68.5 -34.5q6 0 18 2q137 27 137 170q0 73 -33 160.5t-75 148.5q-19 29 -51 51.5t-63 22.5q-9 0 -15 -6t-6 -14q0 -11 10 -16.5t26 -9.5t23 -9q68 -45 105.5 -145.5t37.5 -179.5q0 -51 -26.5 -92.5t-78.5 -41.5q-29 0 -47.5 22t-18.5 51q0 47 41 66
q8 3 23 6z" />
</svg>
