<?xml version="1.0" standalone="no"?>
<!DOCTYPE svg PUBLIC "-//W3C//DTD SVG 1.1//EN" "http://www.w3.org/Graphics/SVG/1.1/DTD/svg11.dtd" >
<svg xmlns="http://www.w3.org/2000/svg" xmlns:xlink="http://www.w3.org/1999/xlink" version="1.1" viewBox="-10 0 1090 1000">
   <path fill="currentColor"
d="M699 307q3 -1 8 -1q9 0 14.5 5.5t5.5 13.5q0 13 -13 19q-58 28 -109.5 125t-51.5 182q0 52 29 92t67 40q34 0 66.5 -39.5t32.5 -74.5q0 -19 -12 -27t-40 -8q-7 0 -20.5 3t-18.5 3l-17 -3l-1 -2q-1 -2 -3 -6.5t-2 -8.5q0 -27 62 -27q92 0 92 75q0 51 -40.5 102t-86.5 51
q-37 0 -72.5 -17.5t-47.5 -49.5l-25 -66q-5 -12 -5 -31q0 -86 42 -173.5t107 -155.5q4 -5 10.5 -8.5t15.5 -7t13 -5.5zM328 313q0 -24 19 -24q18 0 21 18q1 3 9.5 32.5t9.5 53.5v44q0 72 -8 205t-9 188q-3 20 -21 20q-17 0 -19 -21q1 -55 9 -186.5t8 -203.5v-43
q-1 -16 -9.5 -43t-9.5 -40z" />
</svg>
