<?xml version="1.0" standalone="no"?>
<!DOCTYPE svg PUBLIC "-//W3C//DTD SVG 1.1//EN" "http://www.w3.org/Graphics/SVG/1.1/DTD/svg11.dtd" >
<svg xmlns="http://www.w3.org/2000/svg" xmlns:xlink="http://www.w3.org/1999/xlink" version="1.1" viewBox="-10 0 1090 1000">
   <path fill="currentColor"
d="M573 410q17 -17 65 -38q-22 2 -29 2q-18 -3 -18 -20q0 -4 1.5 -7.5t5 -6t7 -4t9 -2.5t10 -1.5t12 -0.5h12h12.5h12q114 0 140 67q26 72 26 144q0 98 -47 166q-19 27 -48 47.5t-60 20.5q-66 0 -88 -8q-107 -41 -107 -153q0 -70 37 -149q4 -10 12 -19.5t19.5 -21zM689 378
q-72 24 -117 92.5t-45 135.5q0 57 32.5 94.5t96.5 37.5q68 0 106 -60t38 -147q0 -62 -19 -107.5t-51 -51.5q-11 -1 -13.5 0t-10 3t-17.5 3zM333 347q5 -17 20 -17t20 18q1 72 5 216t4 216q-3 20 -21 20q-7 0 -13 -5.5t-6 -15.5q-1 -62 -4.5 -207.5t-4.5 -224.5z" />
</svg>
