<?xml version="1.0" standalone="no"?>
<!DOCTYPE svg PUBLIC "-//W3C//DTD SVG 1.1//EN" "http://www.w3.org/Graphics/SVG/1.1/DTD/svg11.dtd" >
<svg xmlns="http://www.w3.org/2000/svg" xmlns:xlink="http://www.w3.org/1999/xlink" version="1.1" viewBox="-10 0 1090 1000">
   <path fill="currentColor"
d="M444 425q-6 3 -12 3q-19 0 -19 -19q0 -7 4 -14q13 -10 31.5 -30.5t32 -36t34.5 -28t44 -12.5q60 0 60 109q0 81 -48 160q49 21 80.5 63.5t31.5 88.5t-37.5 85.5t-103.5 39.5q-63 0 -114 -34t-51 -88q0 -49 25 -49q7 0 13.5 6t6.5 17q0 4 -2 10.5t-2 10.5q0 39 37.5 64
t84.5 25t73 -27t26 -63q0 -41 -28.5 -77.5t-69.5 -44.5q-35 23 -63 23q-30 0 -30 -33q4 -12 21 -21.5t32 -9.5q10 0 28 2q23 -23 38 -65t15 -82q0 -68 -28 -68q-16 0 -40.5 21.5t-46.5 47t-23 26.5zM261 313q5 -17 20 -17t20 18q-2 28 -11 80.5t-11 78.5q-2 29 -2.5 99.5
t-4.5 108.5q-1 12 -8.5 37.5t-8.5 39.5q-1 20 -21 20q-7 0 -13 -5.5t-6 -15.5q0 -15 8 -40.5t9 -36.5q4 -38 4.5 -108.5t2.5 -99.5q2 -26 11 -78.5t11 -80.5z" />
</svg>
