<?xml version="1.0" standalone="no"?>
<!DOCTYPE svg PUBLIC "-//W3C//DTD SVG 1.1//EN" "http://www.w3.org/Graphics/SVG/1.1/DTD/svg11.dtd" >
<svg xmlns="http://www.w3.org/2000/svg" xmlns:xlink="http://www.w3.org/1999/xlink" version="1.1" viewBox="-10 0 1090 1000">
   <path fill="currentColor"
d="M546 416h-4q-21 0 -21 -19q0 -9 11 -16t29 -16t29 -21q3 -14 5.5 -21.5t8.5 -13.5t15 -6q1 -3 3.5 -9t3 -8t2.5 -5.5t4 -5t5 -2.5t7 -1q18 0 18 21q0 26 -28 62q0 18 -11 154q-1 7 -2 28t-2.5 38t-3.5 43t-4.5 47t-5.5 45t-7.5 42t-9 33.5t-10.5 23.5t-13 8q-8 0 -14 -6
t-7 -15q8 -27 14 -59t9.5 -55.5t7.5 -62.5t5 -56.5t4 -62.5t4 -57q0 -3 -0.5 -18.5t-0.5 -26.5q-23 14 -41 18zM333 423q-7 7 -16 7q-19 0 -19 -19q0 -18 37 -50.5t41 -38.5q9 -24 25 -24q7 0 12.5 6t5.5 15l-4 14q-3 69 -21 208t-21 210q-3 20 -21 20t-19 -21
q2 -69 18.5 -196t20.5 -173q-30 26 -39 42z" />
</svg>
