<?xml version="1.0" standalone="no"?>
<!DOCTYPE svg PUBLIC "-//W3C//DTD SVG 1.1//EN" "http://www.w3.org/Graphics/SVG/1.1/DTD/svg11.dtd" >
<svg xmlns="http://www.w3.org/2000/svg" xmlns:xlink="http://www.w3.org/1999/xlink" version="1.1" viewBox="-10 0 1090 1000">
   <path fill="currentColor"
d="M530 444q-6 13 -18 13q-8 0 -14 -6t-7 -15q12 -40 31 -61q23 -26 60.5 -46.5t71.5 -20.5t57 25.5t23 76.5q0 69 -44 154t-93 135q46 3 105 13q10 2 51.5 14t64.5 13q10 1 16 7t6 13q0 17 -20 20q-47 -2 -114 -26q-64 -13 -146 -15q-38 34 -57 34q-15 0 -32 -18.5
t-17 -24.5q0 -33 56 -33q5 0 15 0.5t14 0.5q63 -60 109 -136t46 -142q0 -72 -41 -72q-32 0 -73 33t-50 64zM376 313q5 -17 20 -17q16 0 20 18q-2 50 -11.5 102.5t-25.5 118.5t-23 101q-3 12 -3 37q0 16 2.5 45.5t2.5 39.5q-3 20 -21 20q-24 0 -23 -98v-11q0 -63 30 -180
t32 -176z" />
</svg>
