<?xml version="1.0" standalone="no"?>
<!DOCTYPE svg PUBLIC "-//W3C//DTD SVG 1.1//EN" "http://www.w3.org/Graphics/SVG/1.1/DTD/svg11.dtd" >
<svg xmlns="http://www.w3.org/2000/svg" xmlns:xlink="http://www.w3.org/1999/xlink" version="1.1" viewBox="-10 0 1090 1000">
   <path fill="currentColor"
d="M638 278q22 -2 37 -2t20 1t10.5 4t6.5 3q41 19 41 63q0 6 -2 22q-4 19 -58 60t-67 57l147 113q10 11 14.5 17t9.5 14t6.5 10t3 10.5t1.5 11.5t0.5 16.5t0.5 21.5q-13 56 -44 73t-103 21q-58 0 -88.5 -53.5t-30.5 -111.5q0 -35 11 -76t25 -66q-24 -43 -24 -90
q0 -97 83 -119zM610 529l-4 -4q-23 54 -23 112q0 50 22 83.5t67 33.5q49 0 72 -15.5t23 -52.5q0 -36 -27 -62.5t-70.5 -52t-59.5 -42.5zM345 294q5 -17 20 -17t20 18q1 109 12 219q1 15 4.5 44t5.5 52.5t2 44.5q0 19 -6 54t-6 52q-3 20 -21 20q-7 0 -13 -5.5t-6 -15.5
q0 -16 6 -48.5t6 -49.5q0 -21 -11 -142q-12 -152 -13 -226zM610 332q-14 15 -14 60q0 27 11 58q9 -9 38.5 -32t51 -43t21.5 -30q0 -14 -14 -23t-24.5 -10.5t-17.5 -1.5l-41 13z" />
</svg>
