<?xml version="1.0" standalone="no"?>
<!DOCTYPE svg PUBLIC "-//W3C//DTD SVG 1.1//EN" "http://www.w3.org/Graphics/SVG/1.1/DTD/svg11.dtd" >
<svg xmlns="http://www.w3.org/2000/svg" xmlns:xlink="http://www.w3.org/1999/xlink" version="1.1" viewBox="-10 0 1090 1000">
   <path fill="currentColor"
d="M498 608q-1 0 -8 -1l-8 -1q-5 0 -7.5 -1.5t-2.5 -3t0.5 -6t0.5 -6.5q0 -33 198 -55q18 -27 46.5 -90t49.5 -94q-38 6 -98 6q-39 0 -111 -4.5t-103 -4.5q-18 -3 -18 -20q0 -16 16 -20q25 0 100 4.5t117 4.5q93 0 151 -19q3 -1 8 -1q9 0 14.5 5.5t5.5 13.5q0 2 -5 8t-10 11
l-5 5q-14 8 -40 42q-4 4 -11 22.5t-18 47t-24 51.5l-15 27l44 -3q10 1 16 7t6 13q0 8 -6.5 13t-18 7t-22 2.5t-25.5 1t-21 1.5l-37 59q-35 56 -50.5 95t-28.5 103q-2 4 -4 10l-2.5 7.5t-2.5 4t-4.5 3t-6.5 0.5q-8 0 -14 -6t-7 -15q30 -141 105 -254q-72 12 -144 30zM342 313
q5 -17 20 -17q16 0 20 18q-4 92 -36 272.5t-36 272.5q-3 20 -21 20q-17 0 -19 -21q4 -92 36 -272.5t36 -272.5z" />
</svg>
