<?xml version="1.0" standalone="no"?>
<!DOCTYPE svg PUBLIC "-//W3C//DTD SVG 1.1//EN" "http://www.w3.org/Graphics/SVG/1.1/DTD/svg11.dtd" >
<svg xmlns="http://www.w3.org/2000/svg" xmlns:xlink="http://www.w3.org/1999/xlink" version="1.1" viewBox="-10 0 1090 1000">
   <path fill="currentColor"
d="M578 288q10 1 16 7t6 13q0 13 -13 19q-56 10 -56 49q0 35 53 86q31 -29 31 -52q0 -18 -15 -33h-2q-13 -7 -13 -18q0 -8 6 -13.5t15 -5.5q23 0 35 27.5t12 50.5q0 37 -39 71q42 38 62.5 58.5t43 58.5t22.5 74q0 30 -14 63t-41 33h-36q-30 0 -94 -23q-85 -31 -85 -147
q0 -24 13.5 -47t27.5 -36.5t38 -33.5q-59 -55 -59 -104q0 -35 24 -62.5t62 -34.5zM223 327q-21 12 -33 21q9 9 9 18t-8.5 19t-16.5 10q-9 0 -23 -15.5t-14 -27.5q0 -23 40.5 -45t59.5 -22q32 0 67.5 28t35.5 76q0 103 -50 210t-127 180q97 -5 119 -5q49 0 94 9q15 3 40 18
t39 18q15 5 15 18q0 18 -20 21q-16 -3 -43 -18t-42 -19q-22 -6 -59 -6q-41 0 -100.5 2.5t-81.5 2.5q-7 0 -12 -1q-18 10 -31 10q-14 0 -21.5 -8t-7.5 -20q0 -25 34 -25q12 0 18 1q57 -33 111 -128.5t74 -164.5q11 -38 11 -75q0 -41 -11.5 -65t-46.5 -24q-2 0 -10 3.5t-9 3.5
zM699 660q-2 -10 -5 -20t-6 -17.5t-9.5 -17t-10.5 -15t-13 -14.5l-13 -13t-15 -13t-14.5 -11.5t-16 -12.5t-15.5 -12q-19 15 -39 33q-6 6 -9 9.5t-6 9.5t-7 12q-3 19 -8 29q1 68 34.5 95t104.5 38q29 -3 31 -3q10 0 14.5 -18.5t4.5 -33.5q0 -9 -2 -25z" />
</svg>
