<?xml version="1.0" standalone="no"?>
<!DOCTYPE svg PUBLIC "-//W3C//DTD SVG 1.1//EN" "http://www.w3.org/Graphics/SVG/1.1/DTD/svg11.dtd" >
<svg xmlns="http://www.w3.org/2000/svg" xmlns:xlink="http://www.w3.org/1999/xlink" version="1.1" viewBox="-10 0 1090 1000">
   <path fill="currentColor"
d="M264 396q-6 13 -18 13q-8 0 -14 -6t-7 -15q1 -6 3 -16.5t4 -18.5t5 -15q18 -39 57 -68t80 -29q50 0 81.5 26.5t31.5 73.5q0 62 -43 141q-36 64 -94 126t-111 92q82 9 162 47q6 3 58.5 34.5t82.5 35.5q15 4 15 18q0 18 -20 21q-25 -4 -50.5 -16t-55.5 -30.5t-47 -26.5
q-98 -45 -196 -47q-7 0 -12.5 0.5t-8.5 0.5t-5 0.5t-3 0.5h-2h-1v-2q-18 -5 -18 -20q0 -10 11 -18q9 -3 20 -7t15.5 -6t11.5 -5t12.5 -6.5t13 -8.5t18.5 -13q73 -54 138 -138t65 -160q0 -74 -55 -74q-24 0 -50.5 12.5t-41.5 28.5q-8 9 -13 15t-8 14t-4 11.5t-3.5 16
t-3.5 18.5zM760 443q5 -17 21 -17q18 0 18 21t-21.5 32t-50.5 11q-52 0 -81 -31t-29 -68q0 -46 32 -86.5t72 -40.5q18 0 43 13.5t40 31.5q48 56 48 167q0 123 -49 209q-13 22 -53.5 69t-54.5 77q-7 7 -16 7q-19 0 -19 -19q0 -7 4 -16.5t11 -19.5t13 -17.5t15 -18.5t12 -14
q57 -72 76.5 -123t19.5 -142q0 -23 -3.5 -47t-12.5 -51.5t-28.5 -44.5t-46.5 -17t-45.5 25t-18.5 55q0 28 18 44.5t70 16.5q15 0 16 -6z" />
</svg>
