<?xml version="1.0" standalone="no"?>
<!DOCTYPE svg PUBLIC "-//W3C//DTD SVG 1.1//EN" "http://www.w3.org/Graphics/SVG/1.1/DTD/svg11.dtd" >
<svg xmlns="http://www.w3.org/2000/svg" xmlns:xlink="http://www.w3.org/1999/xlink" version="1.1" viewBox="-10 0 1090 1000">
   <path fill="currentColor"
d="M322 536l98 2v141l14 21h97v161h-52v-79h-112q-15 0 -30 -15.5t-15 -32.5v-198zM951 148v37l-846 162v-37zM771 702l-115 2q-12 0 -22.5 -17t-10.5 -35v-194h94v137l17 25h98v200h-61v-118zM371 501q-29 0 -45 -18t-16 -42t16 -41.5t45 -17.5q31 0 48 18t17 42t-17 41.5
t-48 17.5zM668 421q-28 0 -44 -18t-16 -42t16 -41.5t44 -17.5q31 0 48.5 17.5t17.5 41.5t-17.5 42t-48.5 18z" />
</svg>
