<?xml version="1.0" standalone="no"?>
<!DOCTYPE svg PUBLIC "-//W3C//DTD SVG 1.1//EN" "http://www.w3.org/Graphics/SVG/1.1/DTD/svg11.dtd" >
<svg xmlns="http://www.w3.org/2000/svg" xmlns:xlink="http://www.w3.org/1999/xlink" version="1.1" viewBox="-10 0 1090 1000">
   <path fill="currentColor"
d="M659 329q10 1 16 7t6 13q0 13 -13 19l-11 3q54 12 86.5 62t32.5 116t-30.5 115.5t-86.5 49.5q-43 0 -90 -28t-71 -64q-18 -27 -18 -73q0 -41 25 -89t61 -84q33 -33 93 -47zM242 422q-6 3 -12 3q-8 0 -14 -5.5t-6 -13.5q0 -3 4 -11q8 -15 19 -26q76 -72 128 -72
q29 0 43.5 25.5t14.5 67.5q0 170 -182 311q31 1 63.5 7t80.5 17.5t60 14.5q99 20 175 23q10 1 16 7t6 13q0 17 -20 20q-68 -3 -189.5 -28t-169.5 -31q-8 -1 -22 -1q-12 0 -35.5 1.5t-34.5 1.5q-18 0 -18 -18q0 -13 10 -20q222 -141 222 -328q0 -42 -22 -42q-19 0 -60 29
q-12 9 -30 29t-27 26zM609 406q-14 0 -28 6q-25 25 -42.5 64t-17.5 78q0 20 6 39q7 22 54.5 52.5t77.5 30.5q36 0 57.5 -42t21.5 -82q0 -65 -37 -108q-9 -11 -18 -18t-21 -11t-16.5 -5t-20.5 -2z" />
</svg>
