<?xml version="1.0" standalone="no"?>
<!DOCTYPE svg PUBLIC "-//W3C//DTD SVG 1.1//EN" "http://www.w3.org/Graphics/SVG/1.1/DTD/svg11.dtd" >
<svg xmlns="http://www.w3.org/2000/svg" xmlns:xlink="http://www.w3.org/1999/xlink" version="1.1" viewBox="-10 0 1090 1000">
   <path fill="currentColor"
d="M753 298q10 1 16 7t6 13q0 11 -9 16t-25.5 8.5t-23.5 6.5q-54 25 -106 86t-79 125q34 -16 45 -16q40 0 71 31t44.5 66t13.5 62q0 65 -74 65q-156 0 -156 -129q0 -20 3 -44q9 -74 78 -156t143 -127q9 -6 29.5 -9.5t23.5 -4.5zM329 420q-4 -51 -15 -75.5t-38 -24.5
q-23 0 -52 15q-4 14 -19 14q-17 0 -19 -21q3 -23 26.5 -36.5t53.5 -13.5q32 0 55 18t33 47t14 54t4 50q0 116 -116 245l-32 34q183 6 331 74q9 7 9 18q-16 17 -18.5 18t-23.5 -8q-144 -63 -338 -63q-10 0 -26.5 4t-25.5 4q-4 0 -9.5 1t-8.5 1t-8 -3t-11 -9q0 -23 8.5 -30.5
t30.5 -7.5h22q24 -10 60 -48q56 -59 85 -113t29 -120q0 -16 -1 -24zM554 593q-7 3 -16 3q-14 0 -17 -7l-3 12q-6 26 -6 39q0 42 32 64.5t85 22.5q36 0 36 -21q0 -38 -25.5 -79.5t-60.5 -41.5q-5 0 -9.5 1.5l-7.5 2.5t-5 2.5t-3 1.5z" />
</svg>
