<?xml version="1.0" standalone="no"?>
<!DOCTYPE svg PUBLIC "-//W3C//DTD SVG 1.1//EN" "http://www.w3.org/Graphics/SVG/1.1/DTD/svg11.dtd" >
<svg xmlns="http://www.w3.org/2000/svg" xmlns:xlink="http://www.w3.org/1999/xlink" version="1.1" viewBox="-10 0 2800 1000">
   <path fill="currentColor"
d="M2745 393l1 1h-102q-68 205 -68 222q0 41 25 62t50 22h25l-33 100h-153q-46 0 -79 -41q-53 -69 -23 -162l119 -391h188l-35 102h120zM1223 496l5 -1h220q2 -4 4.5 -10.5t7.5 -25.5t-1 -32q-10 -34 -47 -34h-102h-16q-37 0 -70 30.5t-49 71.5q-25 62 -34 104q-13 50 4 83
q5 10 20.5 15t28.5 5h14h354l-34 100h-339h-117q-24 0 -49 -10.5t-38 -23.5q-49 -46 -34 -134q3 -17 20 -77t30 -94q11 -31 43 -67.5t52 -50.5q56 -36 111 -36h119h168q5 -1 13 -1.5t31 2t42 10t38.5 26.5t29.5 48q0 23 -2 42t-8 40t-10 34t-15 42.5t-17 46.5h-407zM992 309
v-1l-119 391q-3 8 -5 21t6 40t33 39h-737q-29 0 -60.5 -26t-48.5 -74q-14 -41 0 -102l83 -289h188q-85 290 -87 307q-3 30 13 57.5t41 27.5h83q-3 -4 -7 -11.5t-9.5 -26t-1.5 -30.5l102 -324h186q-57 173 -92 278q-9 26 -10 32q-3 21 18 51.5t49 30.5h68l119 -391h188z
M2429 308h-1l-34 85h-368q-43 0 -87 52q-11 13 -19.5 26t-11.5 19l-3 6h456l-33 103l-17 50q-13 36 -25.5 54t-40.5 47q-24 24 -61.5 37.5t-68.5 13.5h-499l34 -100h370q59 0 104 -53q7 -7 11 -19.5t5 -21.5v-9h-457q0 -1 9 -31.5t21.5 -68t20.5 -54.5q9 -20 20.5 -36.5
t20 -26.5t22 -20.5t19.5 -14t20.5 -11t16.5 -8.5q16 -8 37.5 -13t35.5 -6h13h490z" />
</svg>
