<?xml version="1.0" standalone="no"?>
<!DOCTYPE svg PUBLIC "-//W3C//DTD SVG 1.1//EN" "http://www.w3.org/Graphics/SVG/1.1/DTD/svg11.dtd" >
<svg xmlns="http://www.w3.org/2000/svg" xmlns:xlink="http://www.w3.org/1999/xlink" version="1.1" viewBox="-10 0 2912 1000">
   <path fill="currentColor"
d="M400 309l2 3h209q6 0 16.5 0.5t36.5 5t45.5 12.5t36 27t16.5 45q0 28 -17 96l-50 169q-12 46 -76.5 91t-109.5 45h-20h-474l137 -456q17 -52 17 -83q0 -22 -12.5 -36t-25.5 -17l-13 -3h271l-170 493h187q91 0 118 -85l34 -120q11 -47 0 -68q-1 -4 -4 -9.5t-17.5 -15
t-35.5 -9.5h-129zM1726 312l4 -1h271h16.5t37 4t47 11.5t37 26t16.5 43.5q0 15 -2 28.5t-3.5 22t-6.5 25t-7 26.5l-86 306h-184l83 -305q10 -44 0 -68q-16 -34 -50 -34h-187l-137 407h-185l134 -441q1 -5 7.5 -24.5t9 -29.5t5 -25t1 -25t-6.5 -15q-8 -15 -20.5 -23.5
t-21.5 -9.5l-8 -1h270zM893 311h-1h415q5 -1 13 -1.5t30.5 2t41.5 10t39 26.5t29 48q0 36 -13.5 80.5t-105.5 327.5h-168l11 -28q-8 10 -36 19t-43 9h-207q-49 0 -75 -12.5t-42 -38.5q-23 -35 -27.5 -78.5t10.5 -73.5q18 -39 41 -62t61 -41q25 -12 61.5 -20.5t60.5 -11.5
l23 -2h244q12 -30 4.5 -49t-46.5 -19h-346zM2174 311l-1 -1h538q4 -1 11.5 -1t27.5 3t36.5 10.5t35 26t27.5 46.5q12 40 0 102q-3 15 -29.5 91.5t-51.5 145.5l-24 69h-186l103 -305q7 -44 -10 -68q-2 -4 -5.5 -9.5t-18.5 -15t-33 -9.5h-186l-120 407h-185l119 -407
q9 -26 0 -50q-12 -35 -48 -35zM1188 666q17 -21 29.5 -50.5t16.5 -49.5l5 -19h-171q-114 0 -126 70q-6 41 16 63t55 22h92q55 0 83 -36z" />
</svg>
