<?xml version="1.0" standalone="no"?>
<!DOCTYPE svg PUBLIC "-//W3C//DTD SVG 1.1//EN" "http://www.w3.org/Graphics/SVG/1.1/DTD/svg11.dtd" >
<svg xmlns="http://www.w3.org/2000/svg" xmlns:xlink="http://www.w3.org/1999/xlink" version="1.1" viewBox="-10 0 1090 1000">
   <path fill="currentColor"
d="M210 382q-1 0 -6 1.5t-6 1.5q-14 0 -14 -22q0 -10 11 -18q14 -5 46 -37t56 -32q34 0 60 35t26 77q0 86 -91 237q-4 7 -14 26t-17 29q175 18 289 53q8 2 24.5 8t30 10t25.5 6q15 5 15 18q0 18 -20 21q-24 -3 -53 -11t-69 -21.5t-52 -17.5q-31 -5 -66.5 -9.5t-77 -9.5
t-65.5 -8q-2 0 -5.5 1t-6.5 -1l-22 3q-6 2 -19 7.5t-23.5 8.5t-21.5 3q-42 0 -47 -27q0 -35 68 -35q6 0 16 0.5t15 0.5q13 -6 17 -7q50 -60 88.5 -141t38.5 -144q0 -65 -39 -71q-13 0 -45.5 30t-45.5 35zM547 408q-6 13 -18 13q-8 0 -14 -6t-7 -15q11 -41 38 -70t73 -29
q30 0 43 32t13 73q0 103 -90 199q42 5 94.5 47.5t92.5 57.5q18 6 40 6q70 0 101 -26q3 -8 3 -15t6 -13t15 -6q21 0 23 22q0 39 -46 58t-100 19q-42 0 -77 -17.5t-56.5 -38t-53 -38t-66.5 -17.5q-16 0 -40.5 10t-36.5 10q-31 0 -31 -22q0 -4 1.5 -7.5t4.5 -6t6 -4.5t8.5 -4
t8.5 -3.5t10 -2.5t9.5 -1.5t9.5 -2t8 -1.5q49 -35 83.5 -92.5t34.5 -115.5q0 -22 -7 -42.5t-20 -20.5q-16 0 -37 26.5t-26 43.5z" />
</svg>
