<?xml version="1.0" standalone="no"?>
<!DOCTYPE svg PUBLIC "-//W3C//DTD SVG 1.1//EN" "http://www.w3.org/Graphics/SVG/1.1/DTD/svg11.dtd" >
<svg xmlns="http://www.w3.org/2000/svg" xmlns:xlink="http://www.w3.org/1999/xlink" version="1.1" viewBox="-10 0 1090 1000">
   <path fill="currentColor"
d="M311 428q-7 7 -16 7q-8 0 -13.5 -5.5t-5.5 -14.5q0 -6 4 -13q16 -17 32.5 -59t38.5 -67.5t61 -25.5q46 0 74 43t28 98q0 70 -80.5 167.5t-183.5 175.5h15q24 3 53.5 9t67.5 15t60 13q23 5 36.5 7.5t27 4t19.5 1.5t25 0.5t33 0.5q10 1 16 7t6 13q0 17 -20 20
q-84 -2 -197.5 -27t-192.5 -27l-19 11q-6 3 -12 3q-12 -1 -17.5 -6.5t-5.5 -7v-8.5q0 -29 42 -33q108 -72 197.5 -174t89.5 -170q0 -32 -17.5 -65t-47.5 -33q-23 0 -40 26t-32 63.5t-26 50.5zM671 304q5 -17 20 -17t20 18q0 31 1 91t1 91q0 274 -42 274q-8 0 -14 -6t-7 -15
q23 -103 23 -254q0 -30 -1 -90.5t-1 -91.5z" />
</svg>
