<?xml version="1.0" standalone="no"?>
<!DOCTYPE svg PUBLIC "-//W3C//DTD SVG 1.1//EN" "http://www.w3.org/Graphics/SVG/1.1/DTD/svg11.dtd" >
<svg xmlns="http://www.w3.org/2000/svg" xmlns:xlink="http://www.w3.org/1999/xlink" version="1.1" viewBox="-10 0 1090 1000">
   <path fill="currentColor"
d="M519 719q-16 -28 -16 -69q0 -45 17 -95t43 -87q-13 -5 -13 -18q0 -9 23 -29t40 -20q84 0 132 31t106 107q33 45 33 97q0 66 -56.5 101.5t-159.5 35.5q-119 0 -149 -54zM840 662q4 -11 4 -26q0 -53 -52 -112t-111 -78q-4 4 -32 10t-40 18q-23 22 -45 79.5t-22 101.5
q0 43 37.5 60.5t114.5 17.5q121 0 146 -71zM237 380q-7 7 -16 7q-19 0 -19 -19q0 -5 1 -8q15 -37 57 -59.5t87 -22.5t74.5 23t29.5 68q0 59 -38 113.5t-93 93.5q134 51 134 142q-2 24 -5 35q-35 124 -172 124q-84 0 -150.5 -39.5t-66.5 -88.5q0 -57 27 -57q9 0 14.5 6
t5.5 14q0 6 -3 11h1v1q0 1 -3.5 9.5t-3.5 12.5q0 26 32.5 49t73.5 34.5t74 11.5q55 0 95 -36.5t40 -81.5q0 -76 -139 -121q-13 5 -25 5q-13 0 -25 -8t-12 -22q0 -24 29 -24q11 0 33 6q20 -10 48 -36q28 -25 60 -71.5t32 -83.5q0 -23 -15 -37.5t-41 -14.5q-35 0 -72.5 20
t-48.5 44z" />
</svg>
