<?xml version="1.0" standalone="no"?>
<!DOCTYPE svg PUBLIC "-//W3C//DTD SVG 1.1//EN" "http://www.w3.org/Graphics/SVG/1.1/DTD/svg11.dtd" >
<svg xmlns="http://www.w3.org/2000/svg" xmlns:xlink="http://www.w3.org/1999/xlink" version="1.1" viewBox="-10 0 1090 1000">
   <path fill="currentColor"
d="M164 363h-4q-21 0 -21 -19q0 -14 16 -20q17 -4 50 -29.5t54 -26.5q59 0 96.5 43.5t37.5 102.5q0 84 -99 136q60 18 99.5 55t39.5 87q0 76 -73.5 131t-161.5 55q-62 0 -113.5 -30.5t-51.5 -87.5q0 -30 30 -30q28 0 28 20q0 17 -19 20q2 31 42.5 49.5t75.5 18.5
q77 0 140.5 -47.5t63.5 -102.5q0 -37 -41 -70.5t-119 -40.5q-37 16 -63 16q-28 0 -28 -24q0 -15 23.5 -23t47.5 -8h8q49 -12 92.5 -50t43.5 -84q0 -31 -29 -63.5t-58 -32.5q-22 0 -56 25.5t-51 29.5zM544 344q5 -17 20 -17q16 0 20 18q0 26 1.5 78.5t1.5 78.5q0 70 -8 125
q-1 3 -12.5 50.5t-11.5 68.5q0 6 2 14t2 11q0 19 -19 19q-25 0 -25 -47q0 -23 11.5 -66.5t13.5 -57.5q7 -56 7 -120q0 -26 -1.5 -78t-1.5 -77z" />
</svg>
