<?xml version="1.0" standalone="no"?>
<!DOCTYPE svg PUBLIC "-//W3C//DTD SVG 1.1//EN" "http://www.w3.org/Graphics/SVG/1.1/DTD/svg11.dtd" >
<svg xmlns="http://www.w3.org/2000/svg" xmlns:xlink="http://www.w3.org/1999/xlink" version="1.1" viewBox="-10 0 1090 1000">
   <path fill="currentColor"
d="M354 414q-14 14 -28 2.5t-3 -28.5q6 -6 20 -23.5t24 -28.5t25 -21.5t29 -12.5q42 -7 69.5 13.5t36 56.5t7 74.5t-11.5 69.5q-15 46 -50 86.5t-81 65.5q16 5 64 24.5t87 31t60 6.5q5 -1 11.5 -6.5t8.5 -6.5q17 -5 25.5 8t-4.5 26q-25 16 -29 18q-38 12 -152 -31t-155 -43
h-1q-11 -2 -15.5 -9.5t-2 -16t11.5 -12.5v-2h5q40 -5 84 -35q107 -70 104 -204v-1q-17 -77 -47 -77q-23 1 -72 54q-3 3 -8 9q-8 9 -12 13zM746 416q2 -8 12 -9t18 6.5t6 20.5q-5 20 -7 26q-3 9 -13 14q-41 7 -67.5 -32t-22 -83t39.5 -52q2 0 9.5 -2t9.5 -2t8.5 -1.5t9 -1.5
t8 -0.5t8.5 0t8 1t8.5 1.5t8 3t8.5 4q8 4 14.5 9t12 12t9.5 12t7.5 15.5t5.5 14.5t5 17t3.5 15.5t3.5 17t3 15.5q48 242 -63 396l-8 10q-8 10 -12 15.5t-13.5 16.5t-16.5 18.5t-15.5 15.5t-16.5 13t-15 7q-21 3 -25 -15t16 -24q8 -2 36 -37q133 -155 104 -353
q0 -3 -2.5 -21.5t-4 -27t-5 -26.5t-8 -29t-10.5 -23.5t-15 -20.5t-20 -12q-36 -7 -48 8t-4 38.5t26 43.5zM201 275q5 -17 20.5 -17t19.5 18q-1 43 -11.5 124t-12.5 119q-2 49 0 246q-2 13 -11.5 18t-18.5 -0.5t-10 -18.5q-2 -197 0 -246q2 -38 12.5 -119t11.5 -124z" />
</svg>
