<?xml version="1.0" standalone="no"?>
<!DOCTYPE svg PUBLIC "-//W3C//DTD SVG 1.1//EN" "http://www.w3.org/Graphics/SVG/1.1/DTD/svg11.dtd" >
<svg xmlns="http://www.w3.org/2000/svg" xmlns:xlink="http://www.w3.org/1999/xlink" version="1.1" viewBox="-10 0 1210 1000">
   <path fill="currentColor"
d="M1041 143v-1h-877q-10 0 -17.5 6.5t-7.5 17.5v561q0 11 7 18.5t18 7.5h877q11 0 18.5 -6.5t7.5 -18.5v-561q0 -9 -8 -16t-18 -8zM1041 800l-1 -1h-877q-29 0 -50 -21t-21 -51v-561q0 -28 21 -48.5t51 -20.5h877q28 0 50.5 20.5t22.5 49.5v561q0 30 -21 50t-52 22z
M468 530v-1q-1 -16 -11 -37q-11 -22 -23 -33l-51 71h85zM510 529h63l-63 -179l-52 74q51 44 52 105zM736 326h-191l64 180zM883 543l2 2q5 11 -1 21q-8 8 -18 8q-12 0 -19 -15l-41 -116q-27 13 -44 39q-17 29 -17 62q0 51 31 82q32 32 83 32q48 0 79 -31q35 -35 35 -83
q0 -46 -35 -81q-34 -34 -80 -34l-15 1zM701 545h1q0 -49 25 -86q25 -36 65 -55l-19 -50l-149 210q-3 11 -20 11h-91q-11 55 -54 93q-43 36 -103 36q-66 0 -113 -47t-47 -113t45 -111q47 -46 115 -46q38 0 70 16l71 -99l-22 -62h-30q-20 0 -20 -21q0 -20 20 -20h116
q20 0 20 21q0 20 -20 20h-42l15 45h276q9 0 16 -7q6 -5 6 -15t-6 -16t-16 -6h-67q-21 0 -21 -21q0 -20 21 -20h67q26 0 45 19t19 45q0 24 -18 45q-18 18 -43 18h-4l21 62l28 -4q66 0 112 46t46 112t-47 113q-45 45 -110 45q-67 0 -112 -46q-46 -46 -46 -112zM329 541h1
l72 -102q-23 -10 -44 -10q-47 0 -83 34q-32 31 -32 81q0 52 32 83q31 32 83 32q42 0 72 -26q28 -25 38 -59h-123q-21 0 -21 -19q0 -9 5 -14z" />
</svg>
