<?xml version="1.0" standalone="no"?>
<!DOCTYPE svg PUBLIC "-//W3C//DTD SVG 1.1//EN" "http://www.w3.org/Graphics/SVG/1.1/DTD/svg11.dtd" >
<svg xmlns="http://www.w3.org/2000/svg" xmlns:xlink="http://www.w3.org/1999/xlink" version="1.1" viewBox="-10 0 609 1000">
   <path fill="currentColor"
d="M303 361q-37 0 -63 -25.5t-26 -63.5t26 -63.5t63 -25.5t63 25.5t26 63.5t-26 63.5t-63 25.5zM200 487l-59 60q-22 22 -42 0q-18 -20 -2 -36l104 -105q22 -22 48 -22h48h12h48q26 0 48 22l104 105q16 16 -2 36q-20 22 -42 0l-60 -60v55h-205v-55zM131 646l67 -67l73 72
l-54 55l61 61q7 7 8 18.5t-10 24.5q-21 21 -43 3l-46.5 -46.5l-49.5 -49.5q-18 -17 -18 -35q0 -24 12 -36zM335 651l73 -72l67 67q12 12 12 36q0 18 -18 35l-49.5 49.5l-46.5 46.5q-22 18 -43 -3q-11 -13 -10 -24.5t8 -18.5l61 -61z" />
</svg>
