<?xml version="1.0" standalone="no"?>
<!DOCTYPE svg PUBLIC "-//W3C//DTD SVG 1.1//EN" "http://www.w3.org/Graphics/SVG/1.1/DTD/svg11.dtd" >
<svg xmlns="http://www.w3.org/2000/svg" xmlns:xlink="http://www.w3.org/1999/xlink" version="1.1" viewBox="-10 0 1477 1000">
   <path fill="currentColor"
d="M259 134l138 -149h108l-136 149h-110zM712 233v109h102q16 0 24.5 -1t20.5 -6t18 -18.5t6 -34.5q0 -22 -10 -34t-18.5 -13.5t-22.5 -1.5h-120zM712 59v99h99q62 0 62 -49q0 -50 -55 -50h-106zM623 416v-431h179q42 0 73 10.5t46.5 23.5t24.5 31t10.5 28.5t1.5 19.5
q0 54 -38 88q49 45 49 111q0 57 -44.5 88t-106.5 31h-195zM1151 233v109h104q15 0 23.5 -1t20.5 -6t18 -18.5t6 -34.5q0 -22 -10 -34t-18.5 -13.5t-22.5 -1.5h-121zM1151 59v99h100q60 0 60 -49q0 -50 -52 -50h-108zM1062 416v-431h178q42 0 73.5 10.5t47 23.5t24.5 31
t10.5 28.5t1.5 19.5q0 59 -39 88q50 44 50 111q0 51 -47 92q-29 27 -102 27h-197zM373 -19l-72 77q-59 0 -101 41.5t-42 100.5q0 57 42 98t101 41q58 0 100 -41t42 -98q0 -48 -31 -87l62 -66q58 66 58 153q0 92 -68.5 160t-162.5 68q-96 0 -164 -67.5t-68 -160.5
q0 -96 68 -163t164 -67q36 0 72 11zM644 972h-310l-101 -104l230 -345h292l-47 75h-177l-65 97h189l-41 67h-186l-64 100h192zM949 972h-229l-108 -129l193 -320h418l-53 75h-277l-159 264h295z" />
</svg>
