<?xml version="1.0" standalone="no"?>
<!DOCTYPE svg PUBLIC "-//W3C//DTD SVG 1.1//EN" "http://www.w3.org/Graphics/SVG/1.1/DTD/svg11.dtd" >
<svg xmlns="http://www.w3.org/2000/svg" xmlns:xlink="http://www.w3.org/1999/xlink" version="1.1" viewBox="-10 0 1090 1000">
   <path fill="currentColor"
d="M536 773l-211 -277v-196h259l95 -158l15 10l-148 249l-12 -7l30 -49h-135v150l137 274l236 -45q16 -7 24 -18.5t27 -51.5h12q-15 96 -63 109l-568 98v-41zM370 270q-28 0 -46.5 -20.5t-18.5 -44.5t18.5 -44.5t46.5 -20.5q30 0 47.5 20t17.5 45t-17.5 45t-47.5 20z
M320 653q-21 0 -35 -15t-14 -34q0 -18 14 -33.5t35 -15.5q22 0 36 15.5t14 33.5q0 19 -13.5 34t-36.5 15z" />
</svg>
