<?xml version="1.0" standalone="no"?>
<!DOCTYPE svg PUBLIC "-//W3C//DTD SVG 1.1//EN" "http://www.w3.org/Graphics/SVG/1.1/DTD/svg11.dtd" >
<svg xmlns="http://www.w3.org/2000/svg" xmlns:xlink="http://www.w3.org/1999/xlink" version="1.1" viewBox="-10 0 960 1000">
   <path fill="currentColor"
d="M650 212q58 -40 126.5 -27.5t108.5 69.5t28.5 126t-68.5 109l-554 387q-57 41 -126.5 29t-109.5 -70q-39 -57 -27 -126t69 -109l212 -148v-169q0 -41 30 -71t72 -30q41 0 71 30t30 71v26zM347 64q0 -33 23 -56t55 -23q33 0 56 23t23 56q0 32 -23 55t-56 23q-32 0 -55 -23
t-23 -55zM689 268l-553 387q-34 24 -41 66t17 76q23 34 64 41.5t76 -17.5l554 -387q34 -24 41 -65.5t-17 -75.5q-25 -35 -65.5 -42t-75.5 17z" />
</svg>
