<?xml version="1.0" standalone="no"?>
<!DOCTYPE svg PUBLIC "-//W3C//DTD SVG 1.1//EN" "http://www.w3.org/Graphics/SVG/1.1/DTD/svg11.dtd" >
<svg xmlns="http://www.w3.org/2000/svg" xmlns:xlink="http://www.w3.org/1999/xlink" version="1.1" viewBox="-10 0 1210 1000">
   <path fill="currentColor"
d="M1070 830v-660q0 -56 -41 -98t-99 -42h-660q-56 0 -98 41.5t-42 98.5v660q0 56 41 98t99 42h660q56 0 97 -40.5t43 -99.5zM1100 830q0 69 -49.5 119.5t-120.5 50.5h-660q-70 0 -120 -49t-50 -121v-660q0 -69 49.5 -119.5t120.5 -50.5h660q68 0 119 50t51 120v660z
M427 346q-4 -28 13 -51.5t45 -28.5t51.5 12t28.5 46l9 58h163q0 30 -11.5 43.5t-37.5 13.5h-104l17 113h195q36 0 47 33l106 297q-71 15 -88 -29l-75 -203h-313zM456 173q0 -30 20 -50t49 -20t49.5 20t20.5 50q0 29 -20.5 49.5t-49.5 20.5q-28 0 -48.5 -20.5t-20.5 -49.5z
M251 657q0 -74 39 -136.5t103 -94.5l8 56q-45 28 -71.5 74.5t-26.5 100.5q0 85 60.5 146t146.5 61q75 0 132 -48.5t71 -121.5h53q-13 94 -85.5 158t-170.5 64q-107 0 -183 -76t-76 -183z" />
</svg>
