<?xml version="1.0" standalone="no"?>
<!DOCTYPE svg PUBLIC "-//W3C//DTD SVG 1.1//EN" "http://www.w3.org/Graphics/SVG/1.1/DTD/svg11.dtd" >
<svg xmlns="http://www.w3.org/2000/svg" xmlns:xlink="http://www.w3.org/1999/xlink" version="1.1" viewBox="-10 0 1712 1000">
   <path fill="currentColor"
d="M1195 440h-33v-141h33q41 0 60 14t19 53q0 74 -79 74zM1224 212h-169v535h107v-224h16q51 0 67 51l52 173h116l-71 -207q-16 -45 -43 -59q39 -13 62 -45t23 -78q0 -74 -43 -110t-117 -36zM792 495h-122v74h125v128h79v-129h128v-72h-128v-129h-82v128zM461 212h-155v535
h108v-204h47q83 0 126.5 -43.5t43.5 -120.5q0 -79 -43.5 -123t-126.5 -44zM443 457h-29v-158h29q42 0 61 19.5t19 60.5q0 78 -80 78zM200 134h1302v684h-1302v-684z" />
</svg>
