<?xml version="1.0" standalone="no"?>
<!DOCTYPE svg PUBLIC "-//W3C//DTD SVG 1.1//EN" "http://www.w3.org/Graphics/SVG/1.1/DTD/svg11.dtd" >
<svg xmlns="http://www.w3.org/2000/svg" xmlns:xlink="http://www.w3.org/1999/xlink" version="1.1" viewBox="-10 0 1210 1000">
   <path fill="currentColor"
d="M648 609l1 180l140 14v68h-378v-68l140 -14v-180q-55 -13 -94.5 -54t-52.5 -97q-5 -22 -5 -53q5 -130 29 -234h344q24 104 29 234q0 31 -5 53q-13 56 -53 97t-95 54zM478 442q8 35 33 61t59 32q32 7 60 0q34 -8 59 -33.5t33 -59.5q3 -12 3 -34q-5 -105 -17 -176h-216
q-13 89 -17 176q0 22 3 34zM1070 830v-660q0 -56 -41 -98t-99 -42h-660q-56 0 -98 41.5t-42 98.5v660q0 56 41 98t99 42h660q56 0 97 -40.5t43 -99.5zM1100 830q0 69 -49.5 119.5t-120.5 50.5h-660q-70 0 -120 -49t-50 -121v-660q0 -69 49.5 -119.5t120.5 -50.5h660
q68 0 119 50t51 120v660z" />
</svg>
