<?xml version="1.0" standalone="no"?>
<!DOCTYPE svg PUBLIC "-//W3C//DTD SVG 1.1//EN" "http://www.w3.org/Graphics/SVG/1.1/DTD/svg11.dtd" >
<svg xmlns="http://www.w3.org/2000/svg" xmlns:xlink="http://www.w3.org/1999/xlink" version="1.1" viewBox="-10 0 1210 1000">
   <path fill="currentColor"
d="M731 552q-14 3 -62 11q-42 5 -68 5q-46 0 -72 -5q-22 -5 -56 -16l-70 190q93 37 198 37q47 0 100 -10q47 -9 97 -27zM601 868q-111 0 -224 -43q-115 -44 -158 -87q-44 -44 -44 -66q0 -20 12 -31q14 -14 31 -14q20 0 50 28q25 25 75 53l107 -299q-23 -7 -38 -7
q-44 0 -80 27q-37 27 -51 65l-75 -52q28 -43 71 -67q43 -25 97 -25q53 0 94 22h183q20 -67 69.5 -116.5t115.5 -49.5q50 0 99 29l-38 36l60 76q9 11 9 25q0 32 -30 32q-20 0 -27 -15l-93 -43q-16 29 -22 68q-5 32 -5 84v19l69 189q39 -23 49 -31q11 -8 34 -29q21 -19 44 -19
q12 0 26 11q13 14 13 37q0 18 -44 64q-44 44 -157 87q-113 42 -222 42zM1070 830v-660q0 -56 -41 -98t-99 -42h-660q-56 0 -98 41.5t-42 98.5v660q0 56 41 98t99 42h660q56 0 97 -40.5t43 -99.5zM1100 830q0 69 -49.5 119.5t-120.5 50.5h-660q-70 0 -120 -49t-50 -121v-660
q0 -69 49.5 -119.5t120.5 -50.5h660q68 0 119 50t51 120v660z" />
</svg>
