<?xml version="1.0" standalone="no"?>
<!DOCTYPE svg PUBLIC "-//W3C//DTD SVG 1.1//EN" "http://www.w3.org/Graphics/SVG/1.1/DTD/svg11.dtd" >
<svg xmlns="http://www.w3.org/2000/svg" xmlns:xlink="http://www.w3.org/1999/xlink" version="1.1" viewBox="-10 0 1210 1000">
   <path fill="currentColor"
d="M980 317l-130 130q-26 28 -68 17q-15 -9 -46 -18q-22 21 -79 81l252 248l-75 75q-121 -131 -180.5 -194t-61.5 -62l-249 256l-72 -71l266 -252q-8 -14 -52 -58h-4q-28 27 -66.5 28t-66.5 -28q-90 -97 -101 -114q-31 -44 -28 -93q15 -69 51 -81q25 -8 48 7l281 283
q40 -36 87 -83l-13 -31q-9 -22 -8 -33q2 -28 15 -41l136 -133q11 11 26 30l-114 110q-6 10 -1 26q4 11 20 19q17 0 28 -10l107 -105l27 28l-114 117q-5 16 4 26q15 21 36 12l11 -4l108 -108zM470 413l-169 -178q-11 -10 -16 -10q-21 13 -21 44q0 54 51 104q11 11 23.5 22.5
t28 25.5t24.5 22q38 13 57 -7zM1070 830v-660q0 -56 -41 -98t-99 -42h-660q-56 0 -98 41.5t-42 98.5v660q0 56 41 98t99 42h660q56 0 97 -40.5t43 -99.5zM1100 830q0 69 -49.5 119.5t-120.5 50.5h-660q-70 0 -120 -49t-50 -121v-660q0 -69 49.5 -119.5t120.5 -50.5h660
q68 0 119 50t51 120v660z" />
</svg>
