<?xml version="1.0" standalone="no"?>
<!DOCTYPE svg PUBLIC "-//W3C//DTD SVG 1.1//EN" "http://www.w3.org/Graphics/SVG/1.1/DTD/svg11.dtd" >
<svg xmlns="http://www.w3.org/2000/svg" xmlns:xlink="http://www.w3.org/1999/xlink" version="1.1" viewBox="-10 0 1090 1000">
   <path fill="currentColor"
d="M894 140v720h-720v-720h720zM380 620q0 63 48.5 101.5t111.5 38.5t111.5 -38.5t48.5 -101.5q0 -102 -86 -127q29 -8 47.5 -45t18.5 -78q0 -62 -40.5 -96t-99.5 -34q-60 0 -100 34t-40 96q0 41 18.5 78t47.5 45q-86 25 -86 127zM490 608q0 -37 10 -54.5t40 -17.5t40 20
t10 54t-9.5 52t-40.5 18q-30 0 -40 -17.5t-10 -54.5zM500 380q0 -70 40 -70t40 70t-40 70t-40 -70z" />
</svg>
