<?xml version="1.0" standalone="no"?>
<!DOCTYPE svg PUBLIC "-//W3C//DTD SVG 1.1//EN" "http://www.w3.org/Graphics/SVG/1.1/DTD/svg11.dtd" >
<svg xmlns="http://www.w3.org/2000/svg" xmlns:xlink="http://www.w3.org/1999/xlink" version="1.1" viewBox="-10 0 1705 1000">
   <path fill="currentColor"
d="M279 746l-137 -223h1408l-142 223q-19 -2 -33 -6t-36.5 -14.5t-36.5 -16.5q-12 -5 -39.5 -16t-38.5 -14.5t-33.5 -7.5t-48.5 -4t-49 4t-34 7.5t-38.5 15t-39.5 15.5q-14 6 -35 15.5t-30.5 13t-27.5 6.5t-42 3t-42 -3t-27.5 -6.5t-30.5 -13t-35 -15.5q-12 -4 -39.5 -15.5
t-38.5 -15t-34 -7.5t-49 -4q-22 0 -38.5 1.5t-33 6.5t-25.5 8t-31 12.5t-33 13.5q-13 5 -36.5 16t-38 15.5t-35.5 5.5zM132 807q12 5 27.5 12t21.5 9.5t17.5 5t23.5 3.5t32 1q24 0 42.5 -3t26.5 -5.5t31.5 -13t34.5 -14.5q12 -5 33 -14t30.5 -12.5t26 -8.5t33.5 -6.5
t38 -1.5t38 1.5t33.5 6.5t26 8.5t30.5 12.5t33 14t29 12.5t25 10.5t21 6.5t27 5t33 1.5q24 0 42.5 -3t26.5 -5.5t31.5 -13t34.5 -14.5q12 -5 33 -14t30.5 -12.5t26 -8.5t33.5 -6.5t38 -1.5q26 0 49 4t33 7t39 15.5t39 16.5q12 5 29 12.5t25 10.5t21.5 6.5t27.5 5t33 1.5
q24 0 40.5 -2.5t24 -5t27.5 -11.5t33 -14q26 -11 42.5 3t12 37t-28.5 32q-11 5 -31.5 13.5t-28.5 11t-23 7t-30.5 5.5t-37.5 1t-37.5 -1t-34.5 -6.5t-25 -7.5t-31.5 -13t-32.5 -14q-13 -5 -35 -15t-30.5 -13t-27 -6t-42.5 -3t-43 3t-27.5 6t-30.5 13t-34 15q-9 4 -28 12
t-26 11t-21.5 7.5t-25 6.5t-26.5 3.5t-34 1.5q-22 0 -38 -1.5t-33.5 -6.5t-25 -7.5t-31.5 -13t-32 -13.5q-12 -5 -34.5 -15t-31.5 -13t-27.5 -6t-42.5 -3t-42.5 3t-27 6t-31.5 13t-34 15q-10 4 -28 12t-25.5 11t-22 7.5t-25 6.5t-26.5 3.5t-34 1.5t-33 -1t-24 -2t-22 -5.5
t-18.5 -6.5t-24 -10t-26.5 -11q-25 -10 -28 -32t13.5 -36t40.5 -4zM532 55l-108 127h243v-127h-135zM735 182h268q12 0 12 -10q0 -6 -3 -12q-16 -20 -56 -56q-38 -34 -54 -44l-19 -5h-148v127zM1128 401q0 -31 22 -53t54 -22q31 0 53 22t22 53q0 30 -22 52t-53 22t-53.5 -22
t-22.5 -52zM421 401q0 -31 22 -53t53 -22t52.5 22t21.5 53q0 30 -21.5 52t-52.5 22t-53 -22t-22 -52zM1412 271v97h-89q-9 -42 -42.5 -69t-76.5 -27q-44 0 -77 27t-42 69h-471q-8 -41 -41.5 -68.5t-76.5 -27.5q-44 0 -77 27.5t-41 68.5h-78v-159q0 -35 30 -65l129 -132
q10 -16 34 -16h390q31 0 44 5t38 28l123 115l259 60q35 8 50 24t15 43z" />
</svg>
