<?xml version="1.0" standalone="no"?>
<!DOCTYPE svg PUBLIC "-//W3C//DTD SVG 1.1//EN" "http://www.w3.org/Graphics/SVG/1.1/DTD/svg11.dtd" >
<svg xmlns="http://www.w3.org/2000/svg" xmlns:xlink="http://www.w3.org/1999/xlink" version="1.1" viewBox="-10 0 1551 1000">
   <path fill="currentColor"
d="M611 345v218h229v-218h-229zM898 345v302h211v-302h-211zM172 271h509l31 -32h267l173 -143l-174 -94h-52q-8 0 -14 -6t-6 -14t5 -13.5t12 -5.5h69l225 131l-174 145h106q91 0 139 38q20 8 29 34q6 22 19 107t13 145q0 25 -6 62t-12 61l-6 25h-1153v-148h85v-218h-85v-74
zM324 345v218h228v-218h-228zM172 778h1194v62h-1194v-62zM1167 563h132q0 -80 -27 -218h-105v218z" />
</svg>
