<?xml version="1.0" standalone="no"?>
<!DOCTYPE svg PUBLIC "-//W3C//DTD SVG 1.1//EN" "http://www.w3.org/Graphics/SVG/1.1/DTD/svg11.dtd" >
<svg xmlns="http://www.w3.org/2000/svg" xmlns:xlink="http://www.w3.org/1999/xlink" version="1.1" viewBox="-10 0 1316 1000">
   <path fill="currentColor"
d="M1031 548q0 -31 -21 -52t-52 -21q-30 0 -51 21t-21 52q0 29 21 50.5t51 21.5t51.5 -21t21.5 -51zM1031 344l-36 -134h-430l-11 134h477zM700 548q0 -30 -22 -51.5t-52 -21.5t-51 21.5t-21 51.5q0 29 21.5 50.5t50.5 21.5q30 0 52 -21.5t22 -50.5zM840 121q0 -25 -19 -43
t-45 -18t-44 18t-18 43q0 27 18 45t44 18t45 -18t19 -45zM447 595v-153q-49 125 -162 166q-69 24 -134 29v46q189 0 296 -88zM1090 542q0 37 -8.5 72t-34 67t-63.5 41l-31 75q95 33 177 90v58h-59q-164 -145 -452 -145q106 38 185 145h-112q-107 -145 -322 -145h-342v-34h98
v-25q-13 -8 -13 -18v-115q0 -8 5.5 -13.5t13.5 -5.5q92 -15 145 -35.5t93.5 -66.5t64 -109.5t52.5 -180.5q25 -102 58 -132.5t125 -30.5h177q89 0 126 31t68 132q42 140 47 176q2 19 2 44v125z" />
</svg>
