<?xml version="1.0" standalone="no"?>
<!DOCTYPE svg PUBLIC "-//W3C//DTD SVG 1.1//EN" "http://www.w3.org/Graphics/SVG/1.1/DTD/svg11.dtd" >
<svg xmlns="http://www.w3.org/2000/svg" xmlns:xlink="http://www.w3.org/1999/xlink" version="1.1" viewBox="-10 0 1210 1000">
   <path fill="currentColor"
d="M1070 830v-660q0 -56 -41 -98t-99 -42h-660q-56 0 -98 41.5t-42 98.5v660q0 56 41 98t99 42h660q56 0 97 -40.5t43 -99.5zM1100 830q0 69 -49.5 119.5t-120.5 50.5h-660q-70 0 -120 -49t-50 -121v-660q0 -69 49.5 -119.5t120.5 -50.5h660q68 0 119 50t51 120v660z
M889 774q0 -19 13 -31.5t32 -12.5q18 0 31 12.5t13 31.5q0 18 -13 31t-31 13q-19 0 -32 -13t-13 -31zM199 698v-258q0 -35 25 -60.5t61 -25.5h644q35 0 60.5 25.5t25.5 60.5v258h-243l-31 31h-268l-32 -31h-242zM768 774q0 -19 13 -31.5t32 -12.5q18 0 31 12.5t13 31.5
q0 18 -13 31t-31 13q-19 0 -32 -13t-13 -31zM357 774q0 -19 13 -31.5t31 -12.5q19 0 32 12.5t13 31.5q0 18 -13 31t-32 13q-18 0 -31 -13t-13 -31zM236 774q0 -19 13 -31.5t31 -12.5q19 0 32 12.5t13 31.5q0 18 -13 31t-32 13q-18 0 -31 -13t-13 -31zM366 497l62 -72h78v72
h-140zM699 497h-154v-72h85l11 3q11 7 30 25q18 16 33 32l1 3q1 2 1 4q0 5 -7 5zM770 623q0 17 13 30t31 13t30.5 -13t12.5 -30q0 -18 -12.5 -30.5t-30.5 -12.5t-31 12.5t-13 30.5zM365 623q0 17 12.5 30t30.5 13q17 0 29.5 -13t12.5 -30q0 -18 -12.5 -30.5t-29.5 -12.5
q-18 0 -30.5 12.5t-12.5 30.5zM934 604v-55q0 -29 -38 -39l-149 -35l-70 -65q-15 -13 -22 -16t-25 -3h-224q-15 0 -20 9l-74 75q-17 19 -17 38v91h45q5 -24 24 -39.5t44 -15.5t44 16t23 39h271q5 -24 24 -39.5t44 -15.5t44 16t24 39h52z" />
</svg>
