<?xml version="1.0" standalone="no"?>
<!DOCTYPE svg PUBLIC "-//W3C//DTD SVG 1.1//EN" "http://www.w3.org/Graphics/SVG/1.1/DTD/svg11.dtd" >
<svg xmlns="http://www.w3.org/2000/svg" xmlns:xlink="http://www.w3.org/1999/xlink" version="1.1" viewBox="-30 0 570 1000">
   <path fill="currentColor"
d="M-20 860v-720h420v720h-420zM280 600q0 29 -24.5 49.5t-55.5 20.5q-30 0 -53.5 -15t-26.5 -35h-100q3 58 55.5 104t124.5 46q76 0 128 -48t52 -122q0 -76 -53 -133t-127 -57q-40 0 -70 20l10 -110h170v-100h-257l-33 330h105q8 -13 14 -19.5t22 -13.5t39 -7
q33 0 56.5 27.5t23.5 62.5z" />
</svg>
