<?xml version="1.0" standalone="no"?>
<!DOCTYPE svg PUBLIC "-//W3C//DTD SVG 1.1//EN" "http://www.w3.org/Graphics/SVG/1.1/DTD/svg11.dtd" >
<svg xmlns="http://www.w3.org/2000/svg" xmlns:xlink="http://www.w3.org/1999/xlink" version="1.1" viewBox="-10 0 1871 1000">
   <path fill="currentColor"
d="M1436 740q0 -34 23.5 -57t56.5 -23t56 23t23 57q0 32 -23 55t-56 23t-56.5 -23t-23.5 -55zM199 602v-461q0 -64 45.5 -109t109.5 -45h1153q64 0 109 45t45 109v461h-434l-56 57h-480l-58 -57h-434zM1219 740q0 -34 23.5 -57t56.5 -23t56 23t23 57q0 32 -23 55t-56 23
t-56.5 -23t-23.5 -55zM482 740q0 -34 23.5 -57t56.5 -23t56 23t23 57q0 32 -23 55t-56 23t-56.5 -23t-23.5 -55zM265 740q0 -34 23.5 -57t56.5 -23t56 23t23 57q0 32 -23 55t-56 23t-56.5 -23t-23.5 -55zM499 243l111 -130h139v130h-250zM1095 243h-276v-130h152l20 5
q62 41 113 103q3 6 3 12q0 10 -12 10zM1223 469q0 31 23 53.5t55 22.5t55 -22.5t23 -53.5q0 -32 -23 -54.5t-55 -22.5t-55 22.5t-23 54.5zM496 469q0 31 23 53.5t54 22.5t53.5 -22.5t22.5 -53.5q0 -32 -22 -54.5t-54 -22.5t-54.5 22.5t-22.5 54.5zM1516 435v-100
q0 -54 -67 -69l-267 -62l-127 -118q-26 -24 -39.5 -29t-44.5 -5h-401q-25 0 -35 16l-133 136q-31 31 -31 67v164h80q8 -43 42.5 -71t79.5 -28q44 0 79 28t42 71h485q9 -43 43 -71t79 -28t79.5 28t43.5 71h92z" />
</svg>
