<?xml version="1.0" standalone="no"?>
<!DOCTYPE svg PUBLIC "-//W3C//DTD SVG 1.1//EN" "http://www.w3.org/Graphics/SVG/1.1/DTD/svg11.dtd" >
<svg xmlns="http://www.w3.org/2000/svg" xmlns:xlink="http://www.w3.org/1999/xlink" version="1.1" viewBox="-30 0 570 1000">
   <path fill="currentColor"
d="M-20 860v-720h420v720h-420zM127 472q2 -25 4.5 -40.5t10 -41.5t22.5 -39.5t36 -13.5q41 0 49 49h87q-2 -56 -40.5 -101t-95.5 -45q-79 0 -124.5 68.5t-45.5 191.5q0 125 44.5 192.5t125.5 67.5q68 0 109 -47t41 -113q0 -63 -36.5 -111.5t-100.5 -48.5q-20 0 -30.5 1
t-26 8.5t-29.5 22.5zM130 600q0 -31 20.5 -55.5t49.5 -24.5t49.5 24.5t20.5 55.5t-20.5 55.5t-49.5 24.5t-49.5 -24.5t-20.5 -55.5z" />
</svg>
