<?xml version="1.0" standalone="no"?>
<!DOCTYPE svg PUBLIC "-//W3C//DTD SVG 1.1//EN" "http://www.w3.org/Graphics/SVG/1.1/DTD/svg11.dtd" >
<svg xmlns="http://www.w3.org/2000/svg" xmlns:xlink="http://www.w3.org/1999/xlink" version="1.1" viewBox="-10 0 691 1000">
   <path fill="currentColor"
d="M224 391q7 33 30.5 57.5t56.5 31.5q34 6 57 0q33 -8 56.5 -32.5t31.5 -56.5q3 -12 3 -33q-3 -78 -16 -168h-206q-12 70 -17 168q0 17 4 33zM386 550v172l134 13v65h-361v-65l134 -13v-172q-52 -13 -90 -51.5t-50 -91.5q-6 -32 -5 -52q5 -123 27 -223h329q22 100 27 223
q0 32 -4 52q-12 53 -50.5 91.5t-90.5 51.5z" />
</svg>
