<?xml version="1.0" standalone="no"?>
<!DOCTYPE svg PUBLIC "-//W3C//DTD SVG 1.1//EN" "http://www.w3.org/Graphics/SVG/1.1/DTD/svg11.dtd" >
<svg xmlns="http://www.w3.org/2000/svg" xmlns:xlink="http://www.w3.org/1999/xlink" version="1.1" viewBox="-10 0 1503 1000">
   <path fill="currentColor"
d="M486 542l51 -72q16 17 24 34q10 27 12 38h-87zM437 427q23 0 47 8l-86 120q-5 8 -5 21q0 29 31 29h143q-10 37 -43 65q-39 30 -87 30q-57 0 -98 -39q-39 -42 -39 -98q0 -55 40 -95q38 -41 97 -41zM949 339l18 47q-48 25 -79 69q-32 45 -32 109q0 81 60 141q57 59 141 59
q83 0 141 -58q59 -59 59 -142q0 -84 -57 -141q-60 -60 -143 -60l-31 3l-17 -63q30 -3 49 -24q24 -29 24 -60q0 -32 -25 -59q-26 -26 -61 -26h-82q-32 0 -32 31q0 32 32 32h82q10 0 18 5q5 10 5 17q0 8 -5 15q-8 6 -18 6h-335l-15 -43h44q31 0 31 -31q0 -14 -8 -23t-23 -9
h-142q-30 0 -30 31q0 32 30 32h33l24 68l-81 116q-43 -19 -87 -19q-84 0 -143 59q-58 60 -58 142q0 84 58 142q59 59 143 59q76 0 131 -47q52 -46 67 -112h107q22 0 29 -17zM1066 605q16 0 25 -13q11 -12 4 -30l-47 -132l9 -1q56 0 94 41q42 39 42 94q0 56 -42 97
q-39 39 -94 39q-57 0 -96 -39q-40 -40 -40 -97q0 -42 21 -73q17 -28 46 -45l49 136q7 23 29 23zM898 303l-143 203l-72 -203h215zM575 417l55 -78l71 203h-63q-5 -73 -63 -125zM200 800v-702h1093v702h-1093z" />
</svg>
