<?xml version="1.0" standalone="no"?>
<!DOCTYPE svg PUBLIC "-//W3C//DTD SVG 1.1//EN" "http://www.w3.org/Graphics/SVG/1.1/DTD/svg11.dtd" >
<svg xmlns="http://www.w3.org/2000/svg" xmlns:xlink="http://www.w3.org/1999/xlink" version="1.1" viewBox="-10 0 966 1000">
   <path fill="currentColor"
d="M479 254l-178 103v207l178 102l178 -102v-206zM503 211l180 104l23 -13v-126q0 -10 7 -16.5t16 -6.5q11 0 18 6.5t7 16.5v98l104 -60q8 -5 18 -2.5t15 11.5q4 8 1.5 17.5t-10.5 14.5l-104 60l84 50q8 5 11 14t-2 18q-12 20 -33 9l-109 -64l-22 14v209l22 14l109 -64
q21 -10 32 9q12 20 -8 33l-84 48l104 61q19 12 9 33q-5 9 -15 11.5t-18 -2.5l-104 -60v97q0 10 -7.5 17t-17.5 7q-9 0 -16 -7t-7 -17v-126l-24 -13l-179 105v25l108 63q19 12 9 33q-13 22 -34 10l-83 -51v122q0 10 -7 16.5t-17 6.5q-11 0 -18 -6.5t-7 -16.5v-122l-83 51
q-9 5 -18.5 2t-14.5 -12q-12 -21 9 -33l107 -63v-26l-179 -105l-24 14v126q0 9 -6.5 16.5t-16.5 7.5t-17 -7.5t-7 -16.5v-97l-105 60q-20 12 -32 -9t9 -33l103 -61l-84 -48q-20 -13 -8 -33q11 -19 32 -10l109 65l23 -14v-208l-23 -14l-109 63q-20 11 -32 -9q-12 -21 8 -32
l84 -49l-103 -61q-21 -12 -9 -32q12 -21 32 -9l105 60v-98q0 -10 7 -16.5t17 -6.5t16.5 6.5t6.5 16.5v126l24 13l179 -104v-26l-107 -63q-21 -12 -9 -32q13 -22 33 -10l83 50v-121q0 -10 7.5 -17t17.5 -7t17 7t7 17v121l83 -50q9 -5 19.5 -2.5t14.5 11.5q12 19 -9 33
l-108 63v26z" />
</svg>
