<?xml version="1.0" standalone="no"?>
<!DOCTYPE svg PUBLIC "-//W3C//DTD SVG 1.1//EN" "http://www.w3.org/Graphics/SVG/1.1/DTD/svg11.dtd" >
<svg xmlns="http://www.w3.org/2000/svg" xmlns:xlink="http://www.w3.org/1999/xlink" version="1.1" viewBox="-10 0 1210 1000">
   <path fill="currentColor"
d="M705 613q28 2 38 30l73 199q8 18 3 36.5t-22 24.5q-18 7 -33.5 -1.5t-22.5 -27.5l-60 -163h-206q-26 0 -45.5 -18t-24.5 -44l-45 -258q-5 -31 12.5 -57t48.5 -31t57 13t31 49l38 213q7 34 40 34h111zM385 197q0 -29 20.5 -50t49.5 -21t49.5 21t20.5 50t-20.5 49.5
t-49.5 20.5t-49.5 -20.5t-20.5 -49.5zM580 274q0 -21 14.5 -36t36.5 -15q21 0 36 15t15 36t-15 36t-36 15q-22 0 -36.5 -15t-14.5 -36zM680 522l87 1q11 0 19 8l64 64q8 7 8 18t-8 19q-19 17 -38 0l-56 -57h-149q-21 0 -26 -23l-23 -133q-4 -21 8.5 -38.5t33.5 -20.5
q8 -2 13 -1l154 27q8 2 13 9t4 15t-8.5 13t-15.5 3l-100 -17zM1070 830v-660q0 -56 -41 -98t-99 -42h-660q-56 0 -98 41.5t-42 98.5v660q0 56 41 98t99 42h660q56 0 97 -40.5t43 -99.5zM1100 830q0 69 -49.5 119.5t-120.5 50.5h-660q-70 0 -120 -49t-50 -121v-660
q0 -69 49.5 -119.5t120.5 -50.5h660q68 0 119 50t51 120v660z" />
</svg>
