<?xml version="1.0" standalone="no"?>
<!DOCTYPE svg PUBLIC "-//W3C//DTD SVG 1.1//EN" "http://www.w3.org/Graphics/SVG/1.1/DTD/svg11.dtd" >
<svg xmlns="http://www.w3.org/2000/svg" xmlns:xlink="http://www.w3.org/1999/xlink" version="1.1" viewBox="-10 0 1210 1000">
   <path fill="currentColor"
d="M601 230l-425 146v-57l425 -150l423 150v57zM279 598h27q63 0 63 -63q0 -62 -63 -62h-27v125zM756 800v-381h119q52 0 82.5 25t30.5 75q0 37 -20.5 61t-53.5 29q9 2 15 5.5t14 13.5t14 27l49 145h-74l-38 -124q-12 -40 -53 -40h-16v164h-69zM829 585h29q29 0 45.5 -15
t16.5 -43q0 -31 -15 -42.5t-47 -11.5h-29v112zM460 682l-4 -47h98v-94l45 -1v99h94v44h-94v94h-45v-95h-94zM210 800v-381h109q58 0 88.5 30.5t30.5 85.5t-30.5 85.5t-88.5 30.5h-40v149h-69zM1070 830v-660q0 -56 -41 -98t-99 -42h-660q-56 0 -98 41.5t-42 98.5v660
q0 56 41 98t99 42h660q56 0 97 -40.5t43 -99.5zM1100 830q0 69 -49.5 119.5t-120.5 50.5h-660q-70 0 -120 -49t-50 -121v-660q0 -69 49.5 -119.5t120.5 -50.5h660q68 0 119 50t51 120v660z" />
</svg>
