<?xml version="1.0" standalone="no"?>
<!DOCTYPE svg PUBLIC "-//W3C//DTD SVG 1.1//EN" "http://www.w3.org/Graphics/SVG/1.1/DTD/svg11.dtd" >
<svg xmlns="http://www.w3.org/2000/svg" xmlns:xlink="http://www.w3.org/1999/xlink" version="1.1" viewBox="-10 0 1210 1000">
   <path fill="currentColor"
d="M888 774q0 -19 13 -32.5t32 -13.5t32 13.5t13 32.5q0 18 -13 31t-32 13t-32 -13t-13 -31zM769 695l-32 33h-272l-33 -33h-247v-46h831v46h-247zM764 774q0 -19 13.5 -32.5t32.5 -13.5t32 13.5t13 32.5q0 18 -13 31t-32 13t-32.5 -13t-13.5 -31zM346 774q0 -19 13 -32.5
t32 -13.5t32 13.5t13 32.5q0 18 -13 31t-32 13t-32 -13t-13 -31zM222 774q0 -19 13.5 -32.5t32.5 -13.5t32 13.5t13 32.5q0 18 -13 31t-32 13t-32.5 -13t-13.5 -31zM409 387l-62 73h139v-73h-77zM524 460h152q7 0 7 -6q0 -2 -1 -4v-3q-24 -30 -63 -57l-11 -3h-84v73z
M747 584q0 -18 13 -30.5t31 -12.5q17 0 29.5 12.5t12.5 30.5q0 17 -12.5 29.5t-29.5 12.5q-18 0 -31 -12.5t-13 -29.5zM346 584q0 -18 12.5 -30.5t29.5 -12.5q18 0 30 12.5t12 30.5q0 17 -12 29.5t-30 12.5q-17 0 -29.5 -12.5t-12.5 -29.5zM909 510v55h-51q-5 -24 -24 -39
t-43 -15q-25 0 -44 15t-24 39h-268q-4 -23 -23 -38.5t-44 -15.5t-43.5 15.5t-23.5 38.5h-44v-90q0 -20 17 -37l73 -75q6 -9 20 -9h221q18 0 25.5 3t21.5 16l70 65l147 34q37 9 37 38zM1070 830v-660q0 -56 -41 -98t-99 -42h-660q-56 0 -98 41.5t-42 98.5v660q0 56 41 98
t99 42h660q56 0 97 -40.5t43 -99.5zM1100 830q0 69 -49.5 119.5t-120.5 50.5h-660q-70 0 -120 -49t-50 -121v-660q0 -69 49.5 -119.5t120.5 -50.5h660q68 0 119 50t51 120v660z" />
</svg>
