<?xml version="1.0" standalone="no"?>
<!DOCTYPE svg PUBLIC "-//W3C//DTD SVG 1.1//EN" "http://www.w3.org/Graphics/SVG/1.1/DTD/svg11.dtd" >
<svg xmlns="http://www.w3.org/2000/svg" xmlns:xlink="http://www.w3.org/1999/xlink" version="1.1" viewBox="-10 0 1090 1000">
   <path fill="currentColor"
d="M540 90q179 0 299.5 123t120.5 297q0 175 -121.5 297.5t-298.5 122.5q-181 0 -300.5 -122t-119.5 -298q0 -174 120.5 -297t299.5 -123zM170 510q0 154 105 262t265 108q157 0 263.5 -109t106.5 -261q0 -151 -106 -260.5t-264 -109.5t-264 109.5t-106 260.5zM710 600
q0 74 -47 117t-123 43t-123 -43t-47 -117h90q2 31 24 50.5t56 19.5q37 0 58.5 -19.5t21.5 -50.5q0 -29 -24.5 -49.5t-55.5 -20.5h-70v-60h70q31 0 55.5 -20.5t24.5 -49.5t-24.5 -49.5t-55.5 -20.5t-55.5 20.5t-24.5 49.5h-90q0 -74 47 -117t123 -43t123 43t47 117
q0 44 -25.5 69.5t-64.5 25.5v10q39 0 64.5 25.5t25.5 69.5z" />
</svg>
