<?xml version="1.0" standalone="no"?>
<!DOCTYPE svg PUBLIC "-//W3C//DTD SVG 1.1//EN" "http://www.w3.org/Graphics/SVG/1.1/DTD/svg11.dtd" >
<svg xmlns="http://www.w3.org/2000/svg" xmlns:xlink="http://www.w3.org/1999/xlink" version="1.1" viewBox="-10 0 1210 1000">
   <path fill="currentColor"
d="M958 210l47 47l-616 616l-47 -47zM372 524h179l-39 39h-100v40h60l-39 39h-61v-118zM831 524h123v118h-241l39 -39h163v-40h-124zM236 179v38q0 18 24.5 54t24.5 59q0 22 -24.5 58.5t-24.5 54.5v38h-41v-38q0 -20 24 -56.5t24 -56.5t-24 -57t-24 -56v-38h41zM195 524h41
v118h-41v-118zM325 179v38q0 18 24 54t24 59q0 22 -24 58.5t-24 54.5v38h-41v-38q0 -20 24 -56.5t24 -56.5t-24 -57t-24 -56v-38h41zM284 524h41v118h-41v-118zM1070 830v-660q0 -56 -41 -98t-99 -42h-660q-56 0 -98 41.5t-42 98.5v660q0 56 41 98t99 42h660q56 0 97 -40.5
t43 -99.5zM1100 830q0 69 -49.5 119.5t-120.5 50.5h-660q-70 0 -120 -49t-50 -121v-660q0 -69 49.5 -119.5t120.5 -50.5h660q68 0 119 50t51 120v660z" />
</svg>
