<?xml version="1.0" standalone="no"?>
<!DOCTYPE svg PUBLIC "-//W3C//DTD SVG 1.1//EN" "http://www.w3.org/Graphics/SVG/1.1/DTD/svg11.dtd" >
<svg xmlns="http://www.w3.org/2000/svg" xmlns:xlink="http://www.w3.org/1999/xlink" version="1.1" viewBox="-10 0 1090 1000">
   <path fill="currentColor"
d="M540 90q179 0 299.5 123t120.5 297q0 175 -121.5 297.5t-298.5 122.5q-181 0 -300.5 -122t-119.5 -298q0 -174 120.5 -297t299.5 -123zM170 510q0 154 105 262t265 108q157 0 263.5 -109t106.5 -261q0 -151 -106 -260.5t-264 -109.5t-264 109.5t-106 260.5zM630 600
q0 -35 -23.5 -62.5t-56.5 -27.5q-19 0 -42 10t-38 30h-90l23 -290h257v90h-189l-14 100q16 -14 44 -22t49 -8q74 0 122 52t48 128q0 74 -47 117t-123 43q-73 0 -120 -41t-50 -99h90q2 21 24.5 35.5t55.5 14.5q31 0 55.5 -20.5t24.5 -49.5z" />
</svg>
