<?xml version="1.0" standalone="no"?>
<!DOCTYPE svg PUBLIC "-//W3C//DTD SVG 1.1//EN" "http://www.w3.org/Graphics/SVG/1.1/DTD/svg11.dtd" >
<svg xmlns="http://www.w3.org/2000/svg" xmlns:xlink="http://www.w3.org/1999/xlink" version="1.1" viewBox="-10 0 1210 1000">
   <path fill="currentColor"
d="M431 168q0 -22 17 -37.5t41 -15.5t41 15.5t17 37.5t-17 38t-41 16t-41 -16t-17 -38zM689 493q7 8 5 17.5t-10 14.5t-18 2.5t-16 -10.5l-123 -138l-8 145q67 166 69 170l69 178q4 13 -2.5 24t-19.5 14t-24.5 -4t-15.5 -20l-65 -160l-57 -121l-39 115q-1 2 -14 26l-84 148
q-7 12 -20.5 15.5t-25.5 -3.5q-12 -6 -14.5 -18.5t4.5 -24.5l86 -155l44 -176l2 -179l-38 37l-55 122q-10 23 -30 16q-22 -7 -15 -30l57 -125q2 -7 8 -13l87 -98q4 -4 13 -10q15 -6 29 -6q27 0 43 18q2 2 10 14zM1070 830v-660q0 -56 -41 -98t-99 -42h-660q-56 0 -98 41.5
t-42 98.5v660q0 56 41 98t99 42h660q56 0 97 -40.5t43 -99.5zM1100 830q0 69 -49.5 119.5t-120.5 50.5h-660q-70 0 -120 -49t-50 -121v-660q0 -69 49.5 -119.5t120.5 -50.5h660q68 0 119 50t51 120v660z" />
</svg>
