<?xml version="1.0" standalone="no"?>
<!DOCTYPE svg PUBLIC "-//W3C//DTD SVG 1.1//EN" "http://www.w3.org/Graphics/SVG/1.1/DTD/svg11.dtd" >
<svg xmlns="http://www.w3.org/2000/svg" xmlns:xlink="http://www.w3.org/1999/xlink" version="1.1" viewBox="-10 0 1210 1000">
   <path fill="currentColor"
d="M880 182h-64v64h64v-64zM1009 754h-29v64h29v41h-818v-41h35v-64h-35v-508h35v-64h-35v-41h818v41h-29v64h29v508zM389 754h-63v64h63v-64zM553 754h-64v64h64v-64zM717 754h-64v64h64v-64zM880 754h-64v64h64v-64zM389 182h-63v64h63v-64zM553 182h-64v64h64v-64z
M717 182h-64v64h64v-64zM913 497q0 110 -59 110q-28 0 -42.5 -30t-14.5 -74q0 -110 60 -110q28 0 42 30t14 74zM952 497q0 -63 -25.5 -99.5t-69.5 -36.5q-47 0 -72.5 36.5t-25.5 105.5q0 63 25.5 99.5t69.5 36.5q47 0 72.5 -36.5t25.5 -105.5zM286 474l-1 -111h-37v274h37
v-125l86 125h48l-106 -144l98 -129h-45zM487 637v-274h-37v274h37zM680 575l-92 -212h-44v274h36v-210l92 210h44v-274h-36v212zM1070 830v-660q0 -56 -41 -98t-99 -42h-660q-56 0 -98 41.5t-42 98.5v660q0 56 41 98t99 42h660q56 0 97 -40.5t43 -99.5zM1100 830
q0 69 -49.5 119.5t-120.5 50.5h-660q-70 0 -120 -49t-50 -121v-660q0 -69 49.5 -119.5t120.5 -50.5h660q68 0 119 50t51 120v660z" />
</svg>
