<?xml version="1.0" standalone="no"?>
<!DOCTYPE svg PUBLIC "-//W3C//DTD SVG 1.1//EN" "http://www.w3.org/Graphics/SVG/1.1/DTD/svg11.dtd" >
<svg xmlns="http://www.w3.org/2000/svg" xmlns:xlink="http://www.w3.org/1999/xlink" version="1.1" viewBox="-10 0 1090 1000">
   <path fill="currentColor"
d="M890 140v720h-720v-720h720zM605 401q0 74 -97 74h-47v-130h57q44 0 65.5 10.5t21.5 45.5zM615 600q0 68 -108 68h-46v-147h40q114 0 114 79zM688 600q0 -42 -26.5 -69.5t-69.5 -34.5q40 -9 62 -35t22 -67q0 -57 -40.5 -82.5t-101.5 -25.5h-143v438h126q171 0 171 -124z
" />
</svg>
