<?xml version="1.0" standalone="no"?>
<!DOCTYPE svg PUBLIC "-//W3C//DTD SVG 1.1//EN" "http://www.w3.org/Graphics/SVG/1.1/DTD/svg11.dtd" >
<svg xmlns="http://www.w3.org/2000/svg" xmlns:xlink="http://www.w3.org/1999/xlink" version="1.1" viewBox="-10 0 1210 1000">
   <path fill="currentColor"
d="M398 577h582v118h-582v-118zM309 577h41v118h-41v-118zM350 233v37q0 18 24 54.5t24 58.5q0 23 -24 59t-24 54v38h-41v-38q0 -19 24 -56t24 -57t-24 -56.5t-24 -56.5v-37h41zM220 577h42v118h-42v-118zM262 233v37q0 18 24 54.5t24 58.5q0 23 -24 59t-24 54v38h-42v-38
q0 -19 24 -56t24 -57t-24 -56.5t-24 -56.5v-37h42zM940 656v-39h-503v39h503zM1070 830v-660q0 -56 -41 -98t-99 -42h-660q-56 0 -98 41.5t-42 98.5v660q0 56 41 98t99 42h660q56 0 97 -40.5t43 -99.5zM1100 830q0 69 -49.5 119.5t-120.5 50.5h-660q-70 0 -120 -49t-50 -121
v-660q0 -69 49.5 -119.5t120.5 -50.5h660q68 0 119 50t51 120v660z" />
</svg>
