<?xml version="1.0" standalone="no"?>
<!DOCTYPE svg PUBLIC "-//W3C//DTD SVG 1.1//EN" "http://www.w3.org/Graphics/SVG/1.1/DTD/svg11.dtd" >
<svg xmlns="http://www.w3.org/2000/svg" xmlns:xlink="http://www.w3.org/1999/xlink" version="1.1" viewBox="-10 0 3913 1000">
   <path fill="currentColor"
d="M749 690q-1 5 5.5 9t17 6t23.5 2h249q45 0 49 -18l17 -71h-297q-18 0 -33.5 5t-16.5 12zM3302 701l-20 86q0 5 -13.5 10t-31.5 5h-595q-67 0 -109.5 -22t-36.5 -51l68 -305q7 -29 60.5 -50t123.5 -21h468q68 0 112 21t37 50l-41 178q-1 6 -14 11t-31 5h-549l-10 49
q-4 21 42 21h501q13 0 22.5 2.5t13.5 5t3 5.5zM3149 457q3 -21 -43 -21h-285q-50 0 -53 19l-18 77h381zM2315 901q-7 28 -61 50t-123 22q-40 0 -38 -13l132 -594q1 -5 14.5 -9t31.5 -4h123q13 0 23 2t14.5 5t3.5 6zM2434 180q13 0 22.5 2.5t14 5.5t3.5 6l-17 76
q-3 13 -47 13h-124q-12 0 -21 -2t-13.5 -5t-3.5 -6l17 -76q1 -5 14.5 -9.5t31.5 -4.5h123zM1689 353q13 0 22.5 2t14 5t3.5 6l-94 421q-5 15 -47 15h-124q-12 0 -22 -2.5t-14.5 -6t-3.5 -6.5l96 -421q4 -13 45 -13h124zM1729 180q12 0 21.5 2.5t14 5.5t3.5 6l-15 76
q-4 13 -48 13h-124q-12 0 -21.5 -2t-14 -5t-3.5 -6l16 -76q5 -14 47 -14h124zM532 353q12 0 22 2t14.5 5t4.5 6l-18 75q-4 16 -48 16h-109q-47 0 -52 17l-72 313q-1 7 -16 11t-30 4h-123q-12 0 -21.5 -2.5t-14 -5.5t-3.5 -7l94 -421q1 -5 14.5 -9t31.5 -4h326zM3848 366
l-18 75q-1 6 -14 11t-31 5h-52q-49 0 -54 18l-69 312q-2 5 -15 10t-32 5h-124q-12 0 -21.5 -2.5t-14 -6t-3.5 -6.5l133 -541q22 -66 46 -66h124q12 0 21.5 2.5t14.5 5.5t4 6l-35 158h99q13 0 23 2.5t14.5 5.5t3.5 6zM1237 802h-556q-68 0 -111.5 -22t-37.5 -51l28 -125
q6 -29 58.5 -51t119.5 -22h391l14 -58q1 -4 -5 -8t-16.5 -6t-22.5 -2h-409q-13 0 -22.5 -2.5t-14 -6t-3.5 -7.5l3 -9q7 -34 59 -56.5t123 -22.5h379q70 0 113.5 21t36.5 51l-81 362q-2 5 -15 10t-31 5zM2081 180q13 0 22.5 2.5t14 5.5t3.5 6l-133 593q-4 15 -45 15
q-70 0 -114 -22t-38 -51l120 -535q5 -14 46 -14h124z" />
</svg>
