<?xml version="1.0" standalone="no"?>
<!DOCTYPE svg PUBLIC "-//W3C//DTD SVG 1.1//EN" "http://www.w3.org/Graphics/SVG/1.1/DTD/svg11.dtd" >
<svg xmlns="http://www.w3.org/2000/svg" xmlns:xlink="http://www.w3.org/1999/xlink" version="1.1" viewBox="-10 0 1090 1000">
   <path fill="currentColor"
d="M540 90q179 0 299.5 123t120.5 297q0 175 -121.5 297.5t-298.5 122.5q-181 0 -300.5 -122t-119.5 -298q0 -174 120.5 -297t299.5 -123zM170 510q0 154 105 262t265 108q157 0 263.5 -109t106.5 -261q0 -151 -106 -260.5t-264 -109.5t-264 109.5t-106 260.5zM467 472
q20 -22 38.5 -27t47.5 -5q64 0 100.5 48.5t36.5 111.5q0 66 -41 113t-109 47q-81 0 -125.5 -67.5t-44.5 -192.5q0 -123 45.5 -191.5t124.5 -68.5q57 0 95.5 45t40.5 101h-87q-8 -49 -49 -49q-21 0 -36 13.5t-22.5 39.5t-10 41.5t-4.5 40.5zM470 600q0 31 20.5 55.5
t49.5 24.5t49.5 -24.5t20.5 -55.5t-20.5 -55.5t-49.5 -24.5t-49.5 24.5t-20.5 55.5z" />
</svg>
