<?xml version="1.0" standalone="no"?>
<!DOCTYPE svg PUBLIC "-//W3C//DTD SVG 1.1//EN" "http://www.w3.org/Graphics/SVG/1.1/DTD/svg11.dtd" >
<svg xmlns="http://www.w3.org/2000/svg" xmlns:xlink="http://www.w3.org/1999/xlink" version="1.1" viewBox="-10 0 1575 1000">
   <path fill="currentColor"
d="M99 800zM804 655l-61 164h117zM898 932l-27 -77h-137l-27 77h-55l111 -299h82l110 299h-57zM551 932v-131h-131v131h-56v-299h56v123h131v-123h57v299h-57zM303 847q0 43 -34.5 66.5t-80.5 23.5q-45 0 -85 -11v-42q34 17 80 17q25 0 44.5 -12t19.5 -37q0 -28 -58 -52
l-32 -13q-58 -22 -58 -76q0 -41 35.5 -62t82.5 -21q40 0 69 8v39q-30 -11 -65 -11q-25 0 -45.5 10.5t-20.5 33.5q0 26 50 47l32 13q66 25 66 79zM1286 932v-299h186v36h-132v93h127v35h-127v99h136v36h-190zM1157 717q0 -47 -65 -47h-36v98h35q25 0 45.5 -12.5t20.5 -38.5z
M1169 932l-31 -85q-15 -42 -53 -42h-29v127h-55v-299h116q37 0 67.5 19.5t30.5 57.5q0 49 -66 71v9q32 6 46 43l36 99h-62zM613 370q-2 -18 -14 -43q-16 -30 -26 -38l-58 81h98zM660 370h72l-72 -204l-59 84q59 51 59 120zM918 138h-217l72 206zM1085 385q6 13 -2 24
q-10 8 -20 8q-15 0 -22 -16l-48 -132q-32 17 -50 45q-19 33 -19 71q0 58 36 93q37 37 96 37q54 0 91 -36q40 -40 40 -94q0 -50 -40 -92q-41 -39 -91 -39l-17 2zM875 385q0 -53 29 -99q29 -42 75 -63l-22 -57l-171 240q-3 11 -23 11h-103q-12 65 -62 107q-51 42 -116 42
q-75 0 -130 -53q-53 -53 -53 -130q0 -74 52 -126q53 -53 131 -53q43 0 80 19l80 -113l-24 -70h-35q-24 0 -24 -25q0 -23 24 -23h132q23 0 23 24t-23 24h-48l17 51h315q11 0 19 -8q7 -6 7 -17q0 -12 -7 -19q-9 -7 -19 -7h-77q-24 0 -24 -25q0 -23 24 -23h77q27 0 52 22
q22 22 22 52q0 27 -20 52q-20 20 -49 20h-5l25 71l31 -5q75 0 128 53q52 53 52 128t-53 128q-51 53 -126 53q-77 0 -128 -53q-53 -55 -53 -128zM451 380l82 -117q-29 -11 -51 -11q-55 0 -96 39q-36 37 -36 92q0 62 36 95q34 37 96 37q48 0 83 -29q33 -30 44 -69h-140
q-24 0 -24 -21q0 -11 6 -16z" />
</svg>
