<?xml version="1.0" standalone="no"?>
<!DOCTYPE svg PUBLIC "-//W3C//DTD SVG 1.1//EN" "http://www.w3.org/Graphics/SVG/1.1/DTD/svg11.dtd" >
<svg xmlns="http://www.w3.org/2000/svg" xmlns:xlink="http://www.w3.org/1999/xlink" version="1.1" viewBox="-10 0 1043 1000">
   <path fill="currentColor"
d="M101 1h831v862h-831v-862zM896 826v-788h-758v788h758zM522 277q-10 1 -23 -1.5t-30.5 -9t-30.5 -22.5t-15 -39q-4 -43 36.5 -67t71.5 -23q41 1 74.5 24t26.5 66q-6 35 -41 53t-69 19zM687 343q7 -5 18 -12.5t35 -18t35 -6.5q16 5 15 25.5t-17 37.5q-15 15 -37 29.5
t-34 16.5q-16 2 -71 -25q5 6 12.5 39.5t4.5 44.5q15 4 19 7t3 9q-2 16 -9 43q14 8 36.5 39t22.5 53q0 15 -9 27t-16 16t-20 10q15 63 3 73q-6 5 -18.5 5.5t-28 -7t-24.5 -24.5q-7 -13 -9 -24.5t0 -17t5 -7.5q9 -4 15 -10q12 -18 3 -36t-21 -26q-29 16 -79 16q-23 0 -42.5 -4
t-28.5 -8l-8 -4q-12 8 -21 26t3 36q6 6 15 10q3 2 5 7.5t0 17t-9 24.5q-9 17 -24.5 24.5t-28 7t-18.5 -5.5q-12 -10 3 -73q-13 -6 -20 -10t-16 -16t-9 -27q0 -22 22.5 -53t36.5 -39q-7 -27 -9 -43q-1 -6 3 -9t19 -7q-3 -11 4.5 -44.5t12.5 -39.5q-55 27 -71 25
q-12 -2 -34 -16.5t-37 -29.5q-16 -17 -17 -37.5t15 -25.5q11 -4 33 5.5t38 20.5l17 11q72 -54 166 -54t166 54zM523 603l9 1q37 -3 56 -12.5t35 -33.5q15 -22 21 -63q-49 -21 -123 -21q-73 0 -127 20q0 33 17 59q32 50 112 50z" />
</svg>
