<?xml version="1.0" standalone="no"?>
<!DOCTYPE svg PUBLIC "-//W3C//DTD SVG 1.1//EN" "http://www.w3.org/Graphics/SVG/1.1/DTD/svg11.dtd" >
<svg xmlns="http://www.w3.org/2000/svg" xmlns:xlink="http://www.w3.org/1999/xlink" version="1.1" viewBox="-10 0 744 1000">
   <path fill="currentColor"
d="M654 475q8 11 6.5 22.5t-12.5 18.5q-10 6 -22.5 3t-20.5 -13l-154 -174l-11 182l87 215l87 222q4 16 -4 30.5t-24 18.5t-30.5 -5.5t-18.5 -25.5l-82 -201l-72 -152l-49 145q-2 6 -9 17.5t-8 14.5l-106 187q-8 15 -25.5 19t-32.5 -4t-18.5 -24t5.5 -31l108 -195l56 -221
l2 -224l-47 46l-70 153q-4 12 -15.5 18t-22.5 2q-11 -3 -16.5 -14t-1.5 -23l71 -157q2 -9 10 -17l110 -122q7 -9 16 -13q17 -8 36 -8q32 0 55 23q8 8 12 18zM330 68q0 -28 21.5 -48t51.5 -20t51.5 20t21.5 48t-21.5 47.5t-51.5 19.5t-51.5 -19.5t-21.5 -47.5z" />
</svg>
