<?xml version="1.0" standalone="no"?>
<!DOCTYPE svg PUBLIC "-//W3C//DTD SVG 1.1//EN" "http://www.w3.org/Graphics/SVG/1.1/DTD/svg11.dtd" >
<svg xmlns="http://www.w3.org/2000/svg" xmlns:xlink="http://www.w3.org/1999/xlink" version="1.1" viewBox="-10 0 1607 1000">
   <path fill="currentColor"
d="M1372 689v311h-74v-311h-118v-56h310v56h-118zM1009 1000l-148 -328v328h-63v-367h113l148 329v-329h64v367h-114zM482 1000v-367h235v47h-164v110h157v47h-157v116h169v47h-240zM324 737q0 -58 -82 -58h-45v120h43q33 0 58.5 -15t25.5 -47zM339 1000l-38 -105
q-18 -51 -68 -51h-36v156h-71v-367h148q48 0 85.5 24t37.5 71q0 61 -82 87v10q38 7 56 53l46 122h-78zM412 63l-134 155h297v-155h-163zM659 218h327q15 0 15 -12q0 -10 -3 -13q-31 -36 -70 -70q-48 -43 -65 -53l-23 -7h-181v155zM1140 487q0 -38 27 -65.5t65 -27.5
q37 0 64.5 27.5t27.5 65.5q0 36 -27.5 63t-64.5 27q-38 0 -65 -27t-27 -63zM275 487q0 -38 27 -65.5t65 -27.5q37 0 63.5 27.5t26.5 65.5q0 36 -26.5 63t-63.5 27q-38 0 -65 -27t-27 -63zM1486 328v119h-109q-11 -51 -51.5 -84t-93.5 -33q-54 0 -94.5 33t-51.5 84h-575
q-10 -51 -50.5 -84t-93.5 -33q-54 0 -94.5 33t-50.5 84h-95v-195q0 -42 37 -79l157 -162q14 -19 42 -19h476q38 0 54.5 6.5t46.5 34.5l150 140l317 73q79 17 79 82z" />
</svg>
