<?xml version="1.0" standalone="no"?>
<!DOCTYPE svg PUBLIC "-//W3C//DTD SVG 1.1//EN" "http://www.w3.org/Graphics/SVG/1.1/DTD/svg11.dtd" >
<svg xmlns="http://www.w3.org/2000/svg" xmlns:xlink="http://www.w3.org/1999/xlink" version="1.1" viewBox="-10 0 1649 1000">
   <path fill="currentColor"
d="M824 655l-61 164h117zM918 932l-27 -77h-137l-27 77h-55l111 -299h82l110 299h-57zM571 932v-131h-131v131h-56v-299h56v123h131v-123h57v299h-57zM323 847q0 43 -34.5 66.5t-80.5 23.5q-45 0 -85 -11v-42q34 17 80 17q25 0 44.5 -12t19.5 -37q0 -28 -58 -52l-32 -13
q-58 -22 -58 -76q0 -41 35.5 -62t82.5 -21q40 0 69 8v39q-30 -11 -65 -11q-25 0 -45.5 10.5t-20.5 33.5q0 26 50 47l32 13q66 25 66 79zM1306 932v-299h186v36h-132v93h127v35h-127v99h136v36h-190zM412 63l-134 155h297v-155h-163zM659 218h327q15 0 15 -12q0 -10 -3 -13
q-31 -36 -70 -70q-48 -43 -65 -53l-23 -7h-181v155zM1140 487q0 -38 27 -65.5t65 -27.5q37 0 64.5 27.5t27.5 65.5q0 36 -27.5 63t-64.5 27q-38 0 -65 -27t-27 -63zM275 487q0 -38 27 -65.5t65 -27.5q37 0 63.5 27.5t26.5 65.5q0 36 -26.5 63t-63.5 27q-38 0 -65 -27
t-27 -63zM1486 328v119h-109q-11 -51 -51.5 -84t-93.5 -33q-54 0 -94.5 33t-51.5 84h-575q-10 -51 -50.5 -84t-93.5 -33q-54 0 -94.5 33t-50.5 84h-95v-195q0 -42 37 -79l157 -162q14 -19 42 -19h476q38 0 54.5 6.5t46.5 34.5l150 140l317 73q79 17 79 82zM1177 717
q0 -47 -65 -47h-36v98h35q25 0 45.5 -12.5t20.5 -38.5zM1189 932l-31 -85q-15 -42 -53 -42h-29v127h-55v-299h116q37 0 67.5 19.5t30.5 57.5q0 49 -66 71v9q32 6 46 43l36 99h-62z" />
</svg>
