<?xml version="1.0" standalone="no"?>
<!DOCTYPE svg PUBLIC "-//W3C//DTD SVG 1.1//EN" "http://www.w3.org/Graphics/SVG/1.1/DTD/svg11.dtd" >
<svg xmlns="http://www.w3.org/2000/svg" xmlns:xlink="http://www.w3.org/1999/xlink" version="1.1" viewBox="-10 0 1090 1000">
   <path fill="currentColor"
d="M540 90q179 0 299.5 123t120.5 297q0 175 -121.5 297.5t-298.5 122.5q-181 0 -300.5 -122t-119.5 -298q0 -174 120.5 -297t299.5 -123zM170 510q0 154 105 262t265 108q157 0 263.5 -109t106.5 -261q0 -151 -106 -260.5t-264 -109.5t-264 109.5t-106 260.5zM750 600
q0 47 -36.5 93.5t-103.5 46.5h-210v-480h190q73 0 101.5 40t28.5 90q0 42 -22 66t-48 24q39 0 69.5 34.5t30.5 85.5zM500 360v80h80q40 0 40 -40t-40 -40h-80zM500 540v100h100q26 0 38 -11.5t12 -38.5q0 -50 -50 -50h-100z" />
</svg>
