<?xml version="1.0" standalone="no"?>
<!DOCTYPE svg PUBLIC "-//W3C//DTD SVG 1.1//EN" "http://www.w3.org/Graphics/SVG/1.1/DTD/svg11.dtd" >
<svg xmlns="http://www.w3.org/2000/svg" xmlns:xlink="http://www.w3.org/1999/xlink" version="1.1" viewBox="-10 0 1242 1000">
   <path fill="currentColor"
d="M1139 743v-56h-724v56h724zM162 134v54q0 27 35 79t35 84t-35 84.5t-35 78.5v54h-59v-54q0 -29 34.5 -81.5t34.5 -81.5t-34.5 -82t-34.5 -81v-54h59zM103 630h59v170h-59v-170zM290 134v54q0 27 34.5 79t34.5 84t-34.5 84.5t-34.5 78.5v54h-59v-54q0 -29 34.5 -81.5
t34.5 -81.5t-34.5 -82t-34.5 -81v-54h59zM231 630h59v170h-59v-170zM358 630h838v170h-838v-170z" />
</svg>
