<?xml version="1.0" standalone="no"?>
<!DOCTYPE svg PUBLIC "-//W3C//DTD SVG 1.1//EN" "http://www.w3.org/Graphics/SVG/1.1/DTD/svg11.dtd" >
<svg xmlns="http://www.w3.org/2000/svg" xmlns:xlink="http://www.w3.org/1999/xlink" version="1.1" viewBox="-10 0 1549 1000">
   <path fill="currentColor"
d="M0 800zM200 800zM883 565l-118 -271h-69v384h59v-267l117 267h69v-384h-58v271zM628 678v-384h-62v384h62zM351 436v-142h-61v384h61v-159l109 159h79l-149 -202l138 -182h-74zM1265 482q0 -88 -36.5 -140t-99.5 -52q-67 0 -103 51t-36 149q0 88 36 140t99 52
q67 0 103.5 -51t36.5 -149zM1202 482q0 77 -21.5 111t-55.5 34q-36 0 -54.5 -39t-18.5 -98q0 -76 22 -110.5t55 -34.5q36 0 54.5 39t18.5 98zM932 74h-89v89h89v-89zM704 74h-88v89h88v-89zM477 74h-89v89h89v-89zM1160 818h-89v89h89v-89zM932 818h-89v89h89v-89zM704 818
h-88v89h88v-89zM477 818h-89v89h89v-89zM1339 818h-41v89h41v58h-1139v-58h49v-89h-49v-655h49v-89h-49v-58h1139v58h-41v89h41v655zM1160 74h-89v89h89v-89z" />
</svg>
