<?xml version="1.0" standalone="no"?>
<!DOCTYPE svg PUBLIC "-//W3C//DTD SVG 1.1//EN" "http://www.w3.org/Graphics/SVG/1.1/DTD/svg11.dtd" >
<svg xmlns="http://www.w3.org/2000/svg" xmlns:xlink="http://www.w3.org/1999/xlink" version="1.1" viewBox="-10 0 1210 1000">
   <path fill="currentColor"
d="M1070 830v-660q0 -56 -41 -98t-99 -42h-660q-56 0 -98 41.5t-42 98.5v660q0 56 41 98t99 42h660q56 0 97 -40.5t43 -99.5zM1100 830q0 69 -49.5 119.5t-120.5 50.5h-660q-70 0 -120 -49t-50 -121v-660q0 -69 49.5 -119.5t120.5 -50.5h660q68 0 119 50t51 120v660z
M600 167q-111 0 -174 73.5t-55 184.5h119q0 -56 26 -101t78 -45q42 0 67.5 26t25.5 71q0 23 -7 42.5t-25 37.5t-28 26.5t-38.5 27t-34.5 22.5q-38 26 -53.5 37.5t-45.5 35.5t-42.5 41.5t-29 44.5t-22.5 57t-6 66h465v-110h-298q25 -34 66 -65.5t78.5 -55t73 -52t56.5 -69.5
t21 -94q0 -90 -64.5 -145.5t-152.5 -55.5z" />
</svg>
