<?xml version="1.0" standalone="no"?>
<!DOCTYPE svg PUBLIC "-//W3C//DTD SVG 1.1//EN" "http://www.w3.org/Graphics/SVG/1.1/DTD/svg11.dtd" >
<svg xmlns="http://www.w3.org/2000/svg" xmlns:xlink="http://www.w3.org/1999/xlink" version="1.1" viewBox="-10 0 1210 1000">
   <path fill="currentColor"
d="M738 537h79q40 0 62 21.5t22 62.5q0 80 -84 80h-79v-164zM834 793q81 0 132 -43.5t51 -123.5q0 -53 -27 -89.5t-71 -50.5q39 -16 62.5 -50.5t23.5 -81.5q0 -70 -48 -110t-119 -40h-215v589h211zM738 296h73q79 0 79 71q0 38 -21 58.5t-59 20.5h-72v-150zM336 803
q84 0 145 -50.5t61 -128.5q0 -62 -28.5 -97t-92.5 -72l-45 -26q-31 -18 -44.5 -34.5t-13.5 -43.5q0 -31 23.5 -48t55.5 -17q53 0 117 33l6 -104q-84 -20 -132 -20q-45 0 -89.5 14.5t-80.5 53.5t-36 95q0 108 102 159l58 29q35 17 49 35.5t14 52.5q0 28 -19 51.5t-66 23.5
q-70 0 -130 -39l-6 106q63 27 152 27zM1100 830q0 69 -49.5 119.5t-120.5 50.5h-660q-70 0 -120 -49t-50 -121v-660q0 -69 49.5 -119.5t120.5 -50.5h660q68 0 119 50t51 120v660z" />
</svg>
