<?xml version="1.0" standalone="no"?>
<!DOCTYPE svg PUBLIC "-//W3C//DTD SVG 1.1//EN" "http://www.w3.org/Graphics/SVG/1.1/DTD/svg11.dtd" >
<svg xmlns="http://www.w3.org/2000/svg" xmlns:xlink="http://www.w3.org/1999/xlink" version="1.1" viewBox="-10 0 1724 1000">
   <path fill="currentColor"
d="M1243 317l-168 -15l-65 97h-45l47 -117l-47 -118h45l65 99l168 -17l-72 -261h67l134 261h204q32 0 54 10q19 10 19 26q0 13 -18 25q-19 10 -55 10h-204l-134 260h-67zM380 686v-161h-193v161h193zM981 480q47 0 59 49l42 157v178h-78q0 -59 -41 -99.5t-98 -40.5
q-56 0 -97 42t-41 98h-234q0 -79 -67 -120q-34 -20 -70 -20q-35 0 -69 20q-69 41 -69 120h-71v-335q0 -23 14 -36t37 -13h783zM1043 686l-45 -161h-109v161h154zM849 686v-161h-194v161h194zM941 865q0 33 -23 56.5t-57 23.5q-32 0 -55.5 -24t-23.5 -56q0 -33 23 -56.5
t56 -23.5q34 0 57 23t23 57zM430 865q0 33 -23 56.5t-56 23.5t-57 -23.5t-24 -56.5q0 -34 23.5 -57t57.5 -23q33 0 56 23t23 57zM420 525v161h195v-161h-195z" />
</svg>
