<?xml version="1.0" standalone="no"?>
<!DOCTYPE svg PUBLIC "-//W3C//DTD SVG 1.1//EN" "http://www.w3.org/Graphics/SVG/1.1/DTD/svg11.dtd" >
<svg xmlns="http://www.w3.org/2000/svg" xmlns:xlink="http://www.w3.org/1999/xlink" version="1.1" viewBox="-10 0 1207 1000">
   <path fill="currentColor"
d="M1060 830v-660q0 -56 -41 -98t-99 -42h-660q-56 0 -98 41.5t-42 98.5v660q0 56 41 98t99 42h660q56 0 97 -40.5t43 -99.5zM1090 830q0 69 -49.5 119.5t-120.5 50.5h-660q-70 0 -120 -49t-50 -121v-660q0 -69 49.5 -119.5t120.5 -50.5h660q68 0 119 50t51 120v660z
M527 272h127v139h-127v122h-136v-122h-129v-139h129v-127h136v127zM768 701q-34 -12 -45 -40.5t-4 -52.5q15 -53 142 -397q16 -47 54 -36q36 10 29 58q-2 7 -40 205t-43 215q-5 13 -14.5 25t-30.5 23.5t-48 -0.5zM624 382v-81h-126v-126h-78v126h-129v81h129v122h78v-122
h126zM269 760q3 -36 29 -52.5t51 -14.5q12 1 207 30.5t210 30.5q50 10 46 47q-7 38 -51 41q-417 0 -429 -2q-10 -1 -20.5 -5.5t-22.5 -13t-18 -24.5t-2 -37z" />
</svg>
