<?xml version="1.0" standalone="no"?>
<!DOCTYPE svg PUBLIC "-//W3C//DTD SVG 1.1//EN" "http://www.w3.org/Graphics/SVG/1.1/DTD/svg11.dtd" >
<svg xmlns="http://www.w3.org/2000/svg" xmlns:xlink="http://www.w3.org/1999/xlink" version="1.1" viewBox="-10 0 1412 1000">
   <path fill="currentColor"
d="M270 243v205h154q0 -90 -35 -148q-34 -57 -119 -57zM1130 266l-396 -13q-60 -2 -94 49q-35 53 -35 146h525v-182zM488 448h53q0 -117 50 -185q55 -74 126 -71l413 13v-72h78v667h-78v-189h-855v189h-82v-676h77v59q46 0 95 20t73 56q50 75 50 189z" />
</svg>
