<?xml version="1.0" standalone="no"?>
<!DOCTYPE svg PUBLIC "-//W3C//DTD SVG 1.1//EN" "http://www.w3.org/Graphics/SVG/1.1/DTD/svg11.dtd" >
<svg xmlns="http://www.w3.org/2000/svg" xmlns:xlink="http://www.w3.org/1999/xlink" version="1.1" viewBox="-10 0 550 1000">
   <path fill="currentColor"
d="M335 744q0 61 -19 90t-46 29q-28 0 -46.5 -29t-18.5 -90q0 -59 16 -142.5t16 -117.5q0 -53 -7.5 -70t-24.5 -17q-8 0 -35 16.5t-52 16.5q-24 0 -39 -20t-15 -45q0 -26 15 -45.5t39 -19.5q25 0 52 16t35 16q15 0 23.5 -19t8.5 -45q-1 -34 -16.5 -64t-15.5 -55
q0 -24 19.5 -39.5t45.5 -15.5q25 0 45 15.5t20 39.5q0 31 -16.5 58.5t-16.5 60.5q0 26 8.5 45t24.5 19q8 0 35 -16t52 -16q23 0 38 19.5t15 45.5q0 25 -15 45t-38 20q-25 0 -52 -16.5t-35 -16.5q-18 0 -25.5 17t-7.5 70q0 34 16.5 117.5t16.5 142.5z" />
</svg>
