<?xml version="1.0" standalone="no"?>
<!DOCTYPE svg PUBLIC "-//W3C//DTD SVG 1.1//EN" "http://www.w3.org/Graphics/SVG/1.1/DTD/svg11.dtd" >
<svg xmlns="http://www.w3.org/2000/svg" xmlns:xlink="http://www.w3.org/1999/xlink" version="1.1" viewBox="-10 0 955 1000">
   <path fill="currentColor"
d="M546 508l200 200q35 34 35 60q0 17 -18 34q-17 16 -35 16q-22 0 -56 -32l-203 -202l-202 202q-32 33 -57 33q-18 0 -35 -17q-16 -17 -16 -34q0 -27 33 -60l199 -200l-140 -140l-76 74l-95 -92l231 -232l94 94l-76 78l140 140l140 -140l-77 -78l93 -94l197 195l-26 163
l-109 -108z" />
</svg>
