<?xml version="1.0" standalone="no"?>
<!DOCTYPE svg PUBLIC "-//W3C//DTD SVG 1.1//EN" "http://www.w3.org/Graphics/SVG/1.1/DTD/svg11.dtd" >
<svg xmlns="http://www.w3.org/2000/svg" xmlns:xlink="http://www.w3.org/1999/xlink" version="1.1" viewBox="-10 0 1210 1000">
   <path fill="currentColor"
d="M1101 854v-660q0 -56 -41 -98t-99 -42h-660q-56 0 -98 41.5t-42 98.5v660q0 56 41 98t99 42h660q56 0 97 -40.5t43 -99.5zM1131 854q0 69 -49.5 119.5t-120.5 50.5h-660q-70 0 -120 -49t-50 -121v-660q0 -69 49.5 -119.5t120.5 -50.5h660q68 0 119 50t51 120v660z
M341 779h98v-494h-81q-8 56 -44.5 77t-98.5 21v76h126v320zM866 285q-85 0 -133.5 56t-42.5 141h92q0 -43 20 -77t59 -34q33 0 53 19.5t20 55.5q0 18 -5.5 32.5t-19.5 28t-22 20t-30.5 20.5t-26.5 17q-35 25 -49 35.5t-39.5 33t-35.5 40.5t-19 46t-9 61h357v-84h-229
q19 -26 50.5 -50t60.5 -42.5t56 -40t43.5 -53t16.5 -72.5q0 -68 -50 -110.5t-117 -42.5zM640 209h59l-171 625h-64z" />
</svg>
