<?xml version="1.0" standalone="no"?>
<!DOCTYPE svg PUBLIC "-//W3C//DTD SVG 1.1//EN" "http://www.w3.org/Graphics/SVG/1.1/DTD/svg11.dtd" >
<svg xmlns="http://www.w3.org/2000/svg" xmlns:xlink="http://www.w3.org/1999/xlink" version="1.1" viewBox="-10 0 1090 1000">
   <path fill="currentColor"
d="M973 148l-2 37l-864 140l2 -35zM374 835v-109h-119q-13 0 -22.5 -10.5t-9.5 -25.5v-181h94v123l16 23h97v180h-56zM268 370q22 0 38.5 16t16.5 39t-16 39.5t-39 16.5t-39.5 -16.5t-16.5 -39.5t16.5 -39t39.5 -16zM763 284q23 0 39 16t16 39t-16 39.5t-39 16.5
t-39.5 -16.5t-16.5 -39.5t16.5 -39t39.5 -16zM869 749v-109h-119q-13 0 -22.5 -10.5t-9.5 -25.5v-181h94v123l16 23h97v180h-56zM517 327q23 0 39 16.5t16 38.5q0 23 -16 39.5t-39 16.5t-39.5 -16.5t-16.5 -39.5t16.5 -39t39.5 -16zM623 792v-109h-119q-13 0 -22.5 -10.5
t-9.5 -25.5v-181h94v123l16 23h97v180h-56z" />
</svg>
