<?xml version="1.0" standalone="no"?>
<!DOCTYPE svg PUBLIC "-//W3C//DTD SVG 1.1//EN" "http://www.w3.org/Graphics/SVG/1.1/DTD/svg11.dtd" >
<svg xmlns="http://www.w3.org/2000/svg" xmlns:xlink="http://www.w3.org/1999/xlink" version="1.1" viewBox="-10 0 3722 1000">
   <path fill="currentColor"
d="M457 363l215 -230h166l-210 230h-171zM1158 516v169h160q23 0 36.5 -2t32 -9.5t27.5 -27.5t9 -53q0 -27 -7.5 -44t-22 -23.5t-24 -8t-24.5 -1.5h-187zM1158 248v153h155q94 0 94 -77q0 -76 -83 -76h-166zM1020 800v-667h277q65 0 113.5 16t72 37t37.5 49t16.5 43.5
t2.5 29.5q0 33 -15 71.5t-45 64.5q77 67 77 171q0 77 -72 142q-49 43 -160 43h-304zM1837 516v169h160q18 0 28.5 -0.5t27.5 -5.5t26 -14t16.5 -27.5t7.5 -44.5q0 -27 -7.5 -44t-22 -23.5t-24 -8t-24.5 -1.5h-188zM1837 248v153h155q93 0 93 -77q0 -76 -82 -76h-166z
M1699 800v-667h276q65 0 113.5 16t72.5 37t38 49t16.5 43.5t2.5 29.5q0 91 -60 136q77 69 77 171q0 78 -73 142q-47 43 -159 43h-304zM634 127l-109 120q-92 0 -157 64t-65 155q0 88 65 151.5t157 63.5q88 0 153 -64t65 -151q0 -75 -47 -135l95 -101q89 100 89 236
q0 143 -105 247.5t-250 104.5q-149 0 -254.5 -104t-105.5 -248q0 -149 105 -252.5t255 -103.5q55 0 109 17zM3310 800h-351l-159 -192l286 -475h616l-78 109h-408l-239 398h439zM2385 681l349 -548h202l-437 685z" />
</svg>
